<?xml version="1.0" encoding="UTF-8"?>
<svg id="Layer_2" data-name="Layer 2" xmlns="http://www.w3.org/2000/svg" viewBox="0 0 330.39 367.74">
  <g>
    <path d="M325.31,201.21c-.98,90.96-70.42,163.96-161.39,162.97-90.96-.98-159.83-75.48-158.84-166.44C6.06,106.78,76.4,45.6,167.36,46.58c90.96.98,158.93,63.67,157.95,154.63Z" fill="#fff2d2"/>
    <g>
      <path d="M307.34,193.54c-.89,82.08-63.55,147.95-145.63,147.06-82.08-.89-144.22-68.11-143.33-150.18.89-82.08,64.35-137.29,146.43-136.4,82.08.89,143.41,57.45,142.53,139.53Z" fill="#153f69"/>
      <g>
        <polygon points="133.53 141.67 124.3 141.62 128.88 148.53 133.53 141.67" fill="#216091"/>
        <polygon points="143.66 141.73 134.43 141.68 139.01 148.58 143.66 141.73" fill="#216091"/>
        <polygon points="103.53 156.73 107.68 150.62 99.44 150.57 103.53 156.73" fill="#216091"/>
        <polygon points="113.65 156.79 117.8 150.67 109.57 150.63 113.65 156.79" fill="#216091"/>
        <polygon points="113.29 141.56 104.06 141.51 108.64 148.42 113.29 141.56" fill="#216091"/>
        <polygon points="123.78 156.84 127.93 150.72 119.69 150.68 123.78 156.84" fill="#216091"/>
        <polygon points="123.41 141.62 114.18 141.57 118.76 148.47 123.41 141.62" fill="#216091"/>
        <polygon points="133.9 156.9 138.05 150.78 129.81 150.73 133.9 156.9" fill="#216091"/>
        <polygon points="164.27 157.06 168.42 150.94 160.18 150.9 164.27 157.06" fill="#216091"/>
        <polygon points="170.31 150.95 170.25 150.95 174.34 157.11 174.37 157.07 174.39 157.11 178.55 151 178.49 151 176.29 150.98 170.31 150.95 170.31 150.95" fill="#216091"/>
        <polygon points="179.47 148.76 179.5 148.8 184.15 141.94 177.45 141.91 174.87 141.89 179.44 148.8 179.47 148.76" fill="#216091"/>
        <polygon points="163.9 141.83 154.67 141.79 159.25 148.69 163.9 141.83" fill="#216091"/>
        <polygon points="153.78 141.78 144.55 141.73 149.13 148.64 153.78 141.78" fill="#216091"/>
        <polygon points="144.02 156.95 148.17 150.83 139.94 150.79 144.02 156.95" fill="#216091"/>
        <polygon points="154.15 157 158.3 150.89 150.06 150.84 154.15 157" fill="#216091"/>
        <path d="M24.3,150.17c-.59,1.99-1.13,4-1.64,6.04l4.09-6.02h-2.45Z" fill="#216091"/>
        <polygon points="47.92 148.05 47.95 148.09 52.6 141.24 45.85 141.2 43.32 141.19 47.89 148.09 47.92 148.05" fill="#216091"/>
        <polygon points="52.91 156.46 57.06 150.35 48.83 150.3 52.91 156.46" fill="#216091"/>
        <polygon points="103.16 141.51 93.93 141.46 98.51 148.36 103.16 141.51" fill="#216091"/>
        <polygon points="42.79 156.41 42.82 156.37 42.84 156.41 47 150.29 46.94 150.29 38.7 150.25 42.79 156.41" fill="#216091"/>
        <polygon points="184.46 157.17 188.61 151.05 180.38 151.01 184.46 157.17" fill="#216091"/>
        <path d="M32.36,141.13l-5.01-.03c-.51,1.36-1,2.74-1.47,4.12l1.83,2.76,4.65-6.85Z" fill="#216091"/>
        <polygon points="36.87 150.24 28.63 150.19 32.72 156.35 36.87 150.24" fill="#216091"/>
        <polygon points="62.67 141.29 53.44 141.24 58.02 148.15 62.67 141.29" fill="#216091"/>
        <polygon points="83.28 156.63 87.43 150.51 79.2 150.46 83.28 156.63" fill="#216091"/>
        <polygon points="93.04 141.46 83.81 141.41 88.39 148.31 93.04 141.46" fill="#216091"/>
        <polygon points="93.41 156.68 97.56 150.56 89.32 150.52 93.41 156.68" fill="#216091"/>
        <polygon points="72.79 141.35 63.56 141.3 68.14 148.2 72.79 141.35" fill="#216091"/>
        <polygon points="63.04 156.52 67.19 150.4 58.95 150.36 63.04 156.52" fill="#216091"/>
        <polygon points="73.16 156.57 77.31 150.45 69.07 150.41 73.16 156.57" fill="#216091"/>
        <polygon points="82.92 141.4 73.69 141.35 78.27 148.26 82.92 141.4" fill="#216091"/>
        <polygon points="214.47 142.11 205.24 142.06 209.82 148.96 214.47 142.11" fill="#216091"/>
        <polygon points="265.45 157.6 269.6 151.48 261.36 151.44 265.45 157.6" fill="#216091"/>
        <polygon points="295.45 142.54 286.22 142.49 290.8 149.39 295.45 142.54" fill="#216091"/>
        <polygon points="295.82 157.76 299.97 151.65 291.73 151.6 295.82 157.76" fill="#216091"/>
        <polygon points="275.21 142.43 265.98 142.38 270.56 149.29 275.21 142.43" fill="#216091"/>
        <path d="M302.03,152c-.03-.12-.06-.23-.1-.35h-.13s.23.35.23.35Z" fill="#216091"/>
        <polygon points="285.33 142.49 276.1 142.44 280.68 149.34 285.33 142.49" fill="#216091"/>
        <polygon points="275.57 157.66 279.72 151.54 271.49 151.49 275.57 157.66" fill="#216091"/>
        <polygon points="285.7 157.71 289.85 151.59 281.61 151.55 285.7 157.71" fill="#216091"/>
        <path d="M300.87,149.45l.03-.04.03.04.25-.37c-.67-2.2-1.39-4.38-2.16-6.52h-2.73s4.58,6.89,4.58,6.89Z" fill="#216091"/>
        <polygon points="169.35 148.7 169.38 148.74 174.03 141.89 173.97 141.89 171.45 141.88 164.8 141.84 164.8 141.84 164.74 141.84 169.32 148.74 169.35 148.7" fill="#216091"/>
        <polygon points="37.8 148 37.83 148.04 42.48 141.18 42.42 141.18 39.95 141.17 33.25 141.13 33.25 141.13 33.19 141.13 37.77 148.04 37.8 148" fill="#216091"/>
        <polygon points="194.22 142 184.99 141.95 189.57 148.85 194.22 142" fill="#216091"/>
        <polygon points="214.83 157.33 218.98 151.21 210.75 151.17 214.83 157.33" fill="#216091"/>
        <polygon points="265.08 142.38 255.85 142.33 260.43 149.23 265.08 142.38" fill="#216091"/>
        <polygon points="194.59 157.22 198.74 151.1 190.5 151.06 194.59 157.22" fill="#216091"/>
        <polygon points="224.96 157.38 229.11 151.27 220.87 151.22 224.96 157.38" fill="#216091"/>
        <polygon points="204.71 157.28 208.86 151.16 200.62 151.11 204.71 157.28" fill="#216091"/>
        <polygon points="204.34 142.05 195.11 142 199.69 148.91 204.34 142.05" fill="#216091"/>
        <polygon points="224.59 142.16 215.36 142.11 219.94 149.01 224.59 142.16" fill="#216091"/>
        <polygon points="234.71 142.21 225.48 142.16 230.06 149.07 234.71 142.21" fill="#216091"/>
        <polygon points="254.96 142.32 245.73 142.27 250.31 149.18 254.96 142.32" fill="#216091"/>
        <polygon points="255.33 157.55 259.48 151.43 251.24 151.39 255.33 157.55" fill="#216091"/>
        <polygon points="245.2 157.49 249.35 151.38 241.12 151.33 245.2 157.49" fill="#216091"/>
        <polygon points="244.84 142.27 235.61 142.22 240.19 149.12 244.84 142.27" fill="#216091"/>
        <polygon points="235.08 157.44 239.23 151.32 230.99 151.28 235.08 157.44" fill="#216091"/>
        <polygon points="238.14 169.48 231.89 169.45 234.99 174.12 238.14 169.48" fill="#216091"/>
        <polygon points="243.75 160.43 236.5 160.39 240.1 165.81 243.75 160.43" fill="#216091"/>
        <polygon points="233.62 160.37 226.38 160.33 229.97 165.75 233.62 160.37" fill="#216091"/>
        <polygon points="253.87 160.48 246.63 160.44 250.22 165.86 253.87 160.48" fill="#216091"/>
        <polygon points="258.39 169.59 252.14 169.56 255.24 174.23 258.39 169.59" fill="#216091"/>
        <polygon points="187.52 169.21 181.27 169.18 184.37 173.85 187.52 169.21" fill="#216091"/>
        <polygon points="248.26 169.53 242.01 169.5 245.11 174.18 248.26 169.53" fill="#216091"/>
        <polygon points="223.5 160.32 216.26 160.28 219.85 165.7 223.5 160.32" fill="#216091"/>
        <polygon points="263.99 160.54 256.75 160.5 260.34 165.92 263.99 160.54" fill="#216091"/>
        <polygon points="193.13 160.16 185.89 160.12 189.48 165.54 193.13 160.16" fill="#216091"/>
        <polygon points="203.25 160.21 196.01 160.17 199.6 165.59 203.25 160.21" fill="#216091"/>
        <path d="M25.66,168.34l-5.45-.03c-.05.33-.09.66-.14.98l2.45,3.69,3.15-4.64Z" fill="#216091"/>
        <polygon points="217.89 169.37 211.64 169.34 214.74 174.02 217.89 169.37" fill="#216091"/>
        <polygon points="213.38 160.26 206.13 160.23 209.73 165.65 213.38 160.26" fill="#216091"/>
        <polygon points="207.77 169.32 201.52 169.28 204.62 173.96 207.77 169.32" fill="#216091"/>
        <polygon points="228.02 169.43 221.76 169.39 224.87 174.07 228.02 169.43" fill="#216091"/>
        <path d="M37.88,132.23l4.99,7.53.03-.04.03.04,5.07-7.48,4.99,7.53,5.1-7.52,5.02,7.57,5.1-7.52,5.02,7.57,5.1-7.52,5.02,7.57,5.1-7.52,5.02,7.57,5.1-7.52,5.02,7.57,5.1-7.52,5.02,7.57,5.1-7.52,5.02,7.57,5.1-7.52,5.02,7.57,5.1-7.52,5.02,7.57,5.1-7.52,5.02,7.57,5.1-7.52,5.02,7.57,5.07-7.48,4.99,7.53.03-.04.03.04,5.07-7.48,4.99,7.53,5.1-7.52,5.02,7.57,5.1-7.52,5.02,7.57,5.1-7.52,5.02,7.57,5.1-7.52,5.02,7.57,5.1-7.52,5.02,7.57,5.1-7.52,5.02,7.57,5.1-7.52,5.02,7.57,5.1-7.52,5.02,7.57,5.1-7.52,5.02,7.57,5.1-7.52,5.02,7.57,5.1-7.52,5.02,7.57,1.65-2.43c-.7-1.78-1.44-3.54-2.22-5.27l-4.35-.02-10.12-.05-10.12-.05-10.12-.05-10.12-.05-10.12-.05-10.12-.05-10.12-.05-10.12-.05-10.12-.05-10.12-.05-10.12-.05h-2.75s-7.31-.05-7.31-.05l-10.12-.05-10.12-.05-10.12-.05-10.12-.05-10.12-.05-10.12-.05-10.32-.06h0s-9.92-.05-9.92-.05l-10.12-.05-10.12-.05-10.12-.05-10.12-.05-10.32-.06-6.6-.04c-.48,1.03-.94,2.07-1.4,3.11l3.04,4.59,5.07-7.48Z" fill="#216091"/>
        <path d="M305.78,169.84h-1.37s-1.72-.02-1.72-.02l3.1,4.68.03-.04.03.04.45-.67" fill="#216091"/>
        <polygon points="295.73 174.45 298.88 169.81 292.63 169.77 295.73 174.45" fill="#216091"/>
        <polygon points="278.63 169.7 272.38 169.66 275.48 174.34 278.63 169.7" fill="#216091"/>
        <polygon points="284.24 160.64 277 160.61 280.59 166.03 284.24 160.64" fill="#216091"/>
        <polygon points="274.12 160.59 266.87 160.55 270.47 165.97 274.12 160.59" fill="#216091"/>
        <polygon points="294.36 160.7 287.12 160.66 290.71 166.08 294.36 160.7" fill="#216091"/>
        <polygon points="268.51 169.64 262.26 169.61 265.36 174.29 268.51 169.64" fill="#216091"/>
        <path d="M297.19,160.71l3.59,5.42.03-.04.03.04,3.41-5.03c-.02-.12-.05-.24-.07-.35l-4.97-.03h-2.02Z" fill="#216091"/>
        <polygon points="288.76 169.75 282.51 169.72 285.61 174.39 288.76 169.75" fill="#216091"/>
        <polygon points="197.65 169.26 191.39 169.23 194.5 173.91 197.65 169.26" fill="#216091"/>
        <polygon points="66.1 168.56 59.84 168.53 62.95 173.2 66.1 168.56" fill="#216091"/>
        <polygon points="76.22 168.61 69.97 168.58 73.07 173.26 76.22 168.61" fill="#216091"/>
        <polygon points="71.7 159.51 64.46 159.47 68.05 164.89 71.7 159.51" fill="#216091"/>
        <polygon points="81.83 159.56 74.58 159.52 78.18 164.94 81.83 159.56" fill="#216091"/>
        <polygon points="86.34 168.67 80.09 168.63 83.19 173.31 86.34 168.67" fill="#216091"/>
        <polygon points="96.47 168.72 90.22 168.69 93.32 173.36 96.47 168.72" fill="#216091"/>
        <polygon points="91.95 159.61 84.71 159.58 88.3 165 91.95 159.61" fill="#216091"/>
        <polygon points="61.58 159.45 54.34 159.41 57.93 164.83 61.58 159.45" fill="#216091"/>
        <polygon points="37.71 164.68 37.74 164.72 41.39 159.34 41.33 159.34 39.41 159.33 34.14 159.3 34.14 159.31 34.09 159.3 37.68 164.72 37.71 164.68" fill="#216091"/>
        <polygon points="32.63 173.04 35.78 168.4 29.53 168.36 32.63 173.04" fill="#216091"/>
        <polygon points="31.27 159.29 24.02 159.25 27.61 164.67 31.27 159.29" fill="#216091"/>
        <polygon points="55.97 168.5 49.72 168.47 52.82 173.15 55.97 168.5" fill="#216091"/>
        <polygon points="42.73 173.05 42.75 173.09 45.91 168.45 45.85 168.45 44.16 168.44 39.65 168.42 39.65 168.42 39.6 168.42 42.7 173.09 42.73 173.05" fill="#216091"/>
        <polygon points="102.07 159.67 94.83 159.63 98.42 165.05 102.07 159.67" fill="#216091"/>
        <polygon points="47.83 164.74 47.86 164.78 51.51 159.4 51.46 159.4 44.21 159.36 47.81 164.78 47.83 164.74" fill="#216091"/>
        <polygon points="106.59 168.78 100.34 168.74 103.44 173.42 106.59 168.78" fill="#216091"/>
        <polygon points="179.38 165.44 179.41 165.48 183.06 160.1 183.01 160.1 181.04 160.09 175.82 160.06 175.82 160.06 175.76 160.06 179.36 165.48 179.38 165.44" fill="#216091"/>
        <polygon points="152.69 159.94 145.45 159.9 149.04 165.32 152.69 159.94" fill="#216091"/>
        <polygon points="162.82 159.99 155.57 159.96 159.16 165.37 162.82 159.99" fill="#216091"/>
        <polygon points="174.28 173.76 174.3 173.8 177.46 169.16 172.88 169.13 171.15 169.12 174.25 173.8 174.28 173.76" fill="#216091"/>
        <polygon points="147.09 168.99 140.83 168.96 143.93 173.64 147.09 168.99" fill="#216091"/>
        <polygon points="169.26 165.39 169.29 165.43 172.94 160.05 172.88 160.05 165.64 160.01 169.23 165.43 169.26 165.39" fill="#216091"/>
        <polygon points="167.33 169.1 161.08 169.07 164.18 173.74 167.33 169.1" fill="#216091"/>
        <polygon points="157.21 169.05 150.96 169.01 154.06 173.69 157.21 169.05" fill="#216091"/>
        <polygon points="142.57 159.89 135.32 159.85 138.92 165.27 142.57 159.89" fill="#216091"/>
        <polygon points="116.71 168.83 110.46 168.8 113.56 173.47 116.71 168.83" fill="#216091"/>
        <polygon points="112.2 159.72 104.95 159.68 108.55 165.1 112.2 159.72" fill="#216091"/>
        <polygon points="122.32 159.78 115.08 159.74 118.67 165.16 122.32 159.78" fill="#216091"/>
        <polygon points="136.96 168.94 130.71 168.9 133.81 173.58 136.96 168.94" fill="#216091"/>
        <polygon points="132.44 159.83 125.2 159.79 128.79 165.21 132.44 159.83" fill="#216091"/>
        <polygon points="126.84 168.88 120.59 168.85 123.69 173.53 126.84 168.88" fill="#216091"/>
        <polygon points="138.65 215.66 139.75 214.03 137.56 214.02 138.65 215.66" fill="#216091"/>
        <polygon points="224.69 207.66 226.14 205.52 223.26 205.51 224.69 207.66" fill="#216091"/>
        <polygon points="219.76 182.42 222.46 178.44 217.1 178.41 219.76 182.42" fill="#216091"/>
        <polygon points="224.78 190.83 227.03 187.51 222.56 187.49 224.78 190.83" fill="#216091"/>
        <polygon points="229.79 199.27 231.64 196.55 227.97 196.53 229.79 199.27" fill="#216091"/>
        <polygon points="229.7 216.14 230.8 214.52 228.62 214.51 229.7 216.14" fill="#216091"/>
        <polygon points="214.65 190.77 216.9 187.46 212.44 187.43 214.65 190.77" fill="#216091"/>
        <polygon points="219.67 199.22 221.52 196.49 217.85 196.47 219.67 199.22" fill="#216091"/>
        <polygon points="214.56 207.61 216.01 205.47 213.14 205.46 214.56 207.61" fill="#216091"/>
        <polygon points="209.64 182.37 212.34 178.39 206.98 178.36 209.64 182.37" fill="#216091"/>
        <polygon points="229.88 182.48 232.58 178.5 227.22 178.47 229.88 182.48" fill="#216091"/>
        <polygon points="250.04 199.38 251.89 196.65 248.22 196.63 250.04 199.38" fill="#216091"/>
        <polygon points="245.02 190.94 247.27 187.62 242.81 187.6 245.02 190.94" fill="#216091"/>
        <polygon points="244.93 207.77 246.38 205.63 243.51 205.62 244.93 207.77" fill="#216091"/>
        <polygon points="209.55 199.16 211.4 196.44 207.72 196.42 209.55 199.16" fill="#216091"/>
        <polygon points="249.95 216.25 251.05 214.63 248.87 214.62 249.95 216.25" fill="#216091"/>
        <polygon points="250.13 182.58 252.83 178.6 247.47 178.58 250.13 182.58" fill="#216091"/>
        <polygon points="234.9 190.88 237.15 187.57 232.68 187.54 234.9 190.88" fill="#216091"/>
        <polygon points="234.81 207.72 236.26 205.58 233.38 205.56 234.81 207.72" fill="#216091"/>
        <polygon points="239.83 216.2 240.93 214.58 238.74 214.56 239.83 216.2" fill="#216091"/>
        <polygon points="240.01 182.53 242.71 178.55 237.35 178.52 240.01 182.53" fill="#216091"/>
        <polygon points="239.92 199.33 241.77 196.6 238.1 196.58 239.92 199.33" fill="#216091"/>
        <polygon points="219.58 216.09 220.68 214.47 218.5 214.46 219.58 216.09" fill="#216091"/>
        <polygon points="180.53 178.22 176.66 178.2 176.66 178.2 176.61 178.2 179.27 182.21 179.29 182.16 179.32 182.21 182.02 178.23 181.97 178.22 180.53 178.22" fill="#216091"/>
        <polygon points="177.35 196.25 179.18 199 179.2 198.96 179.23 199 181.08 196.27 181.03 196.27 177.35 196.25" fill="#216091"/>
        <polygon points="179.62 214.25 178.06 214.24 178.06 214.24 178 214.24 179.09 215.87 179.11 215.83 179.14 215.87 180.24 214.25 180.19 214.25 179.62 214.25" fill="#216091"/>
        <polygon points="184.28 190.61 186.53 187.3 182.07 187.27 184.28 190.61" fill="#216091"/>
        <polygon points="184.19 207.45 185.64 205.31 182.76 205.29 184.19 207.45" fill="#216091"/>
        <polygon points="167.88 214.18 168.96 215.82 168.99 215.78 169.02 215.82 170.12 214.2 168.5 214.19 167.88 214.18" fill="#216091"/>
        <polygon points="167.29 196.2 167.23 196.2 169.05 198.95 169.08 198.91 169.11 198.95 170.96 196.22 167.29 196.2 167.29 196.2" fill="#216091"/>
        <polygon points="166.48 178.14 169.14 182.15 169.17 182.11 169.2 182.15 171.9 178.17 171.84 178.17 166.48 178.14" fill="#216091"/>
        <polygon points="209.46 216.03 210.56 214.41 208.37 214.4 209.46 216.03" fill="#216091"/>
        <polygon points="174.73 205.25 172.7 205.24 172.7 205.24 172.64 205.24 174.07 207.39 174.1 207.35 174.12 207.39 175.57 205.25 175.52 205.25 174.73 205.25" fill="#216091"/>
        <polygon points="171.94 187.22 174.16 190.56 174.19 190.52 174.21 190.56 176.47 187.24 176.41 187.24 171.94 187.22" fill="#216091"/>
        <polygon points="199.33 215.98 200.43 214.36 198.25 214.35 199.33 215.98" fill="#216091"/>
        <polygon points="199.42 199.11 201.27 196.38 197.6 196.36 199.42 199.11" fill="#216091"/>
        <polygon points="199.51 182.31 202.21 178.33 196.85 178.3 199.51 182.31" fill="#216091"/>
        <polygon points="204.44 207.55 205.89 205.42 203.01 205.4 204.44 207.55" fill="#216091"/>
        <polygon points="204.53 190.72 206.78 187.4 202.31 187.38 204.53 190.72" fill="#216091"/>
        <polygon points="189.21 215.93 190.31 214.3 188.13 214.29 189.21 215.93" fill="#216091"/>
        <polygon points="189.39 182.26 192.09 178.28 186.73 178.25 189.39 182.26" fill="#216091"/>
        <polygon points="189.3 199.06 191.15 196.33 187.48 196.31 189.3 199.06" fill="#216091"/>
        <polygon points="194.41 190.67 196.66 187.35 192.19 187.33 194.41 190.67" fill="#216091"/>
        <polygon points="194.32 207.5 195.77 205.36 192.89 205.35 194.32 207.5" fill="#216091"/>
        <polygon points="255.06 207.82 256.51 205.69 253.63 205.67 255.06 207.82" fill="#216091"/>
        <polygon points="298.03 178.85 300.69 182.86 300.72 182.81 300.75 182.86 303.45 178.88 303.39 178.88 298.03 178.85" fill="#216091"/>
        <polygon points="299.43 214.89 300.51 216.52 300.54 216.48 300.57 216.52 301.67 214.9 301.61 214.9 299.43 214.89" fill="#216091"/>
        <polygon points="298.78 196.91 300.6 199.65 300.63 199.61 300.66 199.65 302.51 196.93 302.45 196.92 298.78 196.91" fill="#216091"/>
        <path d="M303.49,187.92l2.22,3.34.03-.04.03.04,1.55-2.28c0-.35-.02-.69-.03-1.04l-3.79-.02Z" fill="#216091"/>
        <path d="M305.62,208.1l.03-.04.03.04.97-1.44c.02-.23.05-.47.07-.7h-2.52s1.43,2.14,1.43,2.14Z" fill="#216091"/>
        <polygon points="270.2 216.36 271.3 214.74 269.11 214.73 270.2 216.36" fill="#216091"/>
        <polygon points="275.39 191.1 277.64 187.78 273.18 187.76 275.39 191.1" fill="#216091"/>
        <polygon points="265.27 191.05 267.52 187.73 263.05 187.71 265.27 191.05" fill="#216091"/>
        <polygon points="275.3 207.93 276.75 205.8 273.88 205.78 275.3 207.93" fill="#216091"/>
        <polygon points="270.38 182.69 273.08 178.71 267.72 178.68 270.38 182.69" fill="#216091"/>
        <polygon points="265.18 207.88 266.63 205.74 263.75 205.73 265.18 207.88" fill="#216091"/>
        <polygon points="255.15 190.99 257.4 187.67 252.93 187.65 255.15 190.99" fill="#216091"/>
        <polygon points="260.07 216.31 261.17 214.68 258.99 214.67 260.07 216.31" fill="#216091"/>
        <polygon points="260.16 199.44 262.01 196.71 258.34 196.69 260.16 199.44" fill="#216091"/>
        <polygon points="260.25 182.64 262.95 178.66 257.59 178.63 260.25 182.64" fill="#216091"/>
        <polygon points="270.29 199.49 272.14 196.76 268.47 196.74 270.29 199.49" fill="#216091"/>
        <polygon points="290.53 199.6 292.38 196.87 288.71 196.85 290.53 199.6" fill="#216091"/>
        <polygon points="290.44 216.47 291.54 214.85 289.36 214.83 290.44 216.47" fill="#216091"/>
        <polygon points="290.62 182.8 293.32 178.82 287.97 178.79 290.62 182.8" fill="#216091"/>
        <polygon points="295.64 191.21 297.89 187.89 293.43 187.87 295.64 191.21" fill="#216091"/>
        <polygon points="295.55 208.04 297 205.9 294.12 205.89 295.55 208.04" fill="#216091"/>
        <polygon points="280.32 216.41 281.42 214.79 279.24 214.78 280.32 216.41" fill="#216091"/>
        <polygon points="280.5 182.75 283.2 178.77 277.84 178.74 280.5 182.75" fill="#216091"/>
        <polygon points="280.41 199.54 282.26 196.82 278.59 196.8 280.41 199.54" fill="#216091"/>
        <polygon points="285.43 207.99 286.88 205.85 284 205.83 285.43 207.99" fill="#216091"/>
        <polygon points="285.52 191.15 287.77 187.84 283.3 187.81 285.52 191.15" fill="#216091"/>
        <polygon points="113.38 207.07 114.83 204.93 111.96 204.91 113.38 207.07" fill="#216091"/>
        <polygon points="48.08 213.54 46.51 213.53 46.51 213.53 46.45 213.53 47.54 215.17 47.56 215.13 47.59 215.17 48.69 213.55 48.64 213.55 48.08 213.54" fill="#216091"/>
        <polygon points="45.06 177.49 47.72 181.5 47.74 181.46 47.77 181.5 50.47 177.52 50.42 177.52 45.06 177.49" fill="#216091"/>
        <polygon points="52.64 206.74 54.09 204.6 51.22 204.59 52.64 206.74" fill="#216091"/>
        <polygon points="52.73 189.91 54.98 186.59 50.52 186.57 52.73 189.91" fill="#216091"/>
        <polygon points="45.8 195.55 47.63 198.3 47.65 198.26 47.68 198.3 49.53 195.57 49.48 195.57 45.8 195.55" fill="#216091"/>
        <polygon points="38.85 177.46 34.99 177.44 34.99 177.44 34.93 177.44 37.59 181.45 37.62 181.41 37.65 181.45 40.35 177.47 40.29 177.47 38.85 177.46" fill="#216091"/>
        <polygon points="35.74 195.5 35.68 195.5 37.5 198.24 37.53 198.2 37.56 198.24 39.41 195.52 35.74 195.5 35.74 195.5" fill="#216091"/>
        <polygon points="40.39 186.51 42.61 189.85 42.64 189.81 42.66 189.85 44.92 186.54 44.86 186.54 40.39 186.51" fill="#216091"/>
        <polygon points="41.09 204.53 42.52 206.69 42.55 206.65 42.57 206.69 44.03 204.55 41.92 204.54 41.09 204.53" fill="#216091"/>
        <polygon points="36.33 213.48 37.41 215.11 37.44 215.07 37.47 215.11 38.57 213.49 36.94 213.48 36.33 213.48" fill="#216091"/>
        <polygon points="67.96 181.61 70.66 177.63 65.3 177.6 67.96 181.61" fill="#216091"/>
        <polygon points="67.78 215.28 68.88 213.65 66.7 213.64 67.78 215.28" fill="#216091"/>
        <polygon points="72.98 190.02 75.23 186.7 70.76 186.68 72.98 190.02" fill="#216091"/>
        <polygon points="72.89 206.85 74.34 204.71 71.46 204.7 72.89 206.85" fill="#216091"/>
        <polygon points="67.87 198.41 69.72 195.68 66.05 195.66 67.87 198.41" fill="#216091"/>
        <polygon points="57.84 181.55 60.54 177.57 55.18 177.55 57.84 181.55" fill="#216091"/>
        <polygon points="57.75 198.35 59.6 195.62 55.93 195.6 57.75 198.35" fill="#216091"/>
        <polygon points="57.66 215.22 58.76 213.6 56.58 213.59 57.66 215.22" fill="#216091"/>
        <polygon points="62.86 189.96 65.11 186.64 60.64 186.62 62.86 189.96" fill="#216091"/>
        <polygon points="62.77 206.79 64.22 204.66 61.34 204.64 62.77 206.79" fill="#216091"/>
        <polygon points="32.54 189.8 34.79 186.48 30.33 186.46 32.54 189.8" fill="#216091"/>
        <polygon points="164.09 190.5 166.34 187.19 161.88 187.16 164.09 190.5" fill="#216091"/>
        <polygon points="27.43 198.19 29.29 195.46 25.61 195.44 27.43 198.19" fill="#216091"/>
        <polygon points="27.34 215.06 28.44 213.44 26.26 213.43 27.34 215.06" fill="#216091"/>
        <polygon points="22.42 189.74 24.67 186.43 20.2 186.4 22.42 189.74" fill="#216091"/>
        <polygon points="27.52 181.39 30.23 177.41 24.87 177.38 27.52 181.39" fill="#216091"/>
        <polygon points="32.45 206.63 33.9 204.49 31.02 204.48 32.45 206.63" fill="#216091"/>
        <polygon points="22.33 206.58 23.78 204.44 20.9 204.43 22.33 206.58" fill="#216091"/>
        <path d="M18.41,195.4c0,.36.02.71.03,1.07l.72-1.06h-.75Z" fill="#216091"/>
        <path d="M19.08,177.35c-.06.59-.12,1.17-.17,1.77l1.19-1.76h-1.03Z" fill="#216091"/>
        <polygon points="133.72 190.34 135.97 187.02 131.51 187 133.72 190.34" fill="#216091"/>
        <polygon points="143.75 207.23 145.2 205.09 142.33 205.08 143.75 207.23" fill="#216091"/>
        <polygon points="133.63 207.17 135.08 205.04 132.2 205.02 133.63 207.17" fill="#216091"/>
        <polygon points="138.74 198.78 140.59 196.06 136.92 196.04 138.74 198.78" fill="#216091"/>
        <polygon points="138.83 181.99 141.53 178.01 136.17 177.98 138.83 181.99" fill="#216091"/>
        <polygon points="123.6 190.29 125.85 186.97 121.38 186.95 123.6 190.29" fill="#216091"/>
        <polygon points="123.51 207.12 124.96 204.98 122.08 204.97 123.51 207.12" fill="#216091"/>
        <polygon points="128.61 198.73 130.46 196 126.79 195.98 128.61 198.73" fill="#216091"/>
        <polygon points="128.7 181.93 131.4 177.95 126.05 177.93 128.7 181.93" fill="#216091"/>
        <polygon points="128.52 215.6 129.62 213.98 127.44 213.97 128.52 215.6" fill="#216091"/>
        <polygon points="158.89 215.76 159.99 214.14 157.81 214.13 158.89 215.76" fill="#216091"/>
        <polygon points="77.91 215.33 79.01 213.71 76.82 213.7 77.91 215.33" fill="#216091"/>
        <polygon points="158.98 198.89 160.83 196.17 157.16 196.15 158.98 198.89" fill="#216091"/>
        <polygon points="143.84 190.4 146.09 187.08 141.63 187.05 143.84 190.4" fill="#216091"/>
        <polygon points="164 207.34 165.45 205.2 162.57 205.18 164 207.34" fill="#216091"/>
        <polygon points="159.07 182.1 161.78 178.12 156.42 178.09 159.07 182.1" fill="#216091"/>
        <polygon points="153.97 190.45 156.22 187.13 151.75 187.11 153.97 190.45" fill="#216091"/>
        <polygon points="153.88 207.28 155.33 205.15 152.45 205.13 153.88 207.28" fill="#216091"/>
        <polygon points="148.86 198.84 150.71 196.11 147.04 196.09 148.86 198.84" fill="#216091"/>
        <polygon points="148.77 215.71 149.87 214.09 147.69 214.08 148.77 215.71" fill="#216091"/>
        <polygon points="148.95 182.04 151.65 178.06 146.29 178.03 148.95 182.04" fill="#216091"/>
        <polygon points="88.12 198.51 89.97 195.79 86.3 195.77 88.12 198.51" fill="#216091"/>
        <polygon points="88.21 181.72 90.91 177.74 85.55 177.71 88.21 181.72" fill="#216091"/>
        <polygon points="93.14 206.96 94.59 204.82 91.71 204.8 93.14 206.96" fill="#216091"/>
        <polygon points="93.23 190.12 95.48 186.81 91.01 186.78 93.23 190.12" fill="#216091"/>
        <polygon points="98.15 215.44 99.25 213.82 97.07 213.8 98.15 215.44" fill="#216091"/>
        <polygon points="98.24 198.57 100.09 195.84 96.42 195.82 98.24 198.57" fill="#216091"/>
        <polygon points="78.09 181.66 80.79 177.68 75.43 177.65 78.09 181.66" fill="#216091"/>
        <polygon points="88.03 215.38 89.13 213.76 86.95 213.75 88.03 215.38" fill="#216091"/>
        <polygon points="78 198.46 79.85 195.73 76.18 195.71 78 198.46" fill="#216091"/>
        <polygon points="83.01 206.9 84.46 204.77 81.59 204.75 83.01 206.9" fill="#216091"/>
        <polygon points="83.1 190.07 85.35 186.75 80.89 186.73 83.1 190.07" fill="#216091"/>
        <polygon points="113.47 190.23 115.72 186.92 111.26 186.89 113.47 190.23" fill="#216091"/>
        <path d="M37.89,131.35l.03.04,5.07-7.48,4.99,7.53.03-.04.03.04,5.07-7.48,4.99,7.53,5.1-7.52,5.02,7.57,5.1-7.52,5.02,7.57,5.1-7.52,5.02,7.57,5.1-7.52,5.02,7.57,5.1-7.52,5.02,7.57,5.1-7.52,5.02,7.57,5.1-7.52,5.02,7.57,5.1-7.52,5.02,7.57,5.1-7.52,5.02,7.57,5.1-7.52,5.02,7.57,5.07-7.48,4.99,7.53.03-.04.03.04,5.07-7.48,4.99,7.53.03-.04.03.04,5.07-7.48,4.99,7.53,5.1-7.52,5.02,7.57,5.1-7.52,5.02,7.57,5.1-7.52,5.02,7.57,5.1-7.52,5.02,7.57,5.1-7.52,5.02,7.57,5.1-7.52,5.02,7.57,5.1-7.52,5.02,7.57,5.1-7.52,5.02,7.57,5.1-7.52,5.02,7.57,5.1-7.52,5.02,7.57,2.44-3.59c-.8-1.63-1.64-3.25-2.5-4.84l-4.36-.02h-.51s2.64-3.89,2.64-3.89c-1.05-1.77-2.14-3.52-3.27-5.23l-3.81-.02,1.9-2.8c-1.52-2.18-3.1-4.3-4.74-6.37h-1.58s.72-1.07.72-1.07c-3.66-4.51-7.63-8.76-11.88-12.74l3.05,4.59h-.04s-.44,0-.44,0l-5.94-.03,3.21-4.73c-1.63-1.52-3.3-3-5.01-4.44h-2.13s-.49-.01-.49-.01l.94-1.38c-3.83-3.11-7.85-6.02-12.04-8.72l.59.89-4-.02,1.43-2.11c-4.26-2.64-8.69-5.06-13.29-7.26l.07.11h-.46s-2.25-.01-2.25-.01l.68-1c-7.62-3.5-15.66-6.38-24.07-8.61l.19.29h-.46s-.96,0-.96,0l.35-.52c-12.61-3.25-26.03-5.04-40.06-5.19-14.09-.15-27.64,1.35-40.41,4.36l.61.92h-1.42s.58-.87.58-.87c-8.71,2.07-17.06,4.84-24.98,8.26l1.11,1.67h-.46s-2.25-.01-2.25-.01l.92-1.36c-5.11,2.24-10.04,4.75-14.77,7.53l1.97,2.97-3.54-.02h-.46s1.98-2.92,1.98-2.92c-4.96,2.91-9.71,6.11-14.2,9.58l1.61,2.43h-.49s0,0,0,0l-4.16-.02c-3.49,2.86-6.83,5.9-10,9.1h0s-.01,0-.01,0c-2.13,2.15-4.17,4.37-6.14,6.66l1.64,2.47h-.49s-3.21-.02-3.21-.02c-1.28,1.56-2.52,3.16-3.72,4.78l2.9,4.37h-.49s-5.51-.03-5.51-.03c-.78,1.15-1.54,2.32-2.28,3.5l3.73,5.63-7.08-.04c-.55.97-1.08,1.94-1.6,2.93l3.66,5.51.03-.04ZM53.18,123.04l5.02-7.39,4.94,7.44-9.95-.05ZM58.86,113.95l4.44-6.54,4.37,6.59-8.81-.05ZM63.81,123.1h-.51s5.02-7.39,5.02-7.39l4.94,7.44-9.44-.05ZM69.47,114.01h0s-.49,0-.49,0l4.44-6.54,4.37,6.59h-.49s-7.84-.04-7.84-.04ZM74.69,104.88l3.84-5.66,3.78,5.7h-.49s-7.13-.04-7.13-.04ZM73.93,123.15h-.51s5.02-7.39,5.02-7.39l4.94,7.44-9.44-.05ZM79.1,114.06l4.44-6.54,4.37,6.59h-.49s-8.33-.05-8.33-.05ZM232.68,96.57h-.49s3.24-4.78,3.24-4.78l3.19,4.81-5.94-.03ZM240.45,100.09l3.78,5.7h-.49s-7.14-.04-7.14-.04l3.84-5.66ZM234.1,105.73l-7.14-.04h-.49s3.84-5.66,3.84-5.66l3.78,5.7ZM228.45,96.55h-.44s-5.94-.03-5.94-.03l3.24-4.77,3.19,4.81h-.04ZM223.98,105.68h-.49s-7.13-.04-7.13-.04l3.84-5.66,3.78,5.7ZM217.89,96.49l-5.9-.03h-.04s3.24-4.77,3.24-4.77l3.19,4.81h-.49ZM213.86,105.62h-.49s-7.14-.04-7.14-.04l3.84-5.66,3.78,5.7ZM201.82,96.4l3.24-4.77,3.19,4.81-6.43-.03ZM203.73,105.57h-.49s-7.14-.04-7.14-.04l3.84-5.66,3.78,5.7ZM197.64,96.38h0s-5.46-.03-5.46-.03h-.49s3.24-4.78,3.24-4.78l3.19,4.81h-.49ZM193.61,105.52l-7.14-.04h-.49s3.84-5.66,3.84-5.66l3.78,5.7ZM187.98,96.33h-.46s-5.89-.03-5.89-.03l3.21-4.73,3.16,4.77h-.02ZM183.49,105.46h-.49s-7.08-.04-7.08-.04l3.81-5.62,3.75,5.66ZM177.65,96.27l-5.66-.03h-.49s3.21-4.74,3.21-4.74l3.16,4.77h-.23ZM173.36,105.41h-.49s-6.59-.04-6.59-.04h0s-.49,0-.49,0l3.81-5.62,3.75,5.66ZM167.33,96.22l-5.94-.03,3.21-4.73,3.16,4.77h-.43ZM163.3,105.35l-7.62-.04,3.84-5.66,3.78,5.7ZM157.2,96.16l-5.94-.03,3.24-4.77,3.19,4.81h-.49ZM153.17,105.3h-.49s-7.14-.04-7.14-.04l3.84-5.66,3.78,5.7ZM147.08,96.11l-5.85-.03h-.1s3.24-4.78,3.24-4.78l3.19,4.81h-.49ZM143.05,105.24h-.49s-7.14-.04-7.14-.04l3.84-5.66,3.78,5.7ZM131.5,96.03h-.49s3.24-4.78,3.24-4.78l3.19,4.81-5.94-.03ZM132.92,105.19l-7.14-.04h-.49s3.84-5.66,3.84-5.66l3.78,5.7ZM127.22,96h-.39s-5.94-.03-5.94-.03l3.24-4.77,3.19,4.81h-.1ZM122.8,105.14h-.49s-7.13-.04-7.13-.04l3.84-5.66,3.78,5.7ZM116.71,95.95l-5.77-.03h-.18s3.24-4.78,3.24-4.78l3.19,4.81h-.49ZM112.68,105.08h-.49s-7.14-.04-7.14-.04l3.84-5.66,3.78,5.7ZM100.64,95.86l3.24-4.77,3.19,4.81-6.43-.03ZM102.55,105.03h-.49s-7.14-.04-7.14-.04l3.84-5.66,3.78,5.7ZM96.46,95.84h0s-5.46-.03-5.46-.03h-.49s3.24-4.78,3.24-4.78l3.19,4.81h-.49ZM92.43,104.97l-7.14-.04h-.49s3.84-5.66,3.84-5.66l3.78,5.7ZM92.99,123.25l-8.93-.05h-.51s5.02-7.39,5.02-7.39l4.94,7.44h-.51s0,0,0,0ZM89.23,114.11l4.44-6.54,4.37,6.59-8.81-.05ZM93.67,123.26l5.02-7.39,4.94,7.44-9.95-.05ZM99.84,114.17h0s-.49,0-.49,0l4.44-6.54,4.37,6.59h-.49s-7.84-.04-7.84-.04ZM104.3,123.31h-.51s5.02-7.39,5.02-7.39l4.94,7.44-9.44-.05ZM109.47,114.22l4.44-6.54,4.37,6.59h-.49s-8.33-.05-8.33-.05ZM114.43,123.37h-.51s5.02-7.39,5.02-7.39l4.94,7.44-9.44-.05ZM119.6,114.28l4.44-6.54,4.37,6.59h-.49s-8.33-.05-8.33-.05ZM124.55,123.42h-.51s5.02-7.39,5.02-7.39l4.94,7.44-9.44-.05ZM129.72,114.33l4.44-6.54,4.37,6.59-8.81-.05ZM134.67,123.48h-.51s5.02-7.39,5.02-7.39l4.94,7.44-9.44-.05ZM140.33,114.39h0s-.49,0-.49,0l4.44-6.54,4.37,6.59h-.49s-7.84-.04-7.84-.04ZM144.8,123.53h-.51s5.02-7.39,5.02-7.39l4.94,7.44-9.44-.05ZM149.97,114.44l4.44-6.54,4.37,6.59h-.49s-8.33-.05-8.33-.05ZM163.85,123.63h0s-.06,0-.06,0l-8.88-.05h-.51s5.02-7.39,5.02-7.39l4.94,7.44h-.51ZM160.09,114.49l4.41-6.5,4.34,6.55h-.43s-8.33-.05-8.33-.05ZM172.06,123.68l-7.52-.04,4.99-7.35,4.91,7.4h-2.38ZM170.22,114.55l4.41-6.5,4.34,6.55h-.49s-.99,0-.99,0l-7.28-.04ZM175.11,123.69h-.46s4.99-7.35,4.99-7.35l4.91,7.4-9.44-.05ZM180.34,114.6l4.41-6.5,4.34,6.55h-.49s-8.27-.05-8.27-.05ZM194.17,123.79l-8.93-.05h-.51s5.02-7.39,5.02-7.39l4.94,7.44h-.51s0,0,0,0ZM190.41,114.65l4.44-6.54,4.37,6.59-8.81-.05ZM194.85,123.8l5.02-7.39,4.94,7.44-9.95-.05ZM201.02,114.71h0s-.49,0-.49,0l4.44-6.54,4.37,6.59h-.49s-7.84-.04-7.84-.04ZM205.48,123.86h-.51s5.02-7.39,5.02-7.39l4.94,7.44-9.44-.05ZM210.65,114.76l4.44-6.54,4.37,6.59h-.49s-8.33-.05-8.33-.05ZM215.61,123.91h-.51s5.02-7.39,5.02-7.39l4.94,7.44-9.44-.05ZM220.78,114.82l4.44-6.54,4.37,6.59h-.49s-8.33-.05-8.33-.05ZM225.73,123.96h-.51s5.02-7.39,5.02-7.39l4.94,7.44-9.44-.05ZM230.9,114.87l4.44-6.54,4.37,6.59-8.81-.05ZM235.85,124.02h-.51s5.02-7.39,5.02-7.39l4.94,7.44-9.44-.05ZM241.51,114.93h0s-.49,0-.49,0l4.44-6.54,4.37,6.59h-.49s-7.84-.04-7.84-.04ZM246.73,105.8l3.84-5.66,3.78,5.7h-.49s-7.13-.04-7.13-.04ZM245.98,124.07h-.51s5.02-7.39,5.02-7.39l4.94,7.44-9.44-.05ZM251.15,114.98l4.44-6.54,4.37,6.59h-.49s-8.33-.05-8.33-.05ZM265.03,124.17l-8.93-.05h-.51s5.02-7.39,5.02-7.39l4.94,7.44h-.51s0,0,0,0ZM265.71,124.18l5.02-7.39,4.94,7.44-9.95-.05ZM285.79,124.29l-9.44-.05h-.51s5.02-7.39,5.02-7.39l4.94,7.44ZM280.21,115.14h-.49s-8.33-.05-8.33-.05l4.44-6.54,4.37,6.59ZM270.82,100.25l3.78,5.7h-.49s-6.65-.04-6.65-.04h0s-.49,0-.49,0l3.84-5.66ZM270.08,115.08h-.49s-8.33-.05-8.33-.05l4.44-6.54,4.37,6.59ZM264.47,105.89l-7.62-.04,3.84-5.66,3.78,5.7ZM258.87,96.71h-.49s-5.94-.03-5.94-.03l3.24-4.77,3.19,4.81ZM250.66,83.6l2.6,3.92-5.24-.03,2.64-3.89ZM245.55,91.84l3.19,4.81h-.49s-5.69-.03-5.69-.03h-.26s3.24-4.78,3.24-4.78ZM240.54,83.55l2.6,3.92h-.49s0,0,0,0l-4.27-.02h-.49s2.64-3.89,2.64-3.89ZM235.52,75.29l1.98,2.99h-.46s-3.54-.02-3.54-.02l2.01-2.97ZM230.41,83.49l2.6,3.92-4.75-.03h-.49s2.64-3.89,2.64-3.89ZM225.4,75.24l1.98,2.99h-.46s-3.08-.02-3.08-.02h0s-.46,0-.46,0l2.01-2.97ZM220.38,66.98l1.34,2.03h-2.25s-.46-.01-.46-.01l1.36-2.01ZM220.29,83.44l2.6,3.92-4.75-.03h-.49s2.64-3.89,2.64-3.89ZM215.27,75.18l1.98,2.99-3.54-.02h-.46s2.01-2.97,2.01-2.97ZM210.25,66.92l1.34,2.03h-.46s-2.25-.01-2.25-.01l1.36-2.01ZM210.17,83.39l2.6,3.92-5.24-.03,2.64-3.89ZM205.15,75.13l1.98,2.99-4-.02,2.01-2.97ZM200.13,66.87l1.34,2.03h-.46s-2.25-.01-2.25-.01l1.36-2.01ZM200.04,83.33l2.6,3.92h-.49s0,0,0,0l-4.27-.02h-.49s2.64-3.89,2.64-3.89ZM195.11,58.61l.7,1.06h-.46s-.5,0-.5,0h0s-.46,0-.46,0l.71-1.05ZM195.03,75.07l1.98,2.99h-.46s-3.08-.02-3.08-.02h0s-.46,0-.46,0l2.01-2.97ZM190.01,66.81l1.34,2.03h-2.19s-.52-.01-.52-.01l1.36-2.01ZM189.92,83.28l2.6,3.92-4.75-.03h-.49s2.64-3.89,2.64-3.89ZM185.02,58.6l.68,1.02h-1.36s.69-1.02.69-1.02ZM184.93,75.06l1.96,2.95-3.54-.02h-.41s1.99-2.93,1.99-2.93ZM179.91,66.8l1.32,1.98h-.46s-1.79-.01-1.79-.01h-.41s1.34-1.97,1.34-1.97ZM179.82,83.26l2.57,3.88-4.7-.03h-.49s2.61-3.85,2.61-3.85ZM174.89,58.54l.68,1.02h-.46s-.9,0-.9,0l.69-1.01ZM174.81,75.01l1.96,2.95-3.94-.02,1.99-2.93ZM169.79,66.75l1.32,1.98h-.46s-2.19-.01-2.19-.01l1.34-1.97ZM169.7,83.21l2.57,3.88-4.7-.03h-.49s2.61-3.85,2.61-3.85ZM164.77,58.49l.68,1.02h-.46s0,0,0,0h-.44s-.46,0-.46,0l.69-1.01ZM164.68,74.95l1.96,2.95h-.41s-3.08-.02-3.08-.02h0s-.46,0-.46,0l1.99-2.93ZM159.69,66.65l1.34,2.03h-2.25s-.46-.01-.46-.01l1.36-2.01ZM159.6,83.12l2.6,3.92h-.54s-4.21-.03-4.21-.03h-.49s2.64-3.89,2.64-3.89ZM154.67,58.39l.7,1.06h-1.42s.71-1.06.71-1.06ZM154.59,74.86l1.98,2.99-3.54-.02h-.46s2.01-2.97,2.01-2.97ZM149.57,66.6l1.34,2.03h-.46s-2.25-.01-2.25-.01l1.36-2.01ZM149.48,83.06l2.6,3.92-5.24-.03,2.64-3.89ZM144.55,58.34l.7,1.06h-.46s-.96,0-.96,0l.71-1.05ZM144.46,74.8l1.98,2.99-4-.02,2.01-2.97ZM139.45,66.54l1.34,2.03h-.46s-2.25-.01-2.25-.01l1.36-2.01ZM139.36,83.01l2.6,3.92h-.49s0,0,0,0l-4.27-.02h-.49s2.64-3.89,2.64-3.89ZM134.43,58.28l.7,1.06h-.46s-.5,0-.5,0h0s-.46,0-.46,0l.71-1.05ZM134.34,74.75l1.98,2.99h-.46s-3.54-.02-3.54-.02l2.01-2.97ZM129.32,66.49l1.34,2.03h-.46s-2.25-.01-2.25-.01l1.36-2.01ZM129.23,82.95l2.6,3.92-4.75-.03h-.49s2.64-3.89,2.64-3.89ZM124.22,74.69l1.98,2.99h-.46s-3.08-.02-3.08-.02h0s-.46,0-.46,0l2.01-2.97ZM119.2,66.44l1.34,2.03h-2.25s-.46-.01-.46-.01l1.36-2.01ZM119.11,82.9l2.6,3.92-4.75-.03h-.49s2.64-3.89,2.64-3.89ZM114.09,74.64l1.98,2.99-3.54-.02h-.46s2.01-2.97,2.01-2.97ZM109.08,66.38l1.34,2.03h-.46s-2.25-.01-2.25-.01l1.36-2.01ZM108.99,82.84l2.6,3.92-5.24-.03,2.64-3.89ZM103.97,74.59l1.98,2.99-4-.02,2.01-2.97ZM98.86,82.79l2.6,3.92h-.49s0,0,0,0l-4.27-.02h-.49s2.64-3.89,2.64-3.89ZM93.85,74.53l1.98,2.99h-.46s-3.08-.02-3.08-.02h0s-.46,0-.46,0l2.01-2.97ZM88.74,82.74l2.6,3.92-4.75-.03h-.49s2.64-3.89,2.64-3.89ZM83.63,90.98l3.19,4.81h-.04s-.44,0-.44,0l-5.94-.03,3.24-4.77ZM78.62,82.68l2.6,3.92-5.24-.03,2.64-3.89ZM73.51,90.92l3.19,4.81h-.49s-5.69-.03-5.69-.03h-.26s3.24-4.78,3.24-4.78ZM72.18,104.86h-.49s-7.14-.04-7.14-.04l3.84-5.66,3.78,5.7ZM63.39,90.87l3.19,4.81-5.94-.03h-.49s3.24-4.78,3.24-4.78ZM58.28,99.11l3.78,5.7-7.14-.04h-.49s3.84-5.66,3.84-5.66ZM53.2,107.39l4.34,6.55h-.49s-8.27-.05-8.27-.05l4.41-6.5ZM48.1,115.64l4.91,7.4h-.51s-7.02-.04-7.02-.04h-1.91s-.46-.01-.46-.01l4.99-7.35Z" fill="#216091"/>
        <polygon points="108.46 181.83 111.16 177.85 105.8 177.82 108.46 181.83" fill="#216091"/>
        <polygon points="118.49 198.68 120.34 195.95 116.67 195.93 118.49 198.68" fill="#216091"/>
        <polygon points="118.4 215.55 119.5 213.93 117.32 213.91 118.4 215.55" fill="#216091"/>
        <polygon points="98.33 181.77 101.03 177.79 95.67 177.76 98.33 181.77" fill="#216091"/>
        <polygon points="103.26 207.01 104.71 204.87 101.83 204.86 103.26 207.01" fill="#216091"/>
        <polygon points="108.37 198.62 110.22 195.9 106.55 195.88 108.37 198.62" fill="#216091"/>
        <polygon points="103.35 190.18 105.6 186.86 101.13 186.84 103.35 190.18" fill="#216091"/>
        <polygon points="118.58 181.88 121.28 177.9 115.92 177.87 118.58 181.88" fill="#216091"/>
        <polygon points="108.28 215.49 109.38 213.87 107.19 213.86 108.28 215.49" fill="#216091"/>
      </g>
    </g>
    <path d="M300.05,193.54c-.89,82.08-63.55,147.95-145.63,147.06-82.08-.89-144.22-68.11-143.33-150.18.89-82.08,64.35-137.29,146.43-136.4,82.08.89,143.41,57.45,142.53,139.53Z" fill="none"/>
    <polygon points="298.34 167.76 300.92 161.42 306.48 164.01 309.87 171.41 302.28 175.35 296.28 171.43 298.34 167.76" fill="#f6e8d0" fill-rule="evenodd"/>
    <g>
      <path d="M303.02,158.55c-2.94,1.76-6.33,7.02-8.5,4.81-2.17-2.22-.65-8.91,1.8-11.3,2.45-2.4,6.75-4.89,8.92-2.67,2.17,2.22,1.94,6.68-2.22,9.17Z" fill="#f4e7ca" fill-rule="evenodd"/>
      <path d="M303.11,158.69c-.77.45-1.4,1.13-1.95,1.85-.56.73-1.03,1.54-1.61,2.32-.29.39-.6.77-.97,1.13-.38.36-.8.7-1.37.98-.29.13-.61.25-1,.31-.37.07-.82.05-1.24-.07-.43-.11-.8-.35-1.1-.6-.29-.26-.51-.53-.67-.82-.34-.57-.5-1.16-.56-1.71-.06-.56-.05-1.08,0-1.59.11-1.01.35-1.94.57-2.86.23-.92.47-1.82.77-2.72.3-.9.61-1.82,1.11-2.72.24-.45.59-.91.89-1.27.31-.38.64-.75,1-1.09.71-.69,1.52-1.27,2.42-1.79.9-.51,1.89-.96,3.1-1.13.6-.08,1.28-.06,1.97.12.69.18,1.37.58,1.87,1.09.14.13.21.24.32.37.1.12.2.24.29.37.16.26.34.52.46.8.12.28.26.55.33.85.04.14.08.29.12.43.03.14.05.29.07.44.17,1.17-.07,2.34-.56,3.32-.49.98-1.22,1.76-1.96,2.39-.75.63-1.53,1.14-2.32,1.62ZM302.94,158.42c.76-.48,1.41-1.13,1.83-1.89.43-.76.6-1.62.59-2.4,0-.78-.17-1.49-.4-2.09-.03-.08-.05-.15-.08-.23-.04-.07-.07-.14-.1-.21-.05-.15-.15-.27-.22-.4-.08-.13-.19-.23-.26-.36-.1-.09-.21-.22-.29-.29-.15-.12-.28-.21-.47-.26-.19-.06-.43-.1-.74-.09-.6.02-1.35.21-2.09.51-.74.3-1.47.71-2.2,1.13-.72.43-1.51.89-2.07,1.39-.6.55-1.12,1.28-1.5,2.07-.38.79-.64,1.65-.75,2.52-.11.87-.05,1.77.16,2.58.2.81.59,1.53.96,1.88.09.09.19.15.25.19.07.01.09.03.1.02.01,0,.15.01.42-.08.55-.19,1.33-.61,2.11-1.04.79-.43,1.61-.9,2.4-1.4.79-.5,1.54-1.04,2.33-1.53Z" fill="#153f69"/>
    </g>
    <g>
      <path d="M295.32,151.99c-3.02,1.63-2.63,8.69-5.36,7.21-2.73-1.48-3.43-9.17-1.8-12.18s7-4.81,9.73-3.33c2.73,1.48,2.96,5.32-2.58,8.3Z" fill="#f4e7ca" fill-rule="evenodd"/>
      <path d="M295.39,152.13c-.39.21-.71.54-.96.91-.24.38-.41.8-.53,1.24-.24.88-.29,1.82-.41,2.78-.06.48-.14.97-.3,1.5-.09.27-.18.53-.34.83-.16.29-.36.61-.75.92-.37.31-1,.55-1.55.51-.57-.02-.95-.21-1.29-.39-.66-.39-1.09-.91-1.4-1.43-.61-1.04-.78-2.09-.89-3.1-.1-1.01-.1-1.99-.13-2.95-.02-.96-.04-1.92,0-2.89.04-.97.07-1.96.37-3.02.33-1.08.97-2.05,1.75-2.8.78-.76,1.71-1.33,2.68-1.78.98-.44,2.01-.78,3.13-.91,1.11-.13,2.34-.07,3.57.5.62.28,1.13.67,1.61,1.16.45.52.86,1.09,1.04,1.78.06.16.09.34.12.51.02.17.05.34.07.51,0,.17-.01.34-.02.51,0,.08,0,.17-.02.25l-.05.24-.12.47c-.05.15-.12.29-.18.43-.07.14-.12.29-.2.41l-.25.37c-.69.95-1.57,1.54-2.41,2.05-.84.53-1.7.92-2.52,1.39ZM295.24,151.85c.8-.47,1.56-1.03,2.11-1.76.56-.71.95-1.55,1.07-2.3.03-.19.06-.37.04-.54,0-.08,0-.17,0-.25l-.04-.23s-.01-.07-.01-.11l-.04-.1c-.02-.07-.04-.13-.06-.19l-.09-.17-.04-.08s-.04-.05-.05-.08c-.03-.05-.06-.1-.09-.15-.04-.05-.09-.09-.12-.14l-.05-.07-.07-.06s-.09-.08-.14-.13l-.17-.11c-.05-.04-.1-.08-.17-.11-.12-.07-.24-.15-.37-.18-.48-.2-1.18-.29-1.93-.27-.75.02-1.54.15-2.31.39-.77.24-1.5.58-2.18.99-.68.41-1.3.88-1.75,1.51-.44.67-.75,1.55-.89,2.43-.15.89-.16,1.81-.03,2.71.12.9.41,1.78.8,2.58.38.8.88,1.52,1.35,2.02.24.25.47.41.63.49.08.02.14.04.04.03-.09-.01-.25.06-.25.09-.01.04.08-.03.17-.13.1-.09.2-.26.31-.41.22-.33.46-.72.7-1.12.49-.81,1.02-1.66,1.59-2.46.57-.8,1.19-1.59,2.06-2.08Z" fill="#153f69"/>
    </g>
    <path d="M246.27,244.85s28.25,10.16,44.72-25.39c0,0,4.39-6.63,7.54-24.32,1.14-6.41,20.21-8.56,17.61-24.85-1.94-12.15-29.44,25.87-29.44,25.87,0,0-38.24,33.72-38.85,34.6s-1.57,14.08-1.57,14.08Z" fill="#143054" fill-rule="evenodd"/>
    <path d="M250.32,238.93s-9.65,68.02-13.33,70.24c0,0-3.84,7.7-15.48,9.93l20.61-82.67,8.2,2.5Z" fill="#143054" fill-rule="evenodd"/>
    <path d="M96.78,74.93l-10.62-27.55s-1.92-8.74,4.87-15.6c0,0,31.23-33.66,75.42-25.35,0,0,15.31,1.74,14.55,10.59-.09,1.05-.9,1.9-1.93,2.12-4.83,1.06-69.13,42.14-82.29,55.79Z" fill="#ccc1b3" fill-rule="evenodd"/>
    <path d="M96.2,77.8l-11.55-29.97-.03-.12c-.09-.39-2.01-9.65,5.27-17.03.53-.56,8.3-8.77,21.51-16.08,12.38-6.85,32.02-14.1,55.28-9.74,1.27.15,16.75,2.23,15.89,12.28-.15,1.73-1.42,3.15-3.16,3.53-2.03.48-18.53,10.42-37.57,23.01-21.99,14.54-38.41,26.63-43.92,32.34l-1.71,1.78ZM87.68,46.94l9.71,25.2c9.6-8.92,32.79-24.53,42.79-31.14,16.64-10.99,35.6-22.75,38.55-23.4.38-.08.67-.38.7-.72.25-2.89-1.76-5.25-5.97-7-3.49-1.45-7.16-1.88-7.19-1.89l-.11-.02c-22.37-4.2-41.29,2.79-53.23,9.39-12.96,7.17-20.67,15.4-20.75,15.48l-.03.04c-5.76,5.82-4.66,13.05-4.47,14.06Z" fill="#153f69"/>
    <path d="M197.06,50.59l37.29-14.8s7.05-3.19,4.28-8.77c-.91-1.83-2.56-3.18-4.49-3.87-7.48-2.7-33.47-10.74-58.27-2.62l-45.87,32.82s41.67-12.42,67.06-2.75Z" fill="#d3c9be" fill-rule="evenodd"/>
    <path d="M121.42,57.54l53.73-38.44.23-.08c25.27-8.28,51.77-.08,59.29,2.63,2.4.86,4.3,2.52,5.36,4.66.91,1.84,1.06,3.67.43,5.43-1.26,3.54-5.3,5.4-5.47,5.48l-.07.03-37.86,15.03-.57-.22c-24.61-9.37-65.64,2.67-66.05,2.79l-9.03,2.69ZM176.59,21.95l-38.86,27.8c4.24-.97,9.84-2.1,16.06-2.97,17.98-2.51,32.53-1.79,43.25,2.12l36.68-14.57c.85-.4,3.12-1.79,3.78-3.66.33-.93.24-1.9-.29-2.96-.7-1.41-1.98-2.51-3.61-3.09-7.26-2.62-32.76-10.52-57.01-2.68Z" fill="#153f69"/>
    <path d="M211.95,166.84c30.27-15.37,35.26-47.48,28.1-73.21-10.71-38.51-53.88-53.34-100.67-44.22-47.68,9.29-73.1,54.65-65.52,87.38,3.92,16.91,16.8,32.33,34.75,41.8" fill="#fff2d2" fill-rule="evenodd"/>
    <path d="M211.95,166.84c7-3.84,13.31-8.94,18.1-15.24,2.39-3.14,4.45-6.52,6.1-10.09,1.67-3.56,2.9-7.31,3.77-11.14.88-3.82,1.41-7.72,1.59-11.64.17-3.92,0-7.85-.44-11.74-.45-3.89-1.2-7.75-2.22-11.52-1.06-3.76-2.32-7.44-4.06-10.91-1.72-3.47-3.79-6.76-6.17-9.8l-.91-1.13-.45-.57c-.15-.19-.32-.36-.48-.54-.65-.71-1.28-1.44-1.95-2.14l-2.06-2.03c-.71-.66-1.45-1.28-2.17-1.92-5.91-4.98-12.76-8.84-20.06-11.52-7.28-2.73-14.97-4.4-22.75-5.24-7.79-.81-15.67-.81-23.49-.08l-1.47.12c-.49.04-.98.11-1.46.16l-2.93.34-2.92.42-1.46.21-1.45.26-2.9.52-2.85.63c-.47.11-.95.2-1.43.32l-1.41.39c-.94.26-1.88.51-2.81.78l-2.77.91c-.46.16-.93.29-1.38.47l-1.36.53-1.36.53c-.45.18-.91.34-1.35.55l-2.67,1.19-.67.3-.65.33-1.3.66c-.87.44-1.74.86-2.58,1.36l-2.53,1.44-2.47,1.56c-13.08,8.44-23.69,20.74-30.07,35-3.19,7.12-5.23,14.77-5.89,22.54-.33,3.88-.23,7.8.28,11.66.52,3.86,1.52,7.65,2.92,11.3,1.39,3.66,3.18,7.17,5.29,10.5,2.12,3.32,4.59,6.42,7.27,9.33,5.36,5.84,11.77,10.7,18.69,14.7-3.58-1.77-7.04-3.82-10.34-6.1l-2.44-1.77-2.35-1.89c-.4-.31-.77-.65-1.15-.98l-1.13-1c-.37-.34-.77-.66-1.12-1.02l-1.08-1.06c-2.88-2.82-5.51-5.91-7.83-9.23-2.3-3.33-4.3-6.89-5.9-10.65-1.59-3.75-2.76-7.7-3.43-11.75-.67-4.04-.89-8.16-.67-12.24.21-4.09.84-8.15,1.79-12.12.96-3.97,2.21-7.88,3.82-11.64,1.59-3.76,3.46-7.41,5.57-10.91,2.14-3.49,4.56-6.79,7.17-9.94l2-2.33,2.1-2.23c.69-.76,1.45-1.45,2.18-2.16l1.1-1.07c.36-.36.76-.68,1.14-1.03,3.02-2.77,6.31-5.23,9.7-7.52l2.58-1.67,2.66-1.54c.88-.53,1.8-.98,2.71-1.45l1.37-.7.68-.35.7-.32,2.8-1.26c.46-.22.95-.39,1.42-.58l1.43-.56,1.43-.56c.48-.19.97-.33,1.45-.5l2.92-.97c.98-.29,1.97-.55,2.96-.83l1.48-.41c.5-.12,1-.23,1.5-.34l3-.67,2.99-.55,1.5-.27,1.5-.23,3.01-.45,3.02-.36c.5-.06,1.01-.13,1.51-.17l1.52-.13c8.09-.71,16.26-.68,24.37.2l3.04.37c1.01.14,2.02.32,3.02.48.5.09,1.01.15,1.51.25l1.5.3c1,.21,2.01.38,3,.64,3.99.89,7.91,2.12,11.73,3.59,7.66,2.92,14.89,7.12,21.13,12.52,6.27,5.38,11.3,12.17,14.78,19.62,1.76,3.72,3.02,7.66,4.04,11.61.5,1.98.89,3.98,1.25,5.98.16,1.01.31,2.01.44,3.02l.17,1.52.08.76.06.76c.35,4.06.39,8.14.09,12.2-.32,4.06-.98,8.09-2.03,12.02-2.09,7.86-5.83,15.29-11.05,21.48-2.61,3.09-5.55,5.88-8.77,8.29-3.22,2.4-6.68,4.46-10.3,6.16Z" fill="#153f69"/>
    <path d="M153.77,46.57l24.6-17.21c.7-.52,1.5-.88,2.35-1.05,6.72-1.39,36.52-7.65,52.6,6.61l-34.12,14.82s-23.11-6.96-45.18-2.6c-.33.07-.52-.37-.25-.57Z" fill="#153f69" fill-rule="evenodd"/>
    <path d="M199.3,51.41l-.55-.17c-.23-.07-23.01-6.79-44.43-2.56-.87.17-1.74-.28-2.1-1.09-.36-.82-.11-1.76.61-2.29l.03-.02,24.59-17.2c.88-.64,1.89-1.1,2.95-1.32l.1-.02c30.81-6.38,46.29.28,53.86,7l1.85,1.64-36.91,16.03ZM170.83,44.12c13.95.15,25.56,3.19,28.26,3.95l31.21-13.56c-7.65-5.61-22.15-10.28-49.16-4.69l-.1.02c-.62.13-1.22.4-1.74.78l-.03.02-20.14,14.09c3.98-.48,7.93-.65,11.7-.61Z" fill="#153f69"/>
    <path d="M309.9,169.06c-4.16,5.07-7.32,5.62-9.43,4.91s-3.29-2.79-3.14-4.95c.73-10.4,8.97-12.62,13.9-13,2.22-.17,4.24,1.27,4.84,3.41,5.1,18.13-11.5,26.57-17.91,29.09-1.51.6-2.61,1.92-2.95,3.51-13.26,62.17-49.47,46.12-49.47,46.12l1.38-34.87s4.33.8,7.33,2.7c1.42.9,3.31.43,4.21-.99,2.72-4.26,5.52-12.76,21.18-23.72,1.19-.83,1.39-2.54.76-3.84-2.24-4.69-8.06-15.59-16.14-21.35-1.71-1.22-1.43-3.9.54-4.64,3.49-1.31,9.55.25,16.85,6.59,1.19,1.03,2.94,1.19,4.25.31.81-.55.96-4.03,1.25-5.34" fill="#fff2d2" fill-rule="evenodd"/>
    <path d="M310.02,169.16c-1.04,1.38-2.19,2.71-3.6,3.8-.7.55-1.48,1.02-2.33,1.36-.85.35-1.81.51-2.77.42-.48-.06-.95-.15-1.41-.34-.45-.18-.89-.43-1.27-.74-.77-.61-1.37-1.44-1.72-2.36-.18-.46-.29-.95-.34-1.44-.02-.25-.04-.49-.03-.74,0-.26.03-.46.04-.69.06-.9.19-1.79.39-2.68.39-1.78,1.13-3.52,2.24-5.03,1.11-1.51,2.57-2.76,4.19-3.66,1.62-.91,3.38-1.52,5.16-1.88.45-.09.89-.17,1.34-.23.22-.03.45-.06.67-.09l.34-.04c.11-.01.22-.02.36-.03,1.09-.07,2.2.18,3.16.7.48.26.92.59,1.32.97.39.38.73.82,1,1.29.07.12.13.24.2.36l.17.38c.06.13.09.26.14.39l.06.19.04.16.34,1.31c.41,1.76.65,3.57.67,5.41.06,3.67-.92,7.39-2.76,10.58-.92,1.59-2.04,3.05-3.29,4.38-1.25,1.32-2.6,2.52-4.05,3.58-2.9,2.12-6.06,3.78-9.38,5.04l-.31.12c-.07.03-.15.06-.22.09-.15.07-.29.14-.43.23-.27.17-.53.38-.75.62-.22.24-.41.51-.57.8-.16.3-.26.59-.35.95l-1.31,5.04c-.47,1.67-1,3.33-1.5,4.99l-.19.62-.22.61-.43,1.23-.86,2.46c-.6,1.63-1.3,3.22-1.93,4.83l-1.08,2.37c-.36.79-.71,1.58-1.13,2.34-.4.77-.82,1.53-1.21,2.31-.19.39-.41.76-.64,1.14l-.67,1.12c-.85,1.52-1.88,2.92-2.85,4.36-2.06,2.8-4.4,5.41-7.08,7.66-2.67,2.26-5.7,4.11-8.98,5.4-.4.18-.82.31-1.24.45l-1.26.41-1.28.32-.64.16c-.22.05-.43.08-.65.12l-1.31.24-1.32.16c-.44.06-.88.09-1.32.11-.44.02-.88.07-1.33.05-1.77.04-3.55-.1-5.31-.37-.88-.13-1.75-.32-2.62-.53-.43-.12-.87-.23-1.3-.36-.22-.06-.43-.13-.65-.21-.22-.07-.42-.15-.67-.25l-.65-.26v-.77c.06-2.91.12-5.82.19-8.73.06-2.91.14-5.82.22-8.72l.52-17.44.05-1.79,1.77.33c.65.12,1.21.25,1.81.41.59.15,1.17.32,1.75.51,1.16.38,2.31.83,3.44,1.43.28.14.56.32.84.48.09.05.09.05.12.07.03.01.06.04.09.05.06.02.12.05.18.07.12.04.26.06.39.05.13,0,.27-.02.4-.06.27-.08.51-.24.69-.44.05-.05.09-.11.13-.16l.03-.04.05-.09.1-.17c.14-.24.28-.45.41-.7l1.66-3.03c.59-1.02,1.19-2.05,1.85-3.04,1.31-2,2.76-3.9,4.33-5.7,3.16-3.57,6.75-6.68,10.52-9.48l2.76-1.98c.15-.12.28-.3.35-.58.07-.27.06-.61-.02-.92-.02-.08-.04-.16-.07-.23-.02-.04-.02-.06-.05-.13l-.09-.19-.36-.77c-.25-.51-.49-1.02-.75-1.52-.51-1.01-1.05-2.01-1.6-3-1.11-1.98-2.3-3.9-3.58-5.76-1.28-1.86-2.65-3.64-4.15-5.31-.74-.84-1.53-1.63-2.34-2.39-.42-.37-.82-.75-1.25-1.1l-1.32-1.05c-.65-.5-1.14-1.23-1.36-2.02-.21-.79-.16-1.63.12-2.39.29-.76.86-1.43,1.57-1.83.17-.11.36-.17.55-.26.17-.06.33-.1.49-.15.32-.11.65-.15.97-.21,1.3-.19,2.58-.07,3.78.19,1.2.27,2.35.67,3.45,1.16,2.19.99,4.18,2.28,6.03,3.72.47.36.91.74,1.36,1.11.45.38.87.78,1.31,1.16.23.21.39.35.6.5.21.14.43.25.67.34.47.17.99.23,1.49.15.25-.03.5-.11.73-.21.12-.05.23-.11.34-.17.07-.03.08-.06.11-.08.03,0,.06-.07.09-.11.12-.18.22-.44.3-.7.08-.26.15-.53.22-.81.26-1.11.38-2.25.65-3.4l.31.07c-.17,1.12-.2,2.28-.37,3.44-.04.29-.09.58-.16.88-.07.29-.16.59-.33.9-.06.08-.08.15-.17.24-.08.08-.17.16-.23.2-.13.09-.27.17-.41.25-.29.14-.59.26-.91.32-.63.14-1.3.11-1.93-.07-.31-.09-.62-.22-.9-.38-.28-.16-.56-.39-.77-.55-.45-.35-.89-.71-1.35-1.05-.46-.33-.92-.68-1.39-.99-1.88-1.27-3.85-2.4-5.92-3.21-1.03-.4-2.09-.7-3.15-.88-1.06-.18-2.12-.22-3.1-.03-.24.05-.49.09-.71.18-.11.04-.23.08-.34.11-.07.05-.16.07-.23.12-.28.19-.49.45-.6.78-.1.33-.11.69,0,1.01.11.32.31.58.58.78l1.43,1.05c.48.36.92.76,1.38,1.14.9.79,1.77,1.6,2.59,2.46,3.3,3.42,6.04,7.29,8.44,11.33.6,1.01,1.18,2.03,1.73,3.07.28.52.55,1.04.82,1.56l.4.79.1.2c.03.06.08.18.12.27.09.19.15.39.21.59.22.8.27,1.65.07,2.5-.1.43-.26.85-.49,1.25-.24.4-.55.77-.92,1.07l-.26.21-.17.13-.34.25-.68.5-1.37,1.01c-3.62,2.74-6.95,5.79-9.94,9.11-1.47,1.68-2.83,3.45-4.05,5.31-1.23,1.86-2.28,3.81-3.47,5.88-.14.26-.32.52-.48.78l-.12.2-.06.1-.09.13c-.12.18-.26.35-.41.51-.59.65-1.37,1.13-2.21,1.36-.42.12-.86.18-1.3.18-.44,0-.89-.07-1.31-.2-.22-.06-.42-.15-.62-.24-.1-.04-.2-.1-.29-.16l-.25-.15c-.22-.13-.42-.27-.66-.38-.9-.49-1.9-.91-2.93-1.26-.51-.18-1.04-.34-1.56-.48-.52-.14-1.08-.28-1.56-.38l1.82-1.46-.86,17.43c-.15,2.9-.3,5.81-.47,8.71-.16,2.9-.33,5.81-.52,8.71l-.64-1.03c.15.07.35.15.53.22.19.08.38.15.57.21.38.14.78.26,1.18.39.8.23,1.6.44,2.42.6,1.63.32,3.3.54,4.97.57.42.03.84,0,1.25,0,.42,0,.84,0,1.25-.05l1.25-.09,1.25-.17c.21-.03.42-.05.62-.09l.62-.13,1.23-.26,1.21-.35c.4-.12.81-.23,1.2-.39,3.18-1.12,6.14-2.85,8.77-4.98,2.64-2.14,4.93-4.69,6.97-7.42,3.93-5.59,6.86-11.86,8.91-18.39l.74-2.46.37-1.23.18-.61.16-.62c.41-1.66.85-3.32,1.22-4.98l1.04-5.03c.09-.48.25-1.02.47-1.49.22-.48.52-.93.86-1.34.35-.41.75-.77,1.19-1.07.22-.15.46-.29.7-.41.12-.06.24-.11.37-.17l.29-.13c1.54-.66,3.03-1.42,4.48-2.24,1.45-.82,2.84-1.74,4.15-2.75,2.61-2.01,4.95-4.38,6.54-7.17,1.63-2.76,2.51-5.93,2.5-9.15,0-1.61-.21-3.23-.53-4.83l-.28-1.2-.04-.15-.04-.11c-.03-.07-.04-.15-.07-.22l-.09-.22-.11-.21c-.15-.27-.34-.53-.55-.76-.22-.22-.47-.42-.75-.58-.54-.32-1.18-.48-1.81-.45-.07,0-.18,0-.28.02l-.31.02c-.2.02-.41.04-.61.06-.41.04-.81.11-1.21.18-1.6.28-3.16.75-4.57,1.48-1.41.72-2.67,1.71-3.65,2.95-.97,1.23-1.71,2.68-2.13,4.25-.22.78-.38,1.59-.48,2.41-.02.2-.06.43-.07.6-.02.18-.01.36,0,.55.02.37.09.73.2,1.08.22.7.62,1.35,1.17,1.85.55.49,1.24.82,1.99.94.75.12,1.54.05,2.31-.2.77-.24,1.51-.61,2.21-1.08,1.39-.93,2.65-2.11,3.8-3.38l.24.2Z" fill="#153f69"/>
    <path d="M141,69.85c-3.61-.74-10.64-.66-17.68,7.9-.36.44,0,1.11.57,1.04,3.87-.49,14.05-2.02,18.03-5.01,1.51-1.13.92-3.55-.93-3.93Z" fill="#163d69" fill-rule="evenodd"/>
    <ellipse cx="142.44" cy="104.93" rx="10.32" ry="14.68" transform="translate(-26.14 51.26) rotate(-18.72)" fill="#163d69"/>
    <ellipse cx="200.78" cy="99.11" rx="9.37" ry="13.33" transform="translate(-8.56 19.66) rotate(-5.49)" fill="#163d69"/>
    <path d="M183.23,124.91l.02-1.59c3.08.03,5.62-3.52,5.67-7.93.04-4.07-2.05-7.51-4.88-7.99-1.09-.19-1.94-.47-2.66-.88-2.22-1.26-5.82-4.45-4.94-11.63l1.58.19c-.33,2.69-.22,7.58,4.15,10.06.56.32,1.24.54,2.15.69,3.58.61,6.25,4.73,6.2,9.57-.06,5.28-3.32,9.54-7.27,9.49Z" fill="#163d69"/>
    <path d="M197.88,135.08c.22,1,.13,2.09-.08,3.14-.23,1.05-.61,2.08-1.11,3.06-.99,1.96-2.42,3.73-4.12,5.22-1.7,1.5-3.64,2.78-5.75,3.75-1.06.47-2.15.86-3.27,1.15-1.12.27-2.25.47-3.39.55-1.14.09-2.31.13-3.48.05-1.17-.07-2.34-.23-3.49-.52-1.15-.29-2.27-.69-3.35-1.2-1.07-.51-2.09-1.15-3.05-1.85-1.91-1.41-3.55-3.2-4.67-5.28-.56-1.04-.98-2.17-1.19-3.34-.1-.59-.16-1.18-.11-1.77.04-.59.15-1.17.39-1.69h.35c.47.95,1.1,1.65,1.78,2.26.69.61,1.4,1.13,2.16,1.58,1.5.9,3.08,1.56,4.66,2.05,1.58.49,3.18.78,4.77,1.03,1.59.26,3.21.47,4.89.49.85.02,1.7,0,2.55,0,.84-.03,1.7-.05,2.55-.12,1.71-.14,3.46-.43,5.1-1.1,1.65-.65,3.23-1.57,4.64-2.78.7-.61,1.35-1.3,1.91-2.07.57-.77,1.03-1.63,1.29-2.62Z" fill="#153f69"/>
    <path d="M253.7,207.48l4.89,16.04s15.87,10.34,32.05-27.73c0,0-4.23,29.29-28.04,39.16l1.12,3.23s-6.7,2.46-16.68-.64l1.61-32.08s1.6.02,5.04,2.01Z" fill="#efddbc" fill-rule="evenodd"/>
    <path d="M88.23,42.12s.08-2.49,1.73-5.32c0,0,12.38-22.16,51.75-28.71,3.05-.51,6.71-.96,9.8-.92,9.2.1,24.64,1.33,27.2,7.84,0,0-21.17-11.91-44.08-2.99l8.53,26.26-8.88,6.11-7.41-29.72s-24.95,5.64-38.64,27.46Z" fill="#fff7ee"/>
    <path d="M193.71,165.71s31.39-18.37,32.7-48.38c0,0,8.82,26.65-18.46,49.49l-14.24-1.11Z" fill="#efddbc"/>
    <path d="M267.34,215.82c-.79-.63-1.56-1.28-2.32-1.92-.77-.63-1.53-1.26-2.31-1.88-.77-.62-1.56-1.2-2.35-1.79-.8-.59-1.61-1.13-2.44-1.74l.13-.32c1.02.21,2.01.59,2.92,1.08.91.49,1.78,1.07,2.58,1.73.8.65,1.56,1.36,2.24,2.13.68.77,1.32,1.58,1.83,2.49l-.27.22Z" fill="#efddbc"/>
    <path d="M93.14,323.55l-6.42-120.15s13.77-52.97,142.73-33.9c6.49.96,11.8,5.72,13.35,12.09,3.53,14.46,5.53,47.71-7.61,123.02-.5,2.84-1.94,5.44-4.12,7.32-5.44,4.67-18.32,12.9-45.75,18.66,0,0-70.14,2.54-73.49,2.03-3.35-.51-15.77.36-18.69-9.06Z" fill="#ccc1b3" fill-rule="evenodd"/>
    <path d="M92.98,323.58l-.84-15.02-.93-15-1.01-15-1.06-15-1.06-15.01c-.35-5-.69-10.01-1-15.02-.66-10.02-1.24-20.04-1.76-30.07v-.24s.04-.19.04-.19c.16-.58.33-1,.51-1.48.2-.45.37-.92.59-1.35.21-.44.41-.89.65-1.31.24-.42.45-.87.7-1.27l.75-1.24.81-1.2.41-.6.43-.58.87-1.15c.61-.74,1.23-1.47,1.86-2.19.66-.69,1.31-1.4,1.99-2.07l2.09-1.96,2.19-1.84c.36-.32.75-.58,1.13-.87l1.14-.85c.39-.28.75-.58,1.16-.83l1.19-.78,1.19-.78.6-.39.62-.36,2.46-1.42c.4-.25.83-.45,1.25-.67l1.26-.64,1.26-.64.63-.32.65-.28,2.59-1.13c.43-.18.86-.39,1.3-.55l1.32-.5c7.03-2.7,14.33-4.57,21.69-5.91,7.36-1.38,14.82-2.1,22.26-2.55,14.91-.85,29.86-.36,44.71.97l5.57.56,2.78.27c.93.09,1.86.17,2.78.3,3.71.47,7.39.9,11.12,1.4,1.92.31,3.8.94,5.52,1.87,1.72.93,3.27,2.18,4.58,3.64.34.35.63.75.93,1.14.3.39.56.81.84,1.22.24.43.5.85.72,1.29.2.45.44.88.6,1.35l.26.69c.09.23.15.47.22.71.07.24.14.47.21.71l.16.69.32,1.38c.11.46.22.92.29,1.39l.51,2.78.4,2.79.19,1.4.15,1.4.29,2.8c.14,1.87.28,3.74.39,5.61l.21,5.62c.18,7.49-.09,14.97-.48,22.43-.89,14.92-2.53,29.77-4.56,44.56-.26,1.85-.48,3.7-.77,5.54l-.83,5.53-.84,5.53-.92,5.52-.92,5.52-.46,2.76c-.03.22-.09.49-.14.75-.06.26-.12.51-.19.77-.14.51-.3,1.01-.5,1.5-.77,1.96-1.98,3.76-3.55,5.2-.4.38-.76.65-1.14.97-.37.32-.76.6-1.14.89l-.58.44-.59.42c-.4.27-.78.56-1.18.82-6.4,4.25-13.4,7.25-20.5,9.76-1.79.59-3.57,1.22-5.38,1.73-.9.26-1.8.55-2.71.79l-2.72.73-1.36.36-1.37.33-2.74.66c-1.83.42-3.67.79-5.5,1.18l-.13.03h-.11s-11.98.27-11.98.27l-11.98.2-23.96.33c-7.99.08-15.97.23-23.97.18-.5,0-1.02-.05-1.53-.07-.26,0-.48-.06-.73-.08-.24-.03-.49-.05-.74-.07-.99-.08-1.99-.14-2.99-.24-1.99-.2-3.99-.49-5.92-1.08-1.92-.58-3.8-1.46-5.34-2.79-.77-.66-1.44-1.43-1.99-2.29-.55-.86-.97-1.77-1.28-2.77ZM93.29,323.52c.3.91.71,1.82,1.25,2.64.54.82,1.19,1.56,1.94,2.2,1.5,1.28,3.33,2.12,5.22,2.68,3.8,1.14,7.87,1.09,11.8,1.34,3.98-.02,7.97-.17,11.96-.32,3.99-.16,7.98-.32,11.96-.51l47.84-2.38-.24.03,5.4-1.28,2.68-.69,1.34-.35,1.33-.38,2.66-.76c.89-.26,1.76-.55,2.64-.82,1.76-.54,3.5-1.16,5.24-1.74,6.91-2.49,13.68-5.48,19.68-9.53.38-.25.74-.52,1.1-.78l.55-.39.53-.41c.35-.28.72-.54,1.05-.83.33-.28.71-.58.99-.84,1.18-1.08,2.11-2.45,2.7-3.95.15-.38.27-.76.38-1.15.05-.19.1-.39.14-.59.04-.2.08-.38.12-.62l.46-2.75.93-5.5.92-5.5.86-5.51.87-5.51c.3-1.83.54-3.68.81-5.51,2.15-14.71,3.91-29.47,4.93-44.28.49-7.4.82-14.82.8-22.22l-.1-5.55c-.02-.92-.09-1.85-.13-2.77-.05-.92-.08-1.85-.14-2.77l-.22-2.76-.11-1.38-.16-1.37-.33-2.74-.43-2.72c-.06-.46-.16-.9-.25-1.35l-.28-1.35-.14-.67c-.05-.22-.11-.42-.17-.64-.06-.21-.11-.43-.18-.63l-.22-.62c-.13-.42-.34-.81-.51-1.21-.18-.4-.41-.78-.61-1.17-.24-.37-.46-.75-.72-1.1-.27-.35-.51-.72-.81-1.04-1.14-1.34-2.51-2.49-4.05-3.36-1.54-.87-3.23-1.48-4.97-1.8-3.65-.56-7.35-1.07-11.02-1.61-3.69-.49-7.38-.87-11.08-1.3-.92-.12-1.85-.18-2.78-.26l-2.78-.23-5.56-.45c-1.86-.11-3.71-.18-5.57-.28l-2.79-.13c-.93-.04-1.86-.1-2.79-.1l-5.58-.07-2.79-.02-2.79.07-5.57.13c-1.85.1-3.71.23-5.56.35l-2.78.19-2.77.29-2.77.29c-.92.1-1.85.18-2.76.33l-5.5.83c-.46.06-.91.15-1.37.24l-1.36.27-2.73.53c-7.25,1.51-14.38,3.57-21.19,6.4l-1.28.52c-.43.17-.84.38-1.25.58l-2.5,1.17-.62.29-.61.32-1.21.65-1.21.65c-.4.22-.81.42-1.2.67-3.17,1.84-6.17,3.93-9,6.22l-2.07,1.78-1.96,1.89c-.63.65-1.23,1.33-1.85,1.99-.59.69-1.16,1.39-1.73,2.09l-.81,1.08-.4.54-.38.56-.75,1.12-.69,1.15c-.24.38-.43.78-.64,1.17-.22.39-.4.79-.59,1.19-.2.4-.35.8-.52,1.21-.15.39-.31.84-.4,1.16l.04-.43c.55,10,1.04,20,1.45,30.01.22,5,.41,10.01.6,15.02l.55,15.03.54,15.04.59,15.04.67,15.04.76,15.02Z" fill="#153f69"/>
    <path d="M231.88,310.97c6.19-14.82-90.23-4.47-90.23-4.47-15.16,1-38.16,15.39-44.22,18.82-.92.52-1.37,2.13-.55,2.8,2.84,2.35,9.94,6.28,20.79,5.2l82.59-3.21s29.47-13.99,31.62-19.14Z" fill="#a79d93" fill-rule="evenodd"/>
    <path d="M231.73,310.9c.11-.29.21-.6.22-.9,0-.31-.04-.61-.13-.88-.1-.27-.23-.53-.39-.77-.16-.24-.38-.46-.6-.66-.93-.79-2.13-1.29-3.33-1.68-2.44-.77-5.01-1.16-7.58-1.44-5.15-.55-10.36-.63-15.55-.62-5.2,0-10.4.21-15.6.41-5.2.22-10.4.51-15.6.82-5.2.32-10.4.67-15.59,1.03-2.6.19-5.2.38-7.79.59-2.6.2-5.19.42-7.79.65-5.13.29-10.08,1.79-14.93,3.59-4.85,1.82-9.56,4.02-14.19,6.38-2.31,1.19-4.61,2.41-6.88,3.68-2.28,1.26-4.52,2.58-6.78,3.89l-.85.49-.43.24-.21.12s-.08.05-.12.08c-.33.25-.56.8-.53,1.22.01.21.08.36.18.45.01.01.1.08.15.12l.18.14c.13.09.25.19.38.28.51.37,1.04.71,1.59,1.03,1.1.63,2.25,1.18,3.43,1.64,1.18.47,2.41.83,3.65,1.1,2.49.54,5.05.67,7.58.5.32-.02.63-.04.95-.07.32-.03.63-.06.94-.1.62-.05,1.29-.19,1.93-.23,1.3-.1,2.6-.2,3.9-.26,5.21-.25,10.43-.46,15.65-.66l15.66-.52,15.66-.47c10.44-.33,20.87-.7,31.3-1.12l-.44.11h0c2.82-1.24,5.64-2.53,8.44-3.85,2.79-1.33,5.57-2.71,8.32-4.13,2.75-1.42,5.46-2.91,8.11-4.51,1.32-.8,2.62-1.64,3.87-2.54.62-.45,1.23-.93,1.8-1.44.29-.25.56-.52.81-.81.25-.28.48-.59.63-.91ZM232.02,311.03c-.16.39-.39.72-.64,1.03-.25.31-.52.6-.8.87-.56.55-1.16,1.06-1.77,1.55-1.22.97-2.5,1.87-3.79,2.74-2.59,1.73-5.26,3.33-7.94,4.91-2.68,1.57-5.39,3.09-8.12,4.59-2.72,1.5-5.46,2.97-8.23,4.41h0s-.21.1-.21.1h-.23c-10.42.39-20.85.83-31.27,1.32l-15.63.74-15.63.7c-5.21.21-10.42.41-15.64.56-1.3.04-2.61.04-3.92.04-.66-.03-1.28.05-1.97.04-.34,0-.67,0-1.01,0-.34,0-.67-.02-1.01-.03-2.69-.14-5.35-.56-7.94-1.25-.65-.17-1.29-.36-1.92-.57-.64-.2-1.27-.43-1.89-.68-1.24-.5-2.45-1.09-3.6-1.78-.58-.35-1.14-.72-1.68-1.12-.14-.1-.27-.2-.4-.31l-.2-.16c-.07-.06-.12-.09-.22-.19-.38-.36-.54-.87-.56-1.3-.02-.44.08-.85.24-1.23.17-.38.4-.73.75-1.01.09-.07.18-.14.28-.19l.21-.12.42-.24.84-.49c4.5-2.64,9.01-5.29,13.64-7.74,4.62-2.45,9.35-4.74,14.24-6.68,2.45-.97,4.94-1.85,7.49-2.55,1.28-.34,2.57-.67,3.88-.91.65-.14,1.32-.23,1.98-.33.33-.06.66-.08.99-.12.32-.04.68-.07.97-.11,5.19-.61,10.39-1.14,15.59-1.62,5.2-.49,10.41-.89,15.63-1.2,10.44-.62,20.9-.93,31.38-.6,5.23.19,10.48.52,15.68,1.29,2.6.4,5.2.9,7.71,1.81,1.24.47,2.49,1.03,3.53,1.98.5.48.95,1.1,1.06,1.83.1.73-.11,1.42-.35,2.04Z" fill="#153f69"/>
    <path d="M219.82,178.64c3.03-.02,14.69.06,15.25,2.64l-.02,2.17c0,.29-.27.51-.56.46-1.45-.28-5.9-1.02-14.71-1.47-.27-.01-.49-.23-.51-.5l-.13-2.57c-.02-.39.29-.72.68-.72Z" fill="#163d69" fill-rule="evenodd"/>
    <path d="M220.97,188.97c3.03-.02,14.69.06,15.25,2.64l-.02,2.17c0,.29-.27.51-.56.46-1.45-.28-5.9-1.02-14.71-1.47-.27-.01-.49-.23-.51-.5l-.13-2.57c-.02-.39.29-.72.68-.72Z" fill="#163d69" fill-rule="evenodd"/>
    <path d="M221.15,199.29c3.03-.02,14.69.06,15.25,2.64l-.02,2.17c0,.29-.27.51-.56.46-1.45-.28-5.9-1.02-14.71-1.47-.27-.01-.49-.23-.51-.5l-.13-2.57c-.02-.39.29-.72.68-.72Z" fill="#163d69" fill-rule="evenodd"/>
    <path d="M221.05,208.93c3.03-.02,14.69.06,15.25,2.64l-.02,2.17c0,.29-.27.51-.56.46-1.45-.28-5.9-1.02-14.71-1.47-.27-.01-.49-.23-.51-.5l-.13-2.57c-.02-.39.29-.72.68-.72Z" fill="#163d69" fill-rule="evenodd"/>
    <path d="M221.18,219.08c3.03-.02,14.69.06,15.25,2.64l-.02,2.17c0,.29-.27.51-.56.46-1.45-.28-5.9-1.02-14.71-1.47-.27-.01-.49-.23-.51-.5l-.13-2.57c-.02-.39.29-.72.68-.72Z" fill="#163d69" fill-rule="evenodd"/>
    <path d="M220.63,228.98c3.03-.02,14.69.06,15.25,2.64l-.02,2.17c0,.29-.27.51-.56.46-1.45-.28-5.9-1.02-14.71-1.47-.27-.01-.49-.23-.51-.5l-.13-2.57c-.02-.39.29-.72.68-.72Z" fill="#163d69" fill-rule="evenodd"/>
    <path d="M220.03,238.87c3.03-.02,14.69.06,15.25,2.64l-.02,2.17c0,.29-.27.51-.56.46-1.45-.28-5.9-1.02-14.71-1.47-.27-.01-.49-.23-.51-.5l-.13-2.57c-.02-.39.29-.72.68-.72Z" fill="#163d69" fill-rule="evenodd"/>
    <path d="M219.34,248.77c2.96-.02,14.33.06,14.87,2.64l-.02,2.17c0,.29-.26.51-.54.46-1.42-.28-5.75-1.02-14.35-1.46-.27-.01-.48-.23-.49-.5l-.12-2.57c-.02-.39.28-.72.66-.72Z" fill="#163d69" fill-rule="evenodd"/>
    <path d="M218.39,258.66c2.96-.02,14.33.06,14.87,2.64l-.02,2.17c0,.29-.26.51-.54.46-1.42-.28-5.75-1.02-14.35-1.46-.27-.01-.48-.23-.49-.5l-.12-2.57c-.02-.39.28-.72.66-.72Z" fill="#163d69" fill-rule="evenodd"/>
    <path d="M217.96,268.71c2.88-.02,13.93.05,14.45,2.63l-.02,2.17c0,.29-.25.51-.53.46-1.38-.28-5.59-1.02-13.95-1.46-.26-.01-.47-.23-.48-.5l-.12-2.57c-.02-.39.27-.72.65-.72Z" fill="#163d69" fill-rule="evenodd"/>
    <path d="M215.34,288.27c2.88-.02,13.93.05,14.45,2.63l-.02,2.17c0,.29-.25.51-.53.46-1.38-.28-5.59-1.02-13.95-1.46-.26-.01-.47-.23-.48-.5l-.12-2.57c-.02-.39.27-.72.65-.72Z" fill="#163d69" fill-rule="evenodd"/>
    <path d="M217,278.49c2.88-.02,13.93.05,14.45,2.63l-.02,2.17c0,.29-.25.51-.53.46-1.38-.28-5.59-1.02-13.95-1.46-.26-.01-.47-.23-.48-.5l-.12-2.57c-.02-.39.27-.72.65-.72Z" fill="#163d69" fill-rule="evenodd"/>
    <path d="M194.02,178c2.74,0,13.28-.22,17.06.44.31.05.56.27.65.56.28.84.62,2.59-.9,3.46-.14.08-.31.11-.48.11-1.64-.06-10.9-.4-16.28-.21-.42.02-.78-.29-.85-.71-.11-.71-.39-1.58-.07-2.98.09-.4.44-.68.85-.68Z" fill="#163d69" fill-rule="evenodd"/>
    <path d="M195.26,187.85c2.74,0,13.28-.22,17.06.44.31.05.56.27.65.56.28.84.62,2.59-.9,3.46-.14.08-.31.11-.48.11-1.64-.06-10.9-.4-16.28-.21-.42.02-.78-.29-.85-.71-.11-.71-.39-1.58-.07-2.98.09-.4.44-.68.85-.68Z" fill="#163d69" fill-rule="evenodd"/>
    <path d="M167.36,179.03c5.14-.83,12.61-1.05,17.55-.51.31.03.56.27.65.56.28.84.62,2.59-.9,3.46-.14.08-.31.11-.48.11-1.64-.06-11.39.55-16.77.75-.42.02-.78-.29-.85-.71-.11-.71-.39-1.58-.07-2.98.09-.4.45-.61.85-.68Z" fill="#163d69" fill-rule="evenodd"/>
    <path d="M168.93,188.86c5.14-.83,12.61-1.05,17.55-.51.31.03.56.27.65.56.28.84.62,2.59-.9,3.46-.14.08-.31.11-.48.11-1.64-.06-11.39.55-16.77.75-.42.02-.78-.29-.85-.71-.11-.71-.39-1.58-.07-2.98.09-.4.45-.61.85-.68Z" fill="#163d69" fill-rule="evenodd"/>
    <path d="M169.83,199.19c5.14-.83,12.61-1.05,17.55-.51.31.03.56.27.65.56.28.84.62,2.59-.9,3.46-.14.08-.31.11-.48.11-1.64-.06-11.39.55-16.77.75-.42.02-.78-.29-.85-.71-.11-.71-.39-1.58-.07-2.98.09-.4.45-.61.85-.68Z" fill="#163d69" fill-rule="evenodd"/>
    <path d="M170.82,208.85c4.83-.84,11.86-1.06,16.51-.53.29.03.52.27.61.56.26.84.58,2.59-.84,3.46-.14.08-.29.11-.45.11-1.54-.06-10.71.56-15.77.76-.4.02-.74-.29-.8-.71-.1-.71-.36-1.58-.06-2.98.08-.4.42-.61.8-.68Z" fill="#163d69" fill-rule="evenodd"/>
    <path d="M171.05,218.83c4.83-.84,11.86-1.06,16.51-.53.29.03.52.27.61.56.26.84.58,2.59-.84,3.46-.14.08-.29.11-.45.11-1.54-.06-10.71.56-15.77.76-.4.02-.74-.29-.8-.71-.1-.71-.36-1.58-.06-2.98.08-.4.42-.61.8-.68Z" fill="#163d69" fill-rule="evenodd"/>
    <path d="M171.41,228.59c4.85-.71,11.88-.74,16.51-.08.29.04.52.28.6.58.24.85.51,2.6-.94,3.44-.14.08-.29.11-.45.09-1.54-.1-10.72.27-15.78.33-.4,0-.73-.31-.78-.73-.08-.71-.32-1.59.02-2.98.1-.39.44-.6.82-.66Z" fill="#163d69" fill-rule="evenodd"/>
    <path d="M170.95,238.32c4.87-.56,11.9-.38,16.51.42.29.05.51.3.58.6.21.85.43,2.62-1.04,3.41-.14.07-.3.1-.45.08-1.53-.15-10.72-.05-15.79-.15-.4,0-.72-.33-.75-.75-.06-.71-.27-1.6.11-2.98.11-.39.46-.59.84-.63Z" fill="#163d69" fill-rule="evenodd"/>
    <path d="M170.85,248.05c4.87-.56,11.9-.38,16.51.42.29.05.51.3.58.6.21.85.43,2.62-1.04,3.41-.14.07-.3.1-.45.08-1.53-.15-10.72-.05-15.79-.15-.4,0-.72-.33-.75-.75-.06-.71-.27-1.6.11-2.98.11-.39.46-.59.84-.63Z" fill="#163d69" fill-rule="evenodd"/>
    <path d="M170.74,258.31c4.87-.56,11.9-.38,16.51.42.29.05.51.3.58.6.21.85.43,2.62-1.04,3.41-.14.07-.3.1-.45.08-1.53-.15-10.72-.05-15.79-.15-.4,0-.72-.33-.75-.75-.06-.71-.27-1.6.11-2.98.11-.39.46-.59.84-.63Z" fill="#163d69" fill-rule="evenodd"/>
    <path d="M169.54,268.19c4.87-.56,11.9-.38,16.51.42.29.05.51.3.58.6.21.85.43,2.62-1.04,3.41-.14.07-.3.1-.45.08-1.53-.15-10.72-.05-15.79-.15-.4,0-.72-.33-.75-.75-.06-.71-.27-1.6.11-2.98.11-.39.46-.59.84-.63Z" fill="#163d69" fill-rule="evenodd"/>
    <path d="M168.32,278.07c4.74-.57,11.58-.4,16.07.39.28.05.49.3.57.6.2.85.42,2.62-1.02,3.41-.14.07-.29.1-.44.08-1.49-.15-10.44-.03-15.37-.12-.39,0-.7-.33-.73-.75-.06-.71-.26-1.59.11-2.98.1-.39.45-.59.82-.63Z" fill="#163d69" fill-rule="evenodd"/>
    <path d="M167.54,288.38c4.76-.57,11.62-.4,16.13.4.28.05.5.3.57.6.2.85.42,2.62-1.02,3.41-.14.07-.29.1-.44.08-1.5-.15-10.48-.04-15.42-.12-.39,0-.7-.33-.74-.75-.06-.71-.26-1.6.11-2.98.11-.39.45-.59.82-.63Z" fill="#163d69" fill-rule="evenodd"/>
    <path d="M195.82,197.7c2.74,0,13.28-.22,17.06.44.31.05.56.27.65.56.28.84.62,2.59-.9,3.46-.14.08-.31.11-.48.11-1.64-.06-10.9-.4-16.28-.21-.42.02-.78-.29-.85-.71-.11-.71-.39-1.58-.07-2.98.09-.4.44-.68.85-.68Z" fill="#163d69" fill-rule="evenodd"/>
    <path d="M196.51,207.55c2.62,0,12.7-.22,16.31.43.29.05.53.27.63.56.26.84.59,2.59-.86,3.46-.14.08-.3.11-.45.11-1.56-.06-10.42-.4-15.56-.2-.4.02-.75-.29-.81-.71-.1-.71-.37-1.58-.07-2.98.09-.4.43-.68.81-.68Z" fill="#163d69" fill-rule="evenodd"/>
    <path d="M196.4,217.59c2.62,0,12.7-.22,16.31.43.29.05.53.27.63.56.26.84.59,2.59-.86,3.46-.14.08-.3.11-.45.11-1.56-.06-10.42-.4-15.56-.2-.4.02-.75-.29-.81-.71-.1-.71-.37-1.58-.07-2.98.09-.4.43-.68.81-.68Z" fill="#163d69" fill-rule="evenodd"/>
    <path d="M196.29,227.63c2.62,0,12.7-.22,16.31.43.29.05.53.27.63.56.26.84.59,2.59-.86,3.46-.14.08-.3.11-.45.11-1.56-.06-10.42-.4-15.56-.2-.4.02-.75-.29-.81-.71-.1-.71-.37-1.58-.07-2.98.09-.4.43-.68.81-.68Z" fill="#163d69" fill-rule="evenodd"/>
    <path d="M195.72,237.67c2.48,0,12.05-.23,15.48.42.28.05.51.27.59.56.25.84.56,2.59-.82,3.46-.13.08-.28.11-.43.11-1.48-.06-9.89-.39-14.77-.19-.38.02-.71-.29-.77-.71-.1-.71-.35-1.58-.06-2.98.08-.4.4-.68.77-.68Z" fill="#163d69" fill-rule="evenodd"/>
    <path d="M195.61,247.72c2.48,0,12.05-.23,15.48.42.28.05.51.27.59.56.25.84.56,2.59-.82,3.46-.13.08-.28.11-.43.11-1.48-.06-9.89-.39-14.77-.19-.38.02-.71-.29-.77-.71-.1-.71-.35-1.58-.06-2.98.08-.4.4-.68.77-.68Z" fill="#163d69" fill-rule="evenodd"/>
    <path d="M195.29,257.76c2.48,0,12.05-.23,15.48.42.28.05.51.27.59.56.25.84.56,2.59-.82,3.46-.13.08-.28.11-.43.11-1.48-.06-9.89-.39-14.77-.19-.38.02-.71-.29-.77-.71-.1-.71-.35-1.58-.06-2.98.08-.4.4-.68.77-.68Z" fill="#163d69" fill-rule="evenodd"/>
    <path d="M194.01,267.79c2.49,0,12.08-.23,15.52.42.28.05.51.27.59.56.25.84.56,2.59-.82,3.46-.13.08-.28.11-.43.11-1.49-.06-9.91-.39-14.81-.19-.38.02-.71-.29-.77-.71-.1-.71-.35-1.58-.06-2.98.08-.4.4-.68.78-.68Z" fill="#163d69" fill-rule="evenodd"/>
    <path d="M192.89,277.82c2.49,0,12.08-.23,15.52.42.28.05.51.27.59.56.25.84.56,2.59-.82,3.46-.13.08-.28.11-.43.11-1.49-.06-9.91-.39-14.81-.19-.38.02-.71-.29-.77-.71-.1-.71-.35-1.58-.06-2.98.08-.4.4-.68.78-.68Z" fill="#163d69" fill-rule="evenodd"/>
    <path d="M191.78,287.85c2.49,0,12.08-.23,15.52.42.28.05.51.27.59.56.25.84.56,2.59-.82,3.46-.13.08-.28.11-.43.11-1.49-.06-9.91-.39-14.81-.19-.38.02-.71-.29-.77-.71-.1-.71-.35-1.58-.06-2.98.08-.4.4-.68.78-.68Z" fill="#163d69" fill-rule="evenodd"/>
    <path d="M139.63,186.99c-.35-1.05-.58-2.69.53-4.1,0,0,16.48-4.14,18.54-1.75,0,0,1.12,3.36-.23,4.12,0,0-9.92.3-17.36,2.5-.62.18-1.29-.16-1.49-.78Z" fill="#163d69" fill-rule="evenodd"/>
    <path d="M141.2,196.2c-.35-1.05-.58-2.69.53-4.1,0,0,16.48-4.14,18.54-1.75,0,0,1.12,3.36-.23,4.12,0,0-9.92.3-17.36,2.5-.62.18-1.29-.16-1.49-.78Z" fill="#163d69" fill-rule="evenodd"/>
    <path d="M142.55,206.14c-.35-1.05-.58-2.69.53-4.1,0,0,16.48-4.14,18.54-1.75,0,0,1.12,3.36-.23,4.12,0,0-9.92.3-17.36,2.5-.62.18-1.29-.16-1.49-.78Z" fill="#163d69" fill-rule="evenodd"/>
    <path d="M143.34,215.89c-.35-1.05-.58-2.69.53-4.1,0,0,16.48-4.14,18.54-1.75,0,0,1.12,3.36-.23,4.12,0,0-9.92.3-17.36,2.5-.62.18-1.29-.16-1.49-.78Z" fill="#163d69" fill-rule="evenodd"/>
    <path d="M143.79,225.87c-.35-1.05-.58-2.69.53-4.1,0,0,16.48-4.14,18.54-1.75,0,0,1.12,3.36-.23,4.12,0,0-9.92.3-17.36,2.5-.62.18-1.29-.16-1.49-.78Z" fill="#163d69" fill-rule="evenodd"/>
    <path d="M144.36,235.64c-.35-1.05-.58-2.69.53-4.1,0,0,16.48-4.14,18.54-1.75,0,0,1.12,3.36-.23,4.12,0,0-9.92.3-17.36,2.5-.62.18-1.29-.16-1.49-.78Z" fill="#163d69" fill-rule="evenodd"/>
    <path d="M144.74,244.9c-.3-1.07-.47-2.71.7-4.07,0,0,16.64-3.47,18.6-1,0,0,.99,3.4-.39,4.11,0,0-9.92-.1-17.45,1.8-.63.16-1.28-.21-1.46-.84Z" fill="#163d69" fill-rule="evenodd"/>
    <path d="M143.96,254.37c-.26-1.08-.36-2.73.86-4.04,0,0,16.76-2.79,18.62-.25,0,0,.85,3.44-.56,4.09,0,0-9.91-.5-17.5,1.09-.64.13-1.27-.26-1.42-.89Z" fill="#163d69" fill-rule="evenodd"/>
    <path d="M146.04,264.1c-.2-1.07-.26-2.72.78-4.05,0,0,13.93-3.05,15.43-.55,0,0,.65,3.42-.53,4.09,0,0-8.2-.35-14.52,1.37-.53.14-1.05-.24-1.16-.87Z" fill="#163d69" fill-rule="evenodd"/>
    <path d="M144.27,274.57c-.23-1.08-.31-2.73.82-4.04,0,0,15.33-2.92,17.01-.4,0,0,.75,3.43-.54,4.09,0,0-9.04-.42-15.99,1.23-.58.14-1.16-.25-1.29-.88Z" fill="#163d69" fill-rule="evenodd"/>
    <path d="M143.25,284.53c-.23-1.08-.31-2.73.82-4.04,0,0,15.33-2.92,17.01-.4,0,0,.75,3.43-.54,4.09,0,0-9.04-.42-15.99,1.23-.58.14-1.16-.25-1.29-.88Z" fill="#163d69" fill-rule="evenodd"/>
    <path d="M142.34,294.07c-.23-1.08-.31-2.73.82-4.04,0,0,15.33-2.92,17.01-.4,0,0,.75,3.43-.54,4.09,0,0-9.04-.42-15.99,1.23-.58.14-1.16-.25-1.29-.88Z" fill="#163d69" fill-rule="evenodd"/>
    <path d="M117.26,192.58c.88.7,1.63,1.52,2.37,2.37l.53.65.51.67c.34.44.65.91.97,1.36,1.26,1.85,2.33,3.81,3.33,5.81.99,2.01,1.81,4.08,2.62,6.16.77,2.09,1.43,4.22,2.04,6.37.28,1.07.61,2.14.86,3.23.25,1.08.51,2.17.73,3.26l.65,3.27.56,3.28.14.82.11.83.21,1.65.21,1.65c.07.55.11,1.1.17,1.65l.33,3.31.25,3.31.1,1.66.06,1.66.12,3.32.05,3.31c0,1.1.05,2.21,0,3.31l-.08,3.31-.04,1.65-.07,1.65c-.1,2.2-.19,4.41-.4,6.6-.66,8.79-1.83,17.53-3.65,26.14l-.24-.03c.94-8.71,1.63-17.44,1.97-26.19.32-8.75.34-17.52-.26-26.25-.54-8.73-1.59-17.45-3.64-25.96-.12-.53-.25-1.06-.4-1.59l-.42-1.59c-.28-1.06-.62-2.1-.92-3.15-.68-2.08-1.38-4.15-2.24-6.16-.84-2.02-1.77-4-2.85-5.89-.55-.94-1.11-1.88-1.75-2.77-.63-.88-1.3-1.76-2.07-2.51l.16-.18Z" fill="#f1ece4"/>
    <path d="M93.33,302.05l.32,9.98s2.09-2.7,3.43-2.08c0,0,25.76,4.5,27.17-32.26,0,0,15.99-.08,19.89-11.49,3.9-11.41-27.36,3.86-27.36,3.86l-23.45,32" fill="#a79d93" fill-rule="evenodd"/>
    <path d="M113,212.39s8.02,26.49-22.28,44.19l-.86-11.16s22.16-14.82,23.14-33.04Z" fill="#a79d93" fill-rule="evenodd"/>
    <path d="M90.82,201.58l-.97-.4c.09-.22,2.3-5.48,9.27-11.87,6.4-5.87,18.22-13.83,38.13-18.37.05-.02,8.45-2.49,23.37-3.82,13.75-1.22,36.04-1.7,64.1,2.99.66.11,1.31.2,1.93.27.12.01.25.02.39.04,3.21.3,12.99,1.23,15.07,15.78l-1.04.15c-1.96-13.74-10.8-14.57-14.12-14.89-.15-.01-.28-.03-.4-.04-.64-.07-1.31-.16-2-.27-27.96-4.67-50.15-4.2-63.84-2.98-14.82,1.32-23.12,3.77-23.2,3.79-19.68,4.5-31.33,12.31-37.64,18.08-6.83,6.24-9.05,11.49-9.07,11.55Z" fill="#f1ece4"/>
    <path d="M127.73,55.33s35.83.67,41.46,7.23c0,0,21.58,23.71,49.28,27.71,0,0,13.33,1.19,20.02,4.79,0,0-4.64-26.32-37.28-40.1-4.56-1.92-9.37-3-14.25-3.8-15.79-2.59-42.38-3.19-59.24,4.17Z" fill="#f3dfc0" fill-rule="evenodd"/>
    <path d="M195.7,65.75c3.62-.66,10.66-.43,17.5,8.28.35.45-.03,1.11-.59,1.02-3.86-.57-14.01-2.33-17.92-5.4-1.49-1.17-.85-3.57,1.01-3.91Z" fill="#163d69" fill-rule="evenodd"/>
    <path d="M199.3,315.91s-7.78,3.77-11.58,7.96c-1.2,1.32-1.86,3.04-1.86,4.82,0,2.11.41,5.39,2.32,8.84,0,0-5.19-6.04-4.47-12.04.07-.58.33-1.12.73-1.55,1.51-1.62,8-7.07,14.85-8.04Z" fill="#163d69" fill-rule="evenodd"/>
    <path d="M108.6,261.24l-28.4,28.94,13.21,10.78,27.19-27.71c2.28.79,4.74,1.26,7.12,1.4l1.51-.1c10.69-.93,18.89-9.74,18.85-20.47-.08-3.23-.9-6.19-2.02-8.89l-.05-.05-14.01,14.17-7.66-2.03-2.08-7.64,13.79-13.96c-2.49-1.34-5.56-2.18-8.66-2.04-10.8.15-19.42,8.69-20.19,19.08v1.45c-.03,2.44.43,5.04,1.39,7.06Z" fill="#153f69" fill-rule="evenodd"/>
    <path d="M36.35,248.57s5.35-31.29,51.59-45.16c1.43-.43,2.9-.69,4.39-.74,6.55-.25,23.43.82,18.16,19.28-1.75,6.12-5.23,11.6-9.94,15.88-4.97,4.52-12.92,10.06-23.92,12.62,0,0-6.92-5.4-9.85-8-.16-.14-.34.21-.17.33,3.27,2.34,17.33,12.63,23.35,20.57,0,0,22.27-3.93,13.67,4.11,0,0,22.69,4.56,13.27,17.2,0,0,2.48,8.41-6.39,11.67,0,0-2,9.37-13.71,6.45,0,0-14.91-6.76-18.68-20.55,0,0-36.11-11.57-41.79-33.66Z" fill="#fff2d2"/>
    <path d="M36.19,248.58c0-.08.01-.08.01-.11v-.08s.04-.15.04-.15l.06-.3.12-.6c.09-.4.18-.79.29-1.19.21-.79.44-1.57.7-2.34.52-1.55,1.14-3.06,1.82-4.55,1.38-2.96,3.04-5.8,4.92-8.48,1.9-2.67,4.01-5.19,6.31-7.54,2.31-2.33,4.77-4.51,7.38-6.51,1.3-1,2.63-1.96,4-2.86,1.36-.91,2.76-1.78,4.18-2.6,2.83-1.65,5.75-3.16,8.75-4.48,2.99-1.34,6.05-2.52,9.15-3.57.78-.26,1.55-.53,2.33-.77l1.17-.37c.4-.13.83-.24,1.25-.34.85-.2,1.71-.34,2.58-.42.43-.04.89-.07,1.3-.08.42-.01.84-.02,1.26-.02,1.68,0,3.36.11,5.03.36,1.67.26,3.34.66,4.97,1.27,1.62.62,3.2,1.45,4.57,2.62,1.37,1.16,2.5,2.66,3.2,4.32.71,1.66,1.01,3.44,1.02,5.16.01,1.73-.22,3.42-.6,5.05-.76,3.26-2.02,6.36-3.68,9.23-1.65,2.87-3.71,5.49-6.06,7.79-1.18,1.15-2.42,2.21-3.7,3.23-1.28,1.02-2.61,1.97-3.96,2.87-5.43,3.62-11.49,6.28-17.84,7.81l-.23.06-.2-.15c-2.94-2.26-5.85-4.55-8.75-6.89-.36-.3-.72-.59-1.08-.9l-.13-.11s.13.11.28.12c.17.02.32-.04.39-.1.14-.11.15-.18.18-.26.02-.08.02-.23-.1-.38-.03-.03-.06-.07-.09-.09l.03.02.07.05.14.1.29.2c.76.53,1.52,1.07,2.27,1.61,1.51,1.09,3,2.19,4.48,3.31,2.96,2.26,5.88,4.57,8.69,7.03,1.41,1.23,2.79,2.5,4.12,3.82,1.34,1.32,2.63,2.71,3.82,4.23l-1.18-.46c1.71-.32,3.39-.57,5.1-.77,1.71-.2,3.43-.33,5.19-.35.88,0,1.78.03,2.7.14.46.06.94.14,1.43.27.49.14,1.02.31,1.58.7.28.19.58.45.82.82.24.36.41.83.43,1.27.03.44-.04.82-.14,1.15-.1.33-.23.6-.37.85-.56.98-1.22,1.64-1.88,2.28l-.7-2.47c.62.13,1.16.26,1.73.41.56.15,1.12.31,1.68.48,1.11.34,2.21.72,3.3,1.16,2.17.88,4.31,1.96,6.25,3.53.96.79,1.87,1.72,2.59,2.85.72,1.13,1.21,2.49,1.29,3.9.1,1.4-.21,2.77-.69,3.98-.48,1.21-1.14,2.29-1.86,3.28l.25-1.42c.04.14.06.21.08.31l.06.27c.04.18.07.35.1.53.06.35.1.7.12,1.05.05.7.05,1.41,0,2.11-.12,1.41-.52,2.84-1.21,4.14-.69,1.3-1.69,2.43-2.83,3.3-1.14.87-2.4,1.52-3.67,1.99l1.06-1.23c-.04.17-.06.25-.1.37-.03.11-.06.21-.1.31-.07.2-.14.4-.21.59-.15.39-.32.77-.51,1.13-.38.73-.84,1.43-1.38,2.07-1.07,1.29-2.48,2.33-4.04,2.98-.78.32-1.58.54-2.39.69-.81.13-1.62.2-2.41.19-1.6,0-3.13-.26-4.61-.63l-.16-.04-.12-.06c-.33-.16-.59-.29-.87-.44-.28-.15-.55-.29-.82-.45-.54-.3-1.08-.62-1.6-.94-1.05-.65-2.07-1.34-3.07-2.07-1.98-1.47-3.87-3.08-5.56-4.9-.85-.9-1.66-1.85-2.41-2.85-.39-.49-.73-1.01-1.09-1.52-.34-.53-.69-1.04-1-1.59-1.28-2.15-2.26-4.5-2.92-6.93l.92.96c-2.27-.79-4.41-1.67-6.57-2.61-2.15-.94-4.26-1.94-6.35-3.01-4.16-2.15-8.19-4.57-11.98-7.34-3.77-2.78-7.34-5.9-10.29-9.57-2.95-3.65-5.33-7.81-6.33-12.46ZM36.5,248.57c.33,1.05.73,2.15,1.2,3.19.47,1.05,1.01,2.06,1.59,3.04,1.17,1.97,2.58,3.78,4.11,5.48,3.09,3.37,6.67,6.27,10.47,8.81,3.8,2.55,7.83,4.76,11.97,6.72,2.07.99,4.17,1.91,6.29,2.76,2.12.85,4.29,1.66,6.42,2.33l.7.22.22.74c.63,2.15,1.55,4.23,2.75,6.14.29.49.62.95.93,1.42.34.45.66.92,1.02,1.36.7.89,1.46,1.74,2.26,2.55,1.6,1.63,3.35,3.11,5.21,4.46.93.67,1.89,1.3,2.87,1.89.49.3.99.58,1.49.85.25.14.5.27.75.4.24.13.52.26.73.35l-.28-.1c1.28.31,2.57.5,3.81.49.63,0,1.23-.06,1.82-.16.59-.12,1.15-.27,1.69-.49,1.07-.45,2-1.13,2.75-2.02.37-.45.71-.94.98-1.46.14-.26.26-.53.37-.81.05-.14.1-.27.15-.41l.06-.2.04-.14.25-.93.81-.3c1.03-.38,1.97-.87,2.78-1.49.81-.62,1.47-1.37,1.94-2.24.47-.86.77-1.84.88-2.87.05-.51.06-1.04.03-1.57-.02-.26-.04-.52-.08-.78-.02-.13-.04-.26-.06-.38l-.04-.18-.03-.13-.19-.82.45-.6c.61-.82,1.14-1.67,1.5-2.54.35-.87.55-1.75.5-2.6-.04-.85-.31-1.67-.79-2.44-.47-.77-1.13-1.49-1.9-2.14-1.54-1.29-3.44-2.3-5.42-3.13-.99-.41-2.01-.79-3.04-1.11-.52-.16-1.04-.32-1.56-.46-.52-.14-1.06-.28-1.55-.39l-2.74-.6,2.04-1.88c.56-.52,1.09-1.08,1.37-1.57.15-.24.18-.44.17-.4,0,.01.02.07.03.08.01.01,0-.02-.07-.07-.13-.1-.41-.23-.72-.32-.32-.09-.68-.17-1.05-.22-.75-.11-1.54-.15-2.35-.17-1.61-.03-3.27.08-4.92.22-1.65.14-3.32.34-4.94.59l-.75.11-.43-.58c-2.13-2.86-4.71-5.49-7.37-8.01-2.67-2.52-5.47-4.93-8.33-7.25-1.43-1.16-2.88-2.31-4.34-3.44-.73-.56-1.47-1.12-2.2-1.67l-.28-.21-.14-.1-.07-.05-.04-.03c-.06-.04-.11-.09-.16-.15-.19-.24-.21-.52-.17-.71.05-.2.12-.37.35-.55.12-.09.32-.18.56-.14.1.01.21.05.28.1.03.02.07.04.1.07l.05.04.13.11c.34.31.68.61,1.03.92,1.38,1.21,2.81,2.4,4.24,3.56,1.43,1.17,2.87,2.33,4.32,3.49l-.43-.09c3.12-.72,6.17-1.73,9.12-3,1.47-.64,2.91-1.35,4.3-2.14.71-.38,1.39-.8,2.08-1.21.67-.43,1.36-.85,2.01-1.31,1.33-.89,2.6-1.87,3.83-2.89,1.23-1.03,2.42-2.1,3.53-3.23,2.21-2.28,4.08-4.89,5.55-7.68,1.46-2.8,2.52-5.81,3.1-8.88.29-1.53.42-3.07.35-4.58-.08-1.5-.39-2.96-1-4.26-.6-1.3-1.51-2.42-2.64-3.32-1.12-.9-2.45-1.58-3.86-2.08-1.41-.5-2.91-.83-4.44-1.03-1.52-.21-3.08-.31-4.64-.31-.39,0-.78,0-1.17.02-.39.01-.75.03-1.12.07-.74.07-1.47.2-2.2.37-.37.09-.72.18-1.09.3l-1.15.35c-.77.23-1.52.48-2.28.72-3.04,1-6.03,2.12-8.95,3.39-5.86,2.51-11.48,5.59-16.65,9.31-2.59,1.85-5.05,3.88-7.37,6.07-2.32,2.18-4.48,4.54-6.45,7.06-1.97,2.52-3.74,5.19-5.26,8.01-.76,1.41-1.46,2.85-2.07,4.34-.31.74-.6,1.49-.86,2.25-.13.38-.26.76-.37,1.14l-.17.58-.08.29-.04.15-.02.07s-.01.07-.01.04Z" fill="#153f69"/>
    <path d="M45.78,247.2s8.92,23.02,39.13,26.59c0,0,1.39,11.2,12.31,15.57,0,0-13.02-1.56-15.09-11.98,0,0-24.73-1.11-36.34-30.17Z" fill="#efddbc" fill-rule="evenodd"/>
    <path d="M70.6,239.7c2.07.48,4.72,1.35,6.68,2.86.49.37,1.36.62,1.96.5,5.29-1,24.59-5.61,26.19-20.08.01-.13-.14-.21-.23-.12-2.18,1.97-17.44,15.23-34.55,16.25-.34.02-.39.51-.05.59Z" fill="#efddbc" fill-rule="evenodd"/>
    <path d="M93.41,300.96l.58,21.97s.05,2.71,2.18,3.35l.26,2.22s-3.61-3.17-3.29-6.37l-1.25-21.54,1.52.37Z" fill="#153f69" fill-rule="evenodd"/>
    <ellipse cx="142.3" cy="112.75" rx="6.73" ry="4.76" transform="translate(28.02 253.82) rotate(-89.38)" fill="#f4e7ca"/>
    <ellipse cx="200.95" cy="106.1" rx="6.73" ry="4.76" transform="translate(92.68 305.88) rotate(-89.38)" fill="#f4e7ca"/>
    <g>
      <path d="M220.22,316.61c-16.17-6.61-30.24,3.09-35.31,7.32-1.22,1.02-1.63,2.72-1,4.19l4.42,10.37c12.17-2.1,23.45-4.63,34.25-9.56l.06-8.8c-.04-1.55-.99-2.94-2.43-3.52Z" fill="#fff2d2"/>
      <path d="M157.18,324.98c-5.41-13.27-30.91-3.44-38.13-.34-1.21.52-2.14,1.52-2.57,2.77l-2.32,5.72c11.01,3.9,22.75,6.37,35.47,6.85l6.82-9.38c1.18-1.62,1.48-3.75.73-5.61Z" fill="#fff2d2"/>
    </g>
    <g>
      <path d="M224.26,322.23l-.09-2.03v-.13s-.02-.18-.02-.18c0-.12-.02-.23-.04-.35-.03-.23-.08-.46-.14-.69-.12-.45-.31-.88-.54-1.29-.47-.8-1.15-1.48-1.96-1.94-.2-.11-.41-.22-.63-.3-.12-.05-.18-.07-.27-.1l-.25-.09-1-.34c-.33-.11-.68-.2-1.02-.3-.34-.09-.67-.21-1.02-.28-.69-.16-1.38-.32-2.07-.42-2.78-.49-5.61-.53-8.38-.21-2.77.32-5.46,1.02-8.03,1.96-2.57.95-5.02,2.18-7.36,3.56-2.33,1.4-4.56,2.96-6.65,4.7-.58.48-1.01,1.13-1.22,1.86-.21.72-.2,1.51.02,2.23.12.37.27.68.4,1.02l.41.99.8,1.99c.54,1.33,1.05,2.66,1.58,4l1.02,2.68c.35-.06.71-.12,1.06-.18l-1.34-2.82c-.6-1.3-1.21-2.6-1.8-3.9-.59-1.3-.77-2.67-1.3-3.95-.46-1.28-.03-2.82,1.03-3.69,2.07-1.72,3.87-3.21,6.24-4.49,2.36-1.29,4.86-2.32,7.43-3.04,1.28-.37,2.58-.66,3.9-.85,1.31-.19,2.63-.33,3.94-.34,1.31-.01,2.63.02,3.92.19.32.03.65.08.97.13.32.05.64.09.96.15.64.13,1.27.25,1.9.42,1.26.31,2.48.74,3.69,1.19l.89.37.22.09c.07.03.17.06.2.09.1.04.19.1.28.15.35.23.64.56.84.93.1.19.17.38.22.59.02.1.04.2.05.31,0,.05,0,.1.01.16v.08s0,.12,0,.12l.03,2.03c.03,1.35.05,2.7.1,4.05.02.73.06,1.45.08,2.18,1.04-.46,2.06-.93,3.08-1.41,0-.29,0-.57-.02-.86-.03-1.35-.09-2.7-.14-4.05Z" fill="#153f69"/>
      <path d="M157.4,331.65l.15-.21.17-.25c.23-.34.43-.71.59-1.09.33-.76.54-1.57.6-2.39.06-.83-.03-1.66-.27-2.46-.11-.4-.28-.8-.45-1.12-.17-.34-.33-.68-.52-1-.78-1.3-1.85-2.43-3.08-3.28-1.23-.86-2.6-1.45-3.99-1.8-2.79-.73-5.61-.71-8.33-.44-.68.05-1.36.17-2.04.26-.67.12-1.35.22-2.01.36-1.34.25-2.66.57-3.97.91-5.23,1.41-10.3,3.26-15.26,5.36-1.29.53-2.3,1.67-2.72,2.99l-1.37,3.8c-.12.32-.24.65-.36.97.16.06.32.11.49.17.11-.33.21-.66.32-.99l1.27-3.83c.38-1.25,1.31-2.31,2.51-2.82,4.94-2.11,10.07-3.81,15.32-4.87,2.62-.51,5.28-.89,7.92-.94,2.63-.07,5.28.16,7.66.98,2.4.77,4.36,2.34,5.47,4.41.13.26.24.54.37.81.14.28.22.51.28.76.13.5.16,1.02.1,1.54-.05.51-.2,1.02-.42,1.49-.11.23-.24.46-.39.67l-.12.17-.15.2-.3.41c-2.3,3.1-4.55,6.24-6.79,9.4,1.06.11,2.12.21,3.19.3,1.97-2.67,3.94-5.35,5.86-8.05l.29-.41Z" fill="#153f69"/>
    </g>
    <path d="M139.11,318.16c-3.9.26-20.67,5.57-21.71,7.16-.81,1.24-1.98,2.9-3.46,8.55.1-.01.2-.03.31-.03.13,0,.68-.18.8-.16.89-2.66,2.23-5.14,2.73-5.56,0,0,.88-3,10.18-6.09.16-.05,16.86-4.25,11.15-3.87Z" fill="#163d69" fill-rule="evenodd"/>
    <path d="M114.26,333.85l.8-.16s14.4-20.69,38.26-10.48c0,0,4.38,1.82,2.5,5.76-2.58,5.39,1.95-2.81,1.37-3.99s-2.99-4.03-3.86-4.54-4.52-1.97-5.33-2.04-8.88-.24-8.88-.24l-12.57,3.66-7.43,2.96-1.84,1.93-3.02,7.13Z" fill="#153f69"/>
  </g>
  <g>
    <path d="M149.47,336.9l5.35-7.23c3.55-4.83-1.37-8.46-6.17-9.71-9.62-2.52-22.75,2.23-28.73,4.55-1.14.44-2.36.86-3.18,2.94l-1.64,5c1.49.52,2.99,1.02,4.5,1.49,12.82-2.21,18.42-.2,18.42-.2l-2.51,4.23c2.34.45,4.71.84,7.1,1.18l2.61-3.8c3.35.37,4.25,1.55,4.25,1.55Z" fill="#efddbc"/>
    <path d="M219.67,318.55c-14.72-7.37-28.81.78-34.07,5.17-1.51,1.26-2.21,2.61-1.47,4.43l4.27,8.81c10.29-6.2,19.26-5.87,19.26-5.87l.73,2.43c3.03-.99,6-2.08,8.93-3.27l-.02-.4c1.13-.52,2.03-.66,2.63-.69.28-.12.56-.24.85-.36l-.15-7.85c.26-1.3-.33-2.09-.94-2.4Z" fill="#efddbc"/>
  </g>
</svg>