<?xml version="1.0" encoding="utf-8"?>
<!-- Generator: Adobe Illustrator 24.1.0, SVG Export Plug-In . SVG Version: 6.00 Build 0)  -->
<svg version="1.1" id="Layer_1" xmlns="http://www.w3.org/2000/svg" xmlns:xlink="http://www.w3.org/1999/xlink" x="0px" y="0px"
	 viewBox="0 0 536 280.1" style="enable-background:new 0 0 536 280.1;" xml:space="preserve">
<style type="text/css">
	.st0{fill:#163D69;}
	.st1{fill:#CBC0B2;}
	.st2{fill:#153E69;}
	.st3{fill:#CCC1B3;}
	.st4{fill-rule:evenodd;clip-rule:evenodd;fill:#092F55;}
	.st5{fill:#FFFFFF;}
	.st6{fill-rule:evenodd;clip-rule:evenodd;fill:#153E69;}
	.st7{fill-rule:evenodd;clip-rule:evenodd;fill:#CCC1B3;}
	.st8{fill-rule:evenodd;clip-rule:evenodd;fill:#D6CCC0;}
	.st9{fill-rule:evenodd;clip-rule:evenodd;fill:#FDE8D0;}
	.st10{fill-rule:evenodd;clip-rule:evenodd;fill:#FAEAD2;}
	.st11{fill-rule:evenodd;clip-rule:evenodd;fill:#163D69;}
	.st12{fill-rule:evenodd;clip-rule:evenodd;fill:#F1DFBF;}
	.st13{fill:#FFF9EF;}
	.st14{fill:#F1DFBF;}
	.st15{fill-rule:evenodd;clip-rule:evenodd;fill:#A9A096;}
	.st16{fill:#FDE8D0;}
	.st17{fill-rule:evenodd;clip-rule:evenodd;fill:#F9EBCE;}
	.st18{fill:#F3EEE6;}
	.st19{fill-rule:evenodd;clip-rule:evenodd;fill:#F2E0C0;}
	.st20{fill:#F9EBCE;}
</style>
<g>
	<path class="st0" d="M502.8,110.6L320.3,62.9c-2.6-0.7-5.3-1-7.9-0.9v0c-2.3,0-4.5,0.3-6.7,0.8L122,106.9c-5.2,0-9.4,5-9.4,11.1
		v75.8c0,6.1,4.2,11.1,9.4,11.1l182.5,47.7c2.6,0.7,5.3,1,7.9,0.9v0c2.3,0,4.5-0.3,6.7-0.8l183.7-44.1c5.2,0,9.4-5,9.4-11.1v-75.8
		C512.1,115.5,507.9,110.6,502.8,110.6z"/>
	<path class="st1" d="M312.4,256.1h-2.7v-0.1c-2-0.1-4-0.5-5.9-1l-182.2-47.6c-6.5-0.2-11.6-6.3-11.6-13.7V118
		c0-7.4,5.2-13.5,11.7-13.7l183.4-44c2.4-0.6,4.9-0.9,7.3-0.9h0.6c0,0,0,0,0,0h2.1v0.1c2,0.1,4,0.5,5.9,1l182.2,47.6
		c6.5,0.2,11.6,6.3,11.6,13.7v75.8c0,7.4-5.2,13.5-11.7,13.7l-183.4,44C317.3,255.9,314.9,256.1,312.4,256.1z M122,109.5
		c-3.7,0-6.7,3.8-6.7,8.4v75.8c0,4.6,3,8.4,6.7,8.4h0.3l0.3,0.1L305.2,250c2.3,0.6,4.8,0.9,7.2,0.9l1.4,0c1.6-0.1,3.2-0.3,4.8-0.7
		l184-44.2h0.3c3.7,0,6.7-3.8,6.7-8.4v-75.8c0-4.6-3-8.4-6.7-8.4h-0.3L319.6,65.5c-2.3-0.6-4.8-0.9-7.2-0.8l-1.4,0
		c-1.6,0.1-3.2,0.3-4.8,0.7l-184,44.2H122z"/>
</g>
<g>
	<path class="st2" d="M503,110.8L320.5,63.2c-2.6-0.7-5.3-1-7.9-0.9v0c-2.3,0-4.5,0.3-6.7,0.8l-183.7,44.1c-5.2,0-9.4,5-9.4,11.1
		v75.8c0,6.1,4.2,11.1,9.4,11.1l182.5,47.7c2.6,0.7,5.3,1,7.9,0.9v0c2.3,0,4.5-0.3,6.7-0.8L503,208.8c5.2,0,9.4-5,9.4-11.1v-75.8
		C512.3,115.8,508.1,110.8,503,110.8z"/>
	<path class="st3" d="M312,256.4C312,256.4,312,256.4,312,256.4h-2.1v-0.1c-2-0.1-4-0.5-5.9-1l-182.2-47.6
		c-6.5-0.2-11.6-6.3-11.6-13.7v-75.8c0-7.4,5.2-13.5,11.7-13.7l183.4-44c2.4-0.6,4.9-0.9,7.3-0.9h2.7v0.1c2,0.1,4,0.5,5.9,1
		l182.2,47.6c6.5,0.2,11.6,6.3,11.6,13.7v75.8c0,7.4-5.2,13.5-11.7,13.7l-183.4,44c-2.4,0.6-4.9,0.9-7.3,0.9H312
		C312,256.4,312,256.4,312,256.4z M122.2,109.8c-3.7,0-6.7,3.8-6.7,8.4v75.8c0,4.6,3,8.4,6.7,8.4h0.3l0.3,0.1l182.5,47.7
		c2.3,0.6,4.8,0.9,7.2,0.9l1.4,0c1.6-0.1,3.2-0.3,4.8-0.7l184-44.2h0.3c3.7,0,6.7-3.8,6.7-8.4v-75.8c0-4.6-3-8.4-6.7-8.4h-0.3
		L319.8,65.8c-2.3-0.6-4.8-0.9-7.2-0.8l-1.4,0c-1.6,0.1-3.2,0.3-4.8,0.7l-184,44.2H122.2z"/>
</g>
<path class="st4" d="M151.1,160.5c0,0,17.2,6,27-15.7c0,0,2.6-4.1,4.4-14.8c0.7-3.9,12.2-5.3,10.5-15.2
	c-1.3-7.4-17.7,15.9-17.7,15.9s-23,20.7-23.4,21.3C151.6,152.5,151.1,160.5,151.1,160.5z"/>
<path class="st4" d="M153.5,156.9c0,0-5.4,41.4-7.6,42.8c0,0-2.3,4.7-9.3,6.1l12-50.4L153.5,156.9z"/>
<g>
	<path class="st5" d="M407,150.2c-2.1,4.4-8.5,17.2-12.7,17.1c-6.1-0.3,4.3-19,5.8-22.2c1.2-2.6,2.9-6.4,2.1-7.9
		c-5,0.5-10.3,0.6-14.1,0.4c1.7-1.2,5-4,5.6-6.8c1.4-6.8-5.2-9.4-6.2-3.7c-1.9,10.7-7,24.9-14.2,35.4c-2.1,2.8-4.4,4.8-6.6,4.8
		c-1.4-0.1-2.9-1.7-1.9-6.1c0.6-3.5,4-10.5,6.8-16.2c3.1-6.3,4.1-7.8,7.1-10.1h-5.5c-1.9,0-3.2,0.5-4,2.1c-3.9,8.1-9.5,20-15.2,26.7
		c-6.6,7.7-10.9,3.6-6-7.1c1.8-3.9,6.4-13.2,6.4-13.2c2.8-5.6,4.2-6.8,6.5-8.6h-6.2c-1.9,0-3.2,0.5-4,2.1c-1.5,3.2-3.7,7.4-5.7,11.2
		l-0.6,1.2c-0.2,0.1-0.3,0.2-0.4,0.4c-2.5,4.9-7.8,17.6-14.3,17.6c-2.5,0-4-1-4.8-2.6c3.9-3.7,7.1-8.5,8.6-12.1
		c3.9-9.1,2.8-18.5-5-18.6c-6.9-0.2-15.4,7.8-19.4,17.2c-0.2,0.6-0.5,1.1-0.7,1.7c-2.5,4.9-5.6,10-9.6,12.9
		c-3.4,2.5-8.1,1.5-6.5-5.3c0,0,1.4-7.8,2.4-10.4c6-5.5,10.1-10.9,13.6-16.9h5.9c1,0,1.2-2.2,0.2-2.2h-4.9c1.5-2.9,3-5.7,4.4-8.8
		c7.6-16.4-3.5-18.1-10.5-5.7c-2.6,4.4-5.1,9.4-7.5,14.5h-6.1c-1.1,0-1.3,2.2-0.2,2.2h5.3c-2.2,5.4-4.7,12.3-6.3,18.4
		c-2.7,5.3-8.6,15.9-12.5,15.7c-1.3,0-1.8-1.9-1-6.1c1.3-6.2,7.4-17,9.5-19.1c-1.4,0.3-3-0.3-4.3-0.4c-3.3-0.2-4.7,2.2-6.9,6.5
		c-2.7,5-5.5,10-9.1,14.3c-4.8,5.7-10.4,6.5-9.4-0.6c0.6-3.9,3.4-8.9,4.2-10.3c3.7-6,9-12.1,13.6-14.6c3.8-2,7.6-1.2,8.7,2.6
		c1.7,0.3,2.6-1.4,1.1-3c-5.8-6.3-17.6-2.6-23.7,4.7c-15.4,18.5-7.7,36.4,4.1,25.1c3-2.9,5.7-6.9,7.4-9.6
		c-3.1,10.7,1.7,13.4,5.1,13.2c4.3-0.4,8.6-6.4,11.9-12.2c-0.1,0.5-0.2,1-0.2,1.5c-1.5,11.2,8.6,13,14.1,7.7c2.4-2.4,4-4.4,6-8
		c-0.6,6,1.5,10.7,7.1,10.9c3,0.1,6-1.3,8.9-3.5c1.3,1.5,3.5,2.7,6.5,2.7c4.8,0,8.7-4.6,11.6-9.3c-0.6,1.7-0.8,3.5-0.4,5.4
		c0.8,3.9,4.4,4.6,6.4,4.6c5,0,10.3-6.9,13.8-13.1c-2.7,8.3,0.1,13.1,4.7,13.1c5.3,0,9.5-5.8,12.8-11.7c2.8-5,5.3-10.8,6.8-14.8
		l1.2-3.3c5.7,0.1,9.3,1.4,7.9,4.8c-1.1,2.6-4.8,7.9-6.3,12.1c-4.1,10.6,2.1,13.7,5.6,12.9c6.6-1.6,11.9-12.5,14.8-18.6
		C409.3,149.2,407.9,148.4,407,150.2z M309.3,116.1c6.3-8.9,4.9,0.2,3,4.5c-1.4,3.4-3.2,6.9-5.1,10.4h-5.1
		C304.6,125.2,306.9,119.6,309.3,116.1z M301,133.3h4.8c-3,4.9-6.4,9.6-10.3,13.6C296.9,143.3,298.9,138.3,301,133.3z M320.1,160
		c0,1.5,0.5,3.4,1.6,5c-2.5,2-5,3.1-6.9,2.6c-3.7-1.1-2.8-8.3,1.2-16.7c3.8-8.1,10.1-14.6,14.5-13.4c3.7,1.1,3.2,8.4-0.8,16.8
		c-0.9,1.9-2,3.9-3.2,5.5c0.1-0.4,0.2-0.7,0.2-1.1c0-1.6-1.3-3.1-3.1-3.1C321.2,155.6,320.2,157.6,320.1,160z"/>
	<path class="st5" d="M424.2,120c0-2.7-1.2-5.5-4.2-5.5c-2.4,0-4.6,1.8-4.9,4.2c-0.4,2.4,1.1,4.2,3.5,4.2c1,0,2-0.4,2.9-1
		c-0.5,4.6-4,7.7-7.8,8.9c-1.3,0.4-1,1.6,0.2,1.1C418.2,130.4,424.2,126.7,424.2,120z"/>
	<path class="st5" d="M449.3,150c-2.1,4.2-5.3,10.5-7.7,13.4c-2.6,3.1-5.7,5.2-9.2,4.7l-0.7-0.1c4-2.7,7.1-7.4,7.3-11.3
		c0.2-4.5-2-8.2-3.7-12.1c-1.5-3.7-2.6-10.7,2.1-13c1-0.5,2.2-0.3,3.3,0.1c1.8,0.9,2.2-0.8,0.4-1.7c-1-0.5-2.2-0.7-3.8-0.5
		c-3.6,0.5-6.6,4.8-8.5,8.8c-2.7,5.8-6,12.5-8.8,17.7c-4.9,0.2-7.3,14.4,5.1,14.4c1.3,0,2.8-0.4,4.2-1c11.5,3.5,17.7-10.2,21.5-18.7
		C451.4,149.6,449.8,148.9,449.3,150z M424.5,168.6c-4,0-5.3-4.8-2-8.1c0.2,3.9,1.9,6.3,4.1,7.7
		C425.9,168.5,425.2,168.6,424.5,168.6z M428.3,167.2c-2.4-1.1-4.5-4-4.3-7.9c0.1-3.4-2.1-3.3-2.1-3.3c2.5-4.5,6.8-13.4,9.6-18.9
		c-0.8,4.6,1.6,13,1.3,19.4C432.5,162,430.5,165.5,428.3,167.2z"/>
</g>
<g>
	<path class="st5" d="M469.3,199.1h1.4v6.5h2.6l-0.1,1.2h-3.9V199.1z"/>
	<path class="st5" d="M473.8,199.1h1.4v6.5h2.6l-0.1,1.2h-3.9V199.1z"/>
	<path class="st5" d="M482.5,204.5c0,0.4-0.2,2.4-2.3,2.4c-2.2,0-2.4-1.9-2.4-4c0-2.5,0.7-3.9,2.5-3.9c2,0,2.2,1.7,2.2,2.4h-1.4
		c0-0.3,0-1.2-0.9-1.2c-0.9,0-1.1,1.1-1.1,2.8c0,1.4,0.1,2.8,1,2.8c0.8,0,0.9-0.9,0.9-1.2H482.5z"/>
</g>
<path class="st5" d="M254.1,178h3.2c-1.4-1.8-3-3.4-4.9-4.9c-9.5-7.4-23.5-12.8-33.5-15.2l2.1-3.5c3.7-6.5,6-11.5,9-17.6
	c21.8-3.7,44.4-26.3,42.6-46.9c-0.7-8.4-21.7-16-36.8,22.9c0,0-7.5,19.1-8.7,21.9c-32.8,3.9-26-32-4.9-34.5c4.5-0.6,4.1-2.8-0.2-1.7
	c-35,8-25.8,39.8,3.7,38.8c-3.7,7.6-6.8,13.7-10.7,19.7c-7.5-1.3-18.4-1-25.7,1.1c-27.5,8.3-13,31.4,8.4,21.1
	c6.6-3.2,12.8-9.2,18.1-16.7c13,2.6,27.1,5.5,37,14.3C253.3,177.1,253.7,177.6,254.1,178z M240.4,116.2c15.8-31,27.9-31,28-24.1
	c0.1,18.9-18.6,37.8-37,41.9C235.6,125.3,240.4,116.2,240.4,116.2z M196.1,176.2c-18.7,9-30.3-7.7-5.5-14c6.6-1.7,14.5-1.8,21.3-0.4
	C206.9,168.8,201.6,173.6,196.1,176.2z"/>
<path class="st6" d="M54.9,199.6l17.1-17.8l-8.1-6.5l-16.3,17c-1.4-0.5-2.9-0.7-4.3-0.8l-0.9,0.1c-6.5,0.6-11.4,6-11.3,12.6
	c0.1,2,0.6,3.8,1.3,5.4l0,0l8.4-8.7l4.7,1.2l1.3,4.6l-8.3,8.6c1.5,0.8,3.4,1.3,5.3,1.2c6.6-0.2,11.7-5.4,12.1-11.7l0-0.9
	C55.8,202.4,55.5,200.8,54.9,199.6z"/>
<g>
	<path class="st7" d="M59.1,58.2l-6.6-16.7c0,0-1.2-5.3,2.9-9.5c0,0,18.8-20.7,45.7-15.9c0,0,9.3,1,8.9,6.3c0,0.6-0.5,1.2-1.2,1.3
		C105.9,24.4,67.1,49.8,59.1,58.2z"/>
	<path class="st2" d="M58.8,60l-7.2-18.1l0-0.1c-0.1-0.2-1.3-5.9,3.1-10.4c0.3-0.3,5-5.4,13-9.9c7.5-4.2,19.4-8.8,33.5-6.3
		c0.8,0.1,10.2,1.2,9.7,7.4c-0.1,1.1-0.8,1.9-1.9,2.2c-1.2,0.3-11.2,6.5-22.7,14.2c-13.3,9-23.2,16.4-26.5,19.9L58.8,60z M53.4,41.3
		l6.1,15.3c5.8-5.5,19.8-15.1,25.8-19.2c10-6.8,21.5-14.1,23.3-14.5c0.2-0.1,0.4-0.2,0.4-0.4c0.1-1.8-1.1-3.2-3.7-4.2
		c-2.1-0.9-4.4-1.1-4.4-1.1l-0.1,0c-13.6-2.4-25.1,2-32.3,6.1c-7.8,4.4-12.5,9.5-12.5,9.5l0,0C52.6,36.3,53.3,40.6,53.4,41.3z"/>
</g>
<g>
	<path class="st8" d="M119.9,42.8l22.6-9.2c0,0,4.3-2,2.5-5.4c-0.6-1.1-1.6-1.9-2.8-2.3c-4.6-1.6-20.4-6.3-35.4-1.2L79.2,44.9
		C79.2,44.9,104.4,37,119.9,42.8z"/>
	<path class="st2" d="M74,47.5l32.4-23.7l0.1,0c15.3-5.2,31.5-0.4,36.1,1.2c1.5,0.5,2.6,1.5,3.3,2.8c0.6,1.1,0.7,2.2,0.3,3.3
		c-0.7,2.2-3.2,3.3-3.3,3.4l0,0L120,43.8l-0.3-0.1c-15-5.5-39.9,2.1-40.1,2.1L74,47.5z M107.3,25.5L83.9,42.6c2.6-0.6,6-1.3,9.7-1.9
		c10.9-1.6,19.8-1.3,26.3,1l22.2-9.1c0.5-0.2,1.9-1.1,2.3-2.3c0.2-0.6,0.1-1.2-0.2-1.8c-0.4-0.9-1.2-1.5-2.2-1.9
		C137.5,25.2,122,20.6,107.3,25.5z"/>
</g>
<g>
	<path class="st9" d="M129.7,113.3c18.3-9.5,21.1-29.1,16.6-44.7c-6.8-23.3-33.1-32.1-61.5-26.2C56,48.4,40.8,76.1,45.6,96
		c2.5,10.3,10.4,19.5,21.4,25.2"/>
	<path class="st2" d="M129.7,113.3c4.2-2.4,8-5.5,10.9-9.4c1.4-1.9,2.7-4,3.6-6.2c1-2.2,1.7-4.5,2.2-6.8c0.5-2.3,0.8-4.7,0.9-7.1
		c0.1-2.4,0-4.8-0.3-7.1c-0.3-2.4-0.8-4.7-1.4-7c-0.7-2.3-1.5-4.5-2.5-6.6c-1.1-2.1-2.3-4.1-3.8-5.9l-0.6-0.7l-0.3-0.3
		c-0.1-0.1-0.2-0.2-0.3-0.3c-0.4-0.4-0.8-0.9-1.2-1.3l-1.3-1.2c-0.4-0.4-0.9-0.8-1.3-1.2c-3.6-3-7.8-5.3-12.3-6.9
		c-4.4-1.6-9.1-2.6-13.9-3c-4.7-0.4-9.5-0.4-14.3,0.1L93,42.5c-0.3,0-0.6,0.1-0.9,0.1l-1.8,0.2l-1.8,0.3l-0.9,0.1l-0.9,0.2l-1.8,0.3
		l-1.7,0.4c-0.3,0.1-0.6,0.1-0.9,0.2l-0.9,0.2c-0.6,0.2-1.1,0.3-1.7,0.5l-1.7,0.6c-0.3,0.1-0.6,0.2-0.8,0.3l-0.8,0.3l-0.8,0.3
		c-0.3,0.1-0.6,0.2-0.8,0.3l-1.6,0.7l-0.4,0.2l-0.4,0.2l-0.8,0.4c-0.5,0.3-1.1,0.5-1.6,0.8l-1.5,0.9l-1.5,1
		c-7.9,5.2-14.3,12.8-18,21.5c-1.9,4.4-3.1,9-3.4,13.7c-0.2,2.4-0.1,4.7,0.2,7.1c0.3,2.3,1,4.6,1.8,6.8c0.9,2.2,2,4.3,3.3,6.3
		c1.3,2,2.8,3.9,4.5,5.6c3.3,3.5,7.2,6.4,11.5,8.8c-2.2-1.1-4.3-2.3-6.3-3.6l-1.5-1.1l-1.4-1.1c-0.2-0.2-0.5-0.4-0.7-0.6l-0.7-0.6
		c-0.2-0.2-0.5-0.4-0.7-0.6l-0.7-0.6c-1.8-1.7-3.4-3.6-4.8-5.6c-1.4-2-2.7-4.2-3.7-6.4c-1-2.3-1.7-4.7-2.2-7.1
		c-0.4-2.5-0.6-5-0.5-7.4c0.1-2.5,0.5-5,1-7.4c0.6-2.4,1.3-4.8,2.2-7.1c0.9-2.3,2.1-4.5,3.3-6.7c1.3-2.1,2.7-4.2,4.3-6.1l1.2-1.4
		l1.3-1.4c0.4-0.5,0.9-0.9,1.3-1.3l0.7-0.7c0.2-0.2,0.5-0.4,0.7-0.6c1.8-1.7,3.8-3.2,5.8-4.6l1.6-1l1.6-1c0.5-0.3,1.1-0.6,1.6-0.9
		l0.8-0.4l0.4-0.2l0.4-0.2l1.7-0.8c0.3-0.1,0.6-0.2,0.9-0.4l0.9-0.3l0.9-0.3c0.3-0.1,0.6-0.2,0.9-0.3l1.8-0.6
		c0.6-0.2,1.2-0.3,1.8-0.5l0.9-0.3c0.3-0.1,0.6-0.1,0.9-0.2l1.8-0.4l1.8-0.4l0.9-0.2l0.9-0.1l1.8-0.3l1.8-0.2c0.3,0,0.6-0.1,0.9-0.1
		l0.9-0.1c4.9-0.5,9.9-0.5,14.8,0l1.8,0.2c0.6,0.1,1.2,0.2,1.8,0.3c0.3,0,0.6,0.1,0.9,0.1l0.9,0.2c0.6,0.1,1.2,0.2,1.8,0.4
		c2.4,0.5,4.8,1.2,7.2,2.1c4.7,1.7,9.1,4.2,12.9,7.5c3.8,3.2,6.9,7.3,9.1,11.8c1.1,2.3,1.9,4.6,2.5,7c0.3,1.2,0.6,2.4,0.8,3.6
		c0.1,0.6,0.2,1.2,0.3,1.8l0.1,0.9l0.1,0.5l0,0.5c0.2,2.5,0.3,4.9,0.1,7.4c-0.2,2.5-0.5,4.9-1.2,7.3c-1.2,4.8-3.4,9.3-6.6,13.1
		c-1.6,1.9-3.3,3.6-5.3,5.1C134,111,131.9,112.3,129.7,113.3z"/>
</g>
<g>
	<path class="st6" d="M93.6,40.6L108.4,30c0.4-0.3,0.9-0.5,1.4-0.7c4.1-0.9,22.1-4.9,32,3.7l-20.6,9.2c0,0-14.1-4.1-27.5-1.3
		C93.5,41,93.4,40.7,93.6,40.6z"/>
	<path class="st2" d="M121.3,43.2l-0.3-0.1c-0.1,0-14-4-27-1.3c-0.5,0.1-1.1-0.2-1.3-0.7c-0.2-0.5-0.1-1.1,0.4-1.4l0,0l14.8-10.6
		c0.5-0.4,1.1-0.7,1.8-0.8l0.1,0c18.7-4.1,28.1-0.1,32.8,3.9l1.1,1L121.3,43.2z M103.9,39c8.5,0,15.6,1.8,17.2,2.2l18.9-8.4
		c-4.7-3.4-13.5-6.1-29.9-2.5l-0.1,0c-0.4,0.1-0.7,0.2-1,0.5l0,0l-12.1,8.7C99.3,39.1,101.7,39,103.9,39z"/>
</g>
<polygon class="st10" points="182.3,113.3 183.8,109.4 187.2,111 189.3,115.4 184.7,117.9 181,115.5 "/>
<g>
	<path class="st9" d="M189.3,114c-2.5,3.1-4.4,3.5-5.7,3c-1.3-0.4-2-1.7-1.9-3c0.4-6.3,5.4-7.7,8.4-8c1.3-0.1,2.6,0.7,3,2
		c3.2,11-6.8,16.2-10.7,17.8c-0.9,0.4-1.6,1.2-1.8,2.2c-7.7,37.9-29.8,28.4-29.8,28.4l0.6-21.2c0,0,2.6,0.5,4.5,1.6
		c0.9,0.5,2,0.2,2.6-0.6c1.6-2.6,3.3-7.8,12.7-14.6c0.7-0.5,0.8-1.6,0.4-2.3c-1.4-2.8-5-9.4-9.9-12.9c-1-0.7-0.9-2.4,0.3-2.8
		c2.1-0.8,5.8,0.1,10.3,3.9c0.7,0.6,1.8,0.7,2.6,0.2c0.5-0.3,0.6-2.5,0.7-3.3"/>
	<path class="st2" d="M189.4,114.1c-0.6,0.8-1.3,1.7-2.2,2.3c-0.4,0.3-0.9,0.6-1.4,0.8c-0.5,0.2-1.1,0.3-1.7,0.3
		c-0.3,0-0.6-0.1-0.9-0.2c-0.3-0.1-0.5-0.3-0.8-0.4c-0.5-0.4-0.8-0.9-1.1-1.4c-0.1-0.3-0.2-0.6-0.2-0.9c0-0.1,0-0.3,0-0.5
		c0-0.2,0-0.3,0-0.4c0-0.5,0.1-1.1,0.2-1.6c0.2-1.1,0.7-2.1,1.3-3.1c0.7-0.9,1.5-1.7,2.5-2.3c1-0.6,2-0.9,3.1-1.2
		c0.3-0.1,0.5-0.1,0.8-0.1c0.1,0,0.3,0,0.4-0.1l0.2,0c0.1,0,0.1,0,0.2,0c0.7-0.1,1.3,0.1,1.9,0.4c0.3,0.2,0.6,0.4,0.8,0.6
		c0.2,0.2,0.4,0.5,0.6,0.8c0,0.1,0.1,0.1,0.1,0.2l0.1,0.2c0,0.1,0.1,0.2,0.1,0.2l0,0.1l0,0.1l0.2,0.8c0.3,1.1,0.4,2.2,0.4,3.3
		c0.1,2.2-0.5,4.5-1.6,6.4c-0.5,1-1.2,1.9-2,2.7c-0.7,0.8-1.6,1.6-2.4,2.2c-1.7,1.3-3.7,2.3-5.7,3.1l-0.2,0.1c0,0-0.1,0-0.1,0.1
		c-0.1,0-0.2,0.1-0.3,0.1c-0.2,0.1-0.3,0.2-0.5,0.4c-0.1,0.1-0.2,0.3-0.3,0.5c-0.1,0.2-0.2,0.4-0.2,0.6l-0.8,3.1c-0.3,1-0.6,2-0.9,3
		l-0.1,0.4l-0.1,0.4l-0.3,0.7l-0.5,1.5c-0.4,1-0.8,2-1.1,3l-0.6,1.4c-0.2,0.5-0.4,1-0.7,1.4c-0.2,0.5-0.5,0.9-0.7,1.4
		c-0.1,0.2-0.2,0.5-0.4,0.7l-0.4,0.7c-0.5,0.9-1.1,1.8-1.7,2.7c-1.2,1.7-2.6,3.3-4.3,4.7c-1.6,1.4-3.4,2.5-5.4,3.3
		c-0.2,0.1-0.5,0.2-0.8,0.3l-0.8,0.3l-0.8,0.2l-0.4,0.1c-0.1,0-0.3,0.1-0.4,0.1l-0.8,0.2l-0.8,0.1c-0.3,0-0.5,0.1-0.8,0.1
		c-0.3,0-0.5,0-0.8,0c-1.1,0-2.2,0-3.2-0.2c-0.5-0.1-1.1-0.2-1.6-0.3c-0.3-0.1-0.5-0.1-0.8-0.2c-0.1,0-0.3-0.1-0.4-0.1
		c-0.1,0-0.3-0.1-0.4-0.1l-0.4-0.2l0-0.5c0-1.8,0-3.5,0-5.3c0-1.8,0-3.5,0.1-5.3l0.2-10.6l0-1.1l1.1,0.2c0.4,0.1,0.7,0.1,1.1,0.2
		c0.4,0.1,0.7,0.2,1.1,0.3c0.7,0.2,1.4,0.5,2.1,0.8c0.2,0.1,0.3,0.2,0.5,0.3c0.1,0,0.1,0,0.1,0c0,0,0,0,0.1,0c0,0,0.1,0,0.1,0
		c0.1,0,0.2,0,0.2,0c0.1,0,0.2,0,0.2,0c0.2,0,0.3-0.1,0.4-0.3c0,0,0.1-0.1,0.1-0.1l0,0l0-0.1l0.1-0.1c0.1-0.1,0.2-0.3,0.2-0.4l1-1.8
		c0.4-0.6,0.7-1.3,1.1-1.9c0.8-1.2,1.7-2.4,2.6-3.5c1.9-2.2,4.1-4.1,6.3-5.8l1.7-1.2c0.1-0.1,0.2-0.2,0.2-0.4c0-0.2,0-0.4,0-0.6
		c0,0,0-0.1,0-0.1c0,0,0,0,0-0.1l-0.1-0.1l-0.2-0.5c-0.2-0.3-0.3-0.6-0.5-0.9c-0.3-0.6-0.6-1.2-1-1.8c-0.7-1.2-1.4-2.4-2.2-3.5
		c-0.8-1.1-1.6-2.2-2.6-3.2c-0.5-0.5-0.9-1-1.4-1.4c-0.3-0.2-0.5-0.5-0.8-0.7l-0.8-0.6c-0.4-0.3-0.7-0.7-0.8-1.2
		c-0.1-0.5-0.1-1,0.1-1.5c0.2-0.5,0.5-0.9,0.9-1.1c0.1-0.1,0.2-0.1,0.3-0.2c0.1,0,0.2-0.1,0.3-0.1c0.2-0.1,0.4-0.1,0.6-0.1
		c0.8-0.1,1.6-0.1,2.3,0.1c0.7,0.2,1.4,0.4,2.1,0.7c1.3,0.6,2.6,1.4,3.7,2.2c0.3,0.2,0.6,0.4,0.8,0.7c0.3,0.2,0.5,0.5,0.8,0.7
		c0.1,0.1,0.2,0.2,0.4,0.3c0.1,0.1,0.3,0.1,0.4,0.2c0.3,0.1,0.6,0.1,0.9,0.1c0.2,0,0.3-0.1,0.4-0.1c0.1,0,0.1-0.1,0.2-0.1
		c0,0,0,0,0.1,0c0,0,0,0,0.1-0.1c0.1-0.1,0.1-0.3,0.2-0.4c0-0.2,0.1-0.3,0.1-0.5c0.1-0.7,0.2-1.4,0.4-2.1l0.2,0
		c-0.1,0.7-0.1,1.4-0.2,2.1c0,0.2-0.1,0.4-0.1,0.5c0,0.2-0.1,0.4-0.2,0.6c0,0,0,0.1-0.1,0.1c0,0-0.1,0.1-0.1,0.1
		c-0.1,0.1-0.2,0.1-0.2,0.2c-0.2,0.1-0.4,0.2-0.6,0.2c-0.4,0.1-0.8,0.1-1.2,0c-0.2-0.1-0.4-0.1-0.6-0.2c-0.2-0.1-0.3-0.2-0.5-0.3
		c-0.3-0.2-0.5-0.4-0.8-0.6c-0.3-0.2-0.6-0.4-0.9-0.6c-1.2-0.8-2.4-1.4-3.6-1.9c-0.6-0.2-1.3-0.4-1.9-0.5c-0.6-0.1-1.3-0.1-1.9,0
		c-0.1,0-0.3,0.1-0.4,0.1c-0.1,0-0.1,0-0.2,0.1c0,0-0.1,0-0.1,0.1c-0.2,0.1-0.3,0.3-0.4,0.5c-0.1,0.2-0.1,0.4,0,0.6
		c0.1,0.2,0.2,0.4,0.4,0.5l0.9,0.6c0.3,0.2,0.6,0.5,0.8,0.7c0.6,0.5,1.1,1,1.6,1.5c2,2.1,3.7,4.4,5.2,6.8c0.4,0.6,0.7,1.2,1.1,1.9
		c0.2,0.3,0.3,0.6,0.5,0.9l0.2,0.5l0.1,0.1c0,0,0.1,0.1,0.1,0.2c0.1,0.1,0.1,0.2,0.1,0.4c0.1,0.5,0.2,1,0.1,1.5
		c-0.1,0.3-0.2,0.5-0.3,0.8c-0.1,0.2-0.3,0.5-0.6,0.7l-0.2,0.1l-0.1,0.1l-0.2,0.2l-0.4,0.3l-0.8,0.6c-2.2,1.7-4.2,3.6-6,5.6
		c-0.9,1-1.7,2.1-2.4,3.3c-0.7,1.1-1.4,2.3-2.1,3.6c-0.1,0.2-0.2,0.3-0.3,0.5l-0.1,0.1l0,0.1l-0.1,0.1c-0.1,0.1-0.2,0.2-0.2,0.3
		c-0.4,0.4-0.8,0.7-1.3,0.8c-0.3,0.1-0.5,0.1-0.8,0.1c-0.3,0-0.5,0-0.8-0.1c-0.1,0-0.3-0.1-0.4-0.1c-0.1,0-0.1-0.1-0.2-0.1l-0.2-0.1
		c-0.1-0.1-0.3-0.2-0.4-0.2c-0.6-0.3-1.2-0.5-1.8-0.7c-0.3-0.1-0.6-0.2-1-0.3c-0.3-0.1-0.7-0.2-1-0.2l1.1-0.9l-0.4,10.6
		c-0.1,1.8-0.1,3.5-0.2,5.3c-0.1,1.8-0.2,3.5-0.3,5.3l-0.4-0.6c0.1,0,0.2,0.1,0.3,0.1c0.1,0,0.2,0.1,0.3,0.1
		c0.2,0.1,0.5,0.2,0.7,0.2c0.5,0.1,1,0.3,1.5,0.3c1,0.2,2,0.3,3,0.3c0.3,0,0.5,0,0.8,0c0.3,0,0.5,0,0.8,0l0.8-0.1l0.8-0.1
		c0.1,0,0.3,0,0.4-0.1l0.4-0.1l0.7-0.2l0.7-0.2c0.2-0.1,0.5-0.1,0.7-0.2c1.9-0.7,3.7-1.8,5.3-3.1c1.6-1.3,3-2.9,4.2-4.6
		c2.3-3.4,4.1-7.3,5.3-11.2l0.4-1.5l0.2-0.7l0.1-0.4l0.1-0.4c0.2-1,0.5-2,0.7-3l0.6-3.1c0.1-0.3,0.1-0.6,0.3-0.9
		c0.1-0.3,0.3-0.6,0.5-0.8c0.2-0.2,0.4-0.5,0.7-0.7c0.1-0.1,0.3-0.2,0.4-0.3c0.1,0,0.1-0.1,0.2-0.1l0.2-0.1c0.9-0.4,1.8-0.9,2.7-1.4
		c0.9-0.5,1.7-1.1,2.5-1.7c1.6-1.2,3-2.7,3.9-4.4c1-1.7,1.5-3.6,1.5-5.6c0-1-0.1-2-0.4-2.9l-0.2-0.7l0-0.1l0-0.1c0,0,0-0.1,0-0.1
		l-0.1-0.1l-0.1-0.1c-0.1-0.2-0.2-0.3-0.3-0.5c-0.1-0.1-0.3-0.3-0.5-0.3c-0.3-0.2-0.7-0.3-1.1-0.3c0,0-0.1,0-0.2,0l-0.2,0
		c-0.1,0-0.2,0-0.4,0c-0.2,0-0.5,0.1-0.7,0.1c-1,0.2-1.9,0.5-2.8,0.9c-0.9,0.4-1.6,1.1-2.2,1.8c-0.6,0.8-1,1.6-1.3,2.6
		c-0.1,0.5-0.2,1-0.3,1.5c0,0.1,0,0.3,0,0.4c0,0.1,0,0.2,0,0.3c0,0.2,0.1,0.4,0.1,0.7c0.1,0.4,0.4,0.8,0.7,1.1
		c0.3,0.3,0.8,0.5,1.2,0.6c0.5,0.1,0.9,0,1.4-0.1c0.5-0.2,0.9-0.4,1.3-0.7c0.8-0.6,1.6-1.3,2.3-2.1L189.4,114.1z"/>
</g>
<path class="st11" d="M86,54.8c-2.2-0.4-6.5-0.3-10.7,4.9c-0.2,0.3,0,0.7,0.4,0.6C78,60,84.2,59,86.6,57.2
	C87.5,56.5,87.1,55,86,54.8z"/>
<ellipse transform="matrix(0.9436 -0.3311 0.3311 0.9436 -20.2988 33.1342)" class="st11" cx="87.1" cy="76.1" rx="6.3" ry="8.9"/>
<ellipse transform="matrix(0.9943 -0.1064 0.1064 0.9943 -6.9906 13.4501)" class="st11" cx="122.5" cy="72.2" rx="5.7" ry="8.1"/>
<path class="st0" d="M112,88v-1c1.9,0,3.4-2.2,3.4-4.9c0-2.5-1.3-4.5-3-4.8c-0.7-0.1-1.2-0.3-1.6-0.5c-1.4-0.8-3.6-2.7-3.1-7l1,0.1
	c-0.2,1.6-0.1,4.6,2.6,6.1c0.3,0.2,0.8,0.3,1.3,0.4c2.2,0.3,3.8,2.8,3.8,5.8C116.4,85.4,114.4,88,112,88z"/>
<path class="st2" d="M121,94.1c0.1,0.6,0.1,1.3,0,1.9c-0.1,0.6-0.4,1.3-0.7,1.9c-0.6,1.2-1.4,2.3-2.5,3.2c-1,0.9-2.2,1.7-3.5,2.3
	c-0.6,0.3-1.3,0.5-2,0.7c-0.7,0.2-1.4,0.3-2.1,0.4c-0.7,0.1-1.4,0.1-2.1,0.1c-0.7,0-1.4-0.1-2.1-0.3c-0.7-0.2-1.4-0.4-2-0.7
	c-0.7-0.3-1.3-0.7-1.9-1.1c-1.2-0.8-2.2-1.9-2.9-3.2c-0.3-0.6-0.6-1.3-0.7-2c-0.1-0.4-0.1-0.7-0.1-1.1c0-0.4,0.1-0.7,0.2-1h0.2
	c0.3,0.6,0.7,1,1.1,1.4c0.4,0.4,0.9,0.7,1.3,0.9c0.9,0.5,1.9,0.9,2.8,1.2c1,0.3,1.9,0.5,2.9,0.6c1,0.1,2,0.3,3,0.3c0.5,0,1,0,1.5,0
	c0.5,0,1,0,1.6-0.1c1-0.1,2.1-0.3,3.1-0.7c1-0.4,2-1,2.8-1.7c0.4-0.4,0.8-0.8,1.1-1.3C120.6,95.2,120.8,94.7,121,94.1z"/>
<path class="st12" d="M155.4,137.7l3.1,9.7c0,0,9.7,6.2,19.3-17.1c0,0-2.4,17.8-16.8,24l0.7,2c0,0-4.1,1.5-10.1-0.3l0.8-19.5
	C152.3,136.5,153.3,136.5,155.4,137.7z"/>
<path class="st13" d="M53.7,38.3c0,0,0-1.5,1-3.2c0,0,7.4-13.5,31.3-17.8c1.8-0.3,4.1-0.6,5.9-0.6c5.6,0,15,0.6,16.6,4.6
	c0,0-12.9-7.1-26.8-1.5l5.4,15.9l-5.4,3.8l-4.7-18C77,21.4,61.9,25,53.7,38.3z"/>
<path class="st14" d="M118.7,112.7c0,0,19-11.4,19.6-29.6c0,0,5.5,16.1-10.9,30.2L118.7,112.7z"/>
<path class="st14" d="M163.7,142.7c-0.5-0.4-1-0.8-1.4-1.2c-0.5-0.4-0.9-0.8-1.4-1.1c-0.5-0.4-1-0.7-1.4-1.1c-0.5-0.4-1-0.7-1.5-1
	l0.1-0.2c0.6,0.1,1.2,0.3,1.8,0.6c0.6,0.3,1.1,0.6,1.6,1c0.5,0.4,1,0.8,1.4,1.3c0.4,0.5,0.8,1,1.1,1.5L163.7,142.7z"/>
<g>
	<path class="st7" d="M58.6,209.3l-4.7-73c0,0,8-32.3,86.5-21.5c3.9,0.5,7.2,3.4,8.2,7.3c2.2,8.8,3.7,29-3.8,74.8
		c-0.3,1.7-1.1,3.3-2.5,4.5c-3.3,2.9-11,8-27.7,11.6c0,0-42.6,2-44.7,1.7C67.9,214.4,60.4,215,58.6,209.3z"/>
	<path class="st2" d="M58.5,209.4l-0.6-9.1l-0.7-9.1l-0.7-9.1l-0.7-9.1l-0.7-9.1c-0.2-3-0.5-6.1-0.7-9.1c-0.5-6.1-0.9-12.2-1.3-18.3
		l0-0.1l0-0.1c0.1-0.4,0.2-0.6,0.3-0.9c0.1-0.3,0.2-0.6,0.4-0.8c0.1-0.3,0.2-0.5,0.4-0.8c0.1-0.3,0.3-0.5,0.4-0.8l0.4-0.8l0.5-0.7
		l0.2-0.4l0.3-0.4l0.5-0.7c0.4-0.5,0.7-0.9,1.1-1.3c0.4-0.4,0.8-0.9,1.2-1.3l1.3-1.2l1.3-1.1c0.2-0.2,0.5-0.4,0.7-0.5l0.7-0.5
		c0.2-0.2,0.5-0.4,0.7-0.5l0.7-0.5l0.7-0.5l0.4-0.2l0.4-0.2l1.5-0.9c0.2-0.2,0.5-0.3,0.8-0.4l0.8-0.4l0.8-0.4l0.4-0.2l0.4-0.2
		l1.6-0.7c0.3-0.1,0.5-0.2,0.8-0.3l0.8-0.3c4.3-1.7,8.7-2.9,13.1-3.7c4.5-0.9,9-1.4,13.5-1.7c9.1-0.6,18.1-0.4,27.2,0.3l3.4,0.3
		l1.7,0.1c0.6,0,1.1,0.1,1.7,0.2c2.3,0.3,4.5,0.5,6.8,0.8c1.2,0.2,2.3,0.5,3.4,1.1c1.1,0.6,2,1.3,2.8,2.2c0.2,0.2,0.4,0.5,0.6,0.7
		c0.2,0.2,0.3,0.5,0.5,0.7c0.1,0.3,0.3,0.5,0.4,0.8c0.1,0.3,0.3,0.5,0.4,0.8l0.2,0.4c0.1,0.1,0.1,0.3,0.1,0.4c0,0.1,0.1,0.3,0.1,0.4
		l0.1,0.4l0.2,0.8c0.1,0.3,0.1,0.6,0.2,0.8l0.3,1.7l0.3,1.7l0.1,0.8l0.1,0.9l0.2,1.7c0.1,1.1,0.2,2.3,0.3,3.4l0.2,3.4
		c0.2,4.6,0,9.1-0.1,13.6c-0.4,9.1-1.3,18.1-2.5,27.1c-0.1,1.1-0.3,2.3-0.4,3.4l-0.5,3.4l-0.5,3.4l-0.5,3.4l-0.5,3.4l-0.3,1.7
		c0,0.1-0.1,0.3-0.1,0.5c0,0.2-0.1,0.3-0.1,0.5c-0.1,0.3-0.2,0.6-0.3,0.9c-0.5,1.2-1.2,2.3-2.1,3.2c-0.2,0.2-0.5,0.4-0.7,0.6
		c-0.2,0.2-0.5,0.4-0.7,0.6l-0.3,0.3l-0.4,0.3c-0.2,0.2-0.5,0.3-0.7,0.5c-3.9,2.6-8.1,4.5-12.4,6.1c-1.1,0.4-2.2,0.8-3.3,1.1
		c-0.5,0.2-1.1,0.3-1.6,0.5l-1.6,0.5l-0.8,0.2l-0.8,0.2l-1.7,0.4c-1.1,0.3-2.2,0.5-3.3,0.8l-0.1,0l-0.1,0l-7.3,0.2l-7.3,0.2
		l-14.6,0.4c-4.9,0.1-9.7,0.2-14.6,0.3c-0.3,0-0.6,0-0.9,0c-0.2,0-0.3,0-0.4,0c-0.1,0-0.3,0-0.4,0c-0.6,0-1.2-0.1-1.8-0.1
		c-1.2-0.1-2.4-0.3-3.6-0.6c-1.2-0.3-2.3-0.9-3.3-1.7c-0.5-0.4-0.9-0.9-1.2-1.4C58.9,210.5,58.7,210,58.5,209.4z M58.7,209.3
		c0.2,0.5,0.4,1.1,0.8,1.6c0.3,0.5,0.7,0.9,1.2,1.3c0.9,0.8,2,1.3,3.2,1.6c2.3,0.7,4.8,0.6,7.2,0.7c2.4,0,4.8-0.2,7.3-0.3
		c2.4-0.1,4.8-0.2,7.3-0.4l29.1-1.8l-0.1,0l3.3-0.8l1.6-0.4l0.8-0.2l0.8-0.2l1.6-0.5c0.5-0.2,1.1-0.3,1.6-0.5
		c1.1-0.3,2.1-0.7,3.2-1.1c4.2-1.6,8.3-3.4,11.9-5.9c0.2-0.2,0.4-0.3,0.7-0.5l0.3-0.2l0.3-0.3c0.2-0.2,0.4-0.3,0.6-0.5
		c0.2-0.2,0.4-0.4,0.6-0.5c0.7-0.7,1.3-1.5,1.6-2.4c0.1-0.2,0.2-0.5,0.2-0.7c0-0.1,0.1-0.2,0.1-0.4c0-0.1,0-0.2,0.1-0.4l0.3-1.7
		l0.5-3.3l0.5-3.3l0.5-3.4l0.5-3.4c0.2-1.1,0.3-2.2,0.5-3.4c1.2-9,2.2-17.9,2.7-26.9c0.2-4.5,0.4-9,0.3-13.5l-0.1-3.4
		c0-0.6-0.1-1.1-0.1-1.7c0-0.6-0.1-1.1-0.1-1.7l-0.2-1.7l-0.1-0.8l-0.1-0.8l-0.2-1.7l-0.3-1.7c0-0.3-0.1-0.5-0.2-0.8l-0.2-0.8
		l-0.1-0.4c0-0.1-0.1-0.3-0.1-0.4c0-0.1-0.1-0.3-0.1-0.4l-0.1-0.4c-0.1-0.3-0.2-0.5-0.3-0.7c-0.1-0.2-0.3-0.5-0.4-0.7
		c-0.1-0.2-0.3-0.5-0.4-0.7c-0.2-0.2-0.3-0.4-0.5-0.6c-0.7-0.8-1.5-1.5-2.5-2c-0.9-0.5-2-0.9-3-1.1c-2.2-0.3-4.5-0.6-6.7-0.9
		c-2.2-0.3-4.5-0.5-6.7-0.7c-0.6-0.1-1.1-0.1-1.7-0.1l-1.7-0.1l-3.4-0.2c-1.1-0.1-2.3-0.1-3.4-0.1l-1.7-0.1c-0.6,0-1.1,0-1.7,0
		l-3.4,0l-1.7,0l-1.7,0.1l-3.4,0.1c-1.1,0.1-2.3,0.2-3.4,0.3l-1.7,0.1l-1.7,0.2l-1.7,0.2c-0.6,0.1-1.1,0.1-1.7,0.2l-3.3,0.5
		c-0.3,0-0.6,0.1-0.8,0.2l-0.8,0.2l-1.7,0.3c-4.4,1-8.7,2.3-12.8,4l-0.8,0.3c-0.3,0.1-0.5,0.2-0.8,0.4l-1.5,0.7l-0.4,0.2l-0.4,0.2
		l-0.7,0.4l-0.7,0.4c-0.2,0.1-0.5,0.3-0.7,0.4c-1.9,1.1-3.7,2.4-5.4,3.8l-1.2,1.1l-1.2,1.2c-0.4,0.4-0.7,0.8-1.1,1.2
		c-0.4,0.4-0.7,0.8-1,1.3l-0.5,0.7l-0.2,0.3l-0.2,0.3l-0.4,0.7l-0.4,0.7c-0.1,0.2-0.3,0.5-0.4,0.7c-0.1,0.2-0.2,0.5-0.3,0.7
		c-0.1,0.2-0.2,0.5-0.3,0.7c-0.1,0.2-0.2,0.5-0.2,0.7l0-0.3c0.4,6.1,0.8,12.1,1.1,18.2c0.2,3,0.3,6.1,0.5,9.1l0.4,9.1l0.4,9.1
		l0.5,9.1l0.5,9.1L58.7,209.3z"/>
</g>
<g>
	<path class="st15" d="M142.8,200.8c3.7-9.1-54.9-2.1-54.9-2.1c-9.2,0.7-23.1,9.6-26.7,11.7c-0.6,0.3-0.8,1.3-0.3,1.7
		c1.7,1.4,6.1,3.8,12.7,3l50.2-2.5C123.7,212.6,141.5,203.9,142.8,200.8z"/>
	<path class="st2" d="M142.7,200.7c0.1-0.2,0.1-0.4,0.1-0.6c0-0.2,0-0.4-0.1-0.5c-0.1-0.2-0.1-0.3-0.2-0.5c-0.1-0.1-0.2-0.3-0.4-0.4
		c-0.6-0.5-1.3-0.8-2-1c-1.5-0.5-3.1-0.7-4.6-0.8c-3.1-0.3-6.3-0.3-9.5-0.3c-3.2,0-6.3,0.2-9.5,0.4c-3.2,0.2-6.3,0.4-9.5,0.6
		c-3.2,0.2-6.3,0.5-9.5,0.7c-1.6,0.1-3.2,0.3-4.7,0.4c-1.6,0.1-3.2,0.3-4.7,0.4c-3.1,0.2-6.1,1.2-9.1,2.3c-2.9,1.1-5.8,2.5-8.6,4
		c-1.4,0.7-2.8,1.5-4.2,2.3c-1.4,0.8-2.7,1.6-4.1,2.4l-0.5,0.3l-0.3,0.2l-0.1,0.1c0,0,0,0-0.1,0.1c-0.2,0.2-0.3,0.5-0.3,0.7
		c0,0.1,0.1,0.2,0.1,0.3c0,0,0.1,0,0.1,0.1l0.1,0.1c0.1,0.1,0.2,0.1,0.2,0.2c0.3,0.2,0.6,0.4,1,0.6c0.7,0.4,1.4,0.7,2.1,1
		c0.7,0.3,1.5,0.5,2.2,0.6c1.5,0.3,3.1,0.4,4.6,0.3c0.2,0,0.4,0,0.6-0.1c0.2,0,0.4,0,0.6-0.1c0.4,0,0.8-0.1,1.2-0.2
		c0.8-0.1,1.6-0.1,2.4-0.2c3.2-0.2,6.3-0.3,9.5-0.5l9.5-0.4l9.5-0.4c6.3-0.3,12.7-0.6,19-0.9l-0.3,0.1l0,0c1.7-0.8,3.4-1.6,5.1-2.4
		c1.7-0.8,3.4-1.7,5-2.6c1.7-0.9,3.3-1.8,4.9-2.8c0.8-0.5,1.6-1,2.3-1.6c0.4-0.3,0.7-0.6,1.1-0.9c0.2-0.2,0.3-0.3,0.5-0.5
		C142.5,201.1,142.6,200.9,142.7,200.7z M142.9,200.8c-0.1,0.2-0.2,0.4-0.4,0.6c-0.1,0.2-0.3,0.4-0.5,0.5c-0.3,0.3-0.7,0.7-1.1,1
		c-0.7,0.6-1.5,1.2-2.3,1.7c-1.6,1.1-3.2,2.1-4.8,3c-1.6,1-3.3,1.9-4.9,2.8c-1.6,0.9-3.3,1.8-5,2.7l0,0l-0.1,0.1l-0.1,0
		c-6.3,0.3-12.7,0.6-19,1l-9.5,0.6l-9.5,0.5c-3.2,0.2-6.3,0.3-9.5,0.4c-0.8,0-1.6,0-2.4,0.1c-0.4,0-0.8,0-1.2,0c-0.2,0-0.4,0-0.6,0
		c-0.2,0-0.4,0-0.6,0c-1.6-0.1-3.3-0.3-4.8-0.7c-0.4-0.1-0.8-0.2-1.2-0.3c-0.4-0.1-0.8-0.3-1.2-0.4c-0.8-0.3-1.5-0.6-2.2-1.1
		c-0.4-0.2-0.7-0.4-1-0.7c-0.1-0.1-0.2-0.1-0.2-0.2l-0.1-0.1c0,0-0.1-0.1-0.1-0.1c-0.2-0.2-0.3-0.5-0.3-0.8c0-0.3,0-0.5,0.1-0.7
		c0.1-0.2,0.2-0.4,0.5-0.6c0.1,0,0.1-0.1,0.2-0.1l0.1-0.1l0.3-0.1l0.5-0.3c2.7-1.6,5.4-3.3,8.2-4.8c2.8-1.5,5.7-2.9,8.6-4.2
		c1.5-0.6,3-1.2,4.5-1.6c0.8-0.2,1.6-0.4,2.4-0.6c0.4-0.1,0.8-0.1,1.2-0.2c0.2,0,0.4-0.1,0.6-0.1c0.2,0,0.4,0,0.6-0.1
		c3.2-0.4,6.3-0.8,9.5-1.1c3.2-0.3,6.3-0.6,9.5-0.8c6.3-0.4,12.7-0.7,19.1-0.6c3.2,0.1,6.4,0.2,9.5,0.7c1.6,0.2,3.2,0.5,4.7,1
		c0.8,0.3,1.5,0.6,2.2,1.2c0.3,0.3,0.6,0.7,0.7,1.1C143.2,200,143,200.4,142.9,200.8z"/>
</g>
<g>
	<path class="st16" d="M74.3,209.8c4.4-1.9,19.8-8.1,23.2,0c0.5,1.1,0.3,2.4-0.4,3.4l-25.8,36.4c-0.5,0.7-0.7,1.5-0.7,2.3
		c0.1,2.8-1.1,9.9-15.9,10.9c-0.6,0-1.1-0.3-1.3-0.9c-0.8-2.1-1.7-7.7,5.6-12.2c0.9-0.5,1.5-1.4,1.9-2.4l12-35.8
		C73,210.8,73.6,210.1,74.3,209.8z"/>
	<path class="st2" d="M74.3,209.7c3-1.3,6.1-2.5,9.2-3.4c0.8-0.2,1.6-0.4,2.4-0.6c0.4-0.1,0.8-0.2,1.2-0.2c0.4-0.1,0.8-0.1,1.2-0.2
		c1.7-0.2,3.4-0.2,5.1,0.2c0.8,0.2,1.7,0.6,2.4,1.1c0.8,0.5,1.4,1.2,1.9,2c0.1,0.2,0.2,0.4,0.3,0.6c0.1,0.2,0.2,0.4,0.3,0.7
		c0.1,0.5,0.2,1,0.2,1.5c0,0.5-0.2,1-0.3,1.5c-0.1,0.2-0.2,0.5-0.4,0.7l-0.1,0.2l-0.1,0.1l-0.2,0.3c-1.9,2.7-3.8,5.3-5.7,8
		c-3.9,5.3-7.9,10.4-11.8,15.7c-1.9,2.6-3.8,5.3-5.7,8l-1.4,2l-1.4,2c-0.4,0.6-0.6,1.3-0.5,2.1c0.1,0.9,0,1.7-0.2,2.6
		c-0.4,1.7-1.4,3.3-2.6,4.5c-1.3,1.2-2.8,2.1-4.3,2.8c-1.6,0.7-3.2,1.1-4.9,1.4c-0.8,0.2-1.7,0.3-2.5,0.4c-0.4,0.1-0.8,0.1-1.2,0.1
		l-0.3,0l-0.2,0c-0.1,0-0.1,0-0.2,0c-0.4,0-0.7-0.1-1-0.2c-0.3-0.2-0.6-0.4-0.8-0.6c-0.1-0.1-0.2-0.3-0.3-0.4c0-0.1-0.1-0.2-0.1-0.2
		l-0.1-0.2l-0.1-0.3l-0.1-0.3c-0.1-0.2-0.1-0.4-0.2-0.7c-0.2-0.9-0.2-1.8-0.2-2.7l0.1-0.7l0.1-0.7c0-0.2,0.1-0.4,0.2-0.7
		c0.1-0.2,0.1-0.4,0.2-0.6c0.2-0.4,0.3-0.8,0.6-1.2c0.1-0.2,0.2-0.4,0.3-0.6l0.4-0.6c1-1.5,2.4-2.6,3.8-3.6l1-0.7
		c0.3-0.2,0.5-0.4,0.7-0.6c0.2-0.2,0.4-0.5,0.5-0.8c0-0.1,0.1-0.1,0.1-0.2l0.1-0.3l0.2-0.6c1.1-3.1,2.1-6.2,3.2-9.3l0.8-2.3l0.8-2.3
		c0.6-1.5,1.1-3.1,1.7-4.6c1.2-3.1,2.3-6.1,3.5-9.2c0.6-1.5,1.1-3.1,1.7-4.6l0.8-2.3C72.9,210.8,73.5,210.1,74.3,209.7z M74.4,209.9
		c-0.7,0.3-1.3,1-1.5,1.7l-0.7,2.3c-0.5,1.6-1,3.1-1.4,4.7c-0.9,3.1-1.8,6.3-2.8,9.4c-0.5,1.6-0.9,3.1-1.4,4.7l-0.7,2.3l-0.7,2.3
		c-1,3.1-2,6.2-3,9.3l-0.2,0.6l-0.1,0.3c0,0.1-0.1,0.2-0.1,0.3c-0.2,0.5-0.5,0.9-0.8,1.3c-0.3,0.4-0.7,0.7-1.1,1l-1,0.7
		c-1.3,0.9-2.4,1.9-3.3,3.1l-0.3,0.5l-0.3,0.5c-0.2,0.3-0.3,0.7-0.5,1c-0.1,0.2-0.1,0.3-0.2,0.5c-0.1,0.2-0.1,0.3-0.2,0.5l-0.1,0.5
		l-0.1,0.5c-0.1,0.7,0,1.5,0.1,2.2c0,0.2,0.1,0.4,0.1,0.5l0.1,0.3l0.1,0.3l0,0.1c0,0,0,0,0,0.1c0,0,0,0.1,0.1,0.1
		c0,0.1,0.1,0.1,0.2,0.1c0.1,0,0.1,0,0.2,0c0,0,0.1,0,0.1,0l0.1,0l0.3,0c0.4,0,0.8-0.1,1.2-0.1c0.8-0.1,1.6-0.2,2.4-0.3
		c1.6-0.3,3.1-0.6,4.6-1.2c0.7-0.3,1.4-0.6,2.1-1c0.7-0.4,1.3-0.8,1.9-1.3c1.2-1,2.1-2.3,2.5-3.8c0.2-0.7,0.3-1.5,0.3-2.3
		c0-0.9,0.2-1.8,0.8-2.6l1.5-2l1.4-2c1.9-2.6,3.8-5.3,5.7-8c3.7-5.4,7.3-10.9,11-16.3c1.8-2.7,3.7-5.4,5.6-8l0.2-0.2l0.1-0.1
		l0.1-0.1c0.1-0.1,0.2-0.3,0.2-0.4c0.1-0.3,0.2-0.6,0.2-0.9c0-0.3,0-0.6-0.1-0.9c0-0.2-0.1-0.3-0.2-0.5c-0.1-0.2-0.1-0.3-0.2-0.5
		c-0.7-1.3-1.9-2.2-3.4-2.6c-1.5-0.5-3.1-0.6-4.7-0.5c-1.6,0-3.2,0.3-4.8,0.6C80.5,207.5,77.4,208.6,74.4,209.9z"/>
</g>
<g>
	<path class="st16" d="M114.3,209c3.1-2.6,11.5-8.6,21.4-4.7c0.9,0.3,1.5,1.2,1.5,2.1l1.4,34c0,1.2,0.8,2.3,1.9,2.8
		c4.2,1.7,14.3,5.6,9.9,8.6h-16.2c0,0-3.7-1-4.8-4.6l-15.7-35.7C113.4,210.6,113.6,209.6,114.3,209z"/>
	<path class="st2" d="M114.3,208.9c1.3-1.1,2.6-2,4-2.9c1.4-0.9,2.9-1.6,4.5-2.2c1.6-0.6,3.2-1,4.9-1.2c1.7-0.2,3.4-0.2,5.1,0.1
		c0.4,0.1,0.8,0.2,1.3,0.2c0.2,0,0.4,0.1,0.6,0.2c0.2,0.1,0.4,0.1,0.6,0.2l0.6,0.2l0.2,0.1c0.1,0,0.1,0,0.2,0.1
		c0.1,0.1,0.3,0.1,0.4,0.2c0.5,0.3,0.9,0.7,1.2,1.2c0.1,0.2,0.3,0.5,0.3,0.8c0,0.1,0.1,0.3,0.1,0.4c0,0.1,0,0.1,0,0.2l0,0.1l0,0.1
		l0.1,1.2c0,0.8,0.1,1.6,0.1,2.5c0.1,3.3,0.2,6.6,0.2,9.9c0,3.3,0,6.6,0,9.9c0,0.8,0,1.6,0,2.5c0,0.8,0,1.6,0.1,2.5
		c0,1.6,0.1,3.3,0.2,4.9l0,0.6c0,0.1,0,0.2,0,0.3c0,0.1,0,0.2,0,0.3c0.1,0.4,0.2,0.7,0.4,1c0.2,0.3,0.5,0.6,0.8,0.7
		c0.1,0.1,0.2,0.1,0.2,0.1c0.1,0,0.2,0.1,0.3,0.1l0.6,0.2l2.3,0.9c0.8,0.3,1.5,0.6,2.3,1c0.8,0.3,1.5,0.7,2.3,1.1
		c0.7,0.4,1.5,0.8,2.2,1.3c0.4,0.3,0.7,0.6,1,0.9c0.3,0.3,0.6,0.8,0.8,1.3c0.1,0.3,0.1,0.6,0.1,0.9c0,0.3-0.2,0.6-0.3,0.9
		c-0.3,0.5-0.7,0.8-1.1,1.1l-0.2,0.1l-0.3,0c-1.3,0-2.7,0.1-4,0.1l-4,0.1l-8.1,0.1l-0.1,0l-0.1,0l-0.1,0c0,0-0.1,0-0.1,0
		c-0.1,0-0.2-0.1-0.2-0.1c-0.2-0.1-0.3-0.1-0.5-0.2c-0.2-0.1-0.3-0.1-0.4-0.2l-0.4-0.2c-0.6-0.3-1.1-0.7-1.6-1.2
		c-0.3-0.2-0.5-0.5-0.7-0.7c-0.2-0.3-0.4-0.5-0.6-0.8c-0.4-0.6-0.6-1.2-0.8-1.8l0,0.1c-1.4-3.2-2.8-6.4-4.2-9.6
		c-0.7-1.6-1.4-3.2-2-4.8c-0.7-1.6-1.3-3.2-1.9-4.8l-3.8-9.8l-1-2.4c-0.3-0.8-0.6-1.6-1-2.4l-0.5-1.2l-0.3-0.6
		c-0.1-0.2-0.2-0.4-0.3-0.6c-0.1-0.4-0.2-0.9,0-1.4C113.7,209.6,113.9,209.2,114.3,208.9z M114.4,209c-0.6,0.5-0.9,1.5-0.6,2.3
		c0.3,0.8,0.7,1.6,1.1,2.4c0.4,0.8,0.7,1.6,1.1,2.4l1.1,2.3l4.7,9.4c0.8,1.6,1.5,3.1,2.3,4.7c0.7,1.6,1.5,3.2,2.2,4.7
		c1.4,3.2,2.9,6.3,4.2,9.5l0,0l0,0.1c0.2,0.5,0.3,0.9,0.6,1.3c0.1,0.2,0.3,0.4,0.4,0.6c0.2,0.2,0.3,0.4,0.5,0.5
		c0.3,0.3,0.7,0.6,1.2,0.9l0.3,0.2c0.1,0.1,0.2,0.1,0.3,0.2c0.1,0.1,0.2,0.1,0.3,0.1c0.1,0,0.1,0,0.2,0.1c0,0,0.1,0,0.1,0l0.1,0
		l-0.3,0l8.1,0.1l4,0.1c1.3,0,2.7,0.1,4,0.1l-0.4,0.1c0.3-0.2,0.5-0.4,0.7-0.6c0.1-0.2,0.2-0.4,0.1-0.6c0-0.2-0.2-0.5-0.4-0.8
		c-0.2-0.3-0.5-0.5-0.8-0.8c-0.6-0.5-1.3-0.9-1.9-1.4c-0.7-0.4-1.4-0.8-2.1-1.2c-1.5-0.7-2.9-1.4-4.5-2.1l-0.6-0.2
		c-0.1,0-0.2-0.1-0.3-0.1c-0.1-0.1-0.2-0.1-0.3-0.2c-0.4-0.3-0.7-0.6-1-1c-0.3-0.4-0.4-0.8-0.5-1.2c0-0.1,0-0.2-0.1-0.3
		c0-0.1,0-0.2,0-0.3l0-0.6c-0.1-1.6-0.1-3.3-0.2-4.9c0-0.8-0.1-1.6-0.1-2.5c-0.1-0.8-0.1-1.6-0.2-2.5c-0.2-3.3-0.5-6.6-0.7-9.8
		c-0.2-3.3-0.4-6.6-0.6-9.8c0-0.8-0.1-1.6-0.1-2.5l0-1.2l0-0.1l0,0c0,0,0-0.1,0-0.1c0-0.1,0-0.1,0-0.2c0-0.1-0.1-0.2-0.1-0.4
		c-0.1-0.2-0.3-0.4-0.5-0.6c-0.1,0-0.1-0.1-0.2-0.1c0,0-0.1,0-0.1-0.1l-0.1-0.1l-0.5-0.2c-0.7-0.3-1.5-0.5-2.3-0.7
		c-0.4-0.1-0.8-0.2-1.2-0.2c-0.2,0-0.4-0.1-0.6-0.1c-0.2,0-0.4-0.1-0.6-0.1c-0.8-0.1-1.6-0.1-2.4-0.1c-0.8,0-1.6,0.1-2.4,0.2
		c-0.8,0.1-1.6,0.3-2.4,0.5c-1.6,0.5-3.1,1.1-4.5,1.9C117,207,115.7,208,114.4,209z"/>
</g>
<g>
	<path class="st17" d="M185,107.7c-1.8,1.1-3.8,4.3-5.1,3s-0.5-5.4,1-6.9c1.5-1.5,4.1-3,5.4-1.7S187.6,106.1,185,107.7z"/>
	<path class="st2" d="M185.1,107.8c-0.5,0.3-0.8,0.7-1.2,1.1c-0.3,0.4-0.6,0.9-1,1.4c-0.2,0.2-0.4,0.5-0.6,0.7
		c-0.2,0.2-0.5,0.4-0.8,0.6c-0.2,0.1-0.4,0.2-0.6,0.2c-0.2,0-0.5,0-0.8,0c-0.3-0.1-0.5-0.2-0.7-0.4c-0.2-0.2-0.3-0.3-0.4-0.5
		c-0.2-0.3-0.3-0.7-0.4-1c0-0.3,0-0.7,0-1c0.1-0.6,0.2-1.2,0.3-1.7c0.1-0.6,0.3-1.1,0.4-1.7c0.2-0.5,0.4-1.1,0.7-1.7
		c0.1-0.3,0.4-0.6,0.5-0.8c0.2-0.2,0.4-0.5,0.6-0.7c0.4-0.4,0.9-0.8,1.5-1.1c0.5-0.3,1.1-0.6,1.9-0.7c0.4-0.1,0.8,0,1.2,0.1
		c0.4,0.1,0.8,0.3,1.1,0.6c0.1,0.1,0.1,0.1,0.2,0.2c0.1,0.1,0.1,0.1,0.2,0.2c0.1,0.2,0.2,0.3,0.3,0.5c0.1,0.2,0.2,0.3,0.2,0.5
		c0,0.1,0.1,0.2,0.1,0.3c0,0.1,0,0.2,0,0.3c0.1,0.7,0,1.4-0.3,2c-0.3,0.6-0.7,1.1-1.2,1.5C186,107.1,185.6,107.5,185.1,107.8z
		 M185,107.6c0.5-0.3,0.8-0.7,1.1-1.2c0.3-0.5,0.4-1,0.3-1.5c0-0.5-0.1-0.9-0.3-1.3c0,0,0-0.1-0.1-0.1c0,0,0-0.1-0.1-0.1
		c0-0.1-0.1-0.2-0.1-0.2c0-0.1-0.1-0.1-0.2-0.2c-0.1-0.1-0.1-0.1-0.2-0.2c-0.1-0.1-0.2-0.1-0.3-0.2c-0.1,0-0.3-0.1-0.4,0
		c-0.4,0-0.8,0.1-1.3,0.3c-0.4,0.2-0.9,0.4-1.3,0.7c-0.4,0.3-0.9,0.5-1.2,0.9c-0.4,0.3-0.7,0.8-0.9,1.3c-0.2,0.5-0.4,1-0.4,1.5
		c-0.1,0.5,0,1.1,0.1,1.6c0.1,0.5,0.4,0.9,0.6,1.1c0.1,0.1,0.1,0.1,0.2,0.1c0,0,0.1,0,0.1,0c0,0,0.1,0,0.3-0.1
		c0.3-0.1,0.8-0.4,1.3-0.6c0.5-0.3,1-0.6,1.5-0.9C184.1,108.2,184.5,107.9,185,107.6z"/>
</g>
<g>
	<path class="st17" d="M180.3,103.7c-1.8,1-1.5,5.3-3.2,4.4c-1.7-0.9-2.1-5.5-1.2-7.4c1-1.8,4.2-3,5.9-2.1
		C183.5,99.6,183.7,101.9,180.3,103.7z"/>
	<path class="st2" d="M180.4,103.8c-0.2,0.1-0.4,0.3-0.6,0.6c-0.1,0.2-0.2,0.5-0.3,0.8c-0.1,0.5-0.2,1.1-0.2,1.7
		c0,0.3-0.1,0.6-0.2,0.9c-0.1,0.2-0.1,0.3-0.2,0.5c-0.1,0.2-0.2,0.4-0.4,0.6c-0.2,0.2-0.6,0.3-0.9,0.3c-0.3,0-0.6-0.1-0.8-0.2
		c-0.4-0.2-0.7-0.5-0.9-0.9c-0.4-0.6-0.5-1.3-0.6-1.9c-0.1-0.6-0.1-1.2-0.1-1.8c0-0.6,0-1.2,0-1.8c0-0.6,0-1.2,0.2-1.8
		c0.2-0.7,0.6-1.3,1-1.7c0.5-0.5,1-0.8,1.6-1.1c0.6-0.3,1.2-0.5,1.9-0.6c0.7-0.1,1.4-0.1,2.2,0.3c0.4,0.2,0.7,0.4,1,0.7
		c0.3,0.3,0.5,0.7,0.6,1.1c0,0.1,0.1,0.2,0.1,0.3c0,0.1,0,0.2,0,0.3c0,0.1,0,0.2,0,0.3c0,0.1,0,0.1,0,0.2l0,0.1l-0.1,0.3
		c0,0.1-0.1,0.2-0.1,0.3c0,0.1-0.1,0.2-0.1,0.2l-0.1,0.2c-0.4,0.6-0.9,0.9-1.5,1.3C181.4,103.3,180.9,103.5,180.4,103.8z
		 M180.3,103.6c0.5-0.3,0.9-0.6,1.3-1.1c0.3-0.4,0.6-0.9,0.6-1.4c0-0.1,0-0.2,0-0.3c0-0.1,0-0.1,0-0.1l0-0.1c0,0,0,0,0-0.1l0-0.1
		c0,0,0-0.1,0-0.1l-0.1-0.1l0-0.1c0,0,0,0,0,0c0,0,0-0.1-0.1-0.1c0,0-0.1-0.1-0.1-0.1l0,0l0,0c0,0-0.1-0.1-0.1-0.1l-0.1-0.1
		c0,0-0.1-0.1-0.1-0.1c-0.1,0-0.1-0.1-0.2-0.1c-0.3-0.1-0.7-0.2-1.2-0.2c-0.5,0-0.9,0.1-1.4,0.3c-0.5,0.1-0.9,0.4-1.3,0.6
		c-0.4,0.3-0.8,0.5-1.1,0.9c-0.3,0.4-0.4,0.9-0.5,1.5c-0.1,0.5-0.1,1.1,0,1.6c0.1,0.5,0.3,1.1,0.5,1.6c0.2,0.5,0.5,0.9,0.8,1.2
		c0.1,0.1,0.3,0.2,0.4,0.3c0,0,0.1,0,0,0c-0.1,0-0.2,0-0.2,0.1c0,0,0,0,0.1-0.1c0.1-0.1,0.1-0.2,0.2-0.3c0.1-0.2,0.3-0.4,0.4-0.7
		c0.3-0.5,0.6-1,1-1.5C179.4,104.4,179.7,104,180.3,103.6z"/>
</g>
<path class="st11" d="M134.6,120.4c1.8,0,8.9-0.1,9.3,1.5v1.3c0,0.2-0.2,0.3-0.3,0.3c-0.9-0.2-3.6-0.6-9-0.8c-0.2,0-0.3-0.1-0.3-0.3
	l-0.1-1.6C134.2,120.6,134.4,120.4,134.6,120.4z"/>
<path class="st11" d="M135.4,126.7c1.8,0,8.9-0.1,9.3,1.5v1.3c0,0.2-0.2,0.3-0.3,0.3c-0.9-0.2-3.6-0.6-9-0.8c-0.2,0-0.3-0.1-0.3-0.3
	l-0.1-1.6C135,126.9,135.1,126.7,135.4,126.7z"/>
<path class="st11" d="M135.6,133c1.8,0,8.9-0.1,9.3,1.5v1.3c0,0.2-0.2,0.3-0.3,0.3c-0.9-0.2-3.6-0.6-9-0.8c-0.2,0-0.3-0.1-0.3-0.3
	l-0.1-1.6C135.1,133.2,135.3,133,135.6,133z"/>
<path class="st11" d="M135.6,138.8c1.8,0,8.9-0.1,9.3,1.5v1.3c0,0.2-0.2,0.3-0.3,0.3c-0.9-0.2-3.6-0.6-9-0.8c-0.2,0-0.3-0.1-0.3-0.3
	l-0.1-1.6C135.1,139,135.3,138.8,135.6,138.8z"/>
<path class="st11" d="M135.7,145c1.8,0,8.9-0.1,9.3,1.5v1.3c0,0.2-0.2,0.3-0.3,0.3c-0.9-0.2-3.6-0.6-9-0.8c-0.2,0-0.3-0.1-0.3-0.3
	l-0.1-1.6C135.3,145.2,135.5,145,135.7,145z"/>
<path class="st11" d="M135.4,151c1.8,0,8.9-0.1,9.3,1.5v1.3c0,0.2-0.2,0.3-0.3,0.3c-0.9-0.2-3.6-0.6-9-0.8c-0.2,0-0.3-0.1-0.3-0.3
	l-0.1-1.6C135,151.2,135.2,151,135.4,151z"/>
<path class="st11" d="M135.1,157c1.8,0,8.9-0.1,9.3,1.5v1.3c0,0.2-0.2,0.3-0.3,0.3c-0.9-0.2-3.6-0.6-9-0.8c-0.2,0-0.3-0.1-0.3-0.3
	l-0.1-1.6C134.7,157.2,134.9,157,135.1,157z"/>
<path class="st11" d="M134.8,163.1c1.8,0,8.7-0.1,9.1,1.5v1.3c0,0.2-0.2,0.3-0.3,0.3c-0.9-0.2-3.5-0.6-8.7-0.8
	c-0.2,0-0.3-0.1-0.3-0.3l-0.1-1.6C134.4,163.3,134.5,163.1,134.8,163.1z"/>
<path class="st11" d="M134.3,169.1c1.8,0,8.7-0.1,9.1,1.5v1.3c0,0.2-0.2,0.3-0.3,0.3c-0.9-0.2-3.5-0.6-8.7-0.8
	c-0.2,0-0.3-0.1-0.3-0.3l-0.1-1.6C133.9,169.3,134,169.1,134.3,169.1z"/>
<path class="st11" d="M134.1,175.2c1.7,0,8.5-0.1,8.8,1.5v1.3c0,0.2-0.2,0.3-0.3,0.3c-0.8-0.2-3.4-0.6-8.5-0.8
	c-0.2,0-0.3-0.1-0.3-0.3l-0.1-1.6C133.7,175.4,133.8,175.2,134.1,175.2z"/>
<path class="st11" d="M132.6,187.1c1.7,0,8.5-0.1,8.8,1.5v1.3c0,0.2-0.2,0.3-0.3,0.3c-0.8-0.2-3.4-0.6-8.5-0.8
	c-0.2,0-0.3-0.1-0.3-0.3l-0.1-1.6C132.2,187.3,132.4,187.1,132.6,187.1z"/>
<path class="st11" d="M133.6,181.1c1.7,0,8.5-0.1,8.8,1.5v1.3c0,0.2-0.2,0.3-0.3,0.3c-0.8-0.2-3.4-0.6-8.5-0.8
	c-0.2,0-0.3-0.1-0.3-0.3l-0.1-1.6C133.1,181.3,133.3,181.1,133.6,181.1z"/>
<path class="st11" d="M118.9,120.2c1.7,0,8.1-0.2,10.4,0.2c0.2,0,0.3,0.2,0.4,0.3c0.2,0.5,0.4,1.6-0.5,2.1c-0.1,0.1-0.2,0.1-0.3,0.1
	c-1,0-6.6-0.2-9.9,0c-0.3,0-0.5-0.2-0.5-0.4c-0.1-0.4-0.2-1-0.1-1.8C118.5,120.4,118.7,120.2,118.9,120.2z"/>
<path class="st11" d="M119.7,126.2c1.7,0,8.1-0.2,10.4,0.2c0.2,0,0.3,0.2,0.4,0.3c0.2,0.5,0.4,1.6-0.5,2.1c-0.1,0.1-0.2,0.1-0.3,0.1
	c-1,0-6.6-0.2-9.9,0c-0.3,0-0.5-0.2-0.5-0.4c-0.1-0.4-0.2-1-0.1-1.8C119.3,126.4,119.5,126.2,119.7,126.2z"/>
<path class="st11" d="M102.7,121c3.1-0.5,7.7-0.7,10.7-0.4c0.2,0,0.3,0.2,0.4,0.3c0.2,0.5,0.4,1.6-0.5,2.1c-0.1,0.1-0.2,0.1-0.3,0.1
	c-1,0-6.9,0.4-10.2,0.6c-0.3,0-0.5-0.2-0.5-0.4c-0.1-0.4-0.2-1-0.1-1.8C102.3,121.2,102.5,121.1,102.7,121z"/>
<path class="st11" d="M103.7,127c3.1-0.5,7.7-0.7,10.7-0.4c0.2,0,0.3,0.2,0.4,0.3c0.2,0.5,0.4,1.6-0.5,2.1c-0.1,0.1-0.2,0.1-0.3,0.1
	c-1,0-6.9,0.4-10.2,0.6c-0.3,0-0.5-0.2-0.5-0.4c-0.1-0.4-0.2-1-0.1-1.8C103.3,127.2,103.5,127,103.7,127z"/>
<path class="st11" d="M104.4,133.2c3.1-0.5,7.7-0.7,10.7-0.4c0.2,0,0.3,0.2,0.4,0.3c0.2,0.5,0.4,1.6-0.5,2.1
	c-0.1,0.1-0.2,0.1-0.3,0.1c-1,0-6.9,0.4-10.2,0.6c-0.3,0-0.5-0.2-0.5-0.4c-0.1-0.4-0.2-1-0.1-1.8
	C103.9,133.4,104.1,133.3,104.4,133.2z"/>
<path class="st11" d="M105,139.1c2.9-0.5,7.2-0.7,10-0.4c0.2,0,0.3,0.2,0.4,0.3c0.2,0.5,0.4,1.6-0.5,2.1c-0.1,0.1-0.2,0.1-0.3,0.1
	c-0.9,0-6.5,0.4-9.6,0.6c-0.2,0-0.4-0.2-0.5-0.4c-0.1-0.4-0.2-1-0.1-1.8C104.6,139.3,104.8,139.1,105,139.1z"/>
<path class="st11" d="M105.2,145.2c2.9-0.5,7.2-0.7,10-0.4c0.2,0,0.3,0.2,0.4,0.3c0.2,0.5,0.4,1.6-0.5,2.1c-0.1,0.1-0.2,0.1-0.3,0.1
	c-0.9,0-6.5,0.4-9.6,0.6c-0.2,0-0.4-0.2-0.5-0.4c-0.1-0.4-0.2-1-0.1-1.8C104.8,145.3,105,145.2,105.2,145.2z"/>
<path class="st11" d="M105.5,151.1c2.9-0.5,7.2-0.5,10-0.2c0.2,0,0.3,0.2,0.4,0.3c0.1,0.5,0.3,1.6-0.5,2.1c-0.1,0-0.2,0.1-0.3,0.1
	c-0.9-0.1-6.5,0.2-9.6,0.3c-0.2,0-0.4-0.2-0.5-0.4c-0.1-0.4-0.2-1,0-1.8C105.1,151.3,105.3,151.1,105.5,151.1z"/>
<path class="st11" d="M105.3,157c3-0.4,7.2-0.3,10,0.1c0.2,0,0.3,0.2,0.4,0.4c0.1,0.5,0.3,1.6-0.6,2.1c-0.1,0-0.2,0.1-0.3,0.1
	c-0.9-0.1-6.5,0-9.6,0c-0.2,0-0.4-0.2-0.5-0.5c0-0.4-0.2-1,0-1.8C104.9,157.2,105.1,157,105.3,157z"/>
<path class="st11" d="M105.3,162.9c3-0.4,7.2-0.3,10,0.1c0.2,0,0.3,0.2,0.4,0.4c0.1,0.5,0.3,1.6-0.6,2.1c-0.1,0-0.2,0.1-0.3,0.1
	c-0.9-0.1-6.5,0-9.6,0c-0.2,0-0.4-0.2-0.5-0.5c0-0.4-0.2-1,0-1.8C104.9,163.1,105.1,163,105.3,162.9z"/>
<path class="st11" d="M105.3,169.2c3-0.4,7.2-0.3,10,0.1c0.2,0,0.3,0.2,0.4,0.4c0.1,0.5,0.3,1.6-0.6,2.1c-0.1,0-0.2,0.1-0.3,0.1
	c-0.9-0.1-6.5,0-9.6,0c-0.2,0-0.4-0.2-0.5-0.5c0-0.4-0.2-1,0-1.8C104.9,169.3,105.1,169.2,105.3,169.2z"/>
<path class="st11" d="M104.6,175.2c3-0.4,7.2-0.3,10,0.1c0.2,0,0.3,0.2,0.4,0.4c0.1,0.5,0.3,1.6-0.6,2.1c-0.1,0-0.2,0.1-0.3,0.1
	c-0.9-0.1-6.5,0-9.6,0c-0.2,0-0.4-0.2-0.5-0.5c0-0.4-0.2-1,0-1.8C104.2,175.3,104.4,175.2,104.6,175.2z"/>
<path class="st11" d="M104,181.2c2.9-0.4,7-0.3,9.8,0.1c0.2,0,0.3,0.2,0.3,0.4c0.1,0.5,0.3,1.6-0.6,2.1c-0.1,0-0.2,0.1-0.3,0.1
	c-0.9-0.1-6.3,0-9.3,0c-0.2,0-0.4-0.2-0.5-0.5c0-0.4-0.2-1,0-1.8C103.5,181.4,103.7,181.2,104,181.2z"/>
<path class="st11" d="M103.6,187.5c2.9-0.4,7.1-0.3,9.8,0.1c0.2,0,0.3,0.2,0.3,0.4c0.1,0.5,0.3,1.6-0.6,2.1c-0.1,0-0.2,0.1-0.3,0.1
	c-0.9-0.1-6.4,0-9.4,0c-0.2,0-0.4-0.2-0.5-0.5c0-0.4-0.2-1,0-1.8C103.1,187.6,103.3,187.5,103.6,187.5z"/>
<path class="st11" d="M120.1,132.2c1.7,0,8.1-0.2,10.4,0.2c0.2,0,0.3,0.2,0.4,0.3c0.2,0.5,0.4,1.6-0.5,2.1c-0.1,0.1-0.2,0.1-0.3,0.1
	c-1,0-6.6-0.2-9.9,0c-0.3,0-0.5-0.2-0.5-0.4c-0.1-0.4-0.2-1-0.1-1.8C119.7,132.3,119.9,132.2,120.1,132.2z"/>
<path class="st11" d="M120.6,138.1c1.6,0,7.7-0.2,9.9,0.2c0.2,0,0.3,0.2,0.4,0.3c0.2,0.5,0.4,1.6-0.5,2.1c-0.1,0.1-0.2,0.1-0.3,0.1
	c-1,0-6.3-0.2-9.5,0c-0.2,0-0.5-0.2-0.5-0.4c-0.1-0.4-0.2-1-0.1-1.8C120.2,138.3,120.4,138.2,120.6,138.1z"/>
<path class="st11" d="M120.6,144.3c1.6,0,7.7-0.2,9.9,0.2c0.2,0,0.3,0.2,0.4,0.3c0.2,0.5,0.4,1.6-0.5,2.1c-0.1,0.1-0.2,0.1-0.3,0.1
	c-1,0-6.3-0.2-9.5,0c-0.2,0-0.5-0.2-0.5-0.4c-0.1-0.4-0.2-1-0.1-1.8C120.2,144.4,120.4,144.3,120.6,144.3z"/>
<path class="st11" d="M120.6,150.4c1.6,0,7.7-0.2,9.9,0.2c0.2,0,0.3,0.2,0.4,0.3c0.2,0.5,0.4,1.6-0.5,2.1c-0.1,0.1-0.2,0.1-0.3,0.1
	c-1,0-6.3-0.2-9.5,0c-0.2,0-0.5-0.2-0.5-0.4c-0.1-0.4-0.2-1-0.1-1.8C120.2,150.5,120.4,150.4,120.6,150.4z"/>
<path class="st11" d="M120.3,156.5c1.5,0,7.3-0.2,9.4,0.2c0.2,0,0.3,0.2,0.4,0.3c0.2,0.5,0.4,1.6-0.5,2.1c-0.1,0.1-0.2,0.1-0.3,0.1
	c-0.9,0-6-0.2-9,0c-0.2,0-0.4-0.2-0.5-0.4c-0.1-0.4-0.2-1-0.1-1.8C119.9,156.6,120.1,156.5,120.3,156.5z"/>
<path class="st11" d="M120.3,162.6c1.5,0,7.3-0.2,9.4,0.2c0.2,0,0.3,0.2,0.4,0.3c0.2,0.5,0.4,1.6-0.5,2.1c-0.1,0.1-0.2,0.1-0.3,0.1
	c-0.9,0-6-0.2-9,0c-0.2,0-0.4-0.2-0.5-0.4c-0.1-0.4-0.2-1-0.1-1.8C119.9,162.7,120.1,162.6,120.3,162.6z"/>
<path class="st11" d="M120.2,168.7c1.5,0,7.3-0.2,9.4,0.2c0.2,0,0.3,0.2,0.4,0.3c0.2,0.5,0.4,1.6-0.5,2.1c-0.1,0.1-0.2,0.1-0.3,0.1
	c-0.9,0-6-0.2-9,0c-0.2,0-0.4-0.2-0.5-0.4c-0.1-0.4-0.2-1-0.1-1.8C119.8,168.8,120,168.7,120.2,168.7z"/>
<path class="st11" d="M119.5,174.8c1.5,0,7.3-0.2,9.4,0.2c0.2,0,0.3,0.2,0.4,0.3c0.2,0.5,0.4,1.6-0.5,2.1c-0.1,0.1-0.2,0.1-0.3,0.1
	c-0.9,0-6-0.2-9,0c-0.2,0-0.4-0.2-0.5-0.4c-0.1-0.4-0.2-1-0.1-1.8C119.1,175,119.3,174.8,119.5,174.8z"/>
<path class="st11" d="M118.9,180.9c1.5,0,7.3-0.2,9.4,0.2c0.2,0,0.3,0.2,0.4,0.3c0.2,0.5,0.4,1.6-0.5,2.1c-0.1,0.1-0.2,0.1-0.3,0.1
	c-0.9,0-6-0.2-9,0c-0.2,0-0.4-0.2-0.5-0.4c-0.1-0.4-0.2-1-0.1-1.8C118.5,181.1,118.7,180.9,118.9,180.9z"/>
<path class="st11" d="M118.3,187c1.5,0,7.3-0.2,9.4,0.2c0.2,0,0.3,0.2,0.4,0.3c0.2,0.5,0.4,1.6-0.5,2.1c-0.1,0.1-0.2,0.1-0.3,0.1
	c-0.9,0-6-0.2-9,0c-0.2,0-0.4-0.2-0.5-0.4c-0.1-0.4-0.2-1-0.1-1.8C117.9,187.2,118.1,187,118.3,187z"/>
<path class="st11" d="M85.9,126c-0.2-0.6-0.4-1.6,0.3-2.5c0,0,10-2.6,11.3-1.2c0,0,0.7,2-0.1,2.5c0,0-6,0.2-10.5,1.6
	C86.5,126.6,86.1,126.4,85.9,126z"/>
<path class="st11" d="M86.9,131.6c-0.2-0.6-0.4-1.6,0.3-2.5c0,0,10-2.6,11.3-1.2c0,0,0.7,2-0.1,2.5c0,0-6,0.2-10.5,1.6
	C87.5,132.2,87.1,132,86.9,131.6z"/>
<path class="st11" d="M87.8,137.6c-0.2-0.6-0.4-1.6,0.3-2.5c0,0,10-2.6,11.3-1.2c0,0,0.7,2-0.1,2.5c0,0-6,0.2-10.5,1.6
	C88.4,138.2,88,138,87.8,137.6z"/>
<path class="st11" d="M88.4,143.6c-0.2-0.6-0.4-1.6,0.3-2.5c0,0,10-2.6,11.3-1.2c0,0,0.7,2-0.1,2.5c0,0-6,0.2-10.5,1.6
	C88.9,144.1,88.5,143.9,88.4,143.6z"/>
<path class="st11" d="M88.7,149.6c-0.2-0.6-0.4-1.6,0.3-2.5c0,0,10-2.6,11.3-1.2c0,0,0.7,2-0.1,2.5c0,0-6,0.2-10.5,1.6
	C89.2,150.2,88.8,150,88.7,149.6z"/>
<path class="st11" d="M89.1,155.6c-0.2-0.6-0.4-1.6,0.3-2.5c0,0,10-2.6,11.3-1.2c0,0,0.7,2-0.1,2.5c0,0-6,0.2-10.5,1.6
	C89.7,156.1,89.2,155.9,89.1,155.6z"/>
<path class="st11" d="M89.4,161.2c-0.2-0.6-0.3-1.6,0.4-2.5c0,0,10.1-2.2,11.3-0.7c0,0,0.6,2.1-0.2,2.5c0,0-6,0-10.6,1.2
	C89.9,161.8,89.5,161.6,89.4,161.2z"/>
<path class="st11" d="M89,167c-0.2-0.7-0.2-1.7,0.5-2.5c0,0,10.2-1.8,11.3-0.3c0,0,0.5,2.1-0.3,2.5c0,0-6-0.2-10.6,0.8
	C89.5,167.6,89.1,167.3,89,167z"/>
<path class="st11" d="M90.3,172.9c-0.1-0.7-0.2-1.7,0.4-2.5c0,0,8.4-1.9,9.4-0.4c0,0,0.4,2.1-0.3,2.5c0,0-5-0.2-8.8,0.9
	C90.7,173.5,90.4,173.2,90.3,172.9z"/>
<path class="st11" d="M89.3,179.2c-0.1-0.7-0.2-1.7,0.5-2.5c0,0,9.3-1.9,10.3-0.4c0,0,0.5,2.1-0.3,2.5c0,0-5.5-0.2-9.7,0.9
	C89.8,179.8,89.4,179.6,89.3,179.2z"/>
<path class="st11" d="M88.8,185.3c-0.1-0.7-0.2-1.7,0.5-2.5c0,0,9.3-1.9,10.3-0.4c0,0,0.5,2.1-0.3,2.5c0,0-5.5-0.2-9.7,0.9
	C89.2,185.9,88.9,185.7,88.8,185.3z"/>
<path class="st11" d="M88.3,191.1c-0.1-0.7-0.2-1.7,0.5-2.5c0,0,9.3-1.9,10.3-0.4c0,0,0.5,2.1-0.3,2.5c0,0-5.5-0.2-9.7,0.9
	C88.7,191.7,88.4,191.5,88.3,191.1z"/>
<path class="st18" d="M72.4,129.6c0.5,0.4,1,0.9,1.5,1.4l0.3,0.4l0.3,0.4c0.2,0.3,0.4,0.5,0.6,0.8c0.8,1.1,1.4,2.3,2.1,3.5
	c0.6,1.2,1.1,2.5,1.6,3.7c0.5,1.3,0.9,2.6,1.3,3.9c0.2,0.7,0.4,1.3,0.5,2c0.2,0.7,0.3,1.3,0.5,2l0.4,2l0.4,2l0.1,0.5l0.1,0.5l0.1,1
	l0.1,1c0,0.3,0.1,0.7,0.1,1l0.2,2l0.2,2l0.1,1l0,1l0.1,2l0.1,2c0,0.7,0,1.3,0,2l0,2l0,1l0,1c0,1.3-0.1,2.7-0.2,4
	c-0.3,5.3-1,10.7-2,15.9l-0.1,0c0.5-5.3,0.9-10.6,1-15.9c0.1-5.3,0.1-10.6-0.3-16c-0.4-5.3-1.1-10.6-2.4-15.8
	c-0.1-0.3-0.2-0.6-0.3-1l-0.3-1c-0.2-0.6-0.4-1.3-0.6-1.9c-0.4-1.3-0.9-2.5-1.4-3.7c-0.5-1.2-1.1-2.4-1.8-3.6
	c-0.3-0.6-0.7-1.1-1.1-1.7c-0.4-0.5-0.8-1.1-1.3-1.5L72.4,129.6z"/>
<path class="st15" d="M58.5,196.3l0.3,6.1c0,0,1.3-1.7,2.1-1.3c0,0,15.7,2.6,16.3-19.8c0,0,9.7-0.2,12-7.1c2.3-7-16.6,2.5-16.6,2.5
	L58.5,196.3"/>
<path class="st12" d="M114.8,208.8c3.2-2.7,11.7-7.7,20.7-3.4c0.4,0.2,0.7,0.7,0.6,1.5l0.2,5c0,0-0.8-0.2-2.1,0.4l1.7,25.1
	l-7.5-24.3c0,0-5.4-0.1-11.7,3.7l-2.7-5.3C113.4,210.4,113.9,209.6,114.8,208.8z"/>
<path class="st14" d="M57.3,259c0,0,8.7-3,8.4-8.9l20.2-34.9c0,0-4.3-1.5-14.4,0.9l1.5-4.6c0.5-1.3,1.2-1.5,1.9-1.8
	c3.6-1.5,11.6-4.4,17.4-3c2.9,0.7,5.9,2.9,3.8,5.9l-3.2,4.4c0,0-0.6-0.7-2.6-0.9l-23.1,34.4C67.2,250.6,66.4,257.9,57.3,259z"/>
<path class="st15" d="M69.9,141.6c0,0,5,16-13.3,27l-0.6-6.8C56.1,161.9,69.4,152.7,69.9,141.6z"/>
<path class="st18" d="M56.4,135.2l-0.6-0.2c0.1-0.1,1.4-3.3,5.6-7.3c3.9-3.6,11-8.5,23.1-11.4c0,0,5.1-1.6,14.2-2.5
	c8.4-0.8,21.9-1.3,39,1.4c0.4,0.1,0.8,0.1,1.2,0.1c0.1,0,0.2,0,0.2,0c2,0.2,7.9,0.7,9.3,9.5l-0.6,0.1c-1.3-8.3-6.7-8.8-8.7-9
	c-0.1,0-0.2,0-0.2,0c-0.4,0-0.8-0.1-1.2-0.2c-17-2.7-30.5-2.2-38.8-1.4c-9,0.9-14,2.4-14.1,2.5c-11.9,2.9-19,7.7-22.8,11.2
	C57.7,132,56.4,135.2,56.4,135.2z"/>
<path class="st19" d="M77.8,46.1c0,0,21.8,0.2,25.2,4.1c0,0,13.3,14.3,30.1,16.5c0,0,8.1,0.6,12.2,2.8c0,0-3-16-22.9-24.1
	c-2.8-1.1-5.7-1.8-8.7-2.2C104.2,41.7,88,41.5,77.8,46.1z"/>
<path class="st11" d="M119.2,52c2.2-0.4,6.5-0.3,10.7,4.9c0.2,0.3,0,0.7-0.4,0.6c-2.3-0.3-8.5-1.3-10.9-3.2
	C117.7,53.7,118.1,52.2,119.2,52z"/>
<path class="st11" d="M71,216.5c0,0.1,0.1,0.1,0.2,0.1c0.6-1.3,2-4.2,2.4-4.6c0,0,0.5-1.8,6.1-3.8c0.1,0,10.2-2.7,6.7-2.4
	c-2.4,0.2-12.5,3.5-13.1,4.5C72.8,211.1,72,212.2,71,216.5z"/>
<path class="st11" d="M123,204c0,0-4.7,2.3-7,4.9c-0.7,0.8-1.1,1.9-1.1,2.9c0,1.3,0.3,3.3,1.5,5.4c0,0-3.2-3.6-2.8-7.3
	c0-0.4,0.2-0.7,0.4-0.9C115,208,118.9,204.6,123,204z"/>
<path class="st6" d="M67.6,171.4l-17.1,17.8l8.1,6.5l16.3-17c1.4,0.5,2.9,0.7,4.3,0.8l0.9-0.1c6.5-0.6,11.4-6,11.3-12.6
	c-0.1-2-0.6-3.8-1.3-5.4l0,0l-8.4,8.7l-4.7-1.2l-1.3-4.6l8.3-8.6c-1.5-0.8-3.4-1.3-5.3-1.2c-6.6,0.2-11.7,5.4-12.1,11.7l0,0.9
	C66.7,168.6,67,170.1,67.6,171.4z"/>
<g>
	<path class="st16" d="M23.6,164.1c0,0,3-19.1,31.1-27.8c0.9-0.3,1.8-0.4,2.7-0.5c4-0.2,14.2,0.3,11.2,11.6c-1,3.7-3.1,7.1-5.9,9.7
		c-3,2.8-7.8,6.2-14.5,7.8c0,0-4.2-3.2-6-4.8c-0.1-0.1-0.2,0.1-0.1,0.2c2,1.4,10.6,7.6,14.3,12.3c0,0,13.5-2.5,8.3,2.4
		c0,0,13.8,2.6,8.2,10.4c0,0,1.6,5.1-3.8,7.1c0,0-1.2,5.7-8.3,4c0,0-9.1-4-11.5-12.4C49.2,184.3,27.2,177.5,23.6,164.1z"/>
	<path class="st2" d="M23.5,164.1C23.5,164.1,23.5,164.1,23.5,164.1l0-0.1l0-0.1l0-0.2l0.1-0.4c0.1-0.2,0.1-0.5,0.2-0.7
		c0.1-0.5,0.3-1,0.4-1.4c0.3-0.9,0.7-1.9,1.1-2.8c0.8-1.8,1.8-3.5,2.9-5.2c1.1-1.6,2.4-3.2,3.8-4.6c1.4-1.4,2.9-2.8,4.4-4
		c0.8-0.6,1.6-1.2,2.4-1.8c0.8-0.6,1.7-1.1,2.5-1.6c1.7-1,3.5-2,5.3-2.8c1.8-0.8,3.7-1.6,5.5-2.2c0.5-0.2,0.9-0.3,1.4-0.5l0.7-0.2
		c0.2-0.1,0.5-0.2,0.8-0.2c0.5-0.1,1-0.2,1.6-0.3c0.3,0,0.5,0,0.8-0.1c0.3,0,0.5,0,0.8,0c1,0,2,0,3.1,0.2c1,0.1,2,0.4,3,0.7
		c1,0.4,2,0.9,2.8,1.6c0.8,0.7,1.5,1.6,2,2.6c0.4,1,0.6,2.1,0.7,3.1c0,1.1-0.1,2.1-0.3,3.1c-0.4,2-1.2,3.9-2.2,5.6
		c-1,1.8-2.2,3.4-3.6,4.8c-0.7,0.7-1.5,1.4-2.2,2c-0.8,0.6-1.6,1.2-2.4,1.8c-3.3,2.2-6.9,3.9-10.8,4.9l-0.1,0l-0.1-0.1
		c-1.8-1.4-3.6-2.7-5.4-4.1c-0.2-0.2-0.4-0.4-0.7-0.5l-0.1-0.1c0,0,0.1,0.1,0.2,0.1c0.1,0,0.2,0,0.2-0.1c0.1-0.1,0.1-0.1,0.1-0.2
		c0,0,0-0.1-0.1-0.2c0,0,0,0-0.1-0.1l0,0l0,0l0.1,0.1l0.2,0.1c0.5,0.3,0.9,0.6,1.4,1c0.9,0.6,1.8,1.3,2.7,2c1.8,1.4,3.6,2.7,5.3,4.2
		c0.9,0.7,1.7,1.5,2.5,2.3c0.8,0.8,1.6,1.6,2.3,2.5l-0.7-0.3c1-0.2,2.1-0.4,3.1-0.5c1-0.1,2.1-0.2,3.2-0.2c0.5,0,1.1,0,1.6,0.1
		c0.3,0,0.6,0.1,0.9,0.2c0.3,0.1,0.6,0.2,1,0.4c0.2,0.1,0.4,0.3,0.5,0.5c0.2,0.2,0.3,0.5,0.3,0.8c0,0.3,0,0.5-0.1,0.7
		c-0.1,0.2-0.1,0.4-0.2,0.5c-0.3,0.6-0.7,1-1.1,1.4l-0.4-1.5c0.4,0.1,0.7,0.1,1.1,0.2c0.3,0.1,0.7,0.2,1,0.3c0.7,0.2,1.4,0.4,2,0.7
		c1.3,0.5,2.6,1.2,3.8,2.1c0.6,0.5,1.1,1,1.6,1.7c0.4,0.7,0.8,1.5,0.8,2.4c0.1,0.9-0.1,1.7-0.4,2.4c-0.3,0.7-0.7,1.4-1.1,2l0.1-0.9
		c0,0.1,0,0.1,0.1,0.2l0,0.2c0,0.1,0,0.2,0.1,0.3c0,0.2,0.1,0.4,0.1,0.6c0,0.4,0,0.9,0,1.3c-0.1,0.9-0.3,1.7-0.7,2.5
		c-0.4,0.8-1,1.5-1.7,2c-0.7,0.5-1.4,0.9-2.2,1.2l0.6-0.8c0,0.1,0,0.2-0.1,0.2c0,0.1,0,0.1-0.1,0.2c0,0.1-0.1,0.2-0.1,0.4
		c-0.1,0.2-0.2,0.5-0.3,0.7c-0.2,0.4-0.5,0.9-0.8,1.3c-0.6,0.8-1.5,1.4-2.4,1.8c-0.5,0.2-1,0.3-1.5,0.4c-0.5,0.1-1,0.1-1.5,0.1
		c-1,0-1.9-0.1-2.8-0.4l-0.1,0l-0.1,0c-0.2-0.1-0.4-0.2-0.5-0.3c-0.2-0.1-0.3-0.2-0.5-0.3c-0.3-0.2-0.7-0.4-1-0.6
		c-0.6-0.4-1.3-0.8-1.9-1.2c-1.2-0.9-2.4-1.8-3.4-2.9c-0.5-0.5-1-1.1-1.5-1.7c-0.2-0.3-0.5-0.6-0.7-0.9c-0.2-0.3-0.4-0.6-0.6-1
		c-0.8-1.3-1.4-2.7-1.8-4.2l0.6,0.6c-1.4-0.5-2.7-1-4-1.5c-1.3-0.6-2.6-1.2-3.9-1.8c-2.5-1.3-5-2.7-7.3-4.4
		c-2.3-1.7-4.5-3.5-6.3-5.7C25.6,169.5,24.1,167,23.5,164.1z M23.7,164.1c0.2,0.6,0.5,1.3,0.8,1.9c0.3,0.6,0.6,1.2,1,1.8
		c0.7,1.2,1.6,2.3,2.5,3.3c1.9,2,4.1,3.8,6.4,5.3c2.3,1.5,4.8,2.8,7.3,4c1.3,0.6,2.5,1.1,3.8,1.6c1.3,0.5,2.6,1,3.9,1.4l0.4,0.1
		l0.1,0.4c0.4,1.3,1,2.6,1.7,3.7c0.2,0.3,0.4,0.6,0.6,0.9c0.2,0.3,0.4,0.6,0.6,0.8c0.4,0.5,0.9,1,1.4,1.5c1,1,2.1,1.9,3.2,2.7
		c0.6,0.4,1.2,0.8,1.8,1.1c0.3,0.2,0.6,0.3,0.9,0.5c0.2,0.1,0.3,0.2,0.5,0.2c0.1,0.1,0.3,0.2,0.4,0.2l-0.2-0.1
		c0.8,0.2,1.6,0.3,2.3,0.3c0.4,0,0.7,0,1.1-0.1c0.4-0.1,0.7-0.2,1-0.3c0.6-0.3,1.2-0.7,1.7-1.2c0.2-0.3,0.4-0.6,0.6-0.9
		c0.1-0.2,0.2-0.3,0.2-0.5c0-0.1,0.1-0.2,0.1-0.2l0-0.1l0-0.1l0.1-0.6l0.5-0.2c0.6-0.2,1.2-0.5,1.7-0.9c0.5-0.4,0.9-0.8,1.2-1.4
		c0.3-0.5,0.5-1.1,0.5-1.7c0-0.3,0-0.6,0-1c0-0.2,0-0.3-0.1-0.5c0-0.1,0-0.2,0-0.2l0-0.1l0-0.1l-0.1-0.5L72,185
		c0.4-0.5,0.7-1,0.9-1.6c0.2-0.5,0.3-1.1,0.3-1.6c0-0.5-0.2-1-0.5-1.5c-0.3-0.5-0.7-0.9-1.2-1.3c-0.9-0.8-2.1-1.4-3.3-1.9
		c-0.6-0.2-1.2-0.5-1.9-0.7c-0.3-0.1-0.6-0.2-1-0.3c-0.3-0.1-0.6-0.2-0.9-0.2l-1.7-0.3l1.2-1.2c0.3-0.3,0.7-0.7,0.8-1
		c0.1-0.1,0.1-0.3,0.1-0.2c0,0,0,0,0,0c0,0,0,0,0,0c-0.1-0.1-0.3-0.1-0.4-0.2c-0.2-0.1-0.4-0.1-0.6-0.1c-0.5-0.1-0.9-0.1-1.4-0.1
		c-1,0-2,0.1-3,0.2c-1,0.1-2,0.2-3,0.4l-0.5,0.1l-0.3-0.3c-1.3-1.7-2.9-3.3-4.5-4.8c-1.6-1.5-3.4-3-5.1-4.4
		c-0.9-0.7-1.8-1.4-2.7-2.1c-0.4-0.3-0.9-0.7-1.4-1l-0.2-0.1l-0.1-0.1l0,0l0,0c0,0-0.1-0.1-0.1-0.1c-0.1-0.1-0.1-0.3-0.1-0.4
		c0-0.1,0.1-0.2,0.2-0.3c0.1-0.1,0.2-0.1,0.3-0.1c0.1,0,0.1,0,0.2,0.1c0,0,0,0,0.1,0l0,0l0.1,0.1c0.2,0.2,0.4,0.4,0.6,0.5
		c0.8,0.7,1.7,1.4,2.6,2.1c0.9,0.7,1.8,1.4,2.6,2.1l-0.3-0.1c1.9-0.5,3.7-1.1,5.5-1.9c0.9-0.4,1.8-0.8,2.6-1.3
		c0.4-0.2,0.8-0.5,1.3-0.7c0.4-0.3,0.8-0.5,1.2-0.8c0.8-0.6,1.6-1.2,2.3-1.8c0.7-0.6,1.5-1.3,2.1-2c1.3-1.4,2.4-3,3.3-4.7
		c0.9-1.7,1.5-3.5,1.8-5.4c0.2-0.9,0.2-1.9,0.2-2.8c-0.1-0.9-0.3-1.8-0.6-2.6c-0.4-0.8-0.9-1.5-1.6-2c-0.7-0.5-1.5-0.9-2.4-1.2
		c-0.9-0.3-1.8-0.5-2.7-0.6c-0.9-0.1-1.9-0.2-2.8-0.2c-0.2,0-0.5,0-0.7,0c-0.2,0-0.5,0-0.7,0.1c-0.4,0-0.9,0.1-1.3,0.2
		c-0.2,0.1-0.4,0.1-0.7,0.2l-0.7,0.2c-0.5,0.1-0.9,0.3-1.4,0.5c-1.8,0.6-3.6,1.3-5.4,2.1c-3.5,1.6-6.9,3.5-10.1,5.8
		c-1.6,1.1-3,2.4-4.4,3.7c-1.4,1.3-2.7,2.8-3.9,4.3c-1.2,1.5-2.2,3.2-3.1,4.9c-0.5,0.9-0.9,1.7-1.2,2.6c-0.2,0.5-0.4,0.9-0.5,1.4
		c-0.1,0.2-0.2,0.5-0.2,0.7l-0.1,0.4l0,0.2L23.7,164.1L23.7,164.1C23.7,164.1,23.7,164.2,23.7,164.1z"/>
</g>
<path class="st12" d="M29.3,163.2c0,0,5.6,13.9,24,15.9c0,0,0.9,6.8,7.6,9.4c0,0-7.9-0.9-9.3-7.2C51.6,181.3,36.5,180.8,29.3,163.2z
	"/>
<path class="st12" d="M44.3,158.5c1.3,0.3,2.9,0.8,4.1,1.7c0.3,0.2,0.8,0.4,1.2,0.3c3.2-0.6,14.9-3.6,15.8-12.4
	c0-0.1-0.1-0.1-0.1-0.1c-1.3,1.2-10.5,9.4-20.9,10.1C44.1,158.2,44.1,158.5,44.3,158.5z"/>
<path class="st6" d="M58.6,195.6l0.5,13.3c0,0,0,1.6,1.3,2l0.2,1.3c0,0-2.2-1.9-2-3.9l-0.9-13.1L58.6,195.6z"/>
<ellipse class="st20" cx="87.1" cy="80.9" rx="2.9" ry="4.1"/>
<ellipse class="st20" cx="122.7" cy="76.5" rx="2.9" ry="4.1"/>
<g>
	<path class="st5" d="M163.8,201.1l-1.1,5.6h-4l5.2-22.4h5.2l5.3,22.4h-4.2l-1.1-5.6H163.8z M168.3,197.6c-0.8-4.3-1.5-7.4-1.9-9.6
		h-0.1c-0.3,2.1-1,5.4-1.8,9.6H168.3z"/>
	<path class="st5" d="M175.8,189.6h4v17.2h-4V189.6z M175.8,183.2h4v3.9h-4V183.2z"/>
	<path class="st5" d="M182.6,195.4c0-2.8,0-4.6,0-5.8h3.8c0,0.3,0.1,1,0.1,2.8c0.6-1.9,2.2-3.1,4.5-3.1v4.4c-2.8-0.1-4.4,0.8-4.4,4
		v9h-4V195.4z"/>
	<path class="st5" d="M211.3,200.2c-0.1,1.1-0.5,6.9-6.8,6.9c-6.4,0-7.1-5.6-7.1-11.6c0-7.3,2.1-11.5,7.4-11.5c6,0,6.4,5.1,6.5,6.9
		h-4c-0.1-0.8-0.1-3.5-2.6-3.5c-2.5,0-3.1,3.1-3.1,8.2c0,4.2,0.4,8.2,3,8.2c2.4,0,2.6-2.7,2.7-3.6H211.3z"/>
	<path class="st5" d="M225.4,198c0,6.2-2.3,9.1-6.5,9.1c-4.2,0-6.4-2.7-6.4-9c0-6.1,2.6-8.8,6.6-8.8
		C223.2,189.3,225.4,192.3,225.4,198z M216.5,198.1c0,3.7,0.6,5.7,2.5,5.7c1.8,0,2.4-2,2.4-5.6c0-3.8-0.6-5.5-2.4-5.5
		C217.2,192.6,216.5,194.4,216.5,198.1z"/>
	<path class="st5" d="M227.5,194.9c0-3.5,0-4.4,0-5.3h3.8c0.1,0.4,0.1,1.1,0.1,1.8c0.5-0.9,1.6-2.1,3.8-2.1c2.8,0,4.4,1.8,4.4,5.2
		v12.2h-4v-11.3c0-1.7-0.3-2.7-1.9-2.7c-1.5,0-2.2,0.8-2.2,3.5v10.6h-4V194.9z"/>
	<path class="st5" d="M254.4,183.2V202c0,2,0,3.8,0,4.8h-3.8c-0.1-0.4-0.1-1.3-0.1-1.8c-0.5,1.2-1.5,2.1-3.8,2.1
		c-3.6,0-5.1-3.3-5.1-9c0-5.3,1.7-8.7,5.7-8.7c1.9,0,2.8,0.7,3.1,1.4v-7.5H254.4z M245.6,198.1c0,4,0.7,5.6,2.4,5.6
		c2.1,0,2.5-1.6,2.5-5.7c0-4-0.3-5.3-2.3-5.3C246.6,192.6,245.6,193.9,245.6,198.1z"/>
	<path class="st5" d="M257.1,189.6h4v17.2h-4V189.6z M257.2,183.2h4v3.9h-4V183.2z"/>
	<path class="st5" d="M262.5,189.6h2.2v-4.3h4v4.3h2.7v3.2h-2.7v9.4c0,1,0.2,1.6,1.4,1.6c0.4,0,0.6,0,1-0.1v2.9
		c-0.7,0.3-1.8,0.3-2.4,0.3c-2.7,0-3.9-1-3.9-4.1v-10.1h-2.2V189.6z"/>
	<path class="st5" d="M272.8,189.6h4v17.2h-4V189.6z M272.8,183.2h4v3.9h-4V183.2z"/>
	<path class="st5" d="M291.8,198c0,6.2-2.3,9.1-6.5,9.1c-4.2,0-6.4-2.7-6.4-9c0-6.1,2.6-8.8,6.6-8.8
		C289.6,189.3,291.8,192.3,291.8,198z M282.9,198.1c0,3.7,0.6,5.7,2.5,5.7c1.8,0,2.4-2,2.4-5.6c0-3.8-0.6-5.5-2.4-5.5
		C283.6,192.6,282.9,194.4,282.9,198.1z"/>
	<path class="st5" d="M293.8,194.9c0-3.5,0-4.4,0-5.3h3.8c0.1,0.4,0.1,1.1,0.1,1.8c0.5-0.9,1.6-2.1,3.8-2.1c2.8,0,4.4,1.8,4.4,5.2
		v12.2h-4v-11.3c0-1.7-0.3-2.7-1.9-2.7c-1.5,0-2.2,0.8-2.2,3.5v10.6h-4V194.9z"/>
	<path class="st5" d="M308.7,189.6h4v17.2h-4V189.6z M308.8,183.2h4v3.9h-4V183.2z"/>
	<path class="st5" d="M315.6,194.9c0-3.5,0-4.4,0-5.3h3.8c0.1,0.4,0.1,1.1,0.1,1.8c0.5-0.9,1.6-2.1,3.8-2.1c2.8,0,4.4,1.8,4.4,5.2
		v12.2h-4v-11.3c0-1.7-0.3-2.7-1.9-2.7c-1.5,0-2.2,0.8-2.2,3.5v10.6h-4V194.9z"/>
	<path class="st5" d="M342.5,205.3c0,4.9-1.4,7.9-6.6,7.9c-4.9,0-5.9-2.9-6-5h3.9c0.1,0.5,0.2,1.7,2.2,1.7c2.1,0,2.5-1.6,2.5-4.6
		v-0.8c-0.7,1.4-2,2-3.7,2c-3.7,0-5.2-3.2-5.2-8.3c0-5.9,2.1-9.1,5.6-9.1c2.3,0,3,1.1,3.3,1.8c0-0.5,0.1-1.1,0.2-1.5h3.8
		c0,1.1-0.1,2.8-0.1,5.2V205.3z M333.8,198.2c0,3.5,0.9,5,2.5,5c2,0,2.4-1.9,2.4-5.6c0-3.1-0.2-5.1-2.3-5.1
		C334.7,192.6,333.8,194.4,333.8,198.2z"/>
	<path class="st5" d="M378.9,184.3h4v8.9h5.4v-8.9h4v22.4h-4v-10.1h-5.4v10.1h-4V184.3z"/>
	<path class="st5" d="M398.5,199.2c0,2.2,0.3,4.6,2.5,4.6c2,0,2.2-1.7,2.3-2.3h3.8c-0.1,0.5-0.4,5.5-6.1,5.5c-5.6,0-6.3-4.7-6.3-9
		c0-5.4,2.1-8.8,6.4-8.8c5,0,6.2,3.7,6.2,8.2c0,0.6,0,1.4-0.1,1.7H398.5z M403.3,196.3c0-1.7-0.2-3.8-2.3-3.8
		c-2.3,0-2.4,2.6-2.4,3.8H403.3z"/>
	<path class="st5" d="M420.5,203c0,0.8,0.1,3,0.1,3.7H417c-0.1-0.3-0.2-1.1-0.2-1.6c-0.7,1.1-1.8,1.9-3.9,1.9
		c-3.3,0-4.6-2.6-4.6-5.1c0-3.5,2.4-5.6,6.8-5.6c0.6,0,1,0,1.4,0v-1.9c0-1-0.1-2.2-1.8-2.2c-1.6,0-1.8,1.1-1.9,2.2H409
		c0.1-2.5,1.3-5.2,5.8-5.2c3.7,0,5.6,1.7,5.6,4.9V203z M416.7,199.2c-0.4-0.1-0.8-0.1-1.3-0.1c-2.3,0-3.1,1-3.1,2.5
		c0,1,0.5,2.2,2,2.2c2,0,2.4-1.5,2.4-4.1V199.2z"/>
	<path class="st5" d="M421.5,189.6h2.3v-4.3h4v4.3h2.7v3.2h-2.7v9.4c0,1,0.2,1.6,1.4,1.6c0.4,0,0.6,0,1-0.1v2.9
		c-0.7,0.3-1.8,0.3-2.4,0.3c-2.7,0-3.9-1-3.9-4.1v-10.1h-2.3V189.6z"/>
	<path class="st5" d="M431.8,189.6h4v17.2h-4V189.6z M431.8,183.2h4v3.9h-4V183.2z"/>
	<path class="st5" d="M438.6,194.9c0-3.5,0-4.4,0-5.3h3.8c0.1,0.4,0.1,1.1,0.1,1.8c0.5-0.9,1.6-2.1,3.8-2.1c2.8,0,4.4,1.8,4.4,5.2
		v12.2h-4v-11.3c0-1.7-0.3-2.7-1.9-2.7c-1.5,0-2.2,0.8-2.2,3.5v10.6h-4V194.9z"/>
	<path class="st5" d="M465.6,205.3c0,4.9-1.4,7.9-6.6,7.9c-4.9,0-5.9-2.9-6-5h3.9c0.1,0.5,0.2,1.7,2.2,1.7c2.1,0,2.5-1.6,2.5-4.6
		v-0.8c-0.7,1.4-2,2-3.7,2c-3.7,0-5.2-3.2-5.2-8.3c0-5.9,2.1-9.1,5.6-9.1c2.3,0,3,1.1,3.3,1.8c0-0.5,0.1-1.1,0.2-1.5h3.8
		c0,1.1-0.1,2.8-0.1,5.2V205.3z M456.8,198.2c0,3.5,0.9,5,2.5,5c2,0,2.4-1.9,2.4-5.6c0-3.1-0.2-5.1-2.3-5.1
		C457.8,192.6,456.8,194.4,456.8,198.2z"/>
</g>
<g>
	<path class="st3" d="M373.7,193.3l-6.7,10.1c-3.5,5.3-5.3,7.2-9.8,7.2c-4.7,0-7.7-3.2-7.7-7.5c0-3.5,2.1-6,7.1-8.7
		c4.3-2.3,5.6-3.8,5.6-6.1c0-1.7-1-3.6-3.5-3.6c-2.2,0-3.5,1.6-3.5,3.7c0,1.9,0.9,3.2,3.1,5.3l16.8,16.4h-4.6l-15-14.8
		c-2.2-2.3-3.5-4.2-3.5-6.8c0-3.3,2.3-6.4,6.7-6.4c4.1,0,6.4,2.8,6.4,6.1c0,3.6-2.2,5.4-6.6,7.9c-4.3,2.4-5.6,4.1-5.6,6.7
		c0,2.6,1.8,4.6,4.6,4.6c3.3,0,4.7-1.9,7.1-5.7l5.5-8.6H373.7z"/>
</g>
</svg>
