<svg id="Layer_8" data-name="Layer 8" xmlns="http://www.w3.org/2000/svg" viewBox="0 0 500 500"><defs><style>.cls-1{fill:#153e69;fill-rule:evenodd;}</style></defs><polygon class="cls-1" points="59.83 295.71 54.89 295.71 54.89 302.3 51.52 302.3 51.52 295.71 46.65 295.71 46.65 312.69 51.52 312.69 51.52 305.67 54.89 305.67 54.89 312.69 59.83 312.69 59.83 295.71 59.83 295.71"/><polygon class="cls-1" points="68.5 312.69 68.5 295.71 63.48 295.71 63.48 312.69 68.5 312.69 68.5 312.69"/><path class="cls-1" d="M85.62,303.59H79.39V307H81v2.29a3.19,3.19,0,0,1-1.79.43c-1.51,0-2.3-1.5-2.3-5.52s1.08-5.44,2.22-5.44c.79,0,1.15.64,1.51,2.94l4.87-.36c-.79-3.66-3-5.88-6.38-5.88-4.94,0-7.23,3-7.23,8.53s1.57,9,7.23,9a8.1,8.1,0,0,0,6.45-2.87v-6.52Z"/><polygon class="cls-1" points="101.96 295.71 97.01 295.71 97.01 302.3 93.64 302.3 93.64 295.71 88.7 295.71 88.7 312.69 93.64 312.69 93.64 305.67 97.01 305.67 97.01 312.69 101.96 312.69 101.96 295.71 101.96 295.71"/><path class="cls-1" d="M118.65,312.69V307.1h1.29c3.94,0,6.52-1.79,6.52-5.8,0-3.51-2-5.59-6.67-5.59h-6v17Zm0-9v-4.65h1.14c.94,0,1.65.43,1.65,2.22s-.57,2.43-1.72,2.43Z"/><polygon class="cls-1" points="134.19 302.37 134.19 299.08 139.42 299.08 139.42 295.71 129.25 295.71 129.25 312.69 139.5 312.69 139.5 309.39 134.19 309.39 134.19 305.67 137.99 305.67 137.99 302.37 134.19 302.37 134.19 302.37"/><path class="cls-1" d="M152.11,305.88c1.57-.5,3.08-1.79,3.08-4.65,0-4.66-3.94-5.52-6.95-5.52H142.5v17h4.88v-6H148l2.58,6h5.59l-4-6.81Zm-4.73-2.43v-4.37h1c1.22,0,1.79.79,1.79,2.22s-.57,2.15-1.72,2.15Z"/><polygon class="cls-1" points="163.35 312.69 163.35 305.88 167.01 305.88 167.01 302.52 163.35 302.52 163.35 299.08 168.37 299.08 168.37 295.71 158.41 295.71 158.41 312.69 163.35 312.69 163.35 312.69"/><path class="cls-1" d="M171,304.16c0,5.95,2.5,8.82,7.16,8.82s7.16-2.87,7.16-8.82-2.5-8.74-7.16-8.74-7.16,2.87-7.16,8.74Zm7.16-5.44c1.22,0,2.15,1.15,2.15,5.52,0,4.22-.93,5.44-2.15,5.44s-2.15-1.22-2.15-5.44c0-4.37,1-5.52,2.15-5.52Z"/><path class="cls-1" d="M197.81,305.88c1.58-.5,3.08-1.79,3.08-4.65,0-4.66-3.87-5.52-6.95-5.52h-5.73v17h4.95v-6h.57l2.51,6h5.66l-4.09-6.81Zm-4.73-2.43v-4.37h1c1.29,0,1.79.79,1.79,2.22s-.58,2.15-1.72,2.15Z"/><path class="cls-1" d="M213,306.89c-.29-2.94-.72-5.52-1.79-11.18H204v17h4.3c0-6.16-.07-10.32-.14-12.82h.14c.36,2.5,1.22,6.66,2.44,12.82h4.65c1.29-6.3,2-10.32,2.44-12.82h.07c0,2.5-.07,6.59-.07,12.82h4.3v-17h-7.24a98.36,98.36,0,0,0-1.79,11.18Z"/><path class="cls-1" d="M233.13,309l.5,3.73h5l-3.8-17h-6.66l-3.8,17h5l.5-3.73Zm-.5-3.29h-2.22l.5-3.58c.14-1,.36-2,.5-3.51h.22c.14,1.43.36,2.5.5,3.51l.5,3.58Z"/><path class="cls-1" d="M250.61,306.31c-.43-1.72-1.43-5.3-3.22-10.6h-6.31v17h4.37c0-5.3-.14-8.88-.21-10.6h.14a108.34,108.34,0,0,0,3.15,10.6h6.31v-17h-4.37c0,5.3.14,8.88.28,10.6Z"/><path class="cls-1" d="M264.87,306.1c-.07,2.58-.29,3.51-1.08,3.51s-1.14-1.29-1.14-5.37.43-5.45,1.22-5.45c.64,0,.86.86,1,3.37l4.58-.07c-.14-5.45-3.08-6.67-5.58-6.67a5.62,5.62,0,0,0-4.3,1.65c-1.36,1.43-1.94,3.8-1.94,6.88,0,3.94.79,6.16,2,7.52a5.81,5.81,0,0,0,4.23,1.51c2.43,0,5.51-1.36,5.73-6.81l-4.73-.07Z"/><polygon class="cls-1" points="277.26 302.37 277.26 299.08 282.49 299.08 282.49 295.71 272.32 295.71 272.32 312.69 282.64 312.69 282.64 309.39 277.26 309.39 277.26 305.67 281.06 305.67 281.06 302.37 277.26 302.37 277.26 302.37"/><polygon class="cls-1" points="307.42 295.71 302.48 295.71 302.48 302.3 299.11 302.3 299.11 295.71 294.17 295.71 294.17 312.69 299.11 312.69 299.11 305.67 302.48 305.67 302.48 312.69 307.42 312.69 307.42 295.71 307.42 295.71"/><path class="cls-1" d="M318.53,309l.5,3.73h5l-3.79-17h-6.67l-3.79,17h5l.5-3.73Zm-.43-3.29h-2.29l.5-3.58c.14-1,.36-2,.5-3.51H317c.15,1.43.36,2.5.5,3.51l.58,3.58Z"/><path class="cls-1" d="M336.51,300.22c-.07-2.79-1.58-4.8-5.09-4.8a5.51,5.51,0,0,0-3.86,1.22,3.91,3.91,0,0,0-1.44,3.23,6,6,0,0,0,1,3.36,12.68,12.68,0,0,0,2.3,2.44,8.89,8.89,0,0,1,1.65,1.43,2.31,2.31,0,0,1,.64,1.58,1.73,1.73,0,0,1-.14.64.59.59,0,0,1-.5.29c-.51,0-.65-.57-.72-1.72h-4.66c.07,3,1.65,5.09,5.59,5.09a5.57,5.57,0,0,0,4.16-1.51,5.21,5.21,0,0,0,1.29-3.51,5.88,5.88,0,0,0-1.29-3.51,16.76,16.76,0,0,0-2-1.93c-.64-.51-.93-.72-1.58-1.29a2.25,2.25,0,0,1-.86-1.72c0-.15,0-.43.15-.5a.38.38,0,0,1,.36-.22c.43,0,.57.5.57,1.43Z"/><path class="cls-1" d="M355.71,309l.57,3.73h5l-3.8-17h-6.73l-3.73,17h5l.5-3.73Zm-.43-3.29H353l.57-3.58c.14-1,.29-2,.5-3.51h.22a30.07,30.07,0,0,0,.5,3.51l.5,3.58Z"/><path class="cls-1" d="M381.86,306.31c-.36-1.72-1.43-5.3-3.22-10.6h-6.31v17h4.37c0-5.3-.14-8.88-.21-10.6h.14a108.34,108.34,0,0,0,3.15,10.6h6.31v-17h-4.37c0,5.3.14,8.88.28,10.6Z"/><path class="cls-1" d="M397.26,309l.5,3.73h5l-3.8-17h-6.66l-3.8,17h5L394,309Zm-.5-3.29h-2.22l.5-3.58c.14-1,.36-2,.5-3.51h.22c.14,1.43.36,2.5.5,3.51l.5,3.58Z"/><path class="cls-1" d="M414.1,306.89c-.29-2.94-.72-5.52-1.79-11.18h-7.24v17h4.3c0-6.16,0-10.32-.07-12.82h.07c.43,2.5,1.22,6.66,2.44,12.82h4.72c1.29-6.3,2-10.32,2.37-12.82H419c-.07,2.5-.14,6.59-.14,12.82h4.3v-17H416a102.65,102.65,0,0,0-1.86,11.18Z"/><polygon class="cls-1" points="431.36 302.37 431.36 299.08 436.59 299.08 436.59 295.71 426.42 295.71 426.42 312.69 436.67 312.69 436.67 309.39 431.36 309.39 431.36 305.67 435.16 305.67 435.16 302.37 431.36 302.37 431.36 302.37"/><path class="cls-1" d="M442.25,295.78h-3.79V297h1v3.73h1.79V297h1v-1.22Zm3.73,2.94c-.15-.65-.22-1.15-.36-1.58l-.29-1.36h-2.79v5h1.65v-3.44h0c.14.71.28,1.29.43,1.86l.36,1.58h1.93l.36-1.58a14,14,0,0,0,.36-1.86h.07v3.44h1.65v-5h-2.73l-.28,1.36a14.8,14.8,0,0,0-.36,1.58Z"/><path class="cls-1" d="M97.59,242.34l15.47-23.21-4.16,23.21Zm-20.21,0H54.89L60,260.53h5.09L46.15,287.47H68.28l17.77-26.94h20.56l-4.15,27h32L149.24,185h-32.1L77.38,242.34Z"/><path class="cls-1" d="M269.17,266.91c0-1.65,1.57-6.16,4.15-9a7,7,0,0,1,5.88-2.79c3,0,4.73,1,7.52,4.23-3.44,5.37-9.24,10.81-14.33,10.81a3.07,3.07,0,0,1-3.22-3.22ZM153.9,260.53c2.36,0,3.58.43,3.58,2.44a7.59,7.59,0,0,1-.29,1.86l-5.8,16.62c-1.15,3.44-1.65,3.59-1.65,4.45,0,1.5,1.22,1.64,3.51,1.64H168.8c3.51,0,3.51-.14,5.44-4.94l5.09-15c1.5-4.59,3-5.73,5.8-5.73,1.72,0,3,.78,3,2.29l-5.09,17.26c-1.14,3.66-1.43,3.66-1.43,4.45,0,1.5,1.15,1.64,3.51,1.64h15.48c3.94,0,4-.57,5.44-4.94l5.16-15c1.5-4.59,3-5.73,5.8-5.73,1.72,0,2.87.78,2.87,2.29l-5.09,17.26c-1.14,3.66-1.36,3.66-1.36,4.45,0,1.5,1.15,1.64,3.44,1.64h15.9c3.23,0,4.52,0,4.52-3.22a6,6,0,0,0-.93-3l5.15-16.84c2.08-6.3,2.8-8.59,2.8-11.46,0-7.38-5.88-12.25-14.62-12.25-5.23,0-9.1,1.79-14,5.23-4.73-3.94-9.1-5.8-15.33-5.8a23,23,0,0,0-15.19,5.23c-.93-2.29-1.57-3.15-3.58-3.15H137.49v1.64l1.65.65-.72,13.61h-1.5l-.43,2.36ZM279.48,284c-.71,1.51-.71,1.86-.71,2.08,0,1.29,1,1.5,3,1.5H299c2.22,0,3-.78,3-1.93,0-.72-.36-1.51-.5-3.15l11-33.82c1-3.15,1.22-4.08,1.22-4.65,0-1.58-1.15-1.72-3.44-1.72H296.25c-3.23,0-3.87.35-4.95,3.36A22.82,22.82,0,0,0,275.4,239c-13.54,0-28.73,14.76-28.73,35.61,0,9.24,5,14.25,14.83,14.25,7.74,0,13.83-3.08,19.56-8.59L279.48,284Z"/><path class="cls-1" d="M398.12,266.91c0-1.65,1.65-6.16,4.16-9a7.38,7.38,0,0,1,6.09-2.79c3,0,4.73,1,7.52,4.3-3.51,5.3-9.39,10.74-14.54,10.74a3.08,3.08,0,0,1-3.23-3.22Zm10.46,17a9.06,9.06,0,0,0-.79,2.08c0,1.29,1.15,1.5,3.08,1.5h17.34c2.22,0,3-.78,3-1.93,0-.72-.36-1.51-.5-3.15l10.89-33.82c1.07-3.15,1.36-4.08,1.36-4.65,0-1.58-1.15-1.72-3.44-1.72H425.42c-3.23,0-4,.35-5,3.36-4.51-4.15-9.74-6.59-15.9-6.59-13.54,0-28.8,14.76-28.8,35.61,0,9.24,5,14.25,14.9,14.25,7.74,0,13.68-3.08,19.49-8.59L408.58,284ZM344.39,244.7c0-1.93-.57-2.43-2.79-2.43H329.35c-4.3,0-4.3,0-6.67,6.95l-11.24,32.23c-.08.36-1.37,4.23-1.37,4.45,0,1.5,1.15,1.64,3.44,1.64H329c3.94,0,4.08-.57,5.44-4.94l5.23-15c1.51-4.59,3-5.73,5.73-5.73,1.72,0,3,.86,3,2.36l-5.08,17.19c-1.15,3.66-1.51,3.66-1.51,4.45,0,1.5,1.15,1.64,3.51,1.64h15.91c3.22,0,4.44,0,4.44-3.22a5.5,5.5,0,0,0-.79-3L370,264.47c2.07-6.3,2.72-8.59,2.72-11.46,0-7.38-5.73-12.25-14.47-12.25-5.23,0-9.24,1.79-14,5.23l.21-1.29Z"/><path class="cls-1" d="M448,249.43a3.41,3.41,0,1,1,3.44-3.44,3.43,3.43,0,0,1-3.44,3.44Zm0,.5a3.91,3.91,0,0,0,3.87-3.94,3.85,3.85,0,0,0-3.87-3.87A3.91,3.91,0,0,0,444,246a4,4,0,0,0,3.94,3.94Zm.65-3.65c.72-.07,1.29-.36,1.29-1.22,0-.64-.36-1.07-1.51-1.07h-1.86v4.22h.5v-1.93h1l1.21,1.93h.65l-1.29-1.93Zm-1.58-.5v-1.36h1.22c.57,0,1.22.14,1.22.64,0,.79-1,.72-1.65.72Z"/></svg>