<svg id="Layer_4" data-name="Layer 4" xmlns="http://www.w3.org/2000/svg" viewBox="0 0 500 500"><defs><style>.cls-1{fill:#153e69;fill-rule:evenodd;}</style></defs><path class="cls-1" d="M317,254.88c-5.64,2.61-8.68,13.89-12.15,19.09-2.6,3.91-5.64,8.25-8.24,12.15-.87,1.74-1.74,5.64-3.47,6.51-1.3.43-5.64-4.34-10.85-2.61-13,3.48-36,28.2-34.7,45.56.43,6.07,1.3,10.84,7.37,11.28,8.68.87,14.75-4.34,18.22-8.68.87-.87,2.17-3.47,3.47-3.9,1.31,0,1.31,2.6,1.74,3.47.87,6.51,6.07,11.28,13.45,9.11,2.6-.87,4.77-3.47,6.94-3.47,2.6-.87,3.9,2.6,5.64,3,4.34,1.31,9.54-.86,12.58-2.16,4.77-1.74,8.24-5.65,11.28-9.12,1.74-1.73,2.17-4.33,5.21-4.77.86,1.74,0,5.64,0,7.81-.44,4.77,1.73,10,6.94,7.81,9.54-4.34,16.05-13.45,23-20.39,2.17-2.17,3-5.21,6.08-6.07.86,2.17-2.17,10.41-3.47,12.14-.87,1.31-3.48,11.72-2.61,13.45.87.87,2.17.44,3.47.44s3,.86,4.78.43c3-1.3,8.67-18.65,10.84-22.56a42.57,42.57,0,0,1,9.11-12.15c3.47-3,7.81-6.94,12.58-7.81,2.17-.43,6.95.44,8.68-.43,5.21-3-1.3-10-6.07-8.68-1.31,0-4.34,0-6.08.87-3.47.87-6.51,4.77-9.54,4.77-1.3-1.73,2.17-14.31-7.38-10.41-3,1.3-4.77,5.64-6.94,7.81-6.94,8.68-15.62,16.05-23,24.3-2.61,3-5.21,8.24-9.11,9.54-2.17-9.11,9.54-20.82,10.41-29.07.87-6.94-7.38-1.3-6.94-4.34,0-1.73,1.3-3,.87-4.77-.87-4.77-11.28-2.17-15.62-1.3-8.25,1.74-25.6,21.69-29.5,29.07-3,5.2-3.47,12.58-8.68,15.62-3,1.73-4.34-.87-4.77-3.91-.44-9.11,3.9-15.62,6.5-21.69,6.08-15.18,13.89-27.33,21.7-40.78,1.73-2.61,4.33-5.21,5.2-8.68,1.3-3.9-1.73-7.81-5.64-6.94-.43,0-.87.43-1.3.43ZM137.38,146c3,0,5.64,1.74,6.07,4.34.44,3-1.3,6.51-1.73,9.11-2.17,11.28-6.51,21.69-9.11,32.54-2.17,9.11,5.64,4.34,11.71,5.64,3.47.86,2.6,4.77,5.21,5.64,4.34-3.47,11.28-24.3,19.09-22.13,1.73.43,3.47,3,2.6,5.64a18.17,18.17,0,0,1-3.9,6.94c-6.08,7.38-10,16.49-14.76,25.16-2.16,3.91,1.31,1.74,2.61-.43,2.6-3.47,5.64-5.64,7.81-9.54,3.47-4.78,9.11-8.25,12.58-12.58.87-.87,1.73-2.61,3-3.48,7.38-4.77,10.85,2.61,9.55,10.42-.43,1.73-3.9,12.58-.87,10,1.74-1.3,3-3,4.77-4.33,3-3,6.08-7.81,9.55-10,1.73-1.3,5.21-3,7.37-1.74,7.38,5.21-13.88,36-10,39.92,1.73,1.3,6.94-3,7.81-3.91,6.07-4.77,7.37-5.64,10.41-14.32,2.17-6.5,4.34-12.58,7.81-17.78,2.6-4.34,16.48-23.43,23-18.22,4.77,3.47,3,11.28,1.3,16.92C245,214.54,235,220.18,226.75,230.15c-3.47,3.48.87,3.91,3.47,1.74,1.74-1.74,4.34-2.6,6.08-4.34,6.5-6.07,12.58-13,19.09-19.52,3-3,6.5-6.07,8.67-9.11,2.6-3.47,2.6-7.38,6.51-8.68,2.6-1.3,5.21,1.74,5.64,3.91.43,3,3-.87,3.9-1.74.87-1.74,1.74-2.6,3.91-2.17,5.64,2.17,3.9,6.94,6.51,8.68,4.33,2.17,17.78-9.55,19.52-11.72,1.3-1.73,1.73-2.6,3.9-3,3-.44,4.78.43,6.08,1.73,0,.44.43.44.43.87a.43.43,0,0,1,.44.43h0a.43.43,0,0,0,.43.44c.43,2.17-13.45,29.5-15.19,34.71-1.3,4.33-3.9,8.24-5.2,13-.43,2.6,0,6.94-1.3,9.11-.44,1.3-3,2.17-4.34,2.6a3.26,3.26,0,0,1-3.47-.43c-5.21-2.6,1.73-20.82,3.47-24.73.43-1.3,6.07-13.45,4.34-14.75-2.17-.87-6.08.87-8.25,1.3-5.2.87-6.94-4.77-9.11-3.9-5.2,2.17-14.75,27.76-17.35,34.71-1.3,3-1.74,5.63-4.34,6.94-7.37,4.77-7.81-6.08-6.07-10.42.87-3,6.51-13.44,5.64-16.92-3.47.87-4.77,3.91-6.94,5.65-7.38,6.5-15.19,14.31-23.87,19.08-11.71,6.51-12.14-4.33-16-3.47-5.2,1.3-8.24,6.08-14.31,7.38-11.28,2.17-13.89-6.94-10.85-15.62,3-8.24,0-4.77-3.9-2.17h0l-1.74,1.74a5.9,5.9,0,0,0-1.74,1.3c-.43.43-.43.87-.86,1.3-.44,0-.44.43-.87.43l-1.3,1.3a.43.43,0,0,0-.44.44c-1.3,1.73-2.6,4.34-4.33,5.64-3.48,1.73-10-.44-9.55-4.77.87-3.91,4.77-8.25,5.64-13,.43-3,3-4.77,2.6-9.11-4.33.87-20,22.56-24.29,26.9-1.3,1.3-1.3,4.77-3,6.07a9.51,9.51,0,0,1-6.94.44c-8.68-3-.87-20.83,1.3-25.17,1.3-2.17,8.68-16.05,8.24-16.92a19.17,19.17,0,0,1-9.11,1.3c-4.33-.43-9.11-2.16-10.84,2.17-.87,2.17-.44,4.78-1.3,6.51a139,139,0,0,0-7.38,23.86c-.87,4.34.44,10.42-1.73,13.89-1.31,1.73-5.21,2.6-7.81,1.3-1.74-.44-3-2.61-3.47-4.34-1.31-3.91-1.31-7.81-2.17-11.28-.87-2.6-2.61-4.77-3.91-7.38-3.9-6.5,9.11.44,10.85-2.6,1.73-2.6,1.3-6.94,2.6-9.54.87-1.74,3.47-8.68,2.17-10.85h0c-.87-.43-22.56,2.17-24.29,3-2.17,1.3-3.91,5.64-6.08,7.81-2.6,2.6-4.34,5.64-6.51,8.67-4.33,4.78-9.11,9.11-13,14.75-1.74,2.17-4.34,8.68-6.51,10.42-2.6,1.73-7.81-.44-8.68-2.17-2.6-4.34,4.34-10,6.08-12.15,2.17-2.6,21.69-23.43,20.82-26-.43-.44-4.77-.87-5.2-1.3-3.47-.87-13.45-2.61-10-7.81,2.6-3.47,7.81-2.17,10.84-.87s12.58.43,14.32-.87c2.6-1.73,7.81-10,10-13,5.64-7.81,12.15-15.19,18.22-22.56,3-3.91,7.81-6.94,10.85-10.85,3-3.47,6.07-9.54,11.71-10.41ZM328.7,176.36c6.95-.87,6.95-12.15-1.3-11.72-7.37.87-7.37,12.59,1.3,11.72Zm-203.47-4.77c-2.6.43-16,19.08-19.52,22.12a28.34,28.34,0,0,1-3.47,3.91c-3,5.2,6.51,2.17,8.68,1.73,2.17,0,5.64.44,7.37-.43,3-1.74,5.21-17.79,6.94-22.56,0-.44,2.17-5.21,0-4.77Zm208.25,27.33a30.71,30.71,0,0,0-6.08,4.34c-2.17,2.6-3.47,5.64-6.07,7.81-4.34,3.47-5.64,8.67-8.68,13.45-2.17,3.47-4.34,10.41-2.6,16,4.34,13,21.69,6.94,29.5,1.73,2.6-1.73,5.64-4.34,8.24-5.64h.44c1.3-.43,3.47,5.64,4.77,6.51,7.37,6.07,15.18-2.17,19.09-5.64,1.3-.87,3.47-1.74,4.34-3,1.3-1.73,1.3-3,3.9-3.9.87,2.17-1.3,6.07-1.3,9.11.43,6.07,3.9,8.24,10,6.07,1.73-.43,3-2.6,3.9-4.34,3-3.47,6.94-6.5,9.55-10,4.34-4.78,7.81-10,12.15-14.32a.93.93,0,0,1,.86-.87c1.74-.87.44,2.6,0,3-1.73,5.64-6.07,22.56,4.78,21.26,3.47-.44,5.2-2.61,6.94-4.78,5.2-7.37,13.88-12.14,19.52-19.52,1.3-1.3,1.74-2.6,3.9-3,.44,1.31-5.2,17.36-6.5,20-1.74,3.47-4.34,15.19-.44,17.79a3.28,3.28,0,0,0,2.17.43,3.42,3.42,0,0,0,3.47-2.17c1.3-3.9,1.74-7.81,3.47-11.71,3-7.38,20-36,14.32-45.12,0-.43,0-.43-.43-.87a5.12,5.12,0,0,0-5.21-1.3c-5.64,2.17-10.41,8.68-14.32,12.58-2.6,3-6.07,5.21-9.11,7.81-2.17,1.74-3.9,4.77-5.64,6.94-.43.87-3.9,4.78-4.77,3-1.3-2.17,2.6-6.94,3-9.11,1.3-4.34,4.77-9.11,5.64-13.45.87-2.6.87-6.51-.87-8.24-.87-.87-2.17-2.61-4.77-2.17-3.91.43-6.94,5.2-9.11,7.81C415.91,202,409,208,403.33,214.54c-2.61,3-4.78,7.37-7.81,9.54-1.31-5.21,20.82-37.74,6.5-36.44-3.9.43-4.33,4.77-7.81,4.77h-.43c-1.73,0-3.47-.87-5.2-.43-8.68.86-13.45,6.94-19.09,10.84-1.31.87-2.61,3-3.47,4.34-2.61,3-6.08,6.07-8.25,9.55-2.17,3-3,6.07-5.2,8.67s-6.08,3.91-9.11,6.08c-2.17,1.3-3.91,3.47-6.95,4.33-3.47.87-6.07,3.48-9.54,3.91-13.45,1.73,1.73-21.26,2.6-22.56.44-.43.87-.87.87-1.3a1.59,1.59,0,0,1,.43-1.3,60.92,60.92,0,0,1,5.21-5.64,15,15,0,0,1,4.77-4.34c1.3-1.3,1.74,0,.87,1.3a8.8,8.8,0,0,0-2.6,3.9c-.44,3.47,3.47,6.08,6.5,4.78,2.61-1.31,14.32-16.49,15.19-19.53a7.84,7.84,0,0,0-1.74-6.5c-1.3-1.74-3.47-3.91-6.5-3.47-9.11,1.3-13.45,9.11-19.09,13.88Zm-95-.44c-2.17.44-12.59,15.19-6.51,13.89,2.17-.44,12.15-15.19,6.51-13.89Zm146.2,8.25c-2.17,4.34-16.92,25.59-21.26,26.46-2.6-7.37,16.49-29.93,21.69-29.93,1.74,0,0,2.6-.43,3.47Zm84.17,48.15c-1.74.87-2.61,3.47-3.91,5.21-2.6,4.34-6.51,9.54-8.68,13.88a72.6,72.6,0,0,1-6.94,13c-.86,1.3-.86,3.47-1.73,4.34-1.3,1.3-3-.87-3-1.31C432,275.71,389,326,404.63,344.69a8.32,8.32,0,0,0,7.81,3c3.47-.87,6.5-1.31,9.11-3,1.3-1.3,4.34-5.21,6.07-5.64,2.6-.44,0,12.58,6.51,11.71a1.36,1.36,0,0,0,.87-.43h.86c.87-.43,2.17-1.3,3-1.74,3.91-3.47,8.24-6.07,12.15-10,1.3-.86,10.84-6.5,5.64-7.37-5.64-.87-14.75,5.21-16.05,4.34-.87-.44,0-3,0-3.91,6.5-23.42,18.65-42.95,29.5-62.47,1.3-1.3,8.67-10.41,8.67-10.85.44-2.6-5.2-4.77-8.24-4.33a3.29,3.29,0,0,0-1.73.86ZM63.63,273.11c-2.17,2.6-5.21,5.2-6.51,8.67-5.64,13,8.24,26,14.32,32.54,3.47,4.34,9.11,9.54,5.64,17.79-1.74,4.77-9.11,8.67-14.32,10.41-12.58,3.9-40.78-1.3-18.66-11.28.44-.43,7.81-1.3,3.91-3-6.94-3-21.69,4.34-24.3,6.94-3.47,3.91-3.47,9.12.44,12.15,6.5,5.64,20,7.38,32.54,6.51a53.24,53.24,0,0,0,30.36-13.45c18.23-18.22-.86-32.1-11.71-43.82-2.17-2.6-5.21-4.77-4.77-10.84,1.3-8.68,16.92-17.79,28.2-15.19,3.47.87,1.73,2.61,3,5.21,2.17,3.9,9.12,3,12.15.87,2.17-1.31,4.78-3.91,5.21-7.38a6,6,0,0,0-2.17-4.34c-3.47-3-12.15-4.77-18.22-4.34-14.75,1.3-28.2,4.34-35.14,12.59ZM136.51,264c-1.3,2.17-1.73,5.64-3,7.81A69.85,69.85,0,0,0,126.1,284c-2.17,3.47-2.6,9.11-6.07,10.85-6.94,4.77-34.71-3.91-24.73,13.45a11.7,11.7,0,0,0,3.47,4.33c.87.44,1.73,0,2.6,0,.43-.43.87-.43,1.3-.86s.87-.44,1.3-.87a11.8,11.8,0,0,1,3-3.47c2.17-1.3,9.55-2.17,8.24,1.73-.86,2.61-2.6,4.78-3.47,7.38-2.6,4.77-3,11.71-6.07,16.05-3,3.91-4.34-9.54-7.38,5.64-.86,4.34-2.6,13,2.61,13.88,9.54,1.74,15.62-18.22,18.65-25.16,2.61-5.2,5.64-11.71,8.25-16.92a13.59,13.59,0,0,1,1.3-2.6c.86-1.3,25.59-8.68,13,1.73-5.64,4.78-12.15,11.72-14.75,19.53-1.73,5.64-2.6,12.14,1.74,16.05,7.81,6.07,20.39-.87,25.16-5.21,1.3-.87,3.47-4.34,4.77-4.34h.44c.86,3.91-1.74,9.55,1.73,11.72,11.28,7.81,30.37-19.52,34.71-25.6,1.3-2.17,2.6-4.34,5.64-5.2.43,6.94-4.34,12.58-3,20.82a5,5,0,0,0,1.3,3.47c5.64,8.24,16.49-7.37,20.39-10.85,4.34-3.47,7.38-8.67,11.72-12.58,1.3-1.3,2.6-3.9,4.77-3.9.87,7.81-5.64,13.45-6.94,20.82-.87,5.64-3.91,12.15-.44,16.49,6.08,7.81,7-4.34,8.25-8.24.87-3.48,3-6.95,3.9-10a3.25,3.25,0,0,0,.44-1.74c.43-.87.43-1.3.86-1.73,2.61-5.64,14.75-29.5,7.81-35.14a4.64,4.64,0,0,0-4.77-.44c-5.21,1.74-16.49,13-20,16.92A127.57,127.57,0,0,1,215,320.83c-7.81,7.37,3-13.89,3-14.32.87-3,3-5.64,3-9.11.44-3-.87-4.77-2.6-5.64-6.08-3-10.85,2.6-14.32,6.07-6.07,5.64-12.15,11.72-16.48,18.23-4.34,5.64-7.38,10.84-12.15,15.61-2.6,2.17-3.47,2.17-2.17-2.17,2.6-6.07,6.07-10.41,8.68-16.05a34.29,34.29,0,0,1,4.33-6.51,17.32,17.32,0,0,0,2.17-3.9c1.31-2.17.87-4.77-2.6-3.9-.43,0-1.73.86-2.6.43-1.3-.43-.87-3.47-1.3-4.34-1.31-1.73-6.08-3.9-8.68-3.47h-.87c-2.6.87-33.84,5.21-36.44,3l-.43-.44c-.44-1.73,10.84-20.39,12.58-22.12,1.3-1.74,3.9-6.08,1.3-7.81-.87-.87-3-.87-4.34-.87a22.17,22.17,0,0,0-5.64-.87,4,4,0,0,0-3,1.3ZM435.43,303c.87,9.54-13,30.37-19.52,32.54-2.61.43-2.61-2.6-2.61-5.21.87-7.37,13.89-29.07,19.53-29.93,2.17,0,2.17,1.3,2.6,2.6Zm-151.84,2.6c-1.74,6.94-13.45,27.77-19.09,29.5a3.28,3.28,0,0,1-3-.43c-6.07-6.51,15.18-31.24,20.39-32.1,2.17,0,2.17,1.3,1.74,3Zm47.28,4.78c-.86.86-7.81,8.67-4.77,9.54,1.3.87,2.6-.87,3.91-.43-3,5.64-9.55,12.58-15.19,15.61-1.73.87-3.47.87-4.34-.86-1.3-3.47,1.3-7.38,2.61-9.11C316.56,320,327,304.34,333,303c5.21-.87-1.73,6.94-2.17,7.38Zm-167,5.2c-2.6,5.21-10,12.58-14.75,16.05-3,2.61-13.88,8.25-9.11-2.6,2.61-6.51,17.36-23,24.73-23.86,4.34-.87,0,9.11-.87,10.41Z"/></svg>