<svg id="Layer_17" data-name="Layer 17" xmlns="http://www.w3.org/2000/svg" viewBox="0 0 500 500"><defs><style>.cls-1{fill:#153e69;}</style></defs><path class="cls-1" d="M71.88,238.62c6.39-12.42,12.62-23.9,18.89-38.49H91c1.64,14.59,3.43,26.07,5.08,38.49Zm17-57.12-53,94.6H51.36L65.1,250.27H96.72l3.74,25.83h20.15l-16.86-94.6Z"/><path class="cls-1" d="M209.88,224.63h.24l4-4.85c2.34-2.6,6.63-7.56,11.46-7.56,3.53,0,6.95,2,9.62,5.58l-7.91,11.43a11.85,11.85,0,0,0-7-2.13c-5.42,0-11.54,4.62-13.92,18.13l-5.44,30.87H185.28l11-62.38h15.53Z"/><path class="cls-1" d="M256,213.72,245,276.1H229.36l11-62.38Zm-12-18.53c.67-3.81,4.36-7.7,8.59-7.7a6.42,6.42,0,0,1,6.34,7.7c-.76,4.3-4.4,8.4-9,8.4C245.5,203.59,243.22,199.49,244,195.19Z"/><path class="cls-1" d="M254.86,276.1,271,184.51h15.65L270.51,276.1Z"/><path class="cls-1" d="M319,239.93c-2.06,18.34-11.61,26.57-17.83,26.57-3.76,0-6.38-3.74-5.41-9.22,1.25-7.12,6-11.85,14-14.35Zm-5,27.07c-.59,3.36-.88,7-.07,9.1h16.61c-1.12-4.37-.67-10.23.21-15.22l4.48-25.45c3.43-19.47-9.21-23.21-20-23.21-8.09,0-15.64,2.12-24.06,8.49l3.67,7.85c4.79-3.74,10-6.36,16.65-6.36a8.71,8.71,0,0,1,9,9.35l-14.62,4.38c-14.36,4.12-23.68,10.85-25.77,22.7-2,11.49,4.32,19,13.49,19,5.4,0,11.37-3.87,16.35-7.49Z"/><path class="cls-1" d="M364.54,213.72l-11,62.38H337.9l11-62.38Zm-12-18.53c.67-3.81,4.37-7.7,8.59-7.7a6.41,6.41,0,0,1,6.34,7.7c-.75,4.3-4.39,8.4-9,8.4C354.05,203.59,351.77,199.49,352.52,195.19Z"/><path class="cls-1" d="M387.64,224.63h.24l4-4.85c2.35-2.6,6.63-7.56,11.46-7.56,3.53,0,6.95,2,9.62,5.58l-7.9,11.43a11.88,11.88,0,0,0-7-2.13c-5.42,0-11.54,4.62-13.91,18.13l-5.45,30.87H363l11-62.38h15.54Z"/><path class="cls-1" d="M424.57,237.49c1.37-8.4,6.71-16,15.64-16,7.75,0,9.77,6.51,7.51,16Zm36.26,9c4.47-18.66-.42-34.28-18.76-34.28-16.82,0-32.18,12.24-35.58,31.53-3.61,20.51,7.36,33.86,25.11,33.86,6.7,0,15.4-2,24.27-7l-2.93-8.71a32.7,32.7,0,0,1-16.63,5c-9.75,0-16-8.7-13.57-20.38Z"/><path class="cls-1" d="M159.18,222.2c8.93,0,11.5,10.73,9.61,21.47-1.93,11-7.75,24-18.21,24-8.47,0-12.91-8.86-10.59-22C142.52,231.31,149.29,222.2,159.18,222.2ZM131,299.09m-18.64,8.19-.71,2.68a407.53,407.53,0,0,1,72.5-6.53c48.25,0,102.91,15.07,153,15.07,71.24,0,127-30.47,127-30.47s-43.73,16.53-79.53,19.16c-47.23,3.49-70-2.16-119.86-10.21-40.9-6.59-89.73-12.53-134.39,2.92L136,268.38c3.38,5.48,8.84,9.23,16,9.23,16.83,0,30.5-17.6,33.41-34.06,2.42-13.74-2-31.33-20.47-31.33-7.05,0-15.36,3.74-20.59,10.1h-.24l1.51-8.6H130Z"/></svg>