<svg id="Bryanrt" xmlns="http://www.w3.org/2000/svg" viewBox="0 0 500 500"><defs><style>.cls-1,.cls-2{fill:#153e69;}.cls-1{fill-rule:evenodd;}.cls-3{fill:none;}</style></defs><path class="cls-1" d="M453.34,324.76a10.13,10.13,0,1,1,10.13-10.13,10.11,10.11,0,0,1-10.13,10.13Zm0-19.09a9,9,0,1,0,9,9,8.93,8.93,0,0,0-9-9Zm-3.76,3.08h5c1.73,0,3.41.33,3.56,2.85a2.81,2.81,0,0,1-1.47,2.79c1.14.74,1.17.91,1.35,2.85.12,1.47-.09,1.7.52,2.67h-1.7l-.23-1.41c-.24-1.32.41-3.37-1.91-3.37H451v4.78h-1.44V308.75ZM451,310v3.84h3.58c1,0,1.91-.26,2.06-1.7.2-1.91-1.18-2.14-2.06-2.14Z"/><path class="cls-2" d="M280.34,249.11v11.23c0,1.51.67,3.24,3,3.24a3,3,0,0,0,3.12-3.24V242.52l-3.12,1.73C280.88,246,280.34,246.41,280.34,249.11Z"/><path class="cls-2" d="M129.28,220.47a3.68,3.68,0,0,0-3.63,3.3v37.68a3.69,3.69,0,0,0,3.63,3.31c2,0,3.28-1.76,3.68-3.31V223.77C132.56,222.23,131.26,220.47,129.28,220.47Z"/><path class="cls-3" d="M233,257.92h-.23l-5.68-48.14H212.28l11.75,62a12.18,12.18,0,0,1,.11,1.88c0,2.31-1,2.86-4.2,2.86h-4.67v11.95h7.47c14.6,0,16.7-4.13,18.45-15l10.52-63.68H237.92Z"/><path class="cls-3" d="M191.11,209c-5.14,0-9.66,2.31-11.88,6.17H179v-5.4h-14.3v63H179v-49a3.7,3.7,0,0,1,3.63-3.3c2,0,2.88,1.76,3.28,3.3v13.06h14.44V220C200.34,213.19,198.47,209,191.11,209Z"/><path class="cls-3" d="M344.13,208.48c-4,0-8.71,3-9.64,6.81h-.23v-5.51H319.42v63h14.37v-49a4.69,4.69,0,0,1,4.09-3.3,4.18,4.18,0,0,1,3.75,3.3v49h14.43v-50C356.06,215.51,353.59,208.48,344.13,208.48Z"/><path class="cls-3" d="M137,209c-4.44,0-9.83,2.64-11.12,6.28h-.23V194.35H111.22V272.8s19.75.24,24.19.24c9.23,0,12-6.52,12-13.57V222.78C147.39,215.73,146.22,209,137,209Z"/><path class="cls-3" d="M283.48,208c-9.46,0-17.4,5.8-17.4,15.27v5.3h14.3v-5.85a3.21,3.21,0,0,1,3.1-3.31,3.68,3.68,0,0,1,3.61,3.31v2.53c0,13.66-21,7.61-21,23.47v13.55c0,7.16,2.47,10.86,9.92,11.35,8.42.55,25-.24,25-.24-.35-4.19,0-49,0-49C301,212.15,292.82,208,283.48,208Z"/><path class="cls-3" d="M390.53,258.14v-38.8h6.93V209h-6.93V197H376.16v12h-6.35v10.36h6.35V260c0,9.69,1.87,12.78,12.5,13.31H398V262.44h-4.4C391.34,262.44,391,260.13,390.53,258.14Z"/><path class="cls-2" d="M445,164H57.12L41.38,297,251.43,334.1,460.73,297ZM251.08,322.84l-197.89-35L66.51,174.53H435.6l13.32,113.29Z"/><path class="cls-2" d="M431.14,179.29s-360.17,0-360.17,0L58.5,283.93,251,318l192.58-34.09ZM147.39,259.47c0,7-2.75,13.57-12,13.57-4.44,0-24.19-.24-24.19-.24V194.35h14.43v20.94h.23c1.29-3.64,6.68-6.28,11.12-6.28,9.22,0,10.39,6.72,10.39,13.77Zm53-22.64H185.9V223.77c-.4-1.54-1.3-3.3-3.28-3.3a3.7,3.7,0,0,0-3.63,3.3v49h-14.3v-63H179v5.4h.24c2.22-3.86,6.74-6.17,11.88-6.17,7.36,0,9.23,4.18,9.23,11Zm40.85,36.63c-1.75,10.9-3.85,15-18.45,15h-7.47V276.54h4.67c3.15,0,4.2-.55,4.2-2.86a12.18,12.18,0,0,0-.11-1.88l-11.75-62h14.83l5.68,48.14H233l4.9-48.14h13.79Zm59.8-.13s-16.57.79-25,.24c-7.45-.49-9.92-4.19-9.92-11.35V248.67c0-15.86,21-9.81,21-23.47v-2.53a3.68,3.68,0,0,0-3.61-3.31,3.21,3.21,0,0,0-3.1,3.31v5.85h-14.3v-5.3c0-9.47,7.94-15.27,17.4-15.27S301,212.15,301,224.28C301,224.28,300.64,269.14,301,273.33Zm55.07-.53H341.63v-49a4.18,4.18,0,0,0-3.75-3.3,4.69,4.69,0,0,0-4.09,3.3v49H319.42v-63h14.84v5.51h.23c.93-3.86,5.67-6.81,9.64-6.81,9.46,0,11.93,7,11.93,14.3Zm41.9.53h-9.3c-10.63-.53-12.5-3.62-12.5-13.31V219.34h-6.35V209h6.35V197h14.37v12h6.93v10.36h-6.93v38.8c.46,2,.81,4.3,3,4.3H398Z"/></svg>