<svg id="Carrier" xmlns="http://www.w3.org/2000/svg" viewBox="0 0 500 500"><defs><style>.cls-1{fill:#153e69;}.cls-1,.cls-2{fill-rule:evenodd;}.cls-2{fill:#fff;}</style></defs><path class="cls-1" d="M250.5,164.38c56.68.85,109.38,9.94,147.17,24.15,43.18,16.19,67.05,38.92,67.05,63.07,0,47.31-97.74,84.67-215.93,84.1S35,297.2,35.28,249.33c.14-48,97.88-87.08,215.22-85Z"/><path class="cls-2" d="M250.5,172.76c113.22.43,206.12,35.8,206,78.13s-93.33,75.43-206.83,75.29c-70.61,0-134.82-14.49-171.61-34.8C56,279.3,43.24,264,44.37,248.9c1.28-15.48,12.93-29.55,33.95-42.33,36.09-22.16,101-34.09,172.18-33.81Z"/><path class="cls-1" d="M250.5,179.15c62.64.57,110,8,146.88,22.16,40.78,15.63,55,31.26,56.54,49.44,1.57,17.76-21.73,37.93-56.54,50.29-37.07,13.07-90.63,18.89-148,18.75-111.94-.14-206.27-30.12-202.71-71.17C47.92,234.27,62,219.5,78.47,209.69c36.22-21.73,83.38-31.53,172-30.54Z"/><path class="cls-2" d="M190.41,235c2.55,3.41-.57,7.1-1.28,10.23a104,104,0,0,1-9.66,17.33c-2.56,1.85-6.25,6-10.37,4-3.69-3-1.14-7.82-.29-11.51,3.41-8.38,8.95-18.75,18.05-21.17,1.27.43,3,0,3.55,1.14Zm159.1,1.71c1.28,4.54-.57,8.94-3.55,12.21-3.55,3-8.38,4.12-13.07,4.83h0l-2-.28h0c1.85-6.82,4.69-15.34,11.79-19.18,2.56-1,5.83,0,6.82,2.42Zm-156.4-2.42a15.7,15.7,0,0,0-3.13-3c-4.4-1.57-9.37.57-13.78,1.84-11.93,6.54-20.31,19.46-19.32,33,.71,3.27,2.84,7.25,6.39,8.38,7.82,1.85,12.51-4.83,18.19-9.66h.42c-.14.29-.14.29-.42.29-.43,3.12-1.14,7.24,1.84,9.23,6.11,2.13,11.09-3.55,15.35-7.39,1.42-1.84,4.26-3.83,3.26-6.39-3.83,1.42-5.39,6.82-9.51,7.24-1.28,0-.71-1.7-.86-2.41,3.84-11.08,7.82-22.44,11.37-33.67-1.42-1.13-4.12-.42-6.11-.71-2.41-.57-2.56,2-3.69,3.27Zm117.48-.14-.43,2.27-9.23,28h0c-.29,1.56-1.56,4.54.42,5.25,3.27-1.56,5.83-5,8.95-6.82,1.14-.42.86.57,1.14.71h0l-.14,1.14h0c-4,6-11.08,11.79-19,11.36-1.7-.56-2.13-2.27-2.84-3.55h0l.43-5.4,12.5-33.66h0c1.7-2,4.83-.43,7.39-.71h0l.85,1.42Zm-60.94-.57c1,2.56,1.56,5.68,0,8.1-1.42,1.28-2.42,2.13-4.27,2.27a3.89,3.89,0,0,1-4.12-2.27c-.56-1.14.29-2.7-1-3.41-4.4,2.55-6.11,7.24-8.67,11.08-4.12,7.38-7.95,14.91-10.37,22.87-2,3.12-5.39,1.28-8.09,1.42a2,2,0,0,1-.71-2.7h0l9.23-28.27h0c0-1.7,1.56-3.41,0-5-2.13,0-2.84,2.27-4.55,3.55-1.42,1.42-2,4-4.26,4.12-1.13-.43-.42-1.42-.14-2.13,3.13-5.54,8.52-10.37,14.63-11.93,1,.14,2.56.14,3.27,1,2.27,5.26-.85,11.08-1.85,16.05,1-.42,1.42-2.41,2.28-3.69,3.83-5,7-12.36,13.92-13.35,1.56.42,4,.57,4.69,2.27ZM292.83,236c-.85-3.83-4.69-4.68-7.81-3.55-6.54,3.55-10.09,10.09-13.78,16.06.57-1.28,0-3.27,1.28-4.69.28-3.55,2.84-8.67-.43-11.65-3.41-1.14-5.82.57-8.38,2-3.69,3.12-8,6.39-9.38,11.08.29.71.71.71,1.57.57,2.69-2.28,4.4-6.54,8.23-7.67a1.28,1.28,0,0,1,.43,1.42c-2.41,11.36-7,21.59-10.23,32.67h0l.29,1.42h0c2,1.14,4.69.71,6.82,1,3.55-2.27,3.12-6.82,5-9.94,4.54-8.81,7.53-18.32,15.06-25.43.42-.28,1.56-.71,1.84.14.14,1.57-.28,3.56,1.71,4.55a5.45,5.45,0,0,0,4.69-.14c3.26-1,3-5,3.12-7.82Zm109.53-.85c.85,3.13,1,7-1.57,9.24a6.24,6.24,0,0,1-6.1,0c-1.85-1.14.14-5.4-2.85-4.27-7.38,7.39-11.08,17.62-15.62,26.43h0l-2.7,8h0c-2,1.42-5.26.43-7.67.43h0l-1.14-1h0c3.41-11.36,6.82-22.58,10.37-33.66a2,2,0,0,0-.85-1.28c-2.13.14-3.13,2.27-4.83,3.55h0l-2.84,4.12h0c-.71.14-1.56.43-2-.43,2.56-6.25,8.38-12.78,15.63-13.92a4.6,4.6,0,0,1,3.83,3.13c0,4.4-1.28,9-2.56,13.21.15.28.29,0,.57-.14,3.84-6.4,7.82-14.07,15.77-16.2a6.53,6.53,0,0,1,4.55,2.84Zm-43.05,2.13c-4.12-8.24-16.33-7.1-24-4-10.52,5.25-17.05,17.18-17.19,29a32.59,32.59,0,0,0,1.7,6.67c2,3.55,5.12,6.68,9.52,7.1,8.52,1.71,16.9-2.41,22.59-8.38.85-1.56,2.55-2.84,2-4.4h0l-1.14-.14h0a42,42,0,0,1-9.66,6.25c-4.12,1.28-9.09,1.7-12.36-1.71-2.56-2.84-2.13-6.82-1.14-9.94h0l14.07-2.56.57-.42h0a29.39,29.39,0,0,0,11.93-5.83,11.5,11.5,0,0,0,3.12-11.65ZM166.54,216.94c-3.12-5-9.66-5.12-14.77-5.26-17.19,1.71-34.52,9.24-44.18,23.73-5.4,7.53-7.1,19.17-2.84,27.56a22.45,22.45,0,0,0,21.31,11.22c7.52-.85,14.91-2.7,21.16-7,1.14-1.14,2.42-1.85,2.84-3.55,0-.71-.71-1.14-1.42-1.42a45.07,45.07,0,0,1-18,7.52A14.88,14.88,0,0,1,116.68,264c-6.25-10.8-.28-23.44,5.54-32.67,8.24-10.09,19-17.48,32.53-15.2,2.56,1.56-1.56,4.12,0,6.53a6.86,6.86,0,0,0,5.54,3.13,8.78,8.78,0,0,0,5.83-3.13,6.21,6.21,0,0,0,.42-5.68Zm148.31-.85c1.14,1.28,1.28,3.69.71,5.4a11.54,11.54,0,0,1-2.13,3.55h0a7.1,7.1,0,0,1-4.4,1.7,4.27,4.27,0,0,1-3.84-2.41c-1.14-3.13.85-6,2.84-8.1,2.13-1.28,4.69-2.13,6.82-.14Z"/><path class="cls-1" d="M451.2,301.85h-2.48v4.76h2.48a6,6,0,0,0,2.95-.52,2,2,0,0,0,.85-1.79,2,2,0,0,0-.9-1.87,5.46,5.46,0,0,0-2.9-.58Zm.38-1.35a7.57,7.57,0,0,1,4.14.9,3.08,3.08,0,0,1,1.34,2.76,3.38,3.38,0,0,1-.85,2.34,3.68,3.68,0,0,1-2.28,1.15l2.95,6.11h-2.27l-2.8-5.83h-3.09v5.83h-2V300.5Zm9.91,6.86a10.49,10.49,0,0,0-.75-4,9.86,9.86,0,0,0-2.17-3.3,10.37,10.37,0,0,0-7.34-3,10.11,10.11,0,0,0-3.87.75,10,10,0,0,0-3.28,2.2,11.09,11.09,0,0,0-2.29,3.39,10,10,0,0,0,0,7.78,10.36,10.36,0,0,0,2.24,3.32,10.13,10.13,0,0,0,3.33,2.24,9.89,9.89,0,0,0,3.88.78,10.12,10.12,0,0,0,3.94-.79,10.58,10.58,0,0,0,3.4-2.26,9.58,9.58,0,0,0,2.18-3.21,10.3,10.3,0,0,0,.74-3.93ZM451.23,295.8a11.63,11.63,0,0,1,4.49.87,11.53,11.53,0,0,1,6.17,6.21,11.66,11.66,0,0,1,.86,4.44,11.36,11.36,0,0,1-.85,4.41,10.49,10.49,0,0,1-2.47,3.66,11.77,11.77,0,0,1-3.8,2.55,11.61,11.61,0,0,1-15-6.24,11.44,11.44,0,0,1-.86-4.38,11.12,11.12,0,0,1,.89-4.39,11.81,11.81,0,0,1,2.55-3.81,10.93,10.93,0,0,1,3.64-2.47,11.53,11.53,0,0,1,4.4-.85Z"/></svg>