<svg id="coleman" xmlns="http://www.w3.org/2000/svg" viewBox="0 0 500 500"><defs><style>.cls-1{fill:none;}.cls-2{fill:#153e69;}</style></defs><polygon class="cls-1" points="182.31 202.48 157.03 277.08 168.34 277.05 193.63 202.44 182.31 202.48"/><path class="cls-1" d="M120.27,212.29c4.25,1.7,6.63,5,7.64,9.29l10.11-5.8c-1.8-6.46-6-12-13.93-15.18-14-5.61-32.6,8.07-41.62,30.55s-5,45.24,9,50.84c8,3.21,17.49.1,25.86-7.33l-6.19-9.6c-4.61,3.68-9.43,5.15-13.43,3.55-8.32-3.34-10-18.65-3.76-34.2S112,209,120.27,212.29Z"/><path class="cls-1" d="M194.68,265c-1.41-1.32-3.6-4-2.64-10h26.14c4.54-12,2.86-23.9-4.49-28-8.33-4.69-20.79,2.42-27.84,15.87s-6,28.15,2.34,32.83,20.41-2.21,27.51-15.26H205.23C201.71,265.52,197.4,267.58,194.68,265Z"/><path class="cls-1" d="M283,240.21c.36-7.36-2.22-11.11-5.88-12.47a12.85,12.85,0,0,0-7.93,0,20.2,20.2,0,0,0-8.51,4.9,8.71,8.71,0,0,0-5-4.9,9.23,9.23,0,0,0-5.36,0,15.1,15.1,0,0,0-1.83.61,26.45,26.45,0,0,0-6,3.52c0-.1.84-2.65,1.29-4.13H233.09l-17,49.34,10.94,0L239.16,242c2.12-5.35,13.22-8.12,10.12,1.68-.06,0-9.36,26.93-11.58,33.38h11.6l11.33-34.86c2.13-5.35,13-8.12,9.87,1.68-.06,0-9.16,26.35-11.51,33.16h11.44l12.24-35.83Z"/><path class="cls-1" d="M154.46,227.61C145.93,223,133.19,230,126,243.29s-6.13,27.8,2.4,32.42,21.27-2.4,28.47-15.68S163,232.23,154.46,227.61Z"/><path class="cls-1" d="M420.74,234.2c0-1.93.84-1.93,13.76-1.93a43.23,43.23,0,0,0-3.8-11.49c-7.07,4.6-7.81,4.69-8.73,3.3s-.52-2,6.77-6.79c-5.44-8.61-13.78-14.12-23.13-14.12s-17.61,5.46-23.05,14c7.43,5,7.84,5.58,6.9,7s-1.58,1.24-8.87-3.52a43.8,43.8,0,0,0-3.85,11.51c13,0,13.92.13,13.92,2.08s-.86,1.94-14.49,1.94a47.5,47.5,0,0,0,.66,14.12c11.22-6.78,12.05-7.14,13.06-5.47s.23,2.13-12.05,9.55c4.25,14.27,15.08,24.43,27.77,24.43,12.88,0,23.83-10.44,27.95-25-12.54-6.89-13.35-7.41-12.38-9.18s1.68-1.28,13.32,5.11a47.76,47.76,0,0,0,.81-8.72c0-1.6-.09-3.17-.24-4.72C421.66,236.28,420.74,236.18,420.74,234.2Z"/><path class="cls-1" d="M317.61,227.2l-1.43,4.36a9.91,9.91,0,0,0-4.36-4.22c-7.74-3.69-19.26,4.32-25.73,17.88s-5.43,27.56,2.3,31.25c4.05,1.93,9.13.66,14-2.93l-.9,2.71H312.8l16.12-49.08Z"/><path class="cls-1" d="M358.88,227.74a9.27,9.27,0,0,0-5.37,0,15.7,15.7,0,0,0-1.83.61,26.45,26.45,0,0,0-6,3.52c.05-.1.39-2.65.84-4.13H336.28l-17,49.34,10.93,0L342.34,242c2.13-5.35,14.19-7.09,11.54,1.68-.05,0-9.35,26.93-11.58,33.38h11.84s10.38-31.24,11.29-34.4a17.11,17.11,0,0,0-.13-9.87C363.94,229.61,360.79,228.38,358.88,227.74Z"/><path class="cls-2" d="M58.39,288.52a5,5,0,0,0-4.91,0,4.63,4.63,0,0,0-1.88,1.84,5,5,0,0,0,0,5,4.64,4.64,0,0,0,1.86,1.84,5,5,0,0,0,2.49.67,5,5,0,0,0,2.49-.67,4.68,4.68,0,0,0,1.85-1.84,5,5,0,0,0,.66-2.48,5.19,5.19,0,0,0-.67-2.51A4.63,4.63,0,0,0,58.39,288.52Zm-.93,7.64-.59-1a5.8,5.8,0,0,0-1.08-1.49,1.33,1.33,0,0,0-.84-.23h-.61v2.73h-1v-6.43h2.23a5.42,5.42,0,0,1,1.65.18,1.64,1.64,0,0,1,.82.62,1.66,1.66,0,0,1,.3.94,1.71,1.71,0,0,1-.51,1.23,2.06,2.06,0,0,1-1.35.59,1.72,1.72,0,0,1,.55.34,7.55,7.55,0,0,1,1,1.27l.79,1.26Z"/><path class="cls-2" d="M57.21,291.56a.84.84,0,0,0-.16-.51,1,1,0,0,0-.45-.34,3.49,3.49,0,0,0-1.06-.11h-1.2v1.94h1.28a2.09,2.09,0,0,0,1.26-.27A.88.88,0,0,0,57.21,291.56Z"/><path class="cls-2" d="M441.53,182.77c.13,0-348,.13-348.12,0-4.65,0-18.58,3-23.35,17.54-.13,0-30.44,88.61-30.44,88.61-8.77,24.12,4.77,28.25,23.61,28.25,0,0,334.44.13,334.57,0,11.8,0,24-1.74,32.28-19H67.51L71,288.41H433.79c4.58-14.13,28-84.87,28.11-84.87C465.52,191.67,461.65,182.77,441.53,182.77ZM61.14,295.84a5.64,5.64,0,0,1-2.22,2.22,6,6,0,0,1-6,0,5.64,5.64,0,0,1-2.22-2.22,5.94,5.94,0,0,1,0-6A5.59,5.59,0,0,1,53,287.65a6,6,0,0,1,5.9,0,5.63,5.63,0,0,1,2.24,2.22,6.13,6.13,0,0,1,.8,3A6,6,0,0,1,61.14,295.84Zm36.54-27.23c4,1.6,8.82.13,13.43-3.55l6.19,9.6c-8.37,7.43-17.88,10.54-25.86,7.33-14-5.6-18-28.36-9-50.84S110.12,195,124.09,200.6c8,3.19,12.13,8.72,13.93,15.18l-10.11,5.8c-1-4.26-3.39-7.59-7.64-9.29-8.31-3.34-20.12,6.56-26.35,22.12S89.36,265.27,97.68,268.61Zm30.7,7.1c-8.53-4.62-9.6-19.14-2.4-32.42s20-20.3,28.48-15.68,9.59,19.14,2.39,32.42S136.9,280.33,128.38,275.71ZM157,277.08l25.28-74.6,11.32,0-25.29,74.61Zm31.16-1.4c-8.33-4.68-9.38-19.38-2.34-32.83s19.51-20.56,27.84-15.87c7.35,4.12,9,16,4.49,28H192c-1,6,1.23,8.71,2.64,10,2.72,2.55,7,.49,10.55-4.61H215.7C208.6,273.47,196.4,280.29,188.19,275.68ZM259,277c2.35-6.81,11.45-33.16,11.51-33.16,3.09-9.8-7.74-7-9.87-1.68L249.3,277H237.7c2.22-6.45,11.52-33.38,11.58-33.38,3.1-9.8-8-7-10.12-1.68L227,277.06l-10.94,0,17-49.34H243.8c-.45,1.48-1.25,4-1.29,4.13a26.45,26.45,0,0,1,6-3.52,15.1,15.1,0,0,1,1.83-.61,9.23,9.23,0,0,1,5.36,0,8.71,8.71,0,0,1,5,4.9,20.2,20.2,0,0,1,8.51-4.9,12.85,12.85,0,0,1,7.93,0c3.66,1.36,6.24,5.11,5.88,12.47l-.34,1L270.43,277Zm42.49-.77.9-2.71c-4.86,3.59-9.94,4.86-14,2.93-7.73-3.69-8.77-17.68-2.3-31.25s18-21.57,25.73-17.88a9.91,9.91,0,0,1,4.36,4.22l1.43-4.36,11.31,0L312.8,276.24Zm63.95-33.61c-.91,3.16-11.29,34.4-11.29,34.4H342.3c2.23-6.45,11.53-33.38,11.58-33.38,2.65-8.77-9.41-7-11.54-1.68l-12.13,35.07-10.93,0,17-49.34h10.25c-.45,1.48-.79,4-.84,4.13a26.45,26.45,0,0,1,6-3.52,15.7,15.7,0,0,1,1.83-.61,9.27,9.27,0,0,1,5.37,0c1.91.64,5.06,1.87,6.42,5A17.11,17.11,0,0,1,365.43,242.64Zm69.07,7.08c-11.64-6.39-12.38-6.82-13.32-5.11s-.16,2.29,12.38,9.18c-4.12,14.59-15.07,25-27.95,25-12.69,0-23.52-10.16-27.77-24.43,12.28-7.42,13.09-7.84,12.05-9.55s-1.84-1.31-13.06,5.47a47.5,47.5,0,0,1-.66-14.12c13.63,0,14.49,0,14.49-1.94s-.9-2.07-13.92-2.08a43.8,43.8,0,0,1,3.85-11.51c7.29,4.76,8,4.92,8.87,3.52s.53-2.06-6.9-7c5.44-8.54,13.75-14,23.05-14s17.69,5.51,23.13,14.12c-7.29,4.84-7.7,5.38-6.77,6.79s1.66,1.3,8.73-3.3a43.23,43.23,0,0,1,3.8,11.49c-12.92,0-13.76,0-13.76,1.93s.92,2.08,14.33,2.08c.15,1.55.24,3.12.24,4.72A47.76,47.76,0,0,1,434.5,249.72Z"/><path class="cls-1" d="M283,240.21c.36-7.36-2.22-11.11-5.88-12.47a12.85,12.85,0,0,0-7.93,0,20.2,20.2,0,0,0-8.51,4.9,8.71,8.71,0,0,0-5-4.9,9.23,9.23,0,0,0-5.36,0,15.1,15.1,0,0,0-1.83.61,26.45,26.45,0,0,0-6,3.52c0-.1.84-2.65,1.29-4.13H233.09l-17,49.34,10.94,0L239.16,242c2.12-5.35,13.22-8.12,10.12,1.68-.06,0-9.36,26.93-11.58,33.38h11.6l11.33-34.86c2.13-5.35,13-8.12,9.87,1.68-.06,0-9.16,26.35-11.51,33.16h11.44l12.24-35.83Z"/><path class="cls-1" d="M317.61,227.2l-1.43,4.36a9.91,9.91,0,0,0-4.36-4.22c-7.74-3.69-19.26,4.32-25.73,17.88s-5.43,27.56,2.3,31.25c4.05,1.93,9.13.66,14-2.93l-.9,2.71H312.8l16.12-49.08Z"/><path class="cls-1" d="M154.46,227.61C145.93,223,133.19,230,126,243.29s-6.13,27.8,2.4,32.42,21.27-2.4,28.47-15.68S163,232.23,154.46,227.61Z"/><polygon class="cls-1" points="182.31 202.48 157.03 277.08 168.34 277.05 193.63 202.44 182.31 202.48"/><path class="cls-1" d="M120.27,212.29c4.25,1.7,6.63,5,7.64,9.29l10.11-5.8c-1.8-6.46-6-12-13.93-15.18-14-5.61-32.6,8.07-41.62,30.55s-5,45.24,9,50.84c8,3.21,17.49.1,25.86-7.33l-6.19-9.6c-4.61,3.68-9.43,5.15-13.43,3.55-8.32-3.34-10-18.65-3.76-34.2S112,209,120.27,212.29Z"/><path class="cls-1" d="M358.88,227.74a9.27,9.27,0,0,0-5.37,0,15.7,15.7,0,0,0-1.83.61,26.45,26.45,0,0,0-6,3.52c.05-.1.39-2.65.84-4.13H336.28l-17,49.34,10.93,0L342.34,242c2.13-5.35,14.19-7.09,11.54,1.68-.05,0-9.35,26.93-11.58,33.38h11.84s10.38-31.24,11.29-34.4a17.11,17.11,0,0,0-.13-9.87C363.94,229.61,360.79,228.38,358.88,227.74Z"/><path class="cls-1" d="M194.68,265c-1.41-1.32-3.6-4-2.64-10h26.14c4.54-12,2.86-23.9-4.49-28-8.33-4.69-20.79,2.42-27.84,15.87s-6,28.15,2.34,32.83,20.41-2.21,27.51-15.26H205.23C201.71,265.52,197.4,267.58,194.68,265Z"/><path class="cls-2" d="M416.53,267H393.61c-1.11,0-1.45,2.51-1.45,2.51h26S417.6,267,416.53,267Z"/><path class="cls-2" d="M399.7,251.18c-2.46,0-6.09,1.45-6.09,3.29v10.88h22.92V254.42c0-1.74-3.57-3.24-5.7-3.24Z"/><path class="cls-2" d="M394.77,240.15c0,2.52,4.93,3.68,4.93,3.68v5.95h11.13v-5.9s4.59-1.26,4.59-3.68V220.66h2.66v-2.22h-1.64s-2.42-3.49-5.37-3.73v-1.84h1.35v-1.06s-2.05.07-2.12,0c-1.41-3.58-9-3.33-9.73,0,0,.05-2.37.05-2.37.05v1.06h1.41v1.69c-3.44.34-6.1,3.78-6.1,3.78h-1.84v2.22h3.1ZM397,220.71h16.3v19.73H397Z"/><path class="cls-2" d="M208.19,236.54c-4.42-4.14-11.34,5.43-12.82,8.57-.27.56-.51,1.1-.74,1.64h15.54C210.66,242.44,210.17,238.39,208.19,236.54Z"/><path class="cls-2" d="M307.83,238c-3.2-1.52-8.77,3.5-12.45,11.22s-4.07,15.21-.88,16.74,8.77-3.5,12.46-11.22S311,239.51,307.83,238Z"/><path class="cls-2" d="M148.22,237c-3.95-2-10.37,2.79-14.35,10.68s-4,15.9-.06,17.89,10.37-2.79,14.35-10.69S152.17,239,148.22,237Z"/></svg>