<svg id="comfortmaker" xmlns="http://www.w3.org/2000/svg" viewBox="0 0 500 500"><defs><style>.cls-1{fill:#153e69;}.cls-2{fill:#fff;}</style></defs><path class="cls-1" d="M479.45,221.38a3.26,3.26,0,0,1-3.21,3.44h0a3.43,3.43,0,1,1,3.21-3.43m1.29,0a4.51,4.51,0,1,0-4.5,4.47,4.34,4.34,0,0,0,4.5-4.47m-5.25.38H476l1.12,2h1.21l-1.23-2.1a1.13,1.13,0,0,0,1.16-1.26c0-1.1-.73-1.45-2-1.45h-1.8v4.81h1Zm0-.82v-1.15h.73c.39,0,.92,0,.92.53s-.27.62-.74.62Z"/><rect class="cls-1" x="19.76" y="268.92" width="450.03" height="17.04"/><polygon class="cls-1" points="409.9 230.23 391.73 230.23 385.27 242.13 385.27 216.15 369.69 216.15 369.69 263.73 385.27 263.73 385.33 249.73 392.15 263.73 410.51 263.73 398.13 246.51 409.9 230.23"/><path class="cls-1" d="M459.45,234.5v-4.27H445.19v33.5h14.26v-12c0-4.19.85-9,5.43-9a7.62,7.62,0,0,1,4.77,1.11V229.22C464.4,229.1,462.23,230.05,459.45,234.5Z"/><path class="cls-1" d="M232.92,234.5v-4.27H218.65v33.5h14.27v-12c0-4.19.84-9,5.42-9a7.62,7.62,0,0,1,4.77,1.11V229.22C237.86,229.1,235.69,230.05,232.92,234.5Z"/><path class="cls-1" d="M198,229.41c-10.8,0-19.56,7.82-19.56,17.47s8.76,17.47,19.56,17.47,19.57-7.82,19.57-17.47S208.8,229.41,198,229.41Zm0,22.36a4.89,4.89,0,1,1,4.9-4.89A4.89,4.89,0,0,1,198,251.77Z"/><path class="cls-1" d="M352.75,234.66a12.71,12.71,0,0,0-10.54-5.51c-7.92,0-14.35,7.94-14.35,17.73s6.43,17.73,14.35,17.73a12.73,12.73,0,0,0,10.54-5.5l-.05,4.54H367V230.23H352.7Zm-5.05,17.11a4.89,4.89,0,1,1,4.89-4.89A4.89,4.89,0,0,1,347.7,251.77Z"/><polygon class="cls-1" points="263.69 221.09 248.49 221.09 248.49 230.31 244.48 230.31 244.48 242.41 248.49 242.41 248.49 263.73 263.69 263.73 263.69 242.41 267.7 242.41 267.7 230.31 263.69 230.31 263.69 221.09"/><path class="cls-1" d="M424,229.35c-10.21,0-18.42,5.88-18.42,17.06,0,11.63,8.87,18.11,18.95,18.11,7.37,0,16-4.39,18.05-12.53H428.42a4.28,4.28,0,0,1-4,3.23c-2.63,0-3.91-2.27-3.91-4.89V249H443.1C443.89,236.36,435.39,229.35,424,229.35Zm-3.45,12.46c0-2.62,1.28-4.88,3.91-4.88s4.24,2.33,4.24,4.88Z"/><path class="cls-1" d="M76,229.41c-10.8,0-19.56,7.82-19.56,17.47S65.15,264.35,76,264.35s19.57-7.82,19.57-17.47S86.76,229.41,76,229.41Zm0,22.36a4.89,4.89,0,1,1,4.9-4.89A4.89,4.89,0,0,1,76,251.77Z"/><path class="cls-1" d="M178.52,242.41v-12.1h-4V229c0-1.06.11-2.9,2.77-2.9a7.49,7.49,0,0,1,3.1.32V215.9c-2.3-.38-2.8-.76-5.1-.76-11.38,0-16,2.07-16,11.92l0,3.25h-4v12.1h4l0,21.32h15.2V242.41Z"/><path class="cls-1" d="M48,229.49a12.38,12.38,0,0,1,6.83,2l.39-15.8A27.76,27.76,0,0,0,45.81,214c-14.66,0-26.55,11.26-26.55,25.16s11.89,25.15,26.55,25.15a27.76,27.76,0,0,0,9.45-1.64l-.39-15.8a12.39,12.39,0,0,1-6.83,2c-7.79,0-11.26-4.35-11.26-9.71S40.25,229.49,48,229.49Z"/><path class="cls-1" d="M142.34,228.48c-4.31,0-9,1.12-10.88,5.82-1.46-4.57-6-5.82-9.82-5.82-4,0-8.56,2.34-10.24,6v-4.31H96.94v33.56h14.47V245.29c0-2,.49-4.51,2.83-4.51s2.91,2.54,2.91,4.51v18.44h15.21V245.29c0-2,.49-4.51,2.84-4.51s2.9,2.54,2.9,4.51v18.44h15.46v-21C153.56,235.45,149.64,228.48,142.34,228.48Z"/><path class="cls-1" d="M314.53,228.48c-4.31,0-9,1.12-10.88,5.82-1.46-4.57-6-5.82-9.82-5.82-4,0-8.56,2.34-10.24,6v-4.31H269.13v33.56H283.6V245.29c0-2,.49-4.51,2.83-4.51s2.91,2.54,2.91,4.51v18.44h15.21V245.29c0-2,.49-4.51,2.84-4.51s2.9,2.54,2.9,4.51v18.44h15.46v-21C325.75,235.45,321.83,228.48,314.53,228.48Z"/><path class="cls-2" d="M294.05,271.94,291,281.21h3.38l.25-1.16h2.42l.29,1.16h3.38l-3.14-9.27Zm1.16,5.91.58-2.82h.11c.06.39.12.8.21,1.19l.38,1.63Z"/><path class="cls-2" d="M302.49,271.14a1.51,1.51,0,0,0-1.66,1.52,1.67,1.67,0,0,0,3.32,0A1.51,1.51,0,0,0,302.49,271.14Z"/><rect class="cls-2" x="300.98" y="274.67" width="3.01" height="6.53"/><path class="cls-2" d="M307.89,275.54h-.07l.07-.87h-3v6.53h3v-2.51c0-.81.39-1.3,1.18-1.3a1.6,1.6,0,0,1,.92.36v-3.23A2,2,0,0,0,307.89,275.54Z"/><path class="cls-2" d="M318.2,274.77a2.79,2.79,0,0,1,1.88.93l-.09-3.53a6.28,6.28,0,0,0-2.15-.38,4.7,4.7,0,0,0-4.6,4.87,4.54,4.54,0,0,0,4.47,4.7A6.69,6.69,0,0,0,320,281l.09-3.47a2.48,2.48,0,0,1-1.83.86,1.81,1.81,0,0,1-1.79-1.81A1.77,1.77,0,0,1,318.2,274.77Z"/><path class="cls-2" d="M324.19,274.52a3.44,3.44,0,0,0-3.76,3.5c0,2.17,1.82,3.34,3.76,3.34S328,280.19,328,278A3.44,3.44,0,0,0,324.19,274.52Zm0,4.36a.86.86,0,0,1-.84-.91.85.85,0,1,1,1.68,0A.86.86,0,0,1,324.19,278.88Z"/><path class="cls-2" d="M333.38,274.52a2.38,2.38,0,0,0-2,1.19h-.07l.11-1h-2.94v6.52h3V278c0-.38,0-.92.51-.92s.51.54.51.92v3.18h3v-4C335.52,275.73,334.91,274.52,333.38,274.52Z"/><path class="cls-2" d="M340.44,274l.14,1.56h-.11a2.39,2.39,0,0,0-1.86-1c-1.75,0-2.58,1.84-2.58,3.47s.89,3.37,2.57,3.37a2.58,2.58,0,0,0,2-1.12h.07l-.06,1h2.83v-9.95h-3Zm-.68,4.89c-.5,0-.76-.44-.76-.94s.26-.93.76-.93a.86.86,0,0,1,.78.91C340.54,278.35,340.23,278.87,339.76,278.87Z"/><rect class="cls-2" x="344.36" y="274.67" width="3.01" height="6.53"/><path class="cls-2" d="M345.86,271.14a1.51,1.51,0,0,0-1.65,1.52,1.66,1.66,0,0,0,3.31,0A1.51,1.51,0,0,0,345.86,271.14Z"/><polygon class="cls-2" points="351.69 272.58 348.65 272.58 348.65 274.77 347.92 274.72 347.92 277.21 348.65 277.14 348.65 281.2 351.69 281.2 351.69 277.16 352.7 277.22 352.7 274.72 351.69 274.77 351.69 272.58"/><rect class="cls-2" x="353.05" y="274.67" width="3.01" height="6.53"/><path class="cls-2" d="M354.56,271.14a1.51,1.51,0,0,0-1.66,1.52,1.67,1.67,0,0,0,3.32,0A1.51,1.51,0,0,0,354.56,271.14Z"/><path class="cls-2" d="M360.54,274.52a3.44,3.44,0,0,0-3.76,3.5c0,2.17,1.82,3.34,3.76,3.34s3.76-1.17,3.76-3.34A3.44,3.44,0,0,0,360.54,274.52Zm0,4.36a.86.86,0,0,1-.84-.91.85.85,0,1,1,1.68,0A.87.87,0,0,1,360.54,278.88Z"/><path class="cls-2" d="M369.72,274.52a2.39,2.39,0,0,0-2,1.19h-.07l.12-1h-2.94v6.52h3V278c0-.38,0-.92.5-.92s.52.54.52.92v3.18h3v-4C371.87,275.73,371.26,274.52,369.72,274.52Z"/><path class="cls-2" d="M374.27,271.14a1.51,1.51,0,0,0-1.65,1.52,1.66,1.66,0,0,0,3.31,0A1.51,1.51,0,0,0,374.27,271.14Z"/><rect class="cls-2" x="372.77" y="274.67" width="3.01" height="6.53"/><path class="cls-2" d="M381.57,274.52a2.39,2.39,0,0,0-2,1.19h-.07l.12-1h-2.94v6.52h3V278c0-.38,0-.92.5-.92s.52.54.52.92v3.18h3v-4C383.72,275.73,383.11,274.52,381.57,274.52Z"/><path class="cls-2" d="M388.77,275.6h-.08a2,2,0,0,0-1.8-1.08c-1.72,0-2.67,1.78-2.67,3.41s1,3.43,2.66,3.43a2,2,0,0,0,1.81-1.08h.08l-.06.66a1.39,1.39,0,0,1-1.37,1.44,3.4,3.4,0,0,1-2.17-.8l-.66,2.2.3.11a7.15,7.15,0,0,0,2.66.51c2.16,0,4.14-1,4.14-3.57v-6.16h-2.92Zm-.73,3.27a.84.84,0,0,1-.85-.92A.88.88,0,0,1,388,277a.86.86,0,0,1,.78,1C388.8,278.45,388.55,278.87,388,278.87Z"/><path class="cls-2" d="M406.55,278.11l-1.67-2a6.64,6.64,0,0,1-1.35,1.4l-.79-.85a2.47,2.47,0,0,0,1.71-2.31c0-1.73-1.81-2.57-3.22-2.57s-3.24.76-3.24,2.6a2.33,2.33,0,0,0,.86,1.73,2.4,2.4,0,0,0-2.21,2.31c0,2.1,1.79,2.93,3.53,2.93a4.57,4.57,0,0,0,2.78-.85l.58.7h3.68l-2-2Zm-6.12.94a.72.72,0,0,1-.8-.71c0-.34.28-.54.53-.71l1.11,1.17A2,2,0,0,1,400.43,279.05Zm.87-3.92a1,1,0,0,1-.43-.72.57.57,0,0,1,.56-.6.54.54,0,0,1,.48.54C401.91,274.69,401.57,275,401.3,275.13Z"/><polygon class="cls-2" points="417.09 275.06 415.14 275.06 415.14 271.94 412.06 271.94 412.06 281.2 415.14 281.2 415.14 277.98 417.09 277.98 417.09 281.2 420.18 281.2 420.18 271.94 417.09 271.94 417.09 275.06"/><path class="cls-2" d="M424.38,274.52a3.4,3.4,0,0,0-3.56,3.51c0,2.27,1.79,3.33,3.74,3.33a3.46,3.46,0,0,0,3.49-2.3h-2.93a.63.63,0,0,1-.61.54c-.63,0-.71-.6-.71-1.14h4.38A3.58,3.58,0,0,0,424.38,274.52Zm-.58,2.61c0-.46.22-.87.68-.87a.81.81,0,0,1,.73.87Z"/><path class="cls-2" d="M433.06,275.44H433a2.09,2.09,0,0,0-1.82-.92c-1.75,0-2.7,1.8-2.7,3.45s.94,3.39,2.62,3.39a2.36,2.36,0,0,0,1.9-1h.07l-.1.85h3v-6.53h-3Zm-.81,3.43c-.55,0-.78-.44-.78-1a.83.83,0,0,1,.78-.91.82.82,0,0,1,.81.88C433.06,278.39,432.82,278.87,432.25,278.87Z"/><polygon class="cls-2" points="440.05 272.58 437.01 272.58 437.01 274.77 436.28 274.72 436.28 277.21 437.01 277.14 437.01 281.2 440.05 281.2 440.05 277.16 441.06 277.22 441.06 274.72 440.05 274.77 440.05 272.58"/><rect class="cls-2" x="441.41" y="274.67" width="3.01" height="6.53"/><path class="cls-2" d="M442.92,271.14a1.51,1.51,0,0,0-1.66,1.52,1.67,1.67,0,0,0,3.32,0A1.51,1.51,0,0,0,442.92,271.14Z"/><path class="cls-2" d="M450.22,274.52a2.38,2.38,0,0,0-2,1.19h-.07l.11-1h-2.94v6.52h3V278c0-.38,0-.92.51-.92s.51.54.51.92v3.18h3v-4C452.36,275.73,451.75,274.52,450.22,274.52Z"/><path class="cls-2" d="M457.34,274.67l.08.93h-.08a2,2,0,0,0-1.81-1.08c-1.71,0-2.67,1.78-2.67,3.41s1,3.43,2.66,3.43a2,2,0,0,0,1.82-1.08h.08l-.06.66a1.41,1.41,0,0,1-1.37,1.44,3.36,3.36,0,0,1-2.17-.8l-.67,2.2.31.11a7.07,7.07,0,0,0,2.66.51c2.15,0,4.13-1,4.13-3.57v-6.16Zm-.65,4.2a.84.84,0,0,1-.85-.92.87.87,0,0,1,.82-.95.86.86,0,0,1,.78,1C457.44,278.45,457.2,278.87,456.69,278.87Z"/></svg>