<svg id="daikin" xmlns="http://www.w3.org/2000/svg" viewBox="0 0 500 500"><defs><style>.cls-1,.cls-2{fill:#153e69;}.cls-1{fill-rule:evenodd;}</style></defs><polygon class="cls-1" points="58.82 194.76 98.78 194.76 58.82 231.75 58.82 194.76"/><path class="cls-1" d="M184.32,248.86c.05-.44,1.26-1.64,1.61-2a12,12,0,0,0,1.53-2.11,24.35,24.35,0,0,0,1.5-2.15c.35-.65.83-1.7,1.13-2.35a36.55,36.55,0,0,0,2.51-11.89v-.66l-.53-5.79c-.49-.21-.79-1.42-1-2s-1-1.67-1-1.84v-.5c-.51-.18-1-1.19-1.57-1.74s-1.08-1.06-1.66-1.65a22.75,22.75,0,0,0-3.69-2.76c-1.6-.9-7.52-3.12-9.8-3.12H140.12c-.58,2.48-1.1,4.67-1.69,7.25-.32,1.41-1.62,5.93-1.62,7.15v.5h-.33v1.32h-.33a46.59,46.59,0,0,1-1.42,7.19c-.4,1.47-1.56,5.45-1.56,6.89v.49c-.67.27-1,3.09-1,4h-.33v.67c0,2-1.66,5.33-1.66,7.61l-.36.48-.84,4.64H167.1a17.71,17.71,0,0,0,5.36-.93c1.55-.52,3.12-1.47,4.28-1.85a21.69,21.69,0,0,0,4-2.27c.23-.13,1.82-1.17,1.89-1.25.48-.52.74-1.21,1.67-1.31Zm-32-4.47,6.21-24.81,6.22,0a5.6,5.6,0,0,1,2.15,1c.65.5,1.57.56,1.65,1.33h.5c1.36,0,3.81,4.17,3.81,5.79v4.63a12.87,12.87,0,0,1-1.46,4.51,3.23,3.23,0,0,1-.62.87c-.39.47-.17.45-.45,1a17.58,17.58,0,0,1-1.28,1.7c-1.18,1.48-5.28,4-7.94,4Z"/><path class="cls-1" d="M436.76,225.35c0-1.49,1.52-7,2-8.46s.51-2.83.92-4.21a16.58,16.58,0,0,0,1.09-4.05h-14.4l-6.9,22.81-.22,0-.66,3-.63-1.22-8.57-24.61-21.92,0V210c-.6.24-1.22,4.15-1.47,5-.5,1.66-.81,3.29-1.25,5-.84,3.38-1.82,6.84-2.57,10.17a105,105,0,0,1-2.54,10.21c-.37,1-2.44,9.27-2.44,10.14v.5c-.56.23-.83,2.29-1,2.85-.18.81-.93,2.61,0,2.61h13.41a2.55,2.55,0,0,0,.83-.16v-.5c0-.19,1.52-5.9,1.7-6.41a43.66,43.66,0,0,0,1.61-6.34h.33v-.82c0-.73.33-.6.33-1.33v-.49h.33l.88-3.68c.11-.87.14-1.86.78-2.12l.46-3a7.59,7.59,0,0,1,1.19,3v.5c.59.24,1.38,3.57,1.8,4.33.08.16,1.51,4.43,1.51,4.44v.5c.74.3,1,2.23,1.26,3.05a28.43,28.43,0,0,1,1.06,3.07v.5c.63.25,2,4.74,2.32,5.63h22.84l7.69-30.77.26,0Z"/><path class="cls-1" d="M348.15,208.26l-.12-.12H326.84c-.42,0-6.66,6.37-7.59,7.14s-7.2,6.46-7.3,7.42h-.67v-.82h.33v-.5c0-1.39,1.66-5.34,1.66-6.79v-.66h.33v-.66c0-.94.33-.91.33-2h.33l.55-3H294.73c-.71,0-1.09,3.28-1.35,4.12-.4,1.36-.67,2.74-1.07,4.22-.76,2.82-1.25,5.8-2.07,8.53s-1.25,5.85-2.07,8.69c-.36,1.28-2.05,7.64-2.05,8.54v.66h-.33v.5c0,.72-.33.6-.33,1.33v.82h-.33V247c-.54.22-.66,1.41-.66,2.15v.5h-.33V251h-.34v1.32h-.33V253c0,1.12-.66,2.06-.66,3.47h19.7a2.55,2.55,0,0,0,.83-.16v-.5c0-1.9,1.32-4.73,1.32-6.95v-.5H305v-.83c0-.72.33-.6.33-1.32v-.5h.34v-.49l.48-3.15h.51l4.46,6.17-.16.12c.65.07,1.34,1.4,1.72,1.92a15.08,15.08,0,0,0,1.61,2c.46.47,2.92,3.62,3,4.15h22.84c-1-1.93-7.92-11-7.94-12.08-.93-.08-1-1-1.43-1.72a18.07,18.07,0,0,1-1.22-1.76v-.49c-1-.09-2.39-3.38-3.14-4.14-.42-.43-2.82-3.77-2.82-4.31s7.21-6.58,7.29-7.45c.76-.06,3-2.58,3.7-3.24,1-1,2.78-2.46,3.58-3.38.34-.39,1.32-1.28,1.77-1.7.75-.67,1-1.12,1.72-1.76s2.92-3.14,3.67-3.28Z"/><path class="cls-1" d="M207,247.53a2.91,2.91,0,0,1,.83-.16h16.71l1.78,8.91,21.07,0a70.37,70.37,0,0,0-1.23-7.22c-.48-1.87-.71-5.64-1.2-7.07s-2.54-12.84-2.54-14.19v-.66h-.33v-.66c0-2-1.32-5.7-1.32-7.78v-.83h-.33v-.49L239,208.3H214.61c-.38,1.07-4.3,7.7-4.3,7.78v.5l-2.13,3.58-.73,1.7-.45,0v.49c0,.09-3.22,6-3.55,6.55s-1.52,2.68-1.75,3.22-.54.88-.88,1.6-.38,1.3-1.11,1.38v.5c0,.45-5,9.14-5.57,10.48a48.35,48.35,0,0,1-2.76,5.18,36.88,36.88,0,0,0-2.76,5.19h12.91a2.55,2.55,0,0,0,.83-.16c.09-1,2.65-4.52,2.65-4.8V251l.17.11,1.71-2.82.11-.77Zm6.85-11.48,6.88-11c.31.69.5.66.5,1.27v.82h.33v.5c0,2,1.66,6.33,1.66,8.11v.54l-7.45-.21Z"/><path class="cls-1" d="M378.54,208.31H357.63c-.54,0-.12.15-.83.33l-.3,1.38-.19,0v.66c0,.77-.42,3.08-1,3.31v.66a50.12,50.12,0,0,1-1.55,6.39,58,58,0,0,0-1.42,6.52L352,228l-.35,2.33-.31.48L350.13,236c-.11,2.26-2.25,8.3-2.73,10.76a54.54,54.54,0,0,1-1.21,5.41c-.24.8-.39,1.82-.66,2.65s-1.12,1.31-1.31,2c.71.19.29.33.83.33.3,0,.27-.24.33-.49h21.19v-.33h.33v-.67c0-1.13,1-3.21,1-4.13V251h.34v-.5c0-.74.12-1.93.66-2.15v-.83c0-.75,1-3.46,1-4v-.5h.33v-.82c0-.91,1.88-7.52,2.25-9,.52-2.07,2.06-7.27,2.06-9.2h.33l2.16-9.47Z"/><path class="cls-1" d="M284.47,210.79a23.24,23.24,0,0,1,.49-2.65H263.28v.66c0,.9-1.33,3.63-1.33,5.79h-.33v.5c0,.27-3.13,13.19-3.31,13.57S255,242.12,255,242.24v.82h-.33v.5c0,.61-1,3.2-1,4v.83h-.33v.5c0,.47-1.76,7.14-2,7.61h21.85l-.08-.17,2.19-8.89a8.75,8.75,0,0,0,.54-2.35v-.66h.33v-1.33h.33v-.66c0-.93.33-.9.33-2h.33c0-1.09.33-1.06.33-2v-.66h.34v-.67c0-.93.33-.9.33-2h.33v-1.33h.33v-1.32h.33v-.66A29.37,29.37,0,0,1,280,228c.19-.74.42-3.22,1.13-3.51v-.66a62.62,62.62,0,0,1,1.49-6.29c.33-1.33,1.49-5,1.49-6.29h.33Z"/><polygon class="cls-1" points="99.31 194.76 139.65 194.76 58.82 270.25 58.82 232.54 99.31 194.76"/><path class="cls-2" d="M65.36,297h5.25l-1.93-4.37c-.11-.28-.23-.6-.35-1s-.24-.77-.36-1.22c-.11.43-.21.82-.33,1.18s-.23.69-.35,1L65.36,297Zm8.47,7.54-2.14-4.94H64.23L62,304.5H58.82l9.12-19.94,9.12,19.94Z"/><rect class="cls-2" x="88.04" y="285.32" width="3.06" height="19.17"/><path class="cls-2" d="M107.72,293.49h.55a6.19,6.19,0,0,0,3.24-.57,2.37,2.37,0,0,0,.79-2,2.65,2.65,0,0,0-.85-2.24,5.59,5.59,0,0,0-3.18-.64h-.55v5.49Zm-.19,2.43v8.58h-2.87V285.32h4.27a13.59,13.59,0,0,1,2.92.25,4.53,4.53,0,0,1,1.77.83,4.59,4.59,0,0,1,1.35,1.79,6,6,0,0,1,.48,2.41,5.44,5.44,0,0,1-1.1,3.61,4.82,4.82,0,0,1-3.23,1.57l6.49,8.72h-3.46l-6.28-8.58Z"/><path class="cls-2" d="M160.81,290a9.29,9.29,0,0,0-2.74-1.7,8.5,8.5,0,0,0-3-.56,6.66,6.66,0,0,0-5,2,8,8,0,0,0-.05,10.35,6.25,6.25,0,0,0,4.76,2,8.65,8.65,0,0,0,3.19-.6,10.22,10.22,0,0,0,2.9-1.82v3.52a9,9,0,0,1-2.69,1.35,10.68,10.68,0,0,1-3.16.45,10.89,10.89,0,0,1-4-.72,9.29,9.29,0,0,1-3.22-2.13,9.4,9.4,0,0,1-2.12-3.24,10.73,10.73,0,0,1-.74-4,10.6,10.6,0,0,1,.74-4,9.77,9.77,0,0,1,2.14-3.26,9.4,9.4,0,0,1,3.23-2.14,10.28,10.28,0,0,1,3.92-.73,10.41,10.41,0,0,1,3.17.49,11.21,11.21,0,0,1,2.92,1.49Z"/><path class="cls-2" d="M189.89,295a7.32,7.32,0,0,0-.52-2.76,7,7,0,0,0-1.5-2.33,6.59,6.59,0,0,0-4.85-2.1,6.81,6.81,0,0,0-2.65.53,6.71,6.71,0,0,0-2.23,1.57,6.9,6.9,0,0,0-1.49,2.31,7.42,7.42,0,0,0-.52,2.78,7.27,7.27,0,0,0,.52,2.75,7.14,7.14,0,0,0,1.49,2.32,6.74,6.74,0,0,0,7.5,1.56,7.12,7.12,0,0,0,3.73-3.89,7.26,7.26,0,0,0,.52-2.74Zm3.2,0a10,10,0,0,1-.75,3.86,9.9,9.9,0,0,1-2.2,3.25,10.48,10.48,0,0,1-3.28,2.19,10.12,10.12,0,0,1-11-2.19,9.6,9.6,0,0,1-2.18-3.24,10.39,10.39,0,0,1,0-7.75,9.78,9.78,0,0,1,2.18-3.26,10.23,10.23,0,0,1,11-2.17,9.84,9.84,0,0,1,3.27,2.17,10.23,10.23,0,0,1,2.2,3.28A10.06,10.06,0,0,1,193.09,295Z"/><path class="cls-2" d="M205.75,304.5V284.56l12,11.72c.33.34.66.69,1,1.06s.69.8,1.06,1.28v-13.3h2.83v19.92l-12.21-11.93a13.17,13.17,0,0,1-.95-1,13.42,13.42,0,0,1-.87-1.12V304.5Z"/><path class="cls-2" d="M239.14,301.68h2.57a12.7,12.7,0,0,0,3.19-.29,4.57,4.57,0,0,0,1.85-1,5.83,5.83,0,0,0,1.6-2.31,9.84,9.84,0,0,0,0-6.43,5.83,5.83,0,0,0-1.6-2.31,4.74,4.74,0,0,0-1.91-1,15.35,15.35,0,0,0-3.49-.29h-2.21v13.57Zm-3.06,2.82V285.32h4.13a26.94,26.94,0,0,1,5.67.41,7.72,7.72,0,0,1,2.88,1.39,8.07,8.07,0,0,1,2.48,3.26,11.59,11.59,0,0,1,.84,4.54,11.47,11.47,0,0,1-.84,4.53,8.17,8.17,0,0,1-2.48,3.25,7.76,7.76,0,0,1-2.82,1.39,21.43,21.43,0,0,1-4.91.41h-4.95Z"/><rect class="cls-2" x="264.79" y="285.32" width="3.06" height="19.17"/><polygon class="cls-2" points="287.5 287.97 287.5 304.5 284.44 304.5 284.44 287.97 279.43 287.97 279.43 285.32 292.49 285.32 292.49 287.97 287.5 287.97"/><rect class="cls-2" x="304.03" y="285.32" width="3.06" height="19.17"/><path class="cls-2" d="M336.78,295a7.52,7.52,0,0,0-.52-2.76,7.17,7.17,0,0,0-1.5-2.33,6.59,6.59,0,0,0-4.85-2.1,6.81,6.81,0,0,0-2.65.53,6.71,6.71,0,0,0-2.23,1.57,6.9,6.9,0,0,0-1.49,2.31A7.42,7.42,0,0,0,323,295a7.27,7.27,0,0,0,.52,2.75A7.14,7.14,0,0,0,325,300a6.74,6.74,0,0,0,7.5,1.56,7,7,0,0,0,2.23-1.56,7.27,7.27,0,0,0,1.5-2.33,7.46,7.46,0,0,0,.52-2.74Zm3.2,0a10,10,0,0,1-.76,3.86,9.72,9.72,0,0,1-2.19,3.25,10.48,10.48,0,0,1-3.28,2.19,10.12,10.12,0,0,1-11-2.19,9.6,9.6,0,0,1-2.18-3.24,10.39,10.39,0,0,1,0-7.75,9.78,9.78,0,0,1,2.18-3.26,10.23,10.23,0,0,1,11-2.17,9.94,9.94,0,0,1,3.27,2.17,10.05,10.05,0,0,1,3,7.14Z"/><path class="cls-2" d="M352.64,304.5V284.56l12,11.72c.33.34.66.69,1,1.06s.69.8,1,1.28v-13.3h2.84v19.92l-12.22-11.93c-.32-.32-.64-.66-.94-1a13.42,13.42,0,0,1-.87-1.12V304.5Z"/><polygon class="cls-2" points="382.96 304.5 382.96 285.32 393.49 285.32 393.49 287.97 386.03 287.97 386.03 292.77 393.49 292.77 393.49 295.51 386.03 295.51 386.03 301.71 393.49 301.71 393.49 304.5 382.96 304.5"/><path class="cls-2" d="M409.21,293.49h.55a6.14,6.14,0,0,0,3.23-.57,2.37,2.37,0,0,0,.8-2,2.65,2.65,0,0,0-.85-2.24,5.62,5.62,0,0,0-3.18-.64h-.55v5.49Zm-.19,2.43v8.58h-2.87V285.32h4.27a13.59,13.59,0,0,1,2.92.25,4.53,4.53,0,0,1,1.77.83,4.59,4.59,0,0,1,1.35,1.79,6,6,0,0,1,.47,2.41,5.44,5.44,0,0,1-1.09,3.61,4.82,4.82,0,0,1-3.23,1.57l6.49,8.72h-3.47l-6.27-8.58Z"/><path class="cls-2" d="M429,300.66l2.44-1.15a3.47,3.47,0,0,0,1.28,1.95,3.93,3.93,0,0,0,2.37.68,3,3,0,0,0,2.17-.78,2.73,2.73,0,0,0,.8-2.06c0-1.13-.91-2.14-2.75-3l-.6-.28a13.17,13.17,0,0,1-4.14-2.8,4.65,4.65,0,0,1-1-3.06,5,5,0,0,1,1.56-3.8,5.77,5.77,0,0,1,4.1-1.45,6.78,6.78,0,0,1,3.49.82,4.25,4.25,0,0,1,1.94,2.35l-2.39,1.26A3.88,3.88,0,0,0,437,288a2.8,2.8,0,0,0-1.55-.42,2.83,2.83,0,0,0-2,.65,2.24,2.24,0,0,0-.73,1.76q0,1.72,3.19,3.21l.38.19a11.35,11.35,0,0,1,3.84,2.56,4.7,4.7,0,0,1,1,3.12,5.7,5.7,0,0,1-1.68,4.33,6.35,6.35,0,0,1-4.56,1.61,6.55,6.55,0,0,1-3.95-1.13A5.29,5.29,0,0,1,429,300.66Z"/></svg>