<svg id="Layer_11" data-name="Layer 11" xmlns="http://www.w3.org/2000/svg" viewBox="0 0 500 500"><defs><style>.cls-1{fill:#153e69;fill-rule:evenodd;}.cls-2{fill:none;}</style></defs><path class="cls-1" d="M346.76,214.64v24.79h8.52V189.94h-8.52ZM176.51,218.5H188.9v9.26a19.44,19.44,0,0,1-11.7,3.75c-9.91,0-16.49-7.49-16.49-17.67,0-9.63,6.79-17.61,15.72-17.61,6.17,0,9.84,2.05,13.58,5.3l5.4-6.58c-5-4.31-10.19-6.72-18.63-6.72-14.62,0-25,11.75-25,25.61,0,14.56,10,25.59,25.14,25.59a30.61,30.61,0,0,0,20.24-7.71V210.93H176.51Zm258.36,13.15V218.36H462.3v-7.78H434.87V197.71H462.3v-7.77H426.35v49.49h36v-7.78ZM28.5,239.43H37V219.28H64.58v-7.91H37V197.85H64.6v-7.91H28.5Zm75.92-18.74c6.79-2,11.57-6.85,11.57-15a15.26,15.26,0,0,0-4-10.82c-3.12-3.11-7.9-4.94-14-4.94H76.37v49.49h8.51V222.18H95.42l12,17.25h10Zm-19.54-6.22V197.85H97.29c6.3,0,10,2.9,10,8.21,0,5.16-3.88,8.41-10,8.41Zm45.15-.65v25.61h8.52V189.94H130Zm82.37.82v24.79h8.53V189.94H212.4Zm43.88-24.7h-18.1v49.49h18.1c15.23,0,25.77-10.82,25.77-24.75s-10.54-24.74-25.77-24.74m16.82,24.88c0,9.69-6.65,16.68-16.82,16.68h-9.57V197.85h9.57c10.17,0,16.82,7.14,16.82,16.83Zm127.52,5.87c6.79-2,11.57-6.85,11.57-15a15.29,15.29,0,0,0-4-10.82c-3.12-3.11-7.91-4.94-14-4.94H372.57v49.49h8.52V222.18h10.53l12.05,17.25h10.05Zm-19.53-6.22V197.85h12.4c6.3,0,10.05,2.9,10.05,8.21,0,5.16-3.89,8.41-10,8.41Zm83,21.27a3.77,3.77,0,0,1,3.73-3.81,3.73,3.73,0,0,1,3.71,3.77,3.72,3.72,0,1,1-7.44,0m7,0a3.32,3.32,0,1,0-3.33,3.42,3.32,3.32,0,0,0,3.33-3.42m-4.82-2.09H468a1.62,1.62,0,0,1,1.18.43,1.14,1.14,0,0,1,.32.83,1.18,1.18,0,0,1-.91,1.21l1.05,1.5h-.88l-.95-1.37H467v1.37h-.74Zm1.71,1.94c.48,0,.77-.24.77-.62s-.29-.64-.77-.64h-1v1.26Zm-182.51,3.86h51.33L311.15,188Zm-257,50.29H37c5,0,8.15,2.91,8.15,7.32v.06c0,4.91-3.86,7.47-8.58,7.47H32.28v7H28.51Zm8.15,11.38c2.85,0,4.62-1.62,4.62-3.91v-.06c0-2.56-1.8-3.91-4.62-3.91H32.28v7.88ZM66,289.72h9.56a8.54,8.54,0,0,1,6.19,2.19,6.7,6.7,0,0,1,1.77,4.72v.06a6.55,6.55,0,0,1-5.11,6.64l5.79,8.28H79.79L74.52,304H69.8v7.63H66Zm9.28,10.85c2.7,0,4.41-1.43,4.41-3.66v-.06c0-2.35-1.65-3.63-4.44-3.63H69.8v7.35Zm29,.16v-.07a11.22,11.22,0,1,1,22.43-.06v.06a11.22,11.22,0,1,1-22.43.07m18.48,0v-.07c0-4.25-3-7.78-7.29-7.78s-7.23,3.47-7.23,7.72v.06c0,4.26,3,7.79,7.29,7.79s7.23-3.47,7.23-7.72m25.57-11h16v3.5H152.1v6h10.81v3.51H152.1v8.91h-3.77Zm37.15,0h15.9v3.44H189.25v5.69H200v3.44H189.25v5.88h12.29v3.44H185.48Zm36.15,18.7,2.26-2.75a9.77,9.77,0,0,0,6.78,2.84c2.32,0,3.79-1.09,3.79-2.75v-.06c0-1.56-.85-2.41-4.84-3.35-4.56-1.12-7.14-2.5-7.14-6.53v-.07c0-3.75,3.07-6.35,7.33-6.35a11.72,11.72,0,0,1,7.78,2.76l-2,2.91a9.64,9.64,0,0,0-5.83-2.25c-2.2,0-3.49,1.15-3.49,2.59v.06c0,1.69,1,2.44,5.09,3.44,4.53,1.13,6.89,2.79,6.89,6.42v.06c0,4.1-3.15,6.53-7.66,6.53a13,13,0,0,1-8.94-3.5m36.35,0,2.27-2.75a9.74,9.74,0,0,0,6.77,2.84c2.33,0,3.8-1.09,3.8-2.75v-.06c0-1.56-.86-2.41-4.84-3.35-4.56-1.12-7.14-2.5-7.14-6.53v-.07c0-3.75,3.06-6.35,7.33-6.35a11.72,11.72,0,0,1,7.78,2.76l-2,2.91a9.62,9.62,0,0,0-5.82-2.25c-2.2,0-3.49,1.15-3.49,2.59v.06c0,1.69,1,2.44,5.08,3.44,4.54,1.13,6.9,2.79,6.9,6.42v.06c0,4.1-3.16,6.53-7.66,6.53a13.05,13.05,0,0,1-8.95-3.5m38.32-18.7h3.77v21.89H296.3Zm25.61,11v-.07a11.21,11.21,0,1,1,22.42-.06v.06a11.21,11.21,0,1,1-22.42.07m18.47,0v-.07c0-4.25-3-7.78-7.29-7.78s-7.23,3.47-7.23,7.72v.06c0,4.26,3,7.79,7.29,7.79s7.23-3.47,7.23-7.72m25.57-11h3.49l11.49,15.13V289.72h3.71v21.89h-3.15L369.66,296v15.58H366Zm48.86-.16h3.49l9.44,22.05h-4l-2.17-5.28H411.44l-2.21,5.28h-3.86Zm5.39,13.36-3.71-8.76-3.68,8.76Zm28.27-13.2h3.77v18.39h11.27v3.5h-15Z"/><rect class="cls-2" x="28.51" y="188.01" width="442.99" height="123.98"/></svg>