<svg id="goodman" xmlns="http://www.w3.org/2000/svg" viewBox="0 0 500 500"><defs><style>.cls-1{fill:#153f69;stroke:#153f69;}.cls-1,.cls-2{stroke-miterlimit:10;}.cls-2{fill:none;stroke:#faeccf;}.cls-3{fill:#fff;}</style></defs><path class="cls-1" d="M66.83,300.43v-.28a22.48,22.48,0,0,1-15.74-6.3l-.21.19.21-.19a21,21,0,0,1-6.52-15.21h0V219.36h0a21.11,21.11,0,0,1,6.52-15.21,22.58,22.58,0,0,1,15.74-6.31H431.17a22.51,22.51,0,0,1,15.74,6.31,21,21,0,0,1,6.51,15.21v59.28a21,21,0,0,1-6.51,15.21,22.5,22.5,0,0,1-15.74,6.3H66.83v.28M52.16,205.18a19.6,19.6,0,0,0-6.08,14.18v59.28a19.56,19.56,0,0,0,6.08,14.17,21,21,0,0,0,14.67,5.88H431.17c11.43,0,20.74-9,20.74-20.05V219.36a19.6,19.6,0,0,0-6.08-14.18,20.92,20.92,0,0,0-14.66-5.86H66.83a20.94,20.94,0,0,0-14.67,5.86"/><path class="cls-2" d="M66.83,300.7v-.27H431.17A22.76,22.76,0,0,0,447.1,294a21.22,21.22,0,0,0,6.61-15.4V219.36A21.26,21.26,0,0,0,447.1,204a22.81,22.81,0,0,0-15.93-6.39H66.83c-12.43,0-22.54,9.78-22.54,21.8H44c0-12.17,10.23-22.06,22.83-22.06H431.17a23,23,0,0,1,16.13,6.46,21.53,21.53,0,0,1,6.7,15.6v59.28a21.53,21.53,0,0,1-6.7,15.6,23,23,0,0,1-16.13,6.46H66.83m-16.15-6.46.2-.2a22.81,22.81,0,0,0,15.95,6.39v.27a23.1,23.1,0,0,1-16.15-6.46M44,278.64h.29A21.28,21.28,0,0,0,50.88,294l-.2.2A21.51,21.51,0,0,1,44,278.64V219.36h.29v59.28H44"/><path class="cls-1" d="M66.83,300.43v-.28H431.17a22.5,22.5,0,0,0,15.74-6.3,21,21,0,0,0,6.51-15.21V219.36a21,21,0,0,0-6.51-15.21,22.51,22.51,0,0,0-15.74-6.31v0H66.83v0a22.58,22.58,0,0,0-15.74,6.31,21.11,21.11,0,0,0-6.52,15.21h-.28c0-12,10.11-21.8,22.54-21.8H431.17A22.81,22.81,0,0,1,447.1,204a21.26,21.26,0,0,1,6.61,15.41v59.28A21.22,21.22,0,0,1,447.1,294a22.76,22.76,0,0,1-15.93,6.39v0H66.83m380.08-96.28.19-.2-.19.2M66.83,300.43A22.81,22.81,0,0,1,50.88,294l.21-.19-.21.19.21-.19a22.48,22.48,0,0,0,15.74,6.3v.28M50.88,294a21.28,21.28,0,0,1-6.59-15.4h.28a21,21,0,0,0,6.52,15.21l-.21.19m-6.59-15.4V219.36h.28v59.28h-.28"/><path class="cls-1" d="M66.83,293.45v-.28a14.4,14.4,0,0,1-10-4,13.44,13.44,0,0,1-4.13-9.67h0V220.22h0a13.44,13.44,0,0,1,4.13-9.67,14.4,14.4,0,0,1,10-4H431.18a14.36,14.36,0,0,1,10,4,13.42,13.42,0,0,1,4.15,9.67V279.5a13.42,13.42,0,0,1-4.15,9.67,14.36,14.36,0,0,1-10,4H66.83v.28m274.68-41c0,11.09,7.43,20.71,20.12,20.71,4.68,0,9.66-1.75,11.68-5.51h.15v4.18h12V233.19h-12v4.11h-.15c-1.44-2.37-5.12-5.43-11.68-5.43-10.68,0-20.12,7.94-20.12,20.62m-117.38-.06c0,11.64,7.93,20.69,20,20.69,8.08,0,11-3.83,12-5.43h.15v4.18h11.39V220.29h-12v16.17c-1.3-1.25-4.69-4.59-11.75-4.59-10.16,0-19.83,7.45-19.83,20.56m-48,.06c0,9.49,7,20.56,21.56,20.56s21.56-11.07,21.56-20.56-7-20.56-21.56-20.56S176.1,243,176.1,252.49m-48,0c0,9.49,7,20.56,21.55,20.56s21.56-11.07,21.56-20.56-7-20.56-21.56-20.56S128.07,243,128.07,252.49m-61.53-6.62c0,14.85,12.19,27.05,28.34,27.05,14.78,0,28.48-10.39,28.48-27.67,0-1.05,0-1.82-.07-2.72H91.63v10.52h15.94c-1.44,5-6,8.3-12.76,8.3s-14.64-4.67-14.64-15.48c0-10.17,7.86-15,14.56-15a13.14,13.14,0,0,1,11.76,6.7h15.29c-3-10-13.93-18.26-26.68-18.26-15.72,0-28.56,11.15-28.56,26.55m351.28,4.88v21.12h12V247.69c0-7.6-2.45-10.67-4.62-12.48a17.53,17.53,0,0,0-10.23-3.34c-7.15,0-9.67,3.54-10.9,5.43h-.14v-4.11H392.72v38.68h12V250.82c0-2.36,0-8.09,6.85-8.09,6.28,0,6.28,5.3,6.28,8m-93.43.56v20.56h12V250.75c0-8.57-.58-11.15-4.33-15-3.24-3.28-7.72-3.9-10.53-3.9a14.6,14.6,0,0,0-12.69,6.9,12.57,12.57,0,0,0-11.54-6.9c-7.5,0-10.09,3.83-11,5.43h-.14v-4.11H274.92v38.68h12V251.31c0-2.3,0-8.58,6.77-8.58,6,0,6,6,6,8.09v21.05h12V250.75c0-2.17,0-8,6.64-8,6.13,0,6.13,5.44,6.13,8.58m99.83-24.12a5.79,5.79,0,0,0,5.9,5.69c3.53,0,5.87-2.21,5.87-5.69a5.89,5.89,0,0,0-11.77,0m-70.74,25.44c0-4.39,3-10,9.87-10a9.68,9.68,0,0,1,10.11,9.82c0,3.76-2.53,9.9-10,9.9a9.8,9.8,0,0,1-9.95-9.76m-117.38-.27c0-4.47,3.24-9.69,10.17-9.69a9.66,9.66,0,0,1,10.1,9.69,9.8,9.8,0,0,1-10.25,10,9.64,9.64,0,0,1-10-10m-48,.13a9.59,9.59,0,1,1,9.59,9.76,9.58,9.58,0,0,1-9.59-9.76m-48,0a9.6,9.6,0,1,1,9.59,9.76,9.59,9.59,0,0,1-9.59-9.76m285-25.3a5,5,0,1,1,5,4.94,5,5,0,0,1-5-4.94m7.83,3.31c-.16-.26-.19-.4-.25-1.61,0-.91-.18-1.26-1.09-1.52v0a1.5,1.5,0,0,0,1.24-1.58c0-1.77-1.95-1.77-2.37-1.77h-2.84v6.51h.86v-2.76h1.67c1.55,0,1.73.53,1.73,1.56,0,.82.08,1,.2,1.2h.85m-4.45-3.5v-2.25h1.84c.44,0,1.67,0,1.67,1.06s-1.38,1.19-1.83,1.19h-1.68"/><path class="cls-3" d="M424.22,226.26a5.89,5.89,0,0,1,11.77,0c0,3.48-2.34,5.69-5.87,5.69a5.8,5.8,0,0,1-5.9-5.69m.85,0a5,5,0,1,0,5-4.93,5,5,0,0,0-5,4.93m7,3.31c-.12-.2-.18-.39-.2-1.21,0-1-.18-1.55-1.73-1.55h-1.67v2.76h-.86v-6.52h2.84c.42,0,2.37,0,2.37,1.78a1.49,1.49,0,0,1-1.24,1.57v0c.91.26,1.05.6,1.09,1.52.06,1.21.09,1.34.25,1.61h-.85m-3.6-3.5h1.68c.45,0,1.83,0,1.83-1.2s-1.23-1.05-1.67-1.05h-1.84v2.25"/></svg>