<svg id="honeywell" xmlns="http://www.w3.org/2000/svg" viewBox="0 0 500 500"><defs><style>.cls-1{fill:#153e69;fill-rule:evenodd;}</style></defs><polygon class="cls-1" points="49.47 212.78 67.56 212.78 67.56 237.04 81.62 237.04 81.62 212.62 99.55 212.62 99.55 271.36 81.62 271.36 81.62 244.47 67.4 244.47 67.4 271.05 49.47 271.05 49.47 212.78 49.47 212.78"/><path class="cls-1" d="M134.13,236.93a21.66,21.66,0,0,1,1.06,7.08c.06,5.78.07,12.6-.06,14-.24,2.73-1.2,6.68-3.51,8.63s-5.15,1.14-6.91-1.5-2.37-5.15-2.25-12.64-.26-12.68,1.14-15.75,2.87-4.34,4.2-4.6c2.84-.56,5,1.34,6.33,4.76Zm-6-9.81a28.73,28.73,0,0,1,10.52,1.51c4.69,1.84,8.2,3.92,11.47,9.53s3.64,13.75,1.34,20.37a20.62,20.62,0,0,1-10,11.54c-3.1,1.67-8,2.54-12.72,2.54s-10.89-1.05-15-4.31-6.87-6.86-8.12-11.71-2-13.54,3.15-20.41a22,22,0,0,1,14.7-8.64,24.07,24.07,0,0,1,4.7-.42Z"/><path class="cls-1" d="M174.57,240.48V271.1H157.79V228.53h16.86v5.73a16.69,16.69,0,0,1,5.63-5,18.88,18.88,0,0,1,15.32-.59,11.46,11.46,0,0,1,7.12,10l0,32.41H186.19V241.47a6.56,6.56,0,0,0-1.35-4.47c-1-1.15-3.67-1.83-6-.61s-4.63,3.77-4.3,4.09Z"/><path class="cls-1" d="M210.43,238.66c3.34-6.72,11.86-12.08,22.35-11.55s16.51,4.36,20.21,11.4c3.17,6,2.71,13.91,2.66,13.91l-30.25-.08V261a7.74,7.74,0,0,0,1,2.65c.69.92,3.43,4.45,11.63,3.15,9.1-1.43,8.84-7.9,9-7.9l7.19,0a11.19,11.19,0,0,1-3.07,7.14A25.37,25.37,0,0,1,237,272.4c-5.93.61-14.32.78-21.08-4.85A22.1,22.1,0,0,1,209,257.39a26.36,26.36,0,0,1,1.46-18.73Zm14.95,8.09a59.09,59.09,0,0,1,.37-8.22,9.53,9.53,0,0,1,3.26-5.79,5.48,5.48,0,0,1,6.54.47,8.63,8.63,0,0,1,2.35,4,22.64,22.64,0,0,1,.68,5.66c0,2.39,0,3.74,0,3.84Z"/><path class="cls-1" d="M363.07,238.66c3.34-6.72,11.86-12.08,22.35-11.55s16.51,4.36,20.21,11.4c3.17,6,2.68,13.91,2.62,13.91l-30.2-.08V261a7.64,7.64,0,0,0,1,2.65c.68.92,3.43,4.45,11.63,3.15,9.09-1.44,8.85-7.94,9-7.94h7.19a11.13,11.13,0,0,1-3.07,7.14,25.37,25.37,0,0,1-14.21,6.38c-5.93.61-14.32.78-21.08-4.85a22,22,0,0,1-6.91-10.16,26.36,26.36,0,0,1,1.46-18.73ZM378,246.75a59.64,59.64,0,0,1,.38-8.22,9.53,9.53,0,0,1,3.26-5.79,5.48,5.48,0,0,1,6.54.47,8.63,8.63,0,0,1,2.35,4,22.64,22.64,0,0,1,.68,5.66c0,2.39,0,3.74,0,3.84Z"/><path class="cls-1" d="M254.19,228.55h18.28l7.81,20.23,8.34-20.23,23,.06L319,252.45l6.52-23.9h14.67l7.22,23.54,6.45-23.54h7.57l-11.72,42.59H336l-7.7-24.84-6.8,24.84H307.31L294.71,230,277,273.39s-2.54,7.1-5.68,9.88-6.56,4.86-12.25,3.85-7.92-4-8.34-7.45,1.36-7.16,5.39-7.93,6.62.77,7.57,2.72a7.13,7.13,0,0,1,.59,5.38,6.06,6.06,0,0,1-1.42,2,4.61,4.61,0,0,0,4.32-1.59,17.56,17.56,0,0,0,3.61-6.51,7.34,7.34,0,0,0,.36-1.66l-17-43.54Z"/><polygon class="cls-1" points="413.28 212.65 429.39 212.65 429.39 271.17 413.28 271.17 413.28 212.65 413.28 212.65"/><polygon class="cls-1" points="434.42 212.71 450.53 212.71 450.53 271.24 434.42 271.24 434.42 212.71 434.42 212.71"/></svg>