<svg id="lennox" xmlns="http://www.w3.org/2000/svg" viewBox="0 0 500 500"><defs><style>.cls-1{fill:#153e69;}</style></defs><path class="cls-1" d="M310.2,183.79c-54.13,0-131.62,5-184.53,17C175,195.1,232,192.62,275,192.62c94.18,0,170.53,25.69,170.53,57.38S369.15,307.38,275,307.38c-22.15,0-48-2.18-74.64-5.93,38.21,9,78.07,14.76,109.87,14.76,89.66,0,162.35-29.64,162.35-66.21S399.86,183.79,310.2,183.79Z"/><polygon class="cls-1" points="53.2 211.51 73.8 211.51 53.2 278.21 76.25 278.21 73.31 288.75 27.45 288.75 53.2 211.51"/><polygon class="cls-1" points="105.19 211.51 80.18 288.75 123.34 288.75 126.77 279.19 100.29 279.1 111.08 250.13 133.15 250.13 135.6 240.44 114.02 240.44 119.91 221.31 144.43 221.31 147.86 211.51 105.19 211.51"/><polygon class="cls-1" points="192 288.75 216.53 211.51 233.2 211.51 240.07 261.53 256.25 211.51 269.14 211.51 243.99 288.75 233.69 288.75 224.86 228.67 208.68 288.75 192 288.75"/><path class="cls-1" d="M323.45,215.17c-2.95-3.92-10.79-3.92-10.79-3.92H293.53s-16.31,1.92-21.58,18.14l-12.26,37.77s-3.93,12.26,0,17.66S272,288.49,272,288.49l22.56.26s6.38-1,9.81-4.42,7.85-17.66,7.85-17.66l11.28-33.84S326.39,219.09,323.45,215.17Zm-8.83,15.2s-11.28,32.87-14.23,41.69-6.86,8.34-6.86,8.34H279.8c-5.89-2.94-2-10.3-2-10.3l13.52-39.24c1.74-9.8,6.23-11.28,6.23-11.28H310.2C318.05,221.55,314.62,230.37,314.62,230.37Z"/><polygon class="cls-1" points="334.24 211.51 341.59 247.8 311.68 288.75 326.63 288.75 345.52 260.55 349.93 288.75 368.57 288.75 359.25 245.84 386.23 211.51 372.49 211.51 356.12 233.82 351.4 211.51 334.24 211.51"/><polygon class="cls-1" points="131.31 288.75 155.83 211.51 172.51 211.51 179.37 261.53 195.56 211.51 208.45 211.51 183.3 288.75 173 288.75 164.17 228.67 147.98 288.75 131.31 288.75"/></svg>