<svg id="luxaire" xmlns="http://www.w3.org/2000/svg" viewBox="0 0 500 500"><defs><style>.cls-1{fill:#153e69;}.cls-1,.cls-2,.cls-3{fill-rule:evenodd;}.cls-2{fill:#bbbdbf;}.cls-3{fill:#fff;}</style></defs><path class="cls-1" d="M300.33,291.2l2-5.8h3.55l-6.14,18h-3.85l-.09-.82a9.27,9.27,0,0,1-4,1.25c-2,0-4.07-.17-2.08-6.18s3.16-8.14,7.57-8a4.39,4.39,0,0,1,3,1.6Z"/><path class="cls-1" d="M339,303.61s-5.75.65-4.11-4.49c1.65-5.32,2.34-6.41,2.34-6.41s1.08-3.07,7.52-3.07c0,0,5.45-.56,4,4.37s-2.12,6.14-2.55,6.84-1.51,2.76-7.18,2.76Z"/><path class="cls-1" d="M260,303.61s-5.75.65-4.11-4.49c1.65-5.32,2.34-6.41,2.34-6.41s1.08-3.07,7.48-3.07c0,0,5.5-.56,4,4.37s-2.12,6.14-2.56,6.84-1.51,2.76-7.18,2.76Z"/><path class="cls-1" d="M248.08,297.65h4s-1.6,5.53-6.32,6.31c-4.54.78-9.6.3-8.35-4.8s3.21-10,5.24-11.72,4-2.08,7-2.08,6.4.35,4.76,5.58h-4s1.25-3.37-1.69-3.37-4.19,2.77-4.58,3.67-1.95,5.58-2.34,7.4.17,3.24,1.86,3.24,3.24-.43,4.46-4.23Z"/><path class="cls-1" d="M405.7,290.94l.91-.78h3.28l-4.32,13s-1.26,5-7.44,5-5.06-2.64-5.06-2.64H397s.18.74,1.43.74,3.07-.17,3.68-3.55a13.82,13.82,0,0,1-4.33,1.21c-1.68,0-4.24-.3-2.85-4.84a38.68,38.68,0,0,1,2.46-6.49c.31-.65,1.65-2.77,5.24-2.77a4.28,4.28,0,0,1,3.07,1.17Z"/><path class="cls-1" d="M146.34,290.94l.91-.78h3.33l-4.37,13s-1.26,5-7.44,5-5.06-2.64-5.06-2.64h3.93s.18.74,1.43.74,3.07-.17,3.68-3.55a13.82,13.82,0,0,1-4.33,1.21c-1.68,0-4.19-.3-2.85-4.84a43.36,43.36,0,0,1,2.46-6.49c.31-.65,1.65-2.77,5.24-2.77a4.22,4.22,0,0,1,3.07,1.17Z"/><path class="cls-1" d="M320.87,301.58l-.73,1.95s-1.6.13-2.77.13-2.68-.48-1.82-3l3-8.52h-1.78l.7-2h1.77l1.3-3.76h3.63l-1.25,3.76h1.77l-.69,2h-1.73l-2.55,7.57s-.83,1.82,1.16,1.86Z"/><path class="cls-1" d="M104.94,301.58l-.73,1.95s-1.6.13-2.73.13-2.68-.48-1.81-3l2.94-8.52h-1.73l.65-2h1.77l1.3-3.76h3.67L107,290.16h1.73l-.65,2h-1.77l-2.51,7.57s-.87,1.82,1.12,1.86Z"/><path class="cls-1" d="M93.87,303.44H90.15a2,2,0,0,1-.22-1,10.19,10.19,0,0,1-4.37,1.42c-2,0-3.54-.43-3.54-2.72s2.12-4.33,6.14-5.36,4.67-1.82,4.89-2.64-.22-1.39-1.69-1.39a3.16,3.16,0,0,0-3.2,2h-3.5s.77-3.93,7.48-3.93,4.8,3.07,4.32,4.41L94.09,301a4,4,0,0,0-.22,2.46Z"/><path class="cls-1" d="M79,297.17H70.81a7,7,0,0,0-1.08,3.24c0,1.6,3.42,2.56,4.67-1.08h3.81a6.67,6.67,0,0,1-6.53,4.41c-5.19,0-5.84-4.19-4.37-8.17s3.68-5.8,8.7-5.8,5.1,2.56,3,7.4Z"/><polygon class="cls-1" points="186.22 303.31 198.25 285.45 203.61 285.45 203 303.31 198.72 303.31 199.07 298.86 193.14 298.86 190.37 303.31 186.22 303.31 186.22 303.31"/><path class="cls-1" d="M357.34,294.75l-2.94,8.56h-3.64l4.5-13.15H359l.43.78a6.92,6.92,0,0,1,4.19-1.17c2.25,0,3.2,1.21,2.17,4.16l-3.29,9.38h-3.68l3.16-8.87s.91-2.37-1.3-2.37a3.5,3.5,0,0,0-3.37,2.68Z"/><path class="cls-1" d="M383.38,294.75l-2.94,8.56H376.8l4.5-13.15h3.77l.43.78a6.83,6.83,0,0,1,4.15-1.17c2.29,0,3.2,1.21,2.21,4.16l-3.29,9.38h-3.68l3.12-8.87s.95-2.37-1.26-2.37a3.46,3.46,0,0,0-3.37,2.68Z"/><path class="cls-1" d="M277.79,294.75l-2.94,8.56h-3.63l4.5-13.15h3.76l.43.78a6.86,6.86,0,0,1,4.15-1.17c2.3,0,3.2,1.21,2.21,4.16L283,303.31h-3.67l3.11-8.87s.95-2.37-1.25-2.37a3.47,3.47,0,0,0-3.38,2.68Z"/><path class="cls-1" d="M124.24,294.75l-2.95,8.56h-3.63l4.5-13.15h3.76l.43.78a6.94,6.94,0,0,1,4.2-1.17c2.25,0,3.2,1.21,2.16,4.16l-3.28,9.38h-3.68l3.16-8.87s.9-2.37-1.3-2.37a3.48,3.48,0,0,0-3.37,2.68Z"/><polygon class="cls-1" points="50.83 294.92 60.04 294.92 60.04 292.67 50.83 292.67 50.83 294.92 50.83 294.92"/><path class="cls-1" d="M215.85,303.31h3.89l2.94-8.43a5.59,5.59,0,0,1,4.72-1.43l1.12-3.24a9.4,9.4,0,0,0-4.88,1.86l.69-1.95h-3.85l-4.63,13.19Z"/><polygon class="cls-1" points="324.33 303.31 328.18 303.31 332.77 290.12 328.92 290.12 324.33 303.31 324.33 303.31"/><polygon class="cls-1" points="367.68 303.31 371.53 303.31 376.11 290.12 372.26 290.12 367.68 303.31 367.68 303.31"/><polygon class="cls-1" points="305.09 303.31 308.98 303.31 313.56 290.12 309.71 290.12 305.09 303.31 305.09 303.31"/><polygon class="cls-1" points="206.68 303.31 210.53 303.31 215.12 290.12 211.26 290.12 206.68 303.31 206.68 303.31"/><polygon class="cls-1" points="333.55 287.91 334.41 285.45 330.56 285.45 329.7 287.91 333.55 287.91 333.55 287.91"/><polygon class="cls-1" points="376.89 287.91 377.75 285.45 373.9 285.45 373 287.91 376.89 287.91 376.89 287.91"/><polygon class="cls-1" points="314.34 287.91 315.21 285.45 311.31 285.45 310.45 287.91 314.34 287.91 314.34 287.91"/><polygon class="cls-1" points="215.89 287.91 216.76 285.45 212.87 285.45 212 287.91 215.89 287.91 215.89 287.91"/><polygon class="cls-1" points="117.7 287.91 118.57 285.45 114.72 285.45 113.85 287.91 117.7 287.91 117.7 287.91"/><polygon class="cls-1" points="108.49 303.31 112.38 303.31 116.97 290.12 113.12 290.12 108.49 303.31 108.49 303.31"/><polygon class="cls-1" points="55.67 303.31 59.57 303.31 65.75 285.45 61.9 285.45 55.67 303.31 55.67 303.31"/><polygon class="cls-1" points="44.73 303.31 48.58 303.31 54.81 285.45 50.92 285.45 44.73 303.31 44.73 303.31"/><polygon class="cls-2" points="283.76 196.73 286.75 196.73 275.59 272.51 275.33 273.34 275.46 273.34 274.68 278.87 250.15 278.87 251.32 273.34 272.51 273.34 283.76 196.73 283.76 196.73"/><path class="cls-2" d="M455.92,197.42a7.29,7.29,0,0,1-6.62,10.3,7.33,7.33,0,0,1-5.58-2.64l-2.42,7.4H421.66l-2.64,8h-3.94l4.42-13.54h19.68l2.46-7.61a7.27,7.27,0,0,0,14.28-1.91Z"/><polygon class="cls-2" points="250.02 263.86 241.5 263.86 234.88 278.87 189.85 278.87 189.55 273.34 232.72 273.34 239.38 258.33 251.19 258.33 250.02 263.86 250.02 263.86"/><polygon class="cls-2" points="187.04 260.23 173.89 278.87 148.03 278.87 152.35 273.34 171.77 273.34 186.61 252.23 187.04 260.23 187.04 260.23"/><polygon class="cls-2" points="199.59 196.73 201.66 196.73 201.79 208.24 199.76 211.26 199.59 196.73 199.59 196.73"/><polygon class="cls-2" points="234.54 196.73 240.94 196.73 210.36 236.14 213.47 263.08 212.26 265.51 208.19 230.56 234.54 196.73 234.54 196.73"/><polygon class="cls-2" points="91.06 196.73 95.04 196.73 75.4 256.38 71.46 256.38 91.06 196.73 91.06 196.73"/><polygon class="cls-2" points="90.06 261.96 93.83 261.96 94 262.09 88.38 278.87 43.43 278.87 45.25 273.34 86.26 273.34 90.06 261.96 90.06 261.96"/><polygon class="cls-2" points="95.17 266.68 95.99 264.17 104.86 273.34 130.64 273.34 150.49 260.96 171.6 196.73 175.15 196.73 175.28 197.55 153.6 263.47 149.93 268.19 132.76 278.87 106.98 278.87 95.17 266.68 95.17 266.68"/><polygon class="cls-2" points="138.85 196.73 142.84 196.73 123.24 256.25 119.26 256.25 138.85 196.73 138.85 196.73"/><polygon class="cls-2" points="325.29 196.73 329.26 196.73 301.84 278.87 277.44 278.87 279.31 273.34 299.72 273.34 325.29 196.73 325.29 196.73"/><polygon class="cls-2" points="387.36 205.21 390.34 208.24 383.12 230.21 372.87 236.14 368.32 231.98 381 224.67 387.36 205.21 387.36 205.21"/><polygon class="cls-2" points="375.33 241.98 378.36 244.75 367.2 278.87 343.06 278.87 344.92 273.34 365.04 273.34 375.33 241.98 375.33 241.98"/><polygon class="cls-2" points="349.99 246.04 346.31 246.04 335.49 278.87 310.62 278.87 312.48 273.34 333.38 273.34 344.19 240.51 351.85 240.51 349.99 246.04 349.99 246.04"/><polygon class="cls-2" points="429.49 226.06 433.43 226.06 427.89 243.01 411.67 243.01 407.6 255.51 403.67 255.51 409.55 237.48 425.77 237.48 429.49 226.06 429.49 226.06"/><polygon class="cls-2" points="421.49 261.05 425.42 261.05 419.63 278.87 375.59 278.87 377.41 273.34 417.51 273.34 421.49 261.05 421.49 261.05"/><polygon class="cls-1" points="43.69 271.61 69.78 192.93 90.5 192.93 69.08 258.11 89.5 258.11 85 271.61 43.69 271.61 43.69 271.61"/><polygon class="cls-1" points="105.59 271.61 95.04 260.66 117.44 192.93 138.29 192.93 116.88 257.98 128.56 257.98 150.01 192.93 171.04 192.93 149.02 259.84 130.12 271.61 105.59 271.61 105.59 271.61"/><polygon class="cls-1" points="149.45 271.61 181.59 230.47 176.4 192.93 197.81 192.93 198.12 216.84 214.16 192.93 235.31 192.93 206.42 230.12 211.22 271.61 189.33 271.61 188.08 247.12 170.86 271.61 149.45 271.61 149.45 271.61"/><polygon class="cls-1" points="211.09 271.61 250.89 192.93 282.59 192.93 271.04 271.61 250.15 271.61 253.31 256.6 238.26 256.6 231.59 271.61 211.09 271.61 211.09 271.61"/><polygon class="cls-1" points="277.7 271.61 298.47 271.61 324.72 192.93 304 192.93 277.7 271.61 277.7 271.61"/><polygon class="cls-1" points="310.88 271.61 337.14 192.93 376.24 192.93 386.23 203.18 379.57 223.51 365.38 231.64 374.25 239.73 363.78 271.61 343.32 271.61 354.22 238.78 342.93 238.78 332.12 271.61 310.88 271.61 310.88 271.61"/><polygon class="cls-1" points="375.85 271.61 416.25 271.61 420.92 257.25 401.24 257.25 408.29 235.75 424.47 235.75 428.93 222.21 412.71 222.21 418.24 205.21 437.92 205.21 441.95 192.93 401.55 192.93 375.85 271.61 375.85 271.61"/><path class="cls-1" d="M448.65,191.89a5.54,5.54,0,1,1-5.54,5.53,5.55,5.55,0,0,1,5.54-5.53Z"/><polygon class="cls-3" points="256.16 243.01 263.52 207.89 259.93 207.89 244.31 243.01 256.16 243.01 256.16 243.01"/><polygon class="cls-2" points="257.59 227.79 251.53 241.28 246.95 241.28 261.05 209.62 261.4 209.62 257.59 227.79 257.59 227.79"/><polygon class="cls-3" points="358.68 225.41 365.3 205.43 353.92 205.43 347.35 225.41 358.68 225.41 358.68 225.41"/><polygon class="cls-2" points="361.06 212.74 357.34 212.74 353.7 223.68 349.77 223.68 355.18 207.16 362.92 207.16 361.06 212.74 361.06 212.74"/><path class="cls-3" d="M453.58,197.42a4.91,4.91,0,1,1-4.93-4.88,4.88,4.88,0,0,1,4.93,4.88Z"/><path class="cls-1" d="M446.62,200.32h.78v-2.64h2c1.29,0,.9,1.13,1,1.86l.13.78h1c-.35-.52-.22-.65-.31-1.47-.08-1-.08-1.17-.73-1.56a1.55,1.55,0,0,0,.82-1.51c-.09-1.38-1-1.56-2-1.56h-2.72v6.1Z"/><path class="cls-3" d="M449.34,194.91c.48,0,1.26.13,1.13,1.17-.09.78-.61.91-1.13.91H447.4v-2.08Z"/><path class="cls-3" d="M299.2,293.93l-1.9,5.62s-1.13,2.25-2.85,2.25-2.08-1-.87-4.72,1.64-5.4,4.24-5.36c1.21,0,1.64,1.38,1.38,2.21Z"/><path class="cls-3" d="M340.08,301.76a1.78,1.78,0,0,1-1.6-2.64l2-5.5a3.08,3.08,0,0,1,3.16-2c2.55,0,1.81,2,1.55,2.81l-1.81,5a3.38,3.38,0,0,1-3.29,2.38Z"/><path class="cls-3" d="M261.05,301.76a1.78,1.78,0,0,1-1.6-2.64l2-5.5a3.06,3.06,0,0,1,3.12-2c2.59,0,1.86,2,1.55,2.81l-1.77,5a3.38,3.38,0,0,1-3.29,2.38Z"/><path class="cls-3" d="M398.78,299.29a29.12,29.12,0,0,1,2-5.84c1.12-2.51,5-2.12,4.28.26l-1.86,5.75c-1,3.12-5.06,3.07-4.41-.17Z"/><path class="cls-3" d="M139.42,299.29a31.87,31.87,0,0,1,2-5.84c1.12-2.51,5-2.12,4.28.26l-1.86,5.75c-1,3.12-5.06,3.07-4.41-.17Z"/><path class="cls-3" d="M91.53,297.34l-.9,2.68a3.5,3.5,0,0,1-2.82,1.86c-1.81.05-2.72-2.2-.73-3.5a12.33,12.33,0,0,1,3.07-1.51s1.77-.65,1.38.47Z"/><path class="cls-3" d="M76,295.05H71.55s.09-3.33,3-3.33S76.39,294,76,295.05Z"/><polygon class="cls-1" points="161.18 300.93 171.47 300.93 175.75 290.73 165.46 290.73 161.18 300.93 161.18 300.93"/><polygon class="cls-3" points="199.24 296.74 199.89 288 194.48 296.74 199.24 296.74 199.24 296.74"/></svg>