<svg id="rheem" xmlns="http://www.w3.org/2000/svg" viewBox="0 0 500 500"><defs><style>.cls-1{fill:#153e69;fill-rule:evenodd;}</style></defs><path class="cls-1" d="M250,456.15c-113.89,0-206.35-92.46-206.35-206.35S136.11,43.85,250,43.85s206.35,92.06,206.35,206S363.89,456.15,250,456.15ZM148.35,270.09a75.36,75.36,0,0,0,44.44-69c0-40.08-31.35-72.62-70.63-75.4H107.08V364.93h14.68v-88.1a110.88,110.88,0,0,0,11.51-1.59L220.57,378H240L148.35,270.09Zm-26.16-129a60.22,60.22,0,0,1,56,59.92,61,61,0,0,1-56,60.72V141.12Zm241.23,90.43a6.11,6.11,0,0,1,6-6,6.19,6.19,0,0,1,6.34,6V324h14.69V231.55a6.2,6.2,0,0,1,6.35-6,6.11,6.11,0,0,1,5.95,6V324h14.68V231.55a20.83,20.83,0,0,0-20.63-21c-5.56,0-9.92,1.59-13.5,5.16-3.57-3.57-8.33-5.16-13.88-5.16a14.58,14.58,0,0,0-6,1.19v-1.19H348.74V324h14.68V231.55Zm-72.19,42.52v-6.34c0-32.15-10.71-58.34-24.2-58.34s-24.6,26.19-24.6,58.34c0,31.74,11.1,57.93,24.6,57.93,10.31,0,19.44-15.87,22.62-38.09l-13.5-2c-1.58,14.29-5.16,23.81-9.12,23.81-5.16,0-9.53-15.08-10.32-35.32ZM276.9,259H257.06c.79-19.44,4.76-33.33,9.92-33.33,4.76,0,9.13,13.89,9.92,33.33Zm66.3,15.1a34.62,34.62,0,0,0,.39-6.34c0-32.15-10.71-58.34-24.2-58.34s-24.61,26.19-24.61,58.34c0,31.74,11.11,57.93,24.61,57.93,10.31,0,19.44-15.87,22.62-38.09l-13.5-2c-1.58,14.29-5.16,23.81-9.12,23.81-5.16,0-9.53-15.08-10.32-35.32ZM329.3,259H309.06c1.19-19.44,5.16-33.33,10.32-33.33,4.76,0,9.12,13.89,9.92,33.33Zm-90.82-27c0-11.91-9.12-21.43-20.63-21.43a16.51,16.51,0,0,0-6.35,1.19V57.34H196.82V324H211.5V232a6.27,6.27,0,0,1,6.35-6.35,6.2,6.2,0,0,1,6,6.35V324h14.68V232Zm107.8,152.11a14.43,14.43,0,1,0-14.47-14.47,14.31,14.31,0,0,0,14.47,14.47Zm-11.61-14.47a11.6,11.6,0,0,1,11.61-12c6.44,0,11.52,5.15,11.52,12s-5.08,12.07-11.52,12.07-11.61-5.12-11.61-12.07Zm8.59,1.15h2.87l4.33,7.21h2.79l-4.67-7.32c2.41-.31,4.25-1.61,4.25-4.59,0-3.28-1.92-4.73-5.8-4.73h-6.25V378h2.48v-7.21Zm0-2.14v-5.15h3.39c1.74,0,3.58.38,3.58,2.44,0,2.56-1.88,2.71-4,2.71Z"/></svg>