<svg id="ruud" xmlns="http://www.w3.org/2000/svg" viewBox="0 0 500 500"><defs><style>.cls-1,.cls-2{fill:#153e69;}.cls-2,.cls-3{fill-rule:evenodd;}.cls-3{fill:#fff;}</style></defs><path class="cls-1" d="M363.85,386.14c-9.06,0-24.09-.85-44.12-4.9-21.33-4.31-47.93-11.95-76.93-22.09-.47-.17-46.49-16.52-96.3-18-29.29-.91-54.58-1.69-85.58,17.83h0s-5.75,4-11.17,2.13c-.91-.21-5.71-1.94-5.41-14.64V197a87,87,0,0,1,10.29-37.4c9.4-17.62,29.49-39.73,71.87-45,.15,0,19.13-2.83,53.91,3.38,20.25,3.62,46.8,11.08,76.78,21.57.44.14,46.77,15.12,96.32,16.65,26.92.83,61.13-.45,86.79-17.82.5-.34,5.05-3.27,10.09-1.75,1.66.26,5.28,2.25,5.28,14.57V296.06a114.34,114.34,0,0,1-10.93,42.17c-9.59,19.7-29.67,43.93-70.93,47.47A87.17,87.17,0,0,1,363.85,386.14ZM128.79,338.73c5.81,0,11.71.18,17.77.37,50.13,1.54,96.44,18,96.91,18.16,28.9,10.12,55.41,17.73,76.66,22,33.86,6.84,53.27,4.45,53.46,4.43,40.37-3.46,60-27.12,69.35-46.35A112.42,112.42,0,0,0,453.67,296V151.12c0-9.59-2.28-12.43-3.63-12.6l-.17,0c-4.24-1.32-8.28,1.35-8.45,1.47-26.14,17.69-60.75,19-88,18.16-49.83-1.54-96.44-16.61-96.9-16.76-29.91-10.46-56.35-17.89-76.49-21.49-34.35-6.14-53.1-3.4-53.29-3.37-41.55,5.2-61.2,26.79-70.38,44a84.71,84.71,0,0,0-10,36.46v149.5c-.24,10.06,2.95,12.54,3.81,12.66l.21.05c3.93,1.4,8.66-1.29,9.43-1.87C84.9,341.47,106.22,338.73,128.79,338.73Z"/><path class="cls-2" d="M60.5,193.07s10.58-63.46,76.86-62.76c0,0,34.55-2.47,122.69,26.8,0,0,112.83,37.37,179.82-1.41v37.37Z"/><path class="cls-2" d="M439.8,303.73s-10.23,65.57-76.51,64.87c0,0-34.9.35-123-28.91,0,0-112.82-37.38-179.81,1.41V303.73Z"/><path class="cls-1" d="M127.31,251.42s14.81-5.82,14.81-22.21c0,0,1.06-24-26.44-24H59.62v85.85H92.94V261.47h6.34s9.52,9,13.75,30.14h34.38A120.73,120.73,0,0,0,127.31,251.42Zm-26.18-11.64H92.41V225h8.72s8.47,0,8.47,7.66C109.6,240.05,101.13,239.78,101.13,239.78Z"/><path class="cls-2" d="M152.7,205.23v54.65s-1.59,32.79,43.36,32.79c48.31,0,45-32.79,45-32.79V205.23H207.7v51.21s.53,7.67-11.11,7.67-11.1-7.67-11.1-7.67V205.23Z"/><path class="cls-2" d="M250,205.23v54.65s-1.59,32.79,43.36,32.79c48.31,0,45-32.79,45-32.79V205.23H305v51.21s.53,7.67-11.11,7.67-11.1-7.67-11.1-7.67V205.23Z"/><path class="cls-1" d="M399,205.41H349.26v85H399s42.66,1.06,42.66-44.07S399,205.41,399,205.41ZM400,266.05H377.46V231.68H400s9.75,1.61,9.87,16.87C410,262.72,400,266.05,400,266.05Z"/><path class="cls-2" d="M435.13,212.74a5.6,5.6,0,1,0-5.69-5.62,5.59,5.59,0,0,0,5.69,5.62Z"/><path class="cls-3" d="M430.57,207.12a4.55,4.55,0,1,1,4.56,4.7,4.52,4.52,0,0,1-4.56-4.7Z"/><path class="cls-2" d="M433.94,207.57h1.13l1.7,2.8h1.1L436,207.52a1.68,1.68,0,0,0,1.68-1.77c0-1.27-.76-1.83-2.29-1.83H433v6.45h1v-2.8Z"/><path class="cls-3" d="M433.94,206.74v-2h1.33c.69,0,1.41.15,1.41.95,0,1-.74,1.05-1.57,1.05Z"/></svg>