<svg id="sears" xmlns="http://www.w3.org/2000/svg" viewBox="0 0 500 500"><defs><style>.cls-1{fill:#153e69;}</style></defs><path class="cls-1" d="M186.62,216.64c7.85,0,11.77,4.87,11.77,11a15.2,15.2,0,0,1-.32,2.67h-27.6C172.82,221.66,178.31,216.64,186.62,216.64Zm40.78,15.68c0-25.56-21.8-35.6-39.83-35.6-20.24,0-48.79,12.24-48.79,49.57,0,19.76,11.61,35.92,40.46,35.92,35.15,0,41.26-20.23,43.31-25.72H209a30.12,30.12,0,0,1-9,10.93,27,27,0,0,1-13.1,5.74,38.84,38.84,0,0,1-6.19.71,26,26,0,0,1-20.6-8.23c-6.07-6.53-9.19-16.55-8.13-26.16,1.89-17.13,14-34.33,33.37-34.07,9.88.14,17.38,3.11,22.32,8.83,7.94,9.21,6.43,22.37,6.22,23.85l-.1.76H168.2l.33-1.75h43.7c.3-3.12.78-14-5.9-21.72-4.61-5.34-11.68-8.1-21-8.23-.55,0-1.1,0-1.63,0h-.11l-.56,0c-1,.08-2.06.2-3.05.36-.35.06-.7.12-1,.2l-.2,0c-12.87,2.85-21.36,14.46-24.21,27a49.63,49.63,0,0,0-.79,5,34.46,34.46,0,0,0-.07,6.5v.12l0,.29a31,31,0,0,0,7.69,17.72,24.21,24.21,0,0,0,19.25,7.67c11.54-.42,18.52-5.34,22.5-9.83a40.12,40.12,0,0,0,3.78-5.81H192.75c-1.58,2.83-5.5,5.79-12.24,5.79-9.73,0-12.71-7.21-12.71-15.83h58a50.69,50.69,0,0,0,1.56-14.13"/><path class="cls-1" d="M354.13,217.61c-9.77,4.92-14.16,11.06-18.16,24.67l-7.71,37.9h15.37l7.05-34.05c3.61-17.1,6.42-20.86,19.6-20.86a34.67,34.67,0,0,1,11.92,2l2.74-12.95A45.1,45.1,0,0,0,354.13,217.61Zm31-4.68L388,199.86c-2.82-.94-5.81-1.25-11-1.25,0,0-12.37-1.1-18.51,5l1-4.89H344.83l-6.73,33.07c4.83-9.06,8.56-11.62,16-15.7,13.4-7.32,31-3.2,31-3.2m-50.85,28.93h0l8.77-43.1H329.36l-16.79,81.42h13.92l7.79-38.32h0"/><path class="cls-1" d="M316.86,218.37c0-19.77-24.79-21.65-39.54-21.65-19.92,0-36.7,5-41.56,26.67h12.38c3.63-17.16,24.76-18.21,31.33-18.12,10.79.18,18,2.55,21.46,7.06a9.65,9.65,0,0,1,1.89,7.71l-10,50.53c-1.31,5.5.3,6.68,2.66,9.61h12.72c-1.25-3.77-.62-.95-1.25-7.22C307,267.62,316.86,231.07,316.86,218.37Zm-51,45.49c-5,0-9.88-1.42-9.88-7.06,0-6,8.54-8.73,13.62-9.81,6.47-1.37,7.74-1.27,12.89-2.9-1.88,12.08-6.12,19.77-16.63,19.77m-9.73,10.81c-4.13,0-11.67-.9-15.79-5.71-2.41-2.83-3.29-6.56-2.65-11.12.7-4.8,3.24-8.77,7.58-11.94,3.77-2.92,9.53-5.59,18.38-7q2.82-.56,5.95-1l1.06-.13a106.13,106.13,0,0,0,11.76-2.24,43.72,43.72,0,0,0,6.81-2.39c7.78-3.78,10.89-8.55,10.89-8.55.61-3.05,1-5,1-5a7.77,7.77,0,0,0-1.6-6.3c-2.14-2.78-7.35-6.13-20.06-6.32-6.18-.1-25.9.86-29.51,16.36h15c1.73-6.13,6.12-8.33,12.39-8.33,4.71,0,9.73,1.43,9.73,7.07,0,10-14,8.79-22.75,9.42-23.37,1.72-39.36,7.52-39.36,29,0,15.53,12.39,21.65,26.34,21.65,9.1,0,18.09-.49,26.32-5.59l.18,3.56h15.79c-2.26-2.07-3.66-4.65-2.45-9.89,0,0,5.51-27.93,8.35-42.31l-.44.44-.13.13c-7.27,7.4-18.14,9.56-28,10.95l-1.09.15c-6.7.87-26.56,3.43-30,16.68a7.13,7.13,0,0,0-.22,1.53v.05l0,.06a13.78,13.78,0,0,0,.39,6.89l.21.5c.09.19.16.38.25.57l.37.65.24.38c.13.2.28.38.43.57l.35.42.49.53.15.15.58.5c5.79,4.66,16.37,3.7,16.51,3.69a54.76,54.76,0,0,0,5.49-.53c9.78-1.66,13.87-6,13.93-6h0l.46.42-1.7,2.31s-7.19,5.74-21.57,5.65"/><path class="cls-1" d="M77.47,229.26c2.69.94,5.7,1.75,8.62,2.53,9.71,2.6,19.76,5.3,19.76,13.52,0,6.76-5.9,10.64-16.17,10.64-14.49,0-20.12-4.36-20.12-15.55v-.58H55.27l0,.57c-.19,7.55,2.23,14.14,7,19.06,5.85,6,15.06,9.31,25.9,9.31,14.28,0,31-6.6,31-25.22,0-14-13.21-17.83-26-21.5l-.64-.18c-12.67-3.79-25.78-7.72-25.78-22.51.26-18.79,16.37-25.48,31.35-25.48,11-.08,19.21,2.5,24.42,7.67,4.3,4.26,6.47,10.29,6.48,17.92v.59h13.26l0-.57c.3-10.7-2.57-19.24-8.55-25.4-7.45-7.66-19.44-11.55-35.66-11.55-12.23,0-23.5,3.11-31.72,8.76-9.62,6.6-14.7,16.4-14.7,28.34C51.63,217.54,64.69,224.66,77.47,229.26Z"/><path class="cls-1" d="M102.31,208.7l-3-.79c-13.17-3.53-17.14-4.59-17.14-10.49,0-6.59,7.16-9.54,14.27-9.54,5.2,0,9,1,11.5,2.88s3.72,4.79,3.72,8.7v.59h15.86v-.59c0-7-2-12.55-6.06-16.58-5-5-12.89-7.57-23.41-7.57-13.62,0-29.63,6.29-29.91,24C67.9,213,80.94,216.83,93.54,220.57l1.12.33c12.14,3.61,25.91,7.71,25.91,22.64,0,19.68-17.45,26.66-32.4,26.66-11.63,0-21-3.26-27-9.42-5-5.12-7.47-12-7.31-20.36v-.6H39v.57c-.14,11.8,3.33,21.37,10.33,28.46,8,8.14,20.36,12.44,35.61,12.44,35.56,0,51.47-18.87,51.47-37.57C136.4,220.74,117,212.73,102.31,208.7Z"/><path class="cls-1" d="M431.72,230.16c-10-2.33-18.94-3.42-18.94-9.14s6.85-7.6,12.56-7.6c3.11,0,6.71.94,8.34,2.79a9,9,0,0,1,2.13,7H449a15.36,15.36,0,0,0-3.73-10.78c-3.92-4.45-10.54-6.8-19.68-7-13.27-.24-22.32,3.66-25.52,11-1.65,3.81-1.8,7-.45,9.68,3,6.08,13.42,9,22.94,11.34,12.64,3.06,20.39,5.64,21.61,15.74a15.15,15.15,0,0,1-3.78,11.91c-3.34,3.83-10.27,8.45-24.26,8.67-23.91.38-27.82-13.66-28.34-20.19H376.66c.82,20.91,14.71,28.66,36.27,28.66,19.94,0,43.46-4.49,43.46-29.12C456.39,237.27,447.4,233.87,431.72,230.16Zm-23.37,16.26c13.57,3.24,20.27,3.56,20.27,10.53,0,6.51-7.68,8.22-12.42,8.22-4.41,0-8.33-.94-10.94-3.26a10.66,10.66,0,0,1-3.11-8.36h-12.9c.61,7.38,5,19.08,26.85,18.73,10.5-.16,18.73-3.06,23.19-8.16a13.64,13.64,0,0,0,3.42-10.79c-1.06-8.85-7.37-11.31-20.5-14.49-9.84-2.38-20.61-5.48-23.91-12.11-1.53-3.07-1.38-6.74.43-10.91,3.44-7.9,13-12.1,26.88-11.85,9.59.18,16.57,2.7,20.76,7.5a16.48,16.48,0,0,1,4.08,11.71H461c1.14-20.6-17.32-26-34.95-26-18.14,0-41,5.73-41,27.26,0,15.18,10.94,19.37,23.35,22"/><path class="cls-1" d="M144.32,334.93c.24,1.06,1.12,3,2.22,2.45,113.27-52.95,236.64-25,251.78-21.8a10.94,10.94,0,0,0,11.84-5.81c1.25-2.72,5.18-10.12-1.16-12.07-5.92-1.81-145.59-30.81-261.9,33.3C144.81,332.26,144,333.4,144.32,334.93Z"/></svg>