<svg id="tempstar" xmlns="http://www.w3.org/2000/svg" viewBox="0 0 500 500"><defs><style>.cls-1{fill:#153e69;fill-rule:evenodd;}</style></defs><path class="cls-1" d="M91.16,221.54v17.35H80.33v38.55H58.59V238.89h-11V221.54Zm42.55,0v15.07H114.55v5.11h19.16v15.77H114.55v4.87h19.16v15.08H92.81v-55.9Zm5.88,0h28.5l5.41,26.3,4.24-26.3h29.91v55.9H189.2V247.6l-7.3,30H165.58l-7.46-29.91v29.76H139.59v-55.9Zm95.85,12.33c-.3.07-.3,0-.4.31h0v13.74h0a.64.64,0,0,0,.4.39h2.9l.32-.39h0V234.18h0a.69.69,0,0,0-.32-.31h-2.9Zm116.64-12.33v19.39H341.33v36.51H317.39V240.77H284.5v-7H281v5.89l11.23,4.23,5.57,2.12h0c6.93,3.47,10.27,6.18,9.58,16.65S296,280.15,283,280s-24.09-6.35-24.8-20.81h22.53V267h3.84v-6.67l-5.57-2h0c-5.76-2.15-13.83-4.57-17.74-9.65-4,7.07-7.24,11.09-15.23,11.23H234.81v17.59H212.75V221.62h33c8.46.1,10.88,2.39,14.68,10.21,4.6-11.32,11.09-11.8,22.76-11.78s21.58,1.56,24,15h0v-13.5Zm45.53,35.25H369.66l2.51-20.88,3.07,19.78,18-12.95-6.12-21.2H358.44l-15.15,55.9h23.47l1.73-8.17h7.77l1.72,8.17h25.75l-6.12-20.65Zm15.23,0-7.07,20.65h17.82V256.79Zm10.51-35.25H403V232l2.67,1.65,17.66-12.09Zm2,0h10a16.11,16.11,0,0,1,17,14.52c.62,7.88-2.21,10.18-7.69,13.27,4.82,2.8,6.75,6.38,7,11.78h0v16.33H428.38V256.79H437l-11.85-9.11h3.22V233.4h-4.79v13.42L418,242.74l7.3-21.2Z"/></svg>