<svg id="trane" xmlns="http://www.w3.org/2000/svg" viewBox="0 0 500 500"><defs><style>.cls-1{fill:#153e69;}</style></defs><path class="cls-1" d="M132,249.07l1.14-4.09L30.79,246.6a58.69,58.69,0,0,1,.85-8.66l103.1,1.26a20,20,0,0,0,1.44-4.15L31.94,236.62c3.3-23.06,21.89-46.29,44.15-54.59,26.11-10.65,57.62-4.58,77.65,14.86a75.9,75.9,0,0,1,16.79,23.54l-69.9,1.62a5,5,0,0,0-.07.91l71.11.54a30.15,30.15,0,0,1,2.29,6.91l-76,1.33a1.11,1.11,0,0,0-.29.79s75.6.59,77.05.65a64.75,64.75,0,0,1,1.44,6.92l-81.26,1.75c-.18.06-.12.61-.12.79l81.68.78.42,6.92L92,251.78v.72l84.75.73-.6,7.1s-87.34,1.19-87.27,1.31l-.32.85,87.05.72a34.18,34.18,0,0,1-1.62,7L85.89,271.7c-.18.12-.11.3-.11.48l87.33,1c-6.49,23.42-30.37,44.36-54,48.57-27.25,5.24-52.82-3.79-70.56-24.25l68.57,1.26c.79-1.2.84-2.71,1.27-4l-71,1.57a45.09,45.09,0,0,1-6.07-8.79L120,288.92a25,25,0,0,0,1.44-4l-81,1.27a49.34,49.34,0,0,1-4.15-8.67L123,278.92l1.32-4-88.66,1.44A60.17,60.17,0,0,1,33,267.85l92.93,1.26a13.37,13.37,0,0,0,1.33-3.91l-94.44,1.33A51.4,51.4,0,0,1,31,257.86L129,259.18l.84-4.21L31,256.71a60.33,60.33,0,0,1-.42-8.66l101.36,1"/><path class="cls-1" d="M266.23,220.84c-1.21,5.48-3.31,11.08-4.75,16.68l-13,.12-1,2.46-9.68,32.32H218.29l10.1-34.06c.24-.84-.78-.72-1.26-.72h-13.3l5.48-16.91,46.92.11"/><path class="cls-1" d="M332,237l-6.73,13.91,7.16-.06L332,237m-49.32,4.1s5.12.24,7.64-.48a3.73,3.73,0,0,0,2.17-3.73c-1.39-2.65-5.29-1.82-8.12-1.87Zm-13.59-20c9.86.06,20.45-.42,29.9.72,3.72,1,7.69,2.95,9.68,6.68,2.59,5.66,1.08,12.34-2.65,17a20.23,20.23,0,0,1-9.5,5.78v.72c1,3.5,4,11,4,11l2.06-3.35,22-38.69h22.49l3.49,40,.12.12,12.15-40H381.6c2,7.46,3.91,14.92,6.2,22.27,2.1-7.35,3.85-14.81,5.77-22.27h19.31l-15.16,51.46H379.14c-2.05-7.83-4-15.6-6.08-23.42-2.41,7.58-3.91,15.53-6.08,23.23h-33.2c-.54-2.83-.3-5.95-.54-8.91l-.48-.3H320.25l-4.52,9.4H286.14c-2.77-6.39-4.46-12.93-7-19.93-2.41,6.44-4,13.24-6.07,19.74H253.66Z"/><path class="cls-1" d="M417,221.15H453.9l-4.33,14.62-18.05-.06-1.32,4.4,17.93.12-3.73,13-17.62-.07-1.63,5h18.34c-1.14,4.63-2.76,9.63-4.14,14.45H401.82L417,221.15"/><path class="cls-1" d="M463.32,222.71c-3.59,0-5.41,2.29-5.41,5.17a5.61,5.61,0,0,0,5.22,5.35s5.2-.07,5.2-5.16c0-2.88-1.68-5.36-5-5.36m-.19,11.43a6.26,6.26,0,1,1,6.27-6.26A6.05,6.05,0,0,1,463.13,234.14Zm.23-6.87c.65,0,1-.13,1-.88s-.74-.74-1.29-.74h-1v1.62Zm-1.27,4h-1.44v-6.73h2.52c1.73,0,2.76.49,2.76,2a1.58,1.58,0,0,1-1.62,1.76l1.71,2.94h-1.7l-1.56-2.83h-.67Z"/></svg>