<svg id="westinghouse" xmlns="http://www.w3.org/2000/svg" viewBox="0 0 500 500"><defs><style>.cls-1,.cls-2{fill:#153e69;}.cls-1,.cls-3{fill-rule:evenodd;}.cls-3{fill:#fff;}</style></defs><path class="cls-1" d="M335,238.4a3,3,0,1,1-1.57,5.58,8.72,8.72,0,0,1,.7,3.4v5a8.65,8.65,0,0,1-8.63,8.63,8.44,8.44,0,0,1-4.41-1.26v3.83H331.8c2.09,0,5.58,1.7,5.58,6.28s-3.14,6.28-5.58,6.28H321.07a4.17,4.17,0,0,1-4.23-3.84c-.08-1.91,1.4-4,4.23-4.22-3.49-.35-4.23-2.62-4.23-4.84a4.16,4.16,0,0,1,3.53-3.93,8.69,8.69,0,0,1-3.48-6.93v-5a8.61,8.61,0,0,1,15-5.79c0-.05-.05-.14-.05-.22a3.09,3.09,0,0,1,3.14-3Z"/><path class="cls-2" d="M118.71,188.17A61.83,61.83,0,1,0,180.58,250,62,62,0,0,0,118.71,188.17Zm0,117.82a56,56,0,1,1,56-56A56.1,56.1,0,0,1,118.71,306Z"/><path class="cls-1" d="M91.5,237.14l13,27.73,14.17-27.56h.44l14.69,27.56,13-27.64a8.52,8.52,0,0,0,1.43.08,9.34,9.34,0,1,0-5.58-1.83L133.84,254l-10-18.09a9.39,9.39,0,1,0-9.76,0l-9.38,18-8.76-19.18a9.54,9.54,0,0,0,3-6.89,9.4,9.4,0,1,0-9.38,9.37,9.92,9.92,0,0,0,2-.17Z"/><path class="cls-1" d="M98.92,268.92h40a7.22,7.22,0,1,1,0,14.44h-40a7.22,7.22,0,1,1,0-14.44Z"/><path class="cls-1" d="M248.78,257.67h-5.45v1.66c0,2.62-1.75,3.93-3.49,3.93s-3.49-1.31-3.49-3.93v-4.79h12.43V247c0-5.67-3.84-8.94-9.07-8.94a9,9,0,0,0-9,8.94v12.6a9.05,9.05,0,0,0,18.1,0v-2Z"/><path class="cls-3" d="M243.33,249.3h-7v-1.57c0-2.92,1.75-4.36,3.49-4.36s3.49,1.49,3.49,4.36v1.57Z"/><path class="cls-1" d="M443.12,257.67h-5.45v1.66c0,2.62-1.7,3.93-3.45,3.93s-3.49-1.31-3.49-3.93v-4.79h12.39V247c0-5.67-3.8-8.94-9-8.94a9,9,0,0,0-9,8.94v12.6a9,9,0,0,0,18.05,0v-2Z"/><path class="cls-3" d="M437.67,249.3h-6.94v-1.57c0-2.92,1.75-4.36,3.49-4.36s3.45,1.49,3.45,4.36v1.57Z"/><polygon class="cls-1" points="286.37 239.01 291.73 239.01 291.73 267.83 286.37 267.83 286.37 239.01 286.37 239.01"/><path class="cls-1" d="M301.32,240.58a7.43,7.43,0,0,1,5.54-2.18c3.88.31,6.45,2.84,6.45,7.72v21.71h-5.45V247.21c0-2.18-1.05-3.53-3.23-3.49-1.26,0-3.31,1.14-3.31,2.7v21.41H296V239h5.36v1.57Z"/><path class="cls-1" d="M345.4,240.58a7.43,7.43,0,0,1,5.54-2.18c3.88.31,6.45,2.84,6.45,7.72v21.71h-5.45V247.21c0-2.18-1.09-3.53-3.22-3.49-1.27,0-3.32,1.14-3.32,2.7v21.41H340V231.12h5.4v9.46Z"/><path class="cls-1" d="M394.63,266.26a7.32,7.32,0,0,1-5.58,2.14c-3.88-.3-6.45-2.79-6.45-7.67V239h5.45v20.63c0,2.18,1.09,3.48,3.22,3.48,1.31,0,3.36-1.13,3.36-2.7V239H400v28.82h-5.36v-1.57Z"/><path class="cls-1" d="M289,230.55a3.21,3.21,0,1,1-3.18,3.23,3.22,3.22,0,0,1,3.18-3.23Z"/><path class="cls-1" d="M378.85,247.3v12.42c0,5.89-4.45,8.86-8.9,8.86s-8.89-3-8.89-8.86V247.3a8.65,8.65,0,0,1,8.89-8.94c4.45.09,8.9,2.75,8.9,8.94Z"/><path class="cls-3" d="M373.61,247.43v11.94c0,2.8-1.74,4.15-3.48,4.15s-3.54-1.4-3.54-4.15V247.43a3.6,3.6,0,0,1,3.54-3.84c1.74,0,3.48,1.18,3.48,3.84Z"/><path class="cls-1" d="M273.72,233.91h5.36V239h4.23v4.62h-4.23v17.58c0,2.39,1.05,4.4,3.19,6.62h-5.85a8.71,8.71,0,0,1-2.7-6.62V243.63H261.07c-1.43,0-3.44.75-3.44,3.1s3,3.84,5.1,4.71c4.75,2,7.37,4.66,7.28,9.16-.13,4.84-3.62,7.89-9.33,7.89-7.54,0-9.59-5.58-9.46-10.68h6c-.17,2.92.66,5.45,3.62,5.66a2.89,2.89,0,0,0,3.36-3c0-3.05-3.79-4.23-6.23-5.58-3.71-2-5.93-4.49-5.93-7.85s2.57-8.07,9.06-8.07h12.65v-5.1Z"/><polygon class="cls-1" points="208.58 267.83 202.95 267.83 196.41 231.12 202.65 231.12 206.05 253.84 210.41 231.12 216.43 231.12 220.44 253.84 224.36 231.12 230.07 231.12 223.66 267.83 217.82 267.83 213.42 242.85 208.58 267.83 208.58 267.83"/><path class="cls-1" d="M403,258h5.54c.08,3.4,1.87,5.67,4.05,5.71,1.57,0,3.49-.57,3.49-3.18,0-2-1.75-3.4-4-4.54-3.79-1.87-8.2-4.27-8.24-9.28s5-8.42,9.33-8.07,8.42,2.49,8.46,9.42h-5.76c.05-3-1.22-4.41-3.31-4.41a3.26,3.26,0,0,0-3,2.79c0,2.36,3.58,3.67,5.8,4.89,4.14,2.31,6.76,5.58,6.63,9.46-.09,4.06-3.79,7.63-9.64,7.72A9.49,9.49,0,0,1,403,258Z"/><path class="cls-3" d="M321.07,268.05h10.25a1.91,1.91,0,0,1,2,2,1.94,1.94,0,0,1-2,2H321.07v-4Z"/><path class="cls-3" d="M328.66,247v5.1a3.32,3.32,0,1,1-6.63,0V247c0-2.53,1.66-3.75,3.32-3.75s3.31,1.22,3.31,3.75Z"/></svg>