<svg id="whirlpool" xmlns="http://www.w3.org/2000/svg" viewBox="0 0 500 500"><defs><style>.cls-1{fill:#153e69;}</style></defs><polygon class="cls-1" points="137.38 194.34 115.45 274.5 102.7 274.5 87.2 216.27 71.47 274.5 58.72 274.5 36.78 194.34 49.42 194.34 65.04 252.57 80.77 194.34 93.29 194.34 109.14 252.57 124.75 194.34 137.38 194.34"/><path class="cls-1" d="M143.23,194.57l12.63-1v19.63l-.22,7.35h.46a43.83,43.83,0,0,1,16.31-3.21c10.22,0,17.1,4.59,17.1,22.16v35H176.88v-34c0-10.56-5.16-11.93-11-11.93a35,35,0,0,0-10,1.72V274.5H143.23Z"/><path class="cls-1" d="M206.85,195.38c6.55,0,7.58,3.78,7.58,8s-1.38,8.16-7.58,8.16-7.47-3.91-7.47-8.16,1.15-8,7.47-8m-6.32,22.73h12.64V274.5H200.53Z"/><path class="cls-1" d="M223.84,218.11h8.62l1.72,4.6h.8a23.63,23.63,0,0,1,15.51-5.4,22.18,22.18,0,0,1,2.64.11v12.41a47.58,47.58,0,0,0-7.12-.69,22,22,0,0,0-9.53,2.29V274.5H223.84Z"/><polygon class="cls-1" points="258.52 274.5 258.52 194.57 271.16 193.54 271.16 274.5 258.52 274.5"/><path class="cls-1" d="M361,217.31c17.92,0,24.81,10.57,24.81,29.28,0,17.57-6.43,29.06-25,29.06s-25.15-11.49-25.15-29.06c0-18.71,7.47-29.28,25.38-29.28m11.94,29.28c0-10.68-1.72-19.41-11.82-19.41s-12.75,8.39-12.75,19.41c0,10.22,2.07,19.07,12.18,19.07s12.39-8.39,12.39-19.07"/><path class="cls-1" d="M417.6,217.31c17.91,0,24.8,10.57,24.8,29.28,0,17.57-6.43,29.06-25,29.06s-25.15-11.49-25.15-29.06c0-18.71,7.46-29.28,25.38-29.28m11.94,29.28c0-10.68-1.73-19.41-11.83-19.41S405,235.57,405,246.59c0,10.22,2.07,19.07,12.18,19.07s12.4-8.39,12.4-19.07"/><polygon class="cls-1" points="450.58 274.5 450.58 194.57 463.21 193.54 463.21 274.5 450.58 274.5"/><path class="cls-1" d="M281.49,218.11H291l1,4.14c3.79-2.07,10.79-4.94,17.11-4.94,11.48,0,19.86,8.38,19.86,28.48,0,19.75-8.84,29.51-23.54,29.51a70.12,70.12,0,0,1-11.37-1.15V300l-12.63,1.38Zm12.63,45.94c3.56.11,5.52.23,9.19.23,7.81,0,13-4.13,13-20.56,0-11.26-4.6-14.24-12.86-14.24a28.66,28.66,0,0,0-9.31,1.61Z"/><path class="cls-1" d="M344,183.47c-9.45-10.95-39.42-1.33-72.87,21.82v5.84c29.46-20.94,55.43-30.6,62.86-22,9.29,10.76-13.81,46-51.6,78.57s-76,50.3-85.26,39.54c-4.82-5.59-.89-17.77,9.28-32.75h-5.91c-12.6,18.79-17.32,34.57-10.85,42.07,11.79,13.67,55.9-5,98.51-41.8s67.63-77.64,55.84-91.3"/></svg>