<svg id="york" xmlns="http://www.w3.org/2000/svg" viewBox="0 0 500 500"><defs><style>.cls-1{fill:#153e69;}.cls-1,.cls-2{fill-rule:evenodd;}.cls-2,.cls-3{fill:#fff;}</style></defs><polygon class="cls-1" points="171.33 296.28 160.64 296.28 160.64 261.85 133.01 203.89 160.43 203.89 173.38 233.89 173.46 233.89 186.42 203.89 213.83 203.89 186.47 261.85 186.47 296.28 171.33 296.28 171.33 296.28"/><path class="cls-1" d="M245.05,298.67c19.44,0,40-13.3,40.06-49.27.07-41.42-28.8-48.07-40.74-48.07s-40.8,6.65-40.74,48.07c.06,36,20.63,49.27,40.06,49.27Z"/><path class="cls-1" d="M289.71,296.28v-92h33.07c8.19,0,38.52-3.07,38.52,25.23,0,18.41-12.26,23.18-12.26,23.18S361,255.37,361,275.48c0,10.55-.89,16.56,2,19.29v1.85H338.47a29.15,29.15,0,0,1-2.05-10.23c0-5.45,1.36-13.67-2.73-19.09-3.36-4.47-17.73-3.07-17.73-3.07v32Z"/><path class="cls-1" d="M448.24,296.28l-31.37-57.73,28.47-34.83H416.53L394,232.18V203.89H368.47v92.39h24.89v-29l6.37-7.79,18,36.77Z"/><path class="cls-2" d="M245.05,276.16c4.61,0,14.33-4.77,14.33-26.08S249.66,224,244.55,224h-.35c-5.11,0-14.83,4.77-14.83,26.08s9.72,26.08,14.32,26.08Z"/><path class="cls-2" d="M315.79,243.44v-19s7.68,0,11.6,0c5.62.09,10.05,1.52,10.05,9.36s-4.51,9.56-11.41,9.66c-4.1.05-10.14,0-10.14,0Z"/><polygon class="cls-1" points="128.46 295.26 36.41 295.26 36.41 202.87 128.46 202.87 128.46 295.26 128.46 295.26"/><path class="cls-1" d="M447,212a8.76,8.76,0,1,1,8.78,8.66A8.62,8.62,0,0,1,447,212Zm8.78,7.22a7.2,7.2,0,1,0-7-7.22,7,7,0,0,0,7,7.22ZM454,217h-1.51V207h3.79c2.36,0,3.52.87,3.52,2.84a2.58,2.58,0,0,1-2.58,2.74L460,217h-1.7l-2.63-4.32H454V217Zm1.8-5.6c1.28,0,2.43-.09,2.43-1.62,0-1.24-1.13-1.47-2.17-1.47H454v3.09Z"/><path class="cls-3" d="M77.65,265.73l-6.93-4.33v7.26H64.83V253.58a18.23,18.23,0,0,1-5.46-1.89l-9,11.93-4.69-3.55,9-11.94a18.57,18.57,0,0,1-3.16-4.44l-14.22,4.59-1.79-5.59,14.2-4.59a19.12,19.12,0,0,1-.22-2.85,18.62,18.62,0,0,1,.25-3l-14.26-4.76,1.84-5.59,14.28,4.76a18.86,18.86,0,0,1,3.15-4.36l-9.12-12.21,4.72-3.52,9.12,12.2a18.71,18.71,0,0,1,5.35-1.83V202.87h5.89v6.24l6.93-4.33,2.07,3.33-9,5.62v16.33L85,221.83l.4-10.61,3.92.14-.3,8.16,5.4-3.11,3,5.11L92,224.63l7.2,3.85-1.84,3.45-9.36-5-14.16,8.15,14.27,8.31,9.41-5,1.82,3.47-7.23,3.82,5.4,3.14-3,5.08-5.4-3.14.26,8.16-3.93.13-.34-10.62-14.42-8.4v16.71l9,5.62-2.07,3.33ZM64.83,247.56V223a12.84,12.84,0,0,0-5.71,3.29,12.74,12.74,0,0,0,5.71,21.31Z"/></svg>